<?xml version="1.0" encoding="utf-8"?>
<!-- Generator: Adobe Illustrator 19.2.1, SVG Export Plug-In . SVG Version: 6.00 Build 0)  -->
<!DOCTYPE svg PUBLIC "-//W3C//DTD SVG 1.1//EN" "http://www.w3.org/Graphics/SVG/1.1/DTD/svg11.dtd">
<svg version="1.1" id="Layer_1" xmlns="http://www.w3.org/2000/svg" xmlns:xlink="http://www.w3.org/1999/xlink" x="0px" y="0px"
	 width="16px" height="16px" viewBox="0 0 16 16" enable-background="new 0 0 16 16" xml:space="preserve">
<path d="M3.409,2H8v2h2V1c0-0.553-0.448-1-1-1H1C0.448,0,0,0.447,0,1v9c0,0.266,0.105,0.52,0.293,0.707l5,5
	C5.484,15.898,5.74,16,6,16c0.129,0,0.259-0.024,0.383-0.076C6.756,15.77,7,15.404,7,15V6.016C7,5.751,6.895,5.497,6.708,5.31
	L3.409,2z M5,12.586l-3-3V3.42l3,3.009V12.586z"/>
<path d="M12,3.586L10.586,5l2,2H8v2h4.586l-2,2L12,12.414l3.707-3.707c0.391-0.391,0.391-1.023,0-1.414L12,3.586z"/>
</svg>
