<?xml version="1.0" encoding="UTF-8"?>
<svg width="40px" height="40px" viewBox="0 0 40 40" version="1.1" xmlns="http://www.w3.org/2000/svg" xmlns:xlink="http://www.w3.org/1999/xlink">
    <!-- Generator: Sketch 48.2 (47327) - http://www.bohemiancoding.com/sketch -->
    <desc>Created with Sketch.</desc>
    <defs>
        <circle id="path-1" cx="20" cy="20" r="20"></circle>
    </defs>
    <g id="Artboard" stroke="none" stroke-width="1" fill="none" fill-rule="evenodd">
        <g id="avatar-coder">
            <g id="Avatar-Copy-7">
                <use fill="#55A5FF" fill-rule="evenodd" xlink:href="#path-1"></use>
                <circle stroke="#FFFFFF" stroke-width="3" cx="20" cy="20" r="18.5"></circle>
                <circle stroke="#0681FF" stroke-width="1" cx="20" cy="20" r="19.5"></circle>
            </g>
            <path d="M28,14 L28,12 L22,12 L22,14 L24,14 L24,16 L16,16 L16,14 L18,14 L18,12 L12,12 L12,14 L14,14 L14,16 L12,16 L12,28 L28,28 L28,16 L26,16 L26,14 L28,14 L28,14 Z M22,19 C22.6,19 23,19.4 23,20 C23,20.6 22.6,21 22,21 C21.4,21 21,20.6 21,20 C21,19.4 21.4,19 22,19 L22,19 Z M18,19 C18.6,19 19,19.4 19,20 C19,20.6 18.6,21 18,21 C17.4,21 17,20.6 17,20 C17,19.4 17.4,19 18,19 L18,19 Z M24,25 L16,25 L16,23 L24,23 L24,25 L24,25 Z" id="Shape" fill="#FFFFFF"></path>
        </g>
    </g>
</svg>