<?xml version="1.0" encoding="utf-8"?>
<!-- Generator: Adobe Illustrator 19.2.1, SVG Export Plug-In . SVG Version: 6.00 Build 0)  -->
<!DOCTYPE svg PUBLIC "-//W3C//DTD SVG 1.1//EN" "http://www.w3.org/Graphics/SVG/1.1/DTD/svg11.dtd">
<svg version="1.1" id="Layer_1" xmlns="http://www.w3.org/2000/svg" xmlns:xlink="http://www.w3.org/1999/xlink" x="0px" y="0px"
	 width="16px" height="16px" viewBox="0 0 16 16" enable-background="new 0 0 16 16" xml:space="preserve">
<path fill="#59A7FF" d="M12.707,4.293l-1.414,1.414L13.586,8l-2.293,2.293l1.414,1.414l3-3c0.391-0.391,0.391-1.023,0-1.414L12.707,4.293z"/>
<path fill="#59A7FF" d="M3.293,11.707l1.414-1.414L2.414,8l2.293-2.293L3.293,4.293l-3,3c-0.391,0.391-0.391,1.023,0,1.414L3.293,11.707z"/>
<path fill="#59A7FF" d="M9.051,1.684l-4,12c-0.175,0.524,0.108,1.091,0.632,1.265C5.789,14.983,5.896,15,6,15c0.419,0,0.809-0.265,0.949-0.684l4-12
	c0.175-0.524-0.108-1.091-0.632-1.265C9.791,0.876,9.226,1.16,9.051,1.684z"/>
</svg>
