<?xml version="1.0" encoding="UTF-8"?>
<svg width="32px" height="32px" viewBox="0 0 32 32" version="1.1" xmlns="http://www.w3.org/2000/svg" xmlns:xlink="http://www.w3.org/1999/xlink">
    <!-- Generator: Sketch 46.1 (44463) - http://www.bohemiancoding.com/sketch -->
    <title>icon-website-performance</title>
    <desc>Created with Sketch.</desc>
    <defs></defs>
    <g id="Transitional-project-creation" stroke="none" stroke-width="1" fill="none" fill-rule="evenodd">
        <g id="icon-website-performance" stroke-width="2">
            <path d="M27,28 L5,28 C2.791,28 1,26.209 1,24 L1,24 L31,24 L31,24 C31,26.209 29.209,28 27,28 Z" id="Shape" stroke="#444444" fill="#747480" stroke-linecap="square"></path>
            <path d="M4,23 L4,6.375 C4,5.0628125 4.895,4 6,4 L26,4 C27.105,4 28,5.0628125 28,6.375 L28,23" id="Shape" stroke="#444444" fill="#FFFFFF" stroke-linecap="square"></path>
            <g id="Group-18" transform="translate(9.000000, 12.000000)" stroke="#1A85FF">
                <polyline id="Shape" points="13 0 7 6 3 2 0 5"></polyline>
                <polyline id="Shape" stroke-linecap="square" points="9 0 13 0 13 4"></polyline>
            </g>
        </g>
    </g>
</svg>