<?xml version="1.0" encoding="utf-8"?>
<!-- Generator: Adobe Illustrator 19.1.0, SVG Export Plug-In . SVG Version: 6.00 Build 0)  -->
<!DOCTYPE svg PUBLIC "-//W3C//DTD SVG 1.1//EN" "http://www.w3.org/Graphics/SVG/1.1/DTD/svg11.dtd">
<svg version="1.1" id="Layer_1" xmlns="http://www.w3.org/2000/svg" xmlns:xlink="http://www.w3.org/1999/xlink" x="0px" y="0px"
	 width="16px" height="16px" viewBox="0 0 16 16" enable-background="new 0 0 16 16" xml:space="preserve">
<path fill="#444444" d="M8,0C3.6,0,0,3.6,0,8s3.6,8,8,8s8-3.6,8-8S12.4,0,8,0z M8,14c-3.3,0-6-2.7-6-6s2.7-6,6-6s6,2.7,6,6
	S11.3,14,8,14z"/>
<circle data-color="color-2" fill="#444444" cx="8" cy="12" r="1"/>
<path data-color="color-2" fill="#444444" d="M7.1,5.5C7.3,5.2,7.6,5,8,5c0.6,0,1,0.4,1,1c0,0.3-0.1,0.4-0.6,0.7C7.8,7.1,7,7.7,7,9v1h2V9
	c0-0.2,0-0.3,0.5-0.6C10.1,8,11,7.4,11,6c0-1.7-1.3-3-3-3C6.9,3,5.9,3.6,5.4,4.5L4.9,5.4l1.7,1L7.1,5.5z"/>
</svg>
