<svg width="582" height="111" viewBox="0 0 582 111" xmlns="http://www.w3.org/2000/svg"><title>pointer-new-project</title><g fill="none" fill-rule="evenodd"><path d="M0 110c9.868-2.125 63.698-70.16 218-64 78.182 3.122 244 42 301 25 47.841-14.268 55.053-40.693 61.25-71" stroke="#FDA464" stroke-dasharray="21,17,2,17"/><path d="M581.025 11.182L580.25 0l-5.103 9.98" stroke="#FDA464" stroke-dasharray="21,17,2,17"/><path d="M0 101c9.868-2.125 63.698-70.16 218-64 78.182 3.122 244 42 301 25 47.841-14.268 55.053-40.693 61.25-71"/><path d="M581.025 2.182L580.25-9 575.147.98"/><path d="M134.705 41.45l-1.726-10.524 3.606-.592c1.19-.195 2.136-.105 2.835.27.7.375 1.128 1.035 1.282 1.98.08.481.02.936-.176 1.364-.197.428-.53.79-.995 1.084.593.06 1.08.279 1.462.654.38.376.62.862.718 1.46.162.988-.03 1.798-.577 2.432-.547.634-1.41 1.048-2.591 1.242l-3.838.63zm1.05-5.05l.54 3.29 2.03-.334c.573-.094.998-.31 1.274-.647.277-.337.373-.758.29-1.264-.18-1.094-.83-1.561-1.952-1.402l-2.182.358zm-.22-1.344l1.792-.294c.568-.093.992-.295 1.27-.605s.378-.702.3-1.174c-.085-.52-.294-.872-.629-1.054-.334-.183-.814-.223-1.44-.12l-1.779.291.485 2.956zm13.524 3.56c-.435.679-1.13 1.083-2.083 1.212-.851.115-1.53-.047-2.035-.486-.506-.44-.822-1.13-.95-2.074l-.687-5.088 1.763-.238.685 5.066c.135.997.616 1.439 1.444 1.327.856-.116 1.393-.501 1.61-1.156l-.763-5.64 1.764-.238 1.062 7.853-1.662.225-.148-.764zm5.998.147l-1.77.196-.873-7.876 1.769-.197.874 7.877zm-2.98-9.714a.945.945 0 0 1 .184-.706c.153-.198.389-.315.71-.35.32-.036.577.026.772.186.194.16.307.376.337.648a.916.916 0 0 1-.188.695c-.156.197-.393.313-.714.348-.32.036-.576-.025-.768-.184a.923.923 0 0 1-.332-.637zm7.288 9.293l-1.77.176-1.114-11.195 1.771-.176 1.113 11.195zm1.74-4.183c-.108-1.216.088-2.218.587-3.004.5-.787 1.224-1.222 2.172-1.306.837-.074 1.538.159 2.105.697l-.356-4.042 1.773-.157.989 11.207-1.606.142-.16-.81c-.473.689-1.152 1.072-2.037 1.15-.924.082-1.705-.224-2.342-.918-.637-.694-1.012-1.68-1.125-2.96zm1.786-.003c.07.802.28 1.415.63 1.837.348.423.806.61 1.376.56.724-.065 1.226-.435 1.504-1.112l-.297-3.37c-.382-.604-.935-.874-1.66-.81-.574.05-.996.317-1.267.8-.271.482-.367 1.18-.286 2.095zm16.796 2.803c-.087-.147-.169-.39-.246-.728a2.77 2.77 0 0 1-2.028 1c-.795.045-1.456-.146-1.983-.572a2.18 2.18 0 0 1-.846-1.64c-.047-.843.23-1.508.832-1.994.601-.485 1.484-.76 2.65-.825l1.09-.06-.03-.52c-.022-.41-.155-.731-.398-.964-.243-.234-.598-.338-1.066-.312-.405.023-.73.142-.978.359a.94.94 0 0 0-.345.793l-1.777.099c-.024-.434.097-.848.364-1.242s.642-.712 1.125-.954a4.13 4.13 0 0 1 1.638-.413c.926-.052 1.678.14 2.255.575.576.435.896 1.074.957 1.917l.198 3.568c.04.712.17 1.275.394 1.688l.007.124-1.813.1zm-2.024-1.172c.351-.02.677-.123.977-.31.3-.189.52-.43.66-.727l-.083-1.492-.958.053c-.658.037-1.146.179-1.465.426-.319.248-.467.581-.444 1 .02.342.148.607.386.797.238.19.547.274.927.253zm12.777-1.635l1.066-5.512 1.735-.06-1.88 7.995-1.464.052-1.89-5.38-1.477 5.498-1.464.052-2.446-7.844 1.735-.06 1.471 5.363 1.435-5.466 1.34-.047 1.839 5.41zm8.263 2.58c-1.128.01-2.045-.337-2.752-1.041-.707-.704-1.066-1.647-1.077-2.829l-.002-.22c-.007-.79.139-1.499.438-2.124.3-.625.724-1.114 1.272-1.466a3.398 3.398 0 0 1 1.841-.536c1.08-.01 1.916.326 2.51 1.01.596.683.899 1.654.91 2.914l.007.717-5.178.048c.06.653.283 1.169.67 1.546.386.378.87.564 1.45.558.816-.007 1.477-.343 1.984-1.006l.968.906a3.204 3.204 0 0 1-1.26 1.114c-.528.266-1.121.402-1.78.408zm-.274-6.788c-.488.004-.88.179-1.178.523-.297.345-.485.823-.562 1.434l3.391-.031-.001-.132c-.045-.595-.207-1.044-.489-1.347-.28-.303-.668-.452-1.16-.447zm9.797 4.577a.807.807 0 0 0-.385-.728c-.26-.169-.692-.32-1.296-.452-.605-.132-1.109-.298-1.512-.497-.885-.438-1.323-1.064-1.316-1.88.006-.683.3-1.252.88-1.706.58-.453 1.315-.676 2.204-.668.947.009 1.71.25 2.29.724.578.474.864 1.085.858 1.832l-1.78-.016a1.097 1.097 0 0 0-.373-.857c-.252-.23-.588-.346-1.008-.35-.39-.003-.71.084-.958.262a.854.854 0 0 0-.376.722.721.721 0 0 0 .338.64c.228.154.69.31 1.387.47.697.161 1.243.35 1.64.565.395.216.688.474.879.774.19.3.283.662.279 1.086-.007.713-.307 1.288-.902 1.724-.595.437-1.37.65-2.328.642-.65-.006-1.227-.129-1.732-.368-.506-.239-.899-.565-1.178-.977a2.288 2.288 0 0 1-.413-1.33l1.729.016c.02.42.176.745.467.975.29.23.678.347 1.161.351.47.004.826-.081 1.072-.257a.827.827 0 0 0 .373-.697zm3.548-1.769c.02-.776.192-1.471.516-2.085a3.37 3.37 0 0 1 1.333-1.401c.565-.32 1.21-.47 1.932-.452 1.069.028 1.927.395 2.575 1.1.649.706.985 1.628 1.009 2.767l-.004.418c-.02.78-.189 1.475-.505 2.082a3.33 3.33 0 0 1-1.326 1.394c-.567.322-1.217.474-1.95.455-1.117-.03-2.002-.425-2.654-1.187-.651-.762-.961-1.763-.929-3.003l.003-.088zm1.775.2c-.022.816.13 1.458.455 1.928s.787.713 1.388.73c.6.015 1.073-.207 1.42-.667.347-.46.532-1.141.555-2.044.021-.8-.134-1.44-.466-1.918-.332-.477-.793-.724-1.384-.74-.58-.014-1.048.204-1.402.657-.353.452-.542 1.137-.566 2.055zm9.532-3.654l.012.83c.587-.623 1.363-.912 2.329-.866 1.058.05 1.763.489 2.115 1.317.614-.783 1.443-1.15 2.486-1.1.873.04 1.512.313 1.916.816.404.503.589 1.225.554 2.167l-.245 5.202-1.778-.084.243-5.15c.024-.503-.069-.876-.277-1.12-.209-.245-.567-.38-1.074-.403-.405-.02-.74.073-1.006.278-.267.205-.46.481-.578.827l-.249 5.43-1.778-.084.246-5.21c.02-.932-.434-1.42-1.361-1.464-.712-.034-1.23.233-1.555.8l-.27 5.735-1.778-.084.372-7.916 1.676.08zm14.932 9.189c-1.124-.092-2.006-.52-2.647-1.286-.64-.765-.912-1.737-.816-2.914l.018-.22c.065-.788.275-1.48.63-2.075a3.484 3.484 0 0 1 1.4-1.344 3.398 3.398 0 0 1 1.881-.368c1.076.088 1.879.5 2.409 1.233.53.734.744 1.73.641 2.985l-.058.715-5.161-.422c0 .656.175 1.19.526 1.6.351.412.816.64 1.395.688.813.067 1.502-.208 2.067-.823l.881.991a3.204 3.204 0 0 1-1.356.995c-.55.217-1.153.299-1.81.245zm.343-6.784c-.487-.04-.894.098-1.221.414-.327.316-.557.775-.69 1.377l3.38.276.01-.13c.01-.598-.111-1.06-.363-1.387-.253-.326-.625-.51-1.116-.55zm13.629 8.047c-.063-.158-.105-.41-.128-.756a2.77 2.77 0 0 1-2.16.667c-.792-.082-1.415-.374-1.868-.878a2.18 2.18 0 0 1-.577-1.753c.086-.84.465-1.453 1.136-1.837.67-.385 1.586-.518 2.747-.398l1.085.113.054-.518c.042-.408-.038-.746-.241-1.015-.203-.269-.538-.427-1.004-.475-.403-.042-.744.024-1.022.2a.94.94 0 0 0-.466.728l-1.77-.183c.045-.432.23-.822.555-1.169.326-.346.746-.601 1.261-.764a4.13 4.13 0 0 1 1.683-.15c.923.096 1.635.404 2.136.924.5.52.715 1.202.643 2.044l-.368 3.555c-.073.71-.032 1.285.123 1.728l-.013.124-1.806-.187zm-1.814-1.476c.35.037.688-.014 1.014-.153.326-.138.581-.342.766-.612l.154-1.487-.954-.098c-.656-.068-1.16-.005-1.515.19-.354.193-.552.5-.595.917-.035.34.05.622.254.847.206.225.497.357.876.396zm13.018-1.136c-.139 1.218-.526 2.158-1.162 2.82-.636.662-1.42.94-2.35.834-.864-.099-1.523-.462-1.978-1.088l-.426 3.733-1.768-.202 1.244-10.901 1.63.186-.018.809c.59-.572 1.332-.806 2.225-.705.96.11 1.673.554 2.137 1.332.464.777.624 1.802.479 3.073l-.013.11zm-1.743-.354c.09-.786.004-1.427-.256-1.923-.26-.497-.682-.779-1.264-.845-.723-.082-1.276.157-1.66.717l-.398 3.493c.25.648.74 1.014 1.467 1.097.563.064 1.03-.113 1.399-.53.37-.417.607-1.087.712-2.009zm10.647 1.479c-.15 1.216-.545 2.153-1.186 2.81-.642.656-1.428.927-2.358.813-.863-.106-1.519-.474-1.968-1.105l-.458 3.73-1.766-.218 1.338-10.89 1.628.2-.025.81c.596-.567 1.34-.796 2.231-.686.96.118 1.668.568 2.126 1.35.457.781.608 1.807.452 3.077l-.014.109zm-1.74-.369c.096-.785.016-1.427-.24-1.926-.256-.499-.674-.784-1.256-.855-.722-.089-1.277.145-1.666.703l-.428 3.49c.245.65.73 1.019 1.457 1.108.563.07 1.03-.103 1.403-.517.373-.415.617-1.082.73-2.003zm7.935 2.94a.807.807 0 0 0-.295-.77c-.237-.197-.648-.398-1.232-.602-.585-.204-1.065-.429-1.442-.675-.826-.54-1.186-1.215-1.081-2.023.088-.678.447-1.208 1.077-1.589.63-.38 1.387-.514 2.268-.4.94.122 1.668.453 2.187.993.518.54.729 1.18.633 1.921l-1.765-.229a1.097 1.097 0 0 0-.268-.895c-.223-.258-.542-.414-.959-.468-.387-.05-.715-.002-.982.146a.854.854 0 0 0-.46.671.721.721 0 0 0 .259.677c.208.18.648.39 1.321.633.673.242 1.193.494 1.56.756s.627.553.78.873c.153.32.202.691.148 1.112-.092.707-.46 1.242-1.102 1.604-.643.362-1.439.482-2.388.358-.644-.083-1.203-.274-1.676-.572-.474-.297-.824-.668-1.052-1.111a2.288 2.288 0 0 1-.251-1.37l1.714.223c-.03.42.086.76.347 1.024.262.263.632.425 1.111.487.465.06.83.018 1.095-.127a.827.827 0 0 0 .453-.647zm14.909 1.736l1.99-5.25 1.72.236-3.216 7.558-1.451-.199-.945-5.622-2.393 5.165-1.452-.199-1.072-8.146 1.72.236.535 5.536 2.346-5.141 1.328.182.89 5.644zm6.173 3.363l-1.762-.25 1.111-7.846 1.762.25-1.111 7.846zm-.471-10.149a.945.945 0 0 1 .353-.638c.197-.154.455-.21.774-.164.319.045.553.17.702.373.148.204.203.44.165.712a.916.916 0 0 1-.355.626c-.199.152-.458.205-.777.16-.32-.045-.552-.168-.699-.369a.923.923 0 0 1-.163-.7zm6.49 1.06l-.273 1.906 1.385.198-.187 1.305-1.385-.198-.626 4.38c-.043.3-.014.524.085.674.1.15.302.247.606.29.203.03.412.034.627.016l-.195 1.363a4.383 4.383 0 0 1-1.184 0c-1.354-.193-1.923-1.036-1.71-2.53l.635-4.444-1.29-.185.186-1.305 1.291.185.273-1.907 1.761.251zm4.582 3.48c.671-.583 1.447-.812 2.326-.685 1.672.242 2.383 1.319 2.131 3.231l-.74 5.125-1.76-.254.73-5.06c.078-.541.016-.941-.186-1.2-.202-.258-.53-.42-.985-.486-.705-.102-1.277.136-1.716.714l-.809 5.604-1.761-.254 1.607-11.135 1.761.254-.598 4.147zm18.902 6.387c-.271 1.11-.815 1.928-1.632 2.452-.817.525-1.827.699-3.03.523-.84-.123-1.552-.43-2.134-.923-.581-.492-.993-1.13-1.233-1.916-.24-.785-.297-1.665-.17-2.638l.145-.985c.145-.996.45-1.847.914-2.554.463-.707 1.055-1.217 1.775-1.531.72-.315 1.511-.408 2.376-.282 1.164.17 2.055.624 2.673 1.36.618.738.9 1.692.847 2.863l-1.826-.267c.024-.771-.117-1.35-.423-1.738-.306-.388-.802-.632-1.488-.732-.797-.117-1.452.085-1.965.604-.513.52-.856 1.342-1.03 2.466l-.138.935c-.166 1.14-.09 2.04.231 2.699.32.658.875 1.045 1.662 1.16.72.106 1.285.023 1.695-.248.41-.27.718-.775.925-1.515l1.826.267zm1.704-.317c.112-.768.366-1.438.76-2.01a3.37 3.37 0 0 1 1.492-1.232c.6-.25 1.256-.322 1.971-.217 1.058.155 1.867.621 2.427 1.4.56.777.783 1.733.67 2.866l-.052.414c-.114.773-.364 1.442-.75 2.008a3.33 3.33 0 0 1-1.483 1.226c-.602.252-1.265.325-1.99.218-1.106-.162-1.938-.66-2.494-1.494-.556-.835-.744-1.865-.564-3.092l.013-.087zm1.738.41c-.118.807-.044 1.463.222 1.969.267.505.697.801 1.291.889.595.087 1.091-.077 1.49-.493.4-.415.664-1.07.795-1.963.116-.792.038-1.445-.234-1.96-.273-.513-.701-.813-1.286-.898-.575-.085-1.065.077-1.47.483-.405.407-.674 1.065-.808 1.973zm9.737-2.66l-.082.914c.682-.616 1.495-.855 2.437-.717 1.633.239 2.327 1.295 2.082 3.17l-.758 5.18-1.76-.257.743-5.08c.072-.498.019-.882-.161-1.152-.18-.271-.514-.442-1.002-.513-.71-.104-1.286.14-1.728.731l-.817 5.58-1.76-.257 1.146-7.842 1.66.243zm8.748 1.273l-.08.914c.681-.617 1.493-.856 2.435-.72 1.634.238 2.329 1.293 2.086 3.168l-.753 5.182-1.76-.256.737-5.08c.072-.498.018-.882-.162-1.153-.18-.27-.514-.44-1.002-.512-.71-.103-1.286.141-1.728.734l-.81 5.58L348 53.02l1.14-7.843 1.66.241zm9.417 9.51c-1.117-.16-1.971-.642-2.564-1.445-.592-.803-.805-1.789-.637-2.958l.031-.218c.113-.783.364-1.46.755-2.034.39-.573.883-.992 1.479-1.256a3.398 3.398 0 0 1 1.9-.253c1.069.154 1.845.613 2.33 1.378.484.765.637 1.771.458 3.018l-.102.71-5.126-.735c-.04.655.103 1.198.429 1.63.325.431.775.688 1.35.77.807.117 1.512-.115 2.113-.695l.82 1.043a3.204 3.204 0 0 1-1.415.91c-.562.184-1.169.228-1.821.135zm.754-6.751c-.483-.07-.897.044-1.243.34-.346.295-.603.739-.772 1.331l3.356.482.02-.13c.045-.595-.048-1.064-.28-1.406-.232-.341-.592-.547-1.08-.617zm7.674 6.506c.44.062.823-.014 1.149-.23.326-.215.526-.51.598-.884l1.661.235c-.088.485-.305.92-.65 1.302-.345.383-.78.663-1.302.84a3.492 3.492 0 0 1-1.633.147c-1.098-.155-1.918-.633-2.46-1.435-.543-.801-.726-1.828-.55-3.08l.026-.181c.169-1.195.623-2.106 1.363-2.734.74-.627 1.66-.863 2.763-.708.933.132 1.655.511 2.165 1.138.51.627.718 1.385.622 2.274l-1.66-.235c.044-.452-.058-.844-.304-1.174-.247-.331-.593-.528-1.038-.59-.57-.081-1.04.063-1.407.433-.368.37-.614.975-.737 1.815l-.04.283c-.12.851-.057 1.507.191 1.969.248.462.662.733 1.243.815zm8.432-7.49l-.264 1.907 1.386.192-.18 1.306-1.386-.192-.607 4.382c-.041.3-.012.525.088.674.1.15.302.246.607.288.203.028.412.032.627.012l-.189 1.364a4.383 4.383 0 0 1-1.184.007c-1.354-.188-1.928-1.029-1.72-2.523l.615-4.448-1.292-.178.18-1.306 1.292.178.264-1.908 1.763.244z" fill="#FB7D22"/></g></svg>