<?xml version="1.0" encoding="UTF-8"?>
<svg width="50px" height="50px" viewBox="0 0 50 50" version="1.1" xmlns="http://www.w3.org/2000/svg" xmlns:xlink="http://www.w3.org/1999/xlink">
    <!-- Generator: Sketch 44.1 (41455) - http://www.bohemiancoding.com/sketch -->
    <title>icon-product-app</title>
    <desc>Created with Sketch.</desc>
    <defs></defs>
    <g id="spec" stroke="none" stroke-width="1" fill="none" fill-rule="evenodd">
        <g id="specification" transform="translate(-666.000000, -1004.000000)">
            <g id="icon-product-app" transform="translate(666.000000, 1004.000000)">
                <circle id="round-background" fill="#EBEBEB" cx="25" cy="25" r="25"></circle>
                <g id="icon" transform="translate(10.000000, 10.000000)">
                    <rect id="Rectangle" stroke="#3A3A3F" stroke-width="2" fill="#FFFFFF" x="0" y="0" width="27" height="22" rx="2"></rect>
                    <rect id="Rectangle-2" fill="#CFE6FF" x="6" y="2" width="19" height="18" rx="0.5"></rect>
                    <polygon id="Shape" fill="#3A3A3F" fill-rule="nonzero" points="3 9 3 13 5 13 5 9"></polygon>
                    <path d="M28,30 L22,30 C20.8136364,30 20,29.105 20,28 L20,14 C20,12.895 20.8136364,12 22,12 L28,12 C29.1863636,12 30,12.895 30,14 L30,28 C30,29.105 29.1863636,30 28,30 Z" id="Shape" stroke="#3A3A3F" stroke-width="2" fill="#FFFFFF" stroke-linecap="square"></path>
                    <path d="M24.4,26 L25.3333333,26" id="Shape" stroke="#3A3A3F" stroke-width="2" stroke-linecap="square"></path>
                </g>
            </g>
        </g>
    </g>
</svg>