<?xml version="1.0" encoding="UTF-8"?>
<svg width="32px" height="32px" viewBox="0 0 32 32" version="1.1" xmlns="http://www.w3.org/2000/svg" xmlns:xlink="http://www.w3.org/1999/xlink">
    <!-- Generator: Sketch 46.2 (44496) - http://www.bohemiancoding.com/sketch -->
    <title>product-cat-design</title>
    <desc>Created with Sketch.</desc>
    <defs></defs>
    <g id="Symbols" stroke="none" stroke-width="1" fill="none" fill-rule="evenodd">
        <g id="product-cat-design">
            <g id="web-design" transform="translate(1.000000, 2.000000)">
                <rect id="Rectangle-5" fill="#CEE6FF" x="0" y="2" width="27" height="5"></rect>
                <rect id="Rectangle-4" fill="#FFFFFF" x="0" y="7" width="30" height="21"></rect>
                <polyline id="Shape" stroke="#3A3A3F" stroke-width="2" points="30 10 30 28 0 28 0 2 25.003 2"></polyline>
                <path d="M6,2 L6,7" id="Shape" stroke="#3A3A3F" stroke-width="2" stroke-linecap="square"></path>
                <path d="M0,7 L20.003,7" id="Shape" stroke="#3A3A3F" stroke-width="2"></path>
                <path d="M21.003,12 L18.003,9 L26.382,0.621 C27.21,-0.207 28.554,-0.207 29.382,0.621 L29.382,0.621 C30.21,1.449 30.21,2.793 29.382,3.621 L21.003,12 Z" id="Shape" stroke="#3A3A3F" stroke-width="2" fill="#C3C3C8" stroke-linecap="square"></path>
                <path d="M12.91,12.874 C14.075,11.709 15.964,11.709 17.13,12.874 C18.296,14.039 18.295,15.929 17.13,17.094 C15.965,18.259 12.003,18 12.003,18 C12.003,18 11.894,13.89 12.91,12.874 Z" id="Shape" stroke="#3A3A3F" stroke-width="2" fill="#55A5FF" stroke-linecap="square"></path>
            </g>
        </g>
    </g>
</svg>