<?xml version="1.0" encoding="UTF-8"?>
<svg width="32px" height="32px" viewBox="0 0 32 32" version="1.1" xmlns="http://www.w3.org/2000/svg" xmlns:xlink="http://www.w3.org/1999/xlink">
    <!-- Generator: Sketch 46.2 (44496) - http://www.bohemiancoding.com/sketch -->
    <title>icon-chatbot-2</title>
    <desc>Created with Sketch.</desc>
    <defs></defs>
    <g id="Transitional-project-creation" stroke="none" stroke-width="1" fill="none" fill-rule="evenodd">
        <g id="icon-chatbot-2">
            <g transform="translate(1.000000, 1.000000)">
                <g id="chat-46" transform="translate(0.000000, 4.000000)" stroke-linecap="square" stroke-width="2" stroke="#444444">
                    <polygon id="Shape" fill="#59A7FF" points="30 5 30 20 26 20 26 25 19 20 13 20 13 5"></polygon>
                    <polygon id="Shape" fill="#FFFFFF" points="24 0 0 0 0 17 5 17 5 24 13 17 24 17"></polygon>
                </g>
                <rect id="Rectangle-path" stroke="#444444" stroke-width="2" stroke-linecap="square" x="4" y="13" width="16" height="4"></rect>
                <rect id="Rectangle-10" fill="#444444" x="7" y="12" width="2" height="4"></rect>
                <rect id="Rectangle-10" fill="#444444" x="11" y="12" width="2" height="4"></rect>
                <rect id="Rectangle-10" fill="#444444" x="15" y="12" width="2" height="4"></rect>
                <circle id="Oval-4" fill="#444444" cx="7.5" cy="8.5" r="1.5"></circle>
                <circle id="Oval-4" fill="#444444" cx="16.5" cy="8.5" r="1.5"></circle>
                <path d="M4,4 L4,1" id="Shape" stroke="#444444" stroke-width="2" stroke-linecap="square"></path>
                <path d="M20,4 L20,1" id="Shape" stroke="#444444" stroke-width="2" stroke-linecap="square"></path>
                <path d="M1,0 L7,0" id="Shape" stroke="#444444" stroke-width="2" stroke-linecap="square"></path>
                <path d="M17,0 L23,0" id="Shape" stroke="#444444" stroke-width="2" stroke-linecap="square"></path>
            </g>
        </g>
    </g>
</svg>