<?xml version="1.0" encoding="UTF-8" standalone="no"?>
<svg width="64" height="64" viewBox="0 0 64 64" xmlns="http://www.w3.org/2000/svg" xmlns:xlink="http://www.w3.org/1999/xlink">
  <g fill="none" stroke="black" strokeWidth="2" strokeMiterlimit="10">
    <path d="M10 19h4M10 23h4M10 27h4M10 31h4M10 35h4M10 39h4M10 43h4M10 47h4M10 51h4M18 19h8M18 23h14M18 27h14M34 27h10M24 31h8M34 31h6M24 35h8M34 35h10M24 39h8M34 39h8M18 43h14M18 47h14M34 47h10M40 51h-6M32 51h-8M46 47h4M44 39h10M36 61H1V1h58v17M1 9h58M4 5h2M8 5h2M12 5h2M17 1v8M20 5h36"/>
    <path d="M36 57H5V13h50v5M53 59h-4M53 25h-4"/>
    <path d="M39 24v-1a2 2 0 0 1 2-2h20a2 2 0 0 1 2 2v38a2 2 0 0 1-2 2H41a2 2 0 0 1-2-2v-6h24M42 31h7M42 51h10"/>
  </g>
</svg>
