<?xml version="1.0" encoding="UTF-8" standalone="no"?>
<svg width="16px" height="13px" viewBox="0 0 16 13" version="1.1" xmlns="http://www.w3.org/2000/svg" xmlns:xlink="http://www.w3.org/1999/xlink">
    <!-- Generator: Sketch 39.1 (31720) - http://www.bohemiancoding.com/sketch -->
    <title>Combined Shape</title>
    <desc>Created with Sketch.</desc>
    <defs></defs>
    <g id="Flows-&amp;-Components" stroke="none" stroke-width="1" fill="none" fill-rule="evenodd">
        <g id="Team-Management" transform="translate(-2729.000000, -616.000000)" fill="#262628">
            <g id="Group-3" transform="translate(2400.000000, 488.000000)">
                <g id="member---TE-action" transform="translate(0.000000, 105.000000)">
                    <path d="M340.0005,36 L345.0005,36 L345.0005,34 L340.0005,34 L340.0005,36 Z M340.0005,32 L345.0005,32 L345.0005,30 L340.0005,30 L340.0005,32 Z M340.0005,28 L345.0005,28 L345.0005,26 L340.0005,26 L340.0005,28 Z M334,34 L338,34 L338,36 L334,36 C331.243,36 329,33.757 329,31 C329,28.243 331.243,26 334,26 L334,23 L338,27 L334,31 L334,28 C332.346,28 331,29.346 331,31 C331,32.654 332.346,34 334,34 Z" id="Combined-Shape"></path>
                </g>
            </g>
        </g>
    </g>
</svg>