<?xml version="1.0" encoding="UTF-8"?>
<svg width="34px" height="34px" viewBox="0 0 34 34" version="1.1" xmlns="http://www.w3.org/2000/svg" xmlns:xlink="http://www.w3.org/1999/xlink">
    <!-- Generator: Sketch 47 (45396) - http://www.bohemiancoding.com/sketch -->
    <title>status icon/canceled</title>
    <desc>Created with Sketch.</desc>
    <defs>
        <filter x="-1.3%" y="-1.6%" width="102.6%" height="103.7%" filterUnits="objectBoundingBox" id="filter-1">
            <feOffset dx="0" dy="2" in="SourceAlpha" result="shadowOffsetOuter1"></feOffset>
            <feGaussianBlur stdDeviation="4.5" in="shadowOffsetOuter1" result="shadowBlurOuter1"></feGaussianBlur>
            <feColorMatrix values="0 0 0 0 0.149019608   0 0 0 0 0.149019608   0 0 0 0 0.156862745  0 0 0 0.15 0" type="matrix" in="shadowBlurOuter1" result="shadowMatrixOuter1"></feColorMatrix>
            <feMerge>
                <feMergeNode in="shadowMatrixOuter1"></feMergeNode>
                <feMergeNode in="SourceGraphic"></feMergeNode>
            </feMerge>
        </filter>
    </defs>
    <g id="Transition-updates-" stroke="none" stroke-width="1" fill="none" fill-rule="evenodd" opacity="0.5">
        <g id="Projec-grid-update" transform="translate(-1115.000000, -815.000000)" fill="#5D5D66">
            <g id="Group" filter="url(#filter-1)" transform="translate(40.000000, 90.000000)">
                <g id="status-icon/canceled" transform="translate(1084.000000, 732.000000)">
                    <g id="ban">
                        <path d="M8,0 C3.6,0 0,3.6 0,8 C0,12.4 3.6,16 8,16 C12.4,16 16,12.4 16,8 C16,3.6 12.4,0 8,0 Z M8,2 C9.3,2 10.5,2.4 11.5,3.1 L3.1,11.5 C2.4,10.5 2,9.3 2,8 C2,4.7 4.7,2 8,2 Z M8,14 C6.7,14 5.5,13.6 4.5,12.9 L12.9,4.5 C13.6,5.5 14,6.7 14,8 C14,11.3 11.3,14 8,14 Z" id="Shape" fill-rule="nonzero"></path>
                    </g>
                </g>
            </g>
        </g>
    </g>
</svg>