<?xml version="1.0" encoding="utf-8"?>
<!-- Generator: Adobe Illustrator 18.1.1, SVG Export Plug-In . SVG Version: 6.00 Build 0)  -->
<!DOCTYPE svg PUBLIC "-//W3C//DTD SVG 1.1//EN" "http://www.w3.org/Graphics/SVG/1.1/DTD/svg11.dtd">
<svg version="1.1" id="Layer_1" xmlns="http://www.w3.org/2000/svg" xmlns:xlink="http://www.w3.org/1999/xlink" x="0px" y="0px"
	 width="32px" height="32px" viewBox="0 0 32 32" enable-background="new 0 0 32 32" xml:space="preserve">
<path d="M29,1H3C1.3,1,0,2.3,0,4v19c0,1.7,1.3,3,3,3h9v3H9c-0.6,0-1,0.4-1,1s0.4,1,1,1h14c0.6,0,1-0.4,1-1s-0.4-1-1-1h-3v-3h9
	c1.7,0,3-1.3,3-3V4C32,2.3,30.7,1,29,1z M3,3h26c0.6,0,1,0.4,1,1v14H2V4C2,3.4,2.4,3,3,3z M18,29h-4v-3h4V29z M29,24H3
	c-0.6,0-1-0.4-1-1v-3h28v3C30,23.6,29.6,24,29,24z"/>
<path d="M15,7h2c0.6,0,1-0.4,1-1s-0.4-1-1-1h-2c-0.6,0-1,0.4-1,1S14.4,7,15,7z"/>
</svg>
