<?xml version="1.0" encoding="utf-8"?>
<!-- Generator: Adobe Illustrator 18.1.1, SVG Export Plug-In . SVG Version: 6.00 Build 0)  -->
<!DOCTYPE svg PUBLIC "-//W3C//DTD SVG 1.1//EN" "http://www.w3.org/Graphics/SVG/1.1/DTD/svg11.dtd">
<svg version="1.1" id="Layer_1" xmlns="http://www.w3.org/2000/svg" xmlns:xlink="http://www.w3.org/1999/xlink" x="0px" y="0px"
	 width="32px" height="32px" viewBox="0 0 32 32" enable-background="new 0 0 32 32" xml:space="preserve">
<path d="M7,27h1.2L9,31.2c0.1,0.5,0.5,0.8,1,0.8h10c0.5,0,0.9-0.3,1-0.8l0.8-4.2H23c1.7,0,3-1.3,3-3v-5h1c0.6,0,1-0.4,1-1v-4
	c0-0.6-0.4-1-1-1h-1V8c0-1.7-1.3-3-3-3h-1.2L21,0.8C20.9,0.3,20.5,0,20,0H10C9.5,0,9.1,0.3,9,0.8L8.2,5H7C5.3,5,4,6.3,4,8v16
	C4,25.7,5.3,27,7,27z M19.2,30h-8.4l-0.6-3h9.6L19.2,30z M10.8,2h8.4l0.6,3h-9.6L10.8,2z M6,8c0-0.6,0.4-1,1-1h16c0.6,0,1,0.4,1,1
	v16c0,0.6-0.4,1-1,1H7c-0.6,0-1-0.4-1-1V8z"/>
<path d="M15,17h5c0.6,0,1-0.4,1-1s-0.4-1-1-1h-4v-4c0-0.6-0.4-1-1-1s-1,0.4-1,1v5C14,16.6,14.4,17,15,17z"/>
</svg>
