<?xml version="1.0" encoding="utf-8"?>
<!-- Generator: Adobe Illustrator 19.1.0, SVG Export Plug-In . SVG Version: 6.00 Build 0)  -->
<!DOCTYPE svg PUBLIC "-//W3C//DTD SVG 1.1//EN" "http://www.w3.org/Graphics/SVG/1.1/DTD/svg11.dtd">
<svg version="1.1" id="Layer_1" xmlns="http://www.w3.org/2000/svg" xmlns:xlink="http://www.w3.org/1999/xlink" x="0px" y="0px"
	 width="48px" height="48px" viewBox="0 0 48 48" enable-background="new 0 0 48 48" xml:space="preserve">
<path d="M11.2,37.1l1.8,9.1c0.1,0.5,0.5,0.8,1,0.8h16c0.5,0,0.9-0.3,1-0.8l1.8-9.1c2.5-2.1,4.5-4.9,5.5-8.1H42c0.6,0,1-0.4,1-1v-8
	c0-0.6-0.4-1-1-1h-3.8c-1-3.2-2.9-6-5.5-8.1L31,1.8C30.9,1.3,30.5,1,30,1H14c-0.5,0-0.9,0.3-1,0.8l-1.8,9.1C7.4,14,5,18.7,5,24
	C5,29.3,7.4,34,11.2,37.1z M29.2,45H14.8l-1.3-6.3c2.5,1.4,5.4,2.3,8.4,2.3c3.1,0,5.9-0.8,8.4-2.3L29.2,45z M41,21v6h-2.3
	c0.2-1,0.3-2,0.3-3s-0.1-2-0.3-3H41z M14.8,3h14.4l1.3,6.3C27.9,7.8,25.1,7,22,7s-5.9,0.8-8.4,2.3L14.8,3z M22,9c8.3,0,15,6.7,15,15
	s-6.7,15-15,15c-3.5,0-6.7-1.2-9.3-3.2c0,0-0.1-0.1-0.2-0.1C9.2,32.9,7,28.7,7,24C7,15.7,13.7,9,22,9z"/>
<path d="M22,25h6c0.6,0,1-0.4,1-1s-0.4-1-1-1h-5v-5c0-0.6-0.4-1-1-1s-1,0.4-1,1v6C21,24.6,21.4,25,22,25z"/>
</svg>
