<?xml version="1.0" encoding="utf-8"?>
<!-- Generator: Adobe Illustrator 19.2.1, SVG Export Plug-In . SVG Version: 6.00 Build 0)  -->
<!DOCTYPE svg PUBLIC "-//W3C//DTD SVG 1.1//EN" "http://www.w3.org/Graphics/SVG/1.1/DTD/svg11.dtd">
<svg version="1.1" id="Layer_1" xmlns="http://www.w3.org/2000/svg" xmlns:xlink="http://www.w3.org/1999/xlink" x="0px" y="0px"
	 width="16px" height="16px" viewBox="0 0 16 16" enable-background="new 0 0 16 16" xml:space="preserve">
<path d="M11,0C9.664,0,8.408,0.521,7.465,1.465L6.309,2.621c-0.391,0.391-0.391,1.023,0,1.414s1.023,0.391,1.414,0l1.156-1.156
	c1.133-1.133,3.109-1.133,4.242,0C13.688,3.445,14,4.198,14,5s-0.312,1.555-0.879,2.121l-1.156,1.156
	c-0.391,0.391-0.391,1.023,0,1.414c0.195,0.195,0.451,0.293,0.707,0.293s0.512-0.098,0.707-0.293l1.156-1.156
	C15.479,7.592,16,6.336,16,5s-0.521-2.592-1.465-3.535C13.592,0.521,12.336,0,11,0z"/>
<path d="M4.035,7.723c0.391-0.391,0.391-1.023,0-1.414s-1.023-0.391-1.414,0L1.465,7.465C0.521,8.408,0,9.664,0,11
	s0.521,2.592,1.465,3.535C2.408,15.479,3.664,16,5,16s2.592-0.521,3.535-1.465l1.156-1.156c0.391-0.391,0.391-1.023,0-1.414
	s-1.023-0.391-1.414,0l-1.156,1.156c-1.133,1.133-3.109,1.133-4.242,0C2.312,12.555,2,11.802,2,11s0.312-1.555,0.879-2.121
	L4.035,7.723z"/>
<path d="M5.879,11.121c0.256,0,0.512-0.098,0.707-0.293l4.242-4.242c0.391-0.391,0.391-1.023,0-1.414s-1.023-0.391-1.414,0
	L5.172,9.414c-0.391,0.391-0.391,1.023,0,1.414C5.367,11.023,5.623,11.121,5.879,11.121z"/>
</svg>
