<?xml version="1.0" encoding="utf-8"?>
<!-- Generator: Adobe Illustrator 19.2.1, SVG Export Plug-In . SVG Version: 6.00 Build 0)  -->
<!DOCTYPE svg PUBLIC "-//W3C//DTD SVG 1.1//EN" "http://www.w3.org/Graphics/SVG/1.1/DTD/svg11.dtd">
<svg version="1.1" id="Layer_1" xmlns="http://www.w3.org/2000/svg" xmlns:xlink="http://www.w3.org/1999/xlink" x="0px" y="0px"
	 width="16px" height="16px" viewBox="0 0 16 16" enable-background="new 0 0 16 16" xml:space="preserve">
<path d="M5,5v4c0,1.654,1.346,3,3,3s3-1.346,3-3V4.5C11,2.019,8.981,0,6.5,0S2,2.019,2,4.5V10c0,3.309,2.691,6,6,6s6-2.691,6-6V4h-2
	v6c0,2.206-1.794,4-4,4s-4-1.794-4-4V4.5C4,3.121,5.121,2,6.5,2S9,3.121,9,4.5V9c0,0.552-0.448,1-1,1S7,9.552,7,9V5H5z"/>
</svg>
