<?xml version="1.0" encoding="utf-8"?>
<!-- Generator: Adobe Illustrator 19.2.1, SVG Export Plug-In . SVG Version: 6.00 Build 0)  -->
<!DOCTYPE svg PUBLIC "-//W3C//DTD SVG 1.1//EN" "http://www.w3.org/Graphics/SVG/1.1/DTD/svg11.dtd">
<svg version="1.1" id="Layer_1" xmlns="http://www.w3.org/2000/svg" xmlns:xlink="http://www.w3.org/1999/xlink" x="0px" y="0px"
	 width="16px" height="16px" viewBox="0 0 16 16" enable-background="new 0 0 16 16" xml:space="preserve">
<path d="M11.707,0.293c-0.391-0.391-1.023-0.391-1.414,0l-10,10C0.105,10.48,0,10.734,0,11v4c0,0.553,0.447,1,1,1h4
	c0.266,0,0.52-0.105,0.707-0.293l10-10c0.391-0.391,0.391-1.023,0-1.414L11.707,0.293z M4.586,14H2v-2.586l6-6L10.586,8L4.586,14z
	 M12,6.586L9.414,4L11,2.414L13.586,5L12,6.586z"/>
</svg>
