<svg xmlns="http://www.w3.org/2000/svg" xmlns:xlink="http://www.w3.org/1999/xlink" x="0px" y="0px" width="48px" height="48px" viewBox="0 0 48 48"><g >
<polygon fill="#D670AD" points="44,27 4,27 1,23 5,19 43,19 47,23 "/>
<path fill="#E6E6E6" d="M41,47H7c-1.105,0-2-0.895-2-2V3c0-1.105,0.895-2,2-2l24,0l12,12v32C43,46.105,42.105,47,41,47z"/>
<path fill="#B3B3B3" d="M31,1v10c0,1.105,0.895,2,2,2h10L31,1z"/>
<path fill="#EF8EC3" d="M45,41H3c-1.105,0-2-0.895-2-2V23h46v16C47,40.105,46.105,41,45,41z"/>
<path fill="#FFFFFF" d="M18.11,36l-0.387-1.472h-2.551L14.775,36h-2.331l2.562-7.885h2.831L20.431,36H18.11z M17.283,32.788
l-0.338-1.289c-0.079-0.286-0.175-0.657-0.287-1.112c-0.113-0.454-0.188-0.78-0.223-0.977c-0.032,0.182-0.096,0.482-0.191,0.902
c-0.095,0.418-0.305,1.244-0.631,2.476H17.283z"/>
<path fill="#FFFFFF" d="M26.097,36l-0.387-1.472h-2.551L22.762,36h-2.331l2.562-7.885h2.831L28.417,36H26.097z M25.27,32.788
l-0.338-1.289c-0.079-0.286-0.175-0.657-0.287-1.112c-0.113-0.454-0.188-0.78-0.223-0.977c-0.032,0.182-0.096,0.482-0.191,0.902
c-0.095,0.418-0.305,1.244-0.631,2.476H25.27z"/>
<path fill="#FFFFFF" d="M32.763,29.775c-0.505,0-0.899,0.206-1.182,0.62c-0.283,0.413-0.424,0.983-0.424,1.71
c0,1.512,0.575,2.268,1.724,2.268c0.347,0,0.684-0.049,1.01-0.146s0.653-0.213,0.983-0.349v1.793
c-0.655,0.291-1.396,0.436-2.224,0.436c-1.185,0-2.094-0.344-2.726-1.031c-0.632-0.688-0.948-1.682-0.948-2.98
c0-0.813,0.153-1.527,0.459-2.144c0.307-0.616,0.747-1.09,1.321-1.421c0.575-0.331,1.251-0.496,2.028-0.496
c0.849,0,1.66,0.184,2.433,0.553l-0.65,1.67c-0.29-0.136-0.58-0.25-0.87-0.344C33.407,29.821,33.096,29.775,32.763,29.775z"/>
</g></svg>