<svg xmlns="http://www.w3.org/2000/svg" xmlns:xlink="http://www.w3.org/1999/xlink" x="0px" y="0px" width="48px" height="48px" viewBox="0 0 48 48"><g >
<polygon fill="#D86D0E" points="44,27 4,27 1,23 5,19 43,19 47,23 "/>
<path fill="#E6E6E6" d="M41,47H7c-1.105,0-2-0.895-2-2V3c0-1.105,0.895-2,2-2l24,0l12,12v32C43,46.104,42.105,47,41,47z"/>
<path fill="#B3B3B3" d="M31,1v10c0,1.105,0.895,2,2,2h10L31,1z"/>
<path fill="#FF7F00" d="M45,41H3c-1.105,0-2-0.895-2-2V23h46v16C47,40.105,46.105,41,45,41z"/>
<path fill="#FFFFFF" d="M23.758,36l-0.387-1.472H20.82L20.423,36h-2.331l2.562-7.885h2.83L26.078,36H23.758z M22.932,32.788
l-0.339-1.289c-0.079-0.286-0.175-0.657-0.287-1.112c-0.113-0.454-0.188-0.78-0.224-0.977c-0.031,0.182-0.096,0.482-0.19,0.902
c-0.095,0.418-0.306,1.244-0.631,2.476H22.932z"/>
<path fill="#FFFFFF" d="M26.928,36v-7.853h2.132V36H26.928z"/>
</g></svg>