<?xml version="1.0" encoding="UTF-8"?>
<svg width="15px" height="14px" viewBox="0 0 15 14" version="1.1" xmlns="http://www.w3.org/2000/svg" xmlns:xlink="http://www.w3.org/1999/xlink">
    <!-- Generator: Sketch 44.1 (41455) - http://www.bohemiancoding.com/sketch -->
    <desc>Created with Sketch.</desc>
    <defs></defs>
    <g id="spec" stroke="none" stroke-width="1" fill="none" fill-rule="evenodd">
        <g id="specification" transform="translate(-189.000000, -1177.000000)" fill-rule="nonzero" fill="#000000">
            <g id="arrows-undo" transform="translate(189.000000, 1177.000000)">
                <path d="M2.41633065,11 C1.68447581,10.2112032 1.19455645,9.27150614 1,8.28379537 L2.98891129,8 C3.12802419,8.70477279 3.47681452,9.37525007 4,9.93769648 L2.41633065,11 Z" id="Shape"></path>
                <path d="M6.69891173,14 C5.72853688,13.8118467 4.79443773,13.3571429 4,12.6839721 L5.07557437,11 C5.64147521,11.4797909 6.30713422,11.804878 7,11.938676 L6.69891173,14 Z" id="Shape"></path>
                <path d="M9.28879813,14 L9,11.9846782 C9.69924154,11.8478039 10.367853,11.5076609 10.9331972,11 L12,12.6200204 C11.207993,13.3309499 10.2707118,13.8079673 9.28879813,14 Z" id="Shape"></path>
                <path d="M7.90540541,0.0982055174 C6.00709459,0.0982055174 4.20608108,0.843585394 2.89054054,2.11338273 L0.709459459,0 L0,6.28515311 L6.48648649,5.59771449 L4.32263514,3.50102669 C5.26317568,2.59458977 6.54932432,2.06231586 7.90540541,2.06231586 C10.6996622,2.06231586 12.972973,4.26506562 12.972973,6.97259173 C12.972973,8.01357022 12.6415541,9.00741005 12.0131757,9.84804928 L13.6560811,11 C14.5347973,9.82153379 15,8.42897956 15,6.97259173 C15,3.18185876 11.8165541,0.0982055174 7.90540541,0.0982055174 Z" id="Shape"></path>
            </g>
        </g>
    </g>
</svg>