<svg xmlns="http://www.w3.org/2000/svg" xmlns:xlink="http://www.w3.org/1999/xlink" x="0px" y="0px" width="48px" height="48px" viewBox="0 0 48 48"><g >
<polygon fill="#5B5BB5" points="44,27 4,27 1,23 5,19 43,19 47,23 "/>
<path fill="#E6E6E6" d="M41,47H7c-1.105,0-2-0.895-2-2V3c0-1.105,0.895-2,2-2l24,0l12,12v32C43,46.105,42.105,47,41,47z"/>
<path fill="#B3B3B3" d="M31,1v10c0,1.105,0.895,2,2,2h10L31,1z"/>
<path fill="#8680D8" d="M45,41H3c-1.105,0-2-0.895-2-2V23h46v16C47,40.105,46.105,41,45,41z"/>
<path fill="#FFFFFF" d="M19.942,36l-0.387-1.472h-2.551L16.606,36h-2.331l2.562-7.885h2.831L22.262,36H19.942z M19.115,32.788
l-0.338-1.289c-0.079-0.286-0.175-0.657-0.287-1.112c-0.113-0.454-0.188-0.78-0.223-0.977c-0.032,0.182-0.096,0.482-0.191,0.902
c-0.095,0.418-0.305,1.244-0.631,2.476H19.115z"/>
<path fill="#FFFFFF" d="M27.521,28.147h2.374L27.322,36h-2.498l-2.562-7.853h2.385l1.069,3.979c0.222,0.885,0.344,1.501,0.365,1.848
c0.025-0.25,0.075-0.563,0.15-0.939s0.142-0.672,0.199-0.887L27.521,28.147z"/>
<path fill="#FFFFFF" d="M30.743,36v-7.853h2.132V36H30.743z"/>
</g></svg>