<?xml version="1.0" encoding="UTF-8"?>
<svg width="16px" height="16px" viewBox="0 0 16 16" version="1.1" xmlns="http://www.w3.org/2000/svg" xmlns:xlink="http://www.w3.org/1999/xlink">
    <!-- Generator: sketchtool 54.1 (76490) - https://sketchapp.com -->
    <title>16033E2F-963E-469F-82EF-75147F132EFE</title>
    <desc>Created with sketchtool.</desc>
    <g id="Connect-new-UI-2019" stroke="none" stroke-width="1" fill="none" fill-rule="evenodd">
        <g id="Discussions-tab" transform="translate(-441.000000, -1236.000000)" fill="#EF476F" fill-rule="nonzero">
            <path d="M451,1250 C451,1251.1 450.1,1252 449,1252 C447.9,1252 447,1251.1 447,1250 L451,1250 Z M456,1247 C456.6,1247 457,1247.4 457,1248 C457,1248.6 456.6,1249 456,1249 L442,1249 C441.4,1249 441,1248.6 441,1248 C441,1247.4 441.4,1247 442,1247 L442.5,1247 C443.2,1246.3 444,1245.3 444,1244 L444,1241 C444,1238.2 446.2,1236 449,1236 C451.8,1236 454,1238.2 454,1241 L454,1244 C454,1245.3 454.8,1246.3 455.5,1247 L456,1247 Z" id="bell"></path>
        </g>
    </g>
</svg>