<svg xmlns="http://www.w3.org/2000/svg" xmlns:xlink="http://www.w3.org/1999/xlink" x="0px" y="0px" width="48px" height="48px" viewBox="0 0 48 48"><g >
<polygon fill="#A67C52" points="44,27 4,27 1,23 5,19 43,19 47,23 "/>
<path fill="#E6E6E6" d="M41,47H7c-1.105,0-2-0.895-2-2V3c0-1.105,0.895-2,2-2l24,0l12,12v32C43,46.105,42.105,47,41,47z"/>
<path fill="#B3B3B3" d="M31,1v10c0,1.105,0.895,2,2,2h10L31,1z"/>
<path fill="#C19F85" d="M45,41H3c-1.105,0-2-0.895-2-2V23h46v16C47,40.105,46.105,41,45,41z"/>
<path fill="#FFFFFF" d="M18.551,29.775c-0.505,0-0.898,0.206-1.182,0.62c-0.283,0.413-0.424,0.983-0.424,1.71
c0,1.512,0.574,2.268,1.724,2.268c0.347,0,0.685-0.049,1.01-0.146s0.653-0.213,0.983-0.349v1.793
c-0.656,0.291-1.396,0.436-2.225,0.436c-1.185,0-2.094-0.344-2.725-1.031c-0.633-0.688-0.949-1.682-0.949-2.98
c0-0.813,0.154-1.527,0.459-2.144c0.307-0.616,0.748-1.09,1.322-1.421s1.25-0.496,2.027-0.496c0.849,0,1.66,0.184,2.434,0.553
l-0.65,1.67c-0.29-0.136-0.58-0.25-0.87-0.344C19.195,29.821,18.884,29.775,18.551,29.775z"/>
<path fill="#FFFFFF" d="M23.729,32.842H21.73v-1.439h1.998v-1.971h1.445v1.971h1.998v1.439h-1.998v1.939h-1.445V32.842z"/>
<path fill="#FFFFFF" d="M29.953,32.842h-1.998v-1.439h1.998v-1.971h1.445v1.971h1.998v1.439h-1.998v1.939h-1.445V32.842z"/>
</g></svg>