<?xml version="1.0" encoding="UTF-8"?>
<svg width="24px" height="24px" viewBox="0 0 24 24" version="1.1" xmlns="http://www.w3.org/2000/svg" xmlns:xlink="http://www.w3.org/1999/xlink">
    <!-- Generator: Sketch 48 (47235) - http://www.bohemiancoding.com/sketch -->
    <title>chat-46</title>
    <desc>Created with Sketch.</desc>
    <defs></defs>
    <g id="05-project-details-comment-replies" stroke="none" stroke-width="1" fill="none" fill-rule="evenodd" transform="translate(-315.000000, -1711.000000)">
        <g id="Group-4" transform="translate(299.000000, 1695.000000)" fill="#FAFAFB" fill-rule="nonzero">
            <g id="chat-46" transform="translate(16.000000, 16.500000)">
                <path d="M20.0904977,6.46153846 L20.0904977,14.280543 C20.0904977,14.8200543 19.6526335,15.2579186 19.1131222,15.2579186 L11.9206154,15.2579186 L7.38461538,19.1674208 L14.2262443,19.1674208 L20.0904977,23.0769231 L20.0904977,19.1674208 L23.0226244,19.1674208 C23.5621357,19.1674208 24,18.7295566 24,18.1900452 L24,7.43891403 C24,6.89940271 23.5621357,6.46153846 23.0226244,6.46153846 L20.0904977,6.46153846 Z" id="Shape"></path>
                <path d="M17.4358974,0 L1.02564103,0 C0.459487179,0 0,0.447819006 0,0.999595997 L0,11.995152 C0,12.5469289 0.459487179,12.994748 1.02564103,12.994748 L4.1025641,12.994748 L4.1025641,18.4615385 L11.2820513,12.994748 L17.4358974,12.994748 C18.0020513,12.994748 18.4615385,12.5469289 18.4615385,11.995152 L18.4615385,0.999595997 C18.4615385,0.447819006 18.0020513,0 17.4358974,0 Z" id="Shape"></path>
            </g>
        </g>
    </g>
</svg>