<svg width="310" height="299" viewBox="0 0 310 299" xmlns="http://www.w3.org/2000/svg"><g transform="translate(0 -1)" fill="none" fill-rule="evenodd"><ellipse fill="#DCDCE0" opacity=".6" cx="107.5" cy="296" rx="107.5" ry="4"/><path d="M211 244.547c24.606 6.268 53.86 40.92 81.422 14.88 6.235-5.891 9.51-14.285 14.264-21.427M75.485 137.802c-53.058-15.452-64.596 38.276-39.909 74.905" stroke="#262628" stroke-width="6" stroke-linecap="round" stroke-linejoin="round"/><path fill="#262628" d="M98 102h21v36H98zM126 194h21v87h-21z"/><g transform="rotate(15 -671.056 390.85)" fill="#262628"><path d="M4 0h21v87H4z"/><rect y="76" width="7" height="14" rx="3.5"/><rect x="21" y="76" width="7" height="14" rx="3.5"/></g><rect fill="#FB7D22" x="54" y="117" width="109" height="116" rx="7"/><circle fill="#292727" cx="108.5" cy="148.5" r="3.5"/><circle fill="#292727" cx="108.5" cy="176.5" r="3.5"/><circle fill="#292727" cx="108.5" cy="204.5" r="3.5"/><g fill="#FFF"><path d="M108.61 123.514c1.162-4.31-3.133-9.195-9.594-10.914-6.46-1.719-12.641.381-13.804 4.69-.604 2.238.275 4.016.275 6.38s-.88 4.697-.275 6.935c1.163 4.309 7.344 6.409 13.804 4.69 6.461-1.719 10.756-6.605 9.593-10.914a5.493 5.493 0 0 0-.136-.433c.05-.142.097-.287.136-.434zM111.38 123.514c-1.163-4.31 3.132-9.195 9.593-10.914 6.461-1.719 12.642.381 13.805 4.69.604 2.238-.275 4.016-.275 6.38s.879 4.697.275 6.935c-1.163 4.309-7.344 6.409-13.805 4.69-6.46-1.719-10.756-6.605-9.592-10.914.04-.147.085-.292.136-.433a5.493 5.493 0 0 1-.136-.434z"/><path d="M104.685 123.818a4.68 4.68 0 0 1-.637-2.363c0-2.611 2.132-4.728 4.762-4.728.867 0 1.68.23 2.38.633a4.767 4.767 0 0 1 2.381-.633c2.63 0 4.762 2.117 4.762 4.728a4.68 4.68 0 0 1-.637 2.363 4.68 4.68 0 0 1 .637 2.364c0 2.61-2.132 4.727-4.762 4.727-.867 0-1.68-.23-2.38-.632-.7.402-1.514.632-2.381.632-2.63 0-4.762-2.116-4.762-4.727 0-.861.232-1.668.637-2.364z"/></g><g fill="#FFF"><path d="M107.61 123.514c1.162-4.31-3.133-9.195-9.594-10.914-6.46-1.719-12.641.381-13.804 4.69-.604 2.238.275 4.016.275 6.38s-.88 4.697-.275 6.935c1.163 4.309 7.344 6.409 13.804 4.69 6.461-1.719 10.756-6.605 9.593-10.914a5.493 5.493 0 0 0-.136-.433c.05-.142.097-.287.136-.434zM110.38 123.514c-1.163-4.31 3.132-9.195 9.593-10.914 6.461-1.719 12.642.381 13.805 4.69.604 2.238-.275 4.016-.275 6.38s.879 4.697.275 6.935c-1.163 4.309-7.344 6.409-13.805 4.69-6.46-1.719-10.756-6.605-9.592-10.914.04-.147.085-.292.136-.433a5.493 5.493 0 0 1-.136-.434z"/><path d="M103.685 123.818a4.68 4.68 0 0 1-.637-2.363c0-2.611 2.132-4.728 4.762-4.728.867 0 1.68.23 2.38.633a4.767 4.767 0 0 1 2.381-.633c2.63 0 4.762 2.117 4.762 4.728a4.68 4.68 0 0 1-.637 2.363 4.68 4.68 0 0 1 .637 2.364c0 2.61-2.132 4.727-4.762 4.727-.867 0-1.68-.23-2.38-.632-.7.402-1.514.632-2.381.632-2.63 0-4.762-2.116-4.762-4.727 0-.861.232-1.668.637-2.364z"/></g><g transform="translate(51)"><path d="M25 28V16M90 28l-1-8 9-3" stroke="#262628" stroke-width="6" stroke-linecap="round" stroke-linejoin="round"/><rect fill="#FB7D22" transform="rotate(-3 57.5 67)" x="3" y="27" width="109" height="80" rx="4"/><rect fill="#FB7D22" x="14" y="3" width="22" height="13" rx="2"/><rect fill="#FB7D22" transform="rotate(23 101.628 10.873)" x="90.628" y="4.373" width="22" height="13" rx="2"/><path d="M86 88s-17.311-4-26-4c-9.978 0-30 4-30 4" stroke="#262628" stroke-width="4" stroke-linecap="round" stroke-linejoin="round"/><path d="M50 66a7 7 0 1 0-14 0 7 7 0 0 0 14 0zM82 59a7 7 0 1 0-14 0 7 7 0 0 0 14 0z" fill="#262628"/><rect fill="#FFF" x="40" y="65" width="6" height="2" rx="1"/><rect fill="#FFF" x="72" y="57" width="6" height="4" rx="2"/></g><rect fill="#262628" x="122" y="270" width="7" height="14" rx="3.5"/><rect fill="#262628" x="143" y="270" width="7" height="14" rx="3.5"/></g></svg>