<svg width="60" height="40" viewBox="0 0 166 59" fill="none" xmlns="http://www.w3.org/2000/svg">
<path fill-rule="evenodd" clip-rule="evenodd" d="M122.602 18.4532C112.236 7.00667 98.3109 0 83 0C67.6891 0 53.7639 7.00667 43.3976 18.4532C49.5782 19.6075 55.8748 21.1369 62.1802 22.9718C67.5673 24.5395 72.6358 26.2453 76.8846 27.8635C78.582 28.5099 82.8333 30.3967 83 30.4825C83.1667 30.3967 87.418 28.5099 89.1154 27.8635C93.3642 26.2453 98.4327 24.5395 103.82 22.9718C110.125 21.1369 116.422 19.6075 122.602 18.4532ZM26.1805 39.4276C23.9188 45.4696 22.3748 51.8478 21.5937 58.4222C8.84492 57.0113 0 36.8245 0 32C0 24 9.28259 20 19 20C24.6143 20 30.3372 20.489 35.9241 21.2842C31.9768 26.6645 28.6763 32.7599 26.1805 39.4276ZM81 34C79 34 62.1611 39.0514 50.5 45.5C47.9001 46.9378 45.3558 48.4673 42.8838 49.9533L42.8832 49.9536L42.8831 49.9537C36.5725 53.7474 30.7336 57.2574 25.6472 58.2328C26.4237 52.1311 27.8817 46.293 29.9267 40.8298C32.5342 33.8637 36.0962 27.5074 40.4168 21.9921C62.3129 25.7669 81 33.6209 81 34ZM139.237 37.9177C141.816 44.4005 143.56 51.2952 144.406 58.4222C157.155 57.0113 166 36.8245 166 32C166 24 156.717 20 147 20C141.386 20 135.662 20.489 130.075 21.2843C133.721 26.2537 136.816 31.8351 139.237 37.9177ZM115.5 45.5C103.839 39.0514 87 34 85 34C85 33.6209 103.687 25.7669 125.583 21.9921C129.606 27.1269 132.971 32.9906 135.52 39.3968C137.857 45.2678 139.508 51.5943 140.353 58.2328C135.266 57.2574 129.428 53.7474 123.117 49.9537L123.117 49.9537C120.645 48.4676 118.1 46.9379 115.5 45.5Z" fill="white"/>
</svg>
