<?xml version="1.0" encoding="UTF-8"?>
<svg width="60px" height="40px" viewBox="0 0 60 40" version="1.1" xmlns="http://www.w3.org/2000/svg" xmlns:xlink="http://www.w3.org/1999/xlink">
    <!-- Generator: Sketch 46.2 (44496) - http://www.bohemiancoding.com/sketch -->
    <title>connect logo positive mono</title>
    <desc>Created with Sketch.</desc>
    <defs></defs>
    <g id="Symbols" stroke="none" stroke-width="1" fill="none" fill-rule="evenodd">
        <g id="connect-logo-positive-mono">
            <g transform="translate(1.000000, 1.000000)">
                <path d="M48.0525984,14.577922 C46.5776342,11.1968033 45.1375597,8.45979274 43.794837,6.69652909 C50.4014167,5.47375271 54.8932527,6.18088362 55.812811,8.97531424 C56.5409113,11.1875291 55.1162779,14.7964697 52.0393796,18.7595783 C51.498384,19.4563029 50.8914283,19.844113 50.2183277,19.9806 C50.087133,19.6215603 49.9115817,19.1519543 49.696814,18.593665 C49.1939866,17.2865637 48.6409112,15.9265349 48.0525984,14.577922 Z M30.6418217,9.76413774 C30.3188409,9.91416763 29.9592052,10.0779367 29.5095649,10.2801647 C29.0599245,10.0779367 28.7002889,9.91416763 28.3773081,9.76413774 C25.1553362,8.26910862 21.0768341,6.88860997 17.2326726,6.02293615 C20.9397138,2.20042329 25.3773137,0 29.5095649,0 C34.0773,0 38.1916864,1.97220289 41.824961,6.01428084 C37.9695457,6.87939068 33.8745671,8.26410953 30.6418217,9.76413774 Z M15.2207037,6.69938672 C12.2035477,10.4308205 9.21779498,16.6947624 8.88620113,20 C8.17104285,19.8839011 7.52948993,19.4921937 6.9606053,18.7595522 C3.88372725,14.7964697 2.4590939,11.1875291 3.18718516,8.97534151 C4.10757982,6.17836947 8.6069439,5.47273442 15.2207037,6.69938672 Z M31.2435779,10.6040598 C34.5967425,9.1029812 40.0000014,7.36019163 42.6149353,6.91823276 C42.8258758,7.16982976 43.0427252,7.45361423 43.2648118,7.76814682 C44.1865221,9.07352924 45.1727878,10.8688006 46.1891971,13.0269527 C46.984149,14.7148821 47.7516673,16.5255752 48.4624622,18.3365499 C48.6953091,18.9298012 48.9063343,19.4833057 49.0925871,19.9845898 C48.690213,19.9163943 48.2722834,19.7837184 47.8459695,19.596605 C47.3650026,19.3855038 47.0027993,19.1745396 46.5469063,18.8746176 C38.4530981,13.5498795 37.9323471,13.2246515 35.1333372,11.9875424 C33.7939566,11.3955617 32.4910678,10.9501247 31.1627254,10.6403869 L31.2435779,10.6040598 Z M9.9483664,19.9809637 C10.319971,16.7803498 13.4318183,10.3870944 16.4115044,6.92802733 C19.3185205,7.43054909 24.1954216,9.06520614 27.7049779,10.6191849 C24.5560536,11.3065912 21.6550461,12.8642947 17.3744661,15.7664276 C17.5185596,15.6687356 15.5107952,17.0366811 14.972912,17.3962668 C14.0807849,17.9926717 13.3453799,18.462635 12.6452771,18.8775901 C11.6922696,19.4424434 10.7447214,19.8434685 9.9483664,19.9809637 Z" id="Combined-Shape" fill="#47474F"></path>
                <path d="M5.64941406,33.8925781 C5.61686182,34.2408872 5.53548242,34.5623358 5.40527344,34.8569336 C5.27506445,35.1515314 5.0944022,35.4062489 4.86328125,35.6210938 C4.6321603,35.8359386 4.3497738,36.0035801 4.01611328,36.1240234 C3.68245276,36.2444667 3.29752822,36.3046875 2.86132812,36.3046875 C2.42512803,36.3046875 2.03043796,36.2257495 1.67724609,36.0678711 C1.32405422,35.9099927 1.02295046,35.6853856 0.773925781,35.394043 C0.524901099,35.1027004 0.333659521,34.7503276 0.200195312,34.3369141 C0.0667311035,33.9235005 0,33.459638 0,32.9453125 L0,32.3691406 C0,31.8580704 0.0683586914,31.3950216 0.205078125,30.9799805 C0.341797559,30.5649393 0.537108105,30.210939 0.791015625,29.9179688 C1.04492314,29.6249985 1.35172346,29.3987638 1.71142578,29.2392578 C2.0711281,29.0797518 2.4739561,29 2.91992188,29 C3.34310107,29 3.71744629,29.0610345 4.04296875,29.1831055 C4.36849121,29.3051764 4.64436736,29.4744455 4.87060547,29.690918 C5.09684358,29.9073904 5.27425066,30.1653631 5.40283203,30.4648438 C5.5314134,30.7643244 5.61360659,31.0914696 5.64941406,31.4462891 L4.41894531,31.4462891 C4.39290352,31.2216786 4.34814485,31.0198577 4.28466797,30.8408203 C4.22119109,30.661783 4.13085996,30.5096035 4.01367188,30.3842773 C3.89648379,30.2589512 3.74837329,30.1637373 3.56933594,30.0986328 C3.39029858,30.0335283 3.17382939,30.0009766 2.91992188,30.0009766 C2.63997256,30.0009766 2.39502058,30.0538732 2.18505859,30.159668 C1.97509661,30.2654628 1.80013091,30.418456 1.66015625,30.6186523 C1.52018159,30.8188487 1.41520217,31.0654282 1.34521484,31.3583984 C1.27522751,31.6513687 1.24023438,31.9850242 1.24023438,32.359375 L1.24023438,32.9453125 C1.24023438,33.300132 1.27115854,33.6223944 1.33300781,33.9121094 C1.39485708,34.2018244 1.49088477,34.4500315 1.62109375,34.6567383 C1.75130273,34.863445 1.91894429,35.0237625 2.12402344,35.1376953 C2.32910259,35.2516282 2.57486836,35.3085938 2.86132812,35.3085938 C3.12825654,35.3085938 3.35367747,35.2776696 3.53759766,35.2158203 C3.72151785,35.153971 3.87369731,35.0628261 3.99414063,34.9423828 C4.11458394,34.8219395 4.20817024,34.673829 4.27490234,34.4980469 C4.34163445,34.3222647 4.38964829,34.1204438 4.41894531,33.8925781 L5.64941406,33.8925781 Z M14.5934243,32.8378906 C14.5934243,33.3782579 14.5226242,33.8624653 14.381022,34.2905273 C14.2394197,34.7185894 14.0400402,35.0815415 13.7828774,35.3793945 C13.5257147,35.6772476 13.216473,35.9059237 12.8551431,36.0654297 C12.4938131,36.2249357 12.0934265,36.3046875 11.6539712,36.3046875 C11.2177711,36.3046875 10.8190121,36.2249357 10.4576821,36.0654297 C10.0963522,35.9059237 9.78466912,35.6772476 9.52262354,35.3793945 C9.26057796,35.0815415 9.05712947,34.7185894 8.91227198,34.2905273 C8.76741448,33.8624653 8.69498682,33.3782579 8.69498682,32.8378906 L8.69498682,32.4765625 C8.69498682,31.9361952 8.76741448,31.451174 8.91227198,31.0214844 C9.05712947,30.5917947 9.25895037,30.227215 9.51774073,29.9277344 C9.77653108,29.6282537 10.0865866,29.3987638 10.4479165,29.2392578 C10.8092464,29.0797518 11.2080055,29 11.6442056,29 C12.0836609,29 12.4848613,29.0797518 12.8478189,29.2392578 C13.2107764,29.3987638 13.5216457,29.6282537 13.780436,29.9277344 C14.0392264,30.227215 14.2394197,30.5917947 14.381022,31.0214844 C14.5226242,31.451174 14.5934243,31.9361952 14.5934243,32.4765625 L14.5934243,32.8378906 Z M13.3580728,32.4667969 C13.3580728,32.0696595 13.3198244,31.7189143 13.2433267,31.4145508 C13.1668289,31.1101873 13.0553391,30.8554698 12.908854,30.6503906 C12.7623689,30.4453115 12.5825204,30.2898768 12.3693032,30.184082 C12.156086,30.0782872 11.9143892,30.0253906 11.6442056,30.0253906 C11.3805324,30.0253906 11.1429045,30.0782872 10.9313149,30.184082 C10.7197253,30.2898768 10.5398769,30.4453115 10.3917642,30.6503906 C10.2436514,30.8554698 10.1297203,31.1101873 10.0499673,31.4145508 C9.97021429,31.7189143 9.93033838,32.0696595 9.93033838,32.4667969 L9.93033838,32.8378906 C9.93033838,33.235028 9.97021429,33.586587 10.0499673,33.8925781 C10.1297203,34.1985692 10.2444652,34.4549143 10.3942056,34.6616211 C10.5439459,34.8683279 10.725422,35.0245763 10.9386392,35.1303711 C11.1518564,35.2361659 11.390298,35.2890625 11.6539712,35.2890625 C12.2008489,35.2890625 12.6215804,35.0807312 12.9161782,34.6640625 C13.2107761,34.2473938 13.3580728,33.6386759 13.3580728,32.8378906 L13.3580728,32.4667969 Z M23.630208,36.2070312 L22.3948565,36.2070312 L19.2259111,31.1630859 L19.2259111,36.2070312 L17.9905596,36.2070312 L17.9905596,29.0976562 L19.2259111,29.0976562 L22.4046221,34.1611328 L22.4046221,29.0976562 L23.630208,29.0976562 L23.630208,36.2070312 Z M32.8964839,36.2070312 L31.6611323,36.2070312 L28.492187,31.1630859 L28.492187,36.2070312 L27.2568355,36.2070312 L27.2568355,29.0976562 L28.492187,29.0976562 L31.670898,34.1611328 L31.670898,29.0976562 L32.8964839,29.0976562 L32.8964839,36.2070312 Z M40.6783848,33.0332031 L37.7584629,33.0332031 L37.7584629,35.2207031 L41.1715488,35.2207031 L41.1715488,36.2070312 L36.5231113,36.2070312 L36.5231113,29.0976562 L41.1373692,29.0976562 L41.1373692,30.09375 L37.7584629,30.09375 L37.7584629,32.0566406 L40.6783848,32.0566406 L40.6783848,33.0332031 Z M49.7688794,33.8925781 C49.7363272,34.2408872 49.6549478,34.5623358 49.5247388,34.8569336 C49.3945298,35.1515314 49.2138675,35.4062489 48.9827466,35.6210938 C48.7516257,35.8359386 48.4692392,36.0035801 48.1355786,36.1240234 C47.8019181,36.2444667 47.4169936,36.3046875 46.9807935,36.3046875 C46.5445934,36.3046875 46.1499033,36.2257495 45.7967114,36.0678711 C45.4435196,35.9099927 45.1424158,35.6853856 44.8933911,35.394043 C44.6443664,35.1027004 44.4531249,34.7503276 44.3196607,34.3369141 C44.1861965,33.9235005 44.1194654,33.459638 44.1194654,32.9453125 L44.1194654,32.3691406 C44.1194654,31.8580704 44.187824,31.3950216 44.3245435,30.9799805 C44.4612629,30.5649393 44.6565735,30.210939 44.910481,29.9179688 C45.1643885,29.6249985 45.4711888,29.3987638 45.8308911,29.2392578 C46.1905935,29.0797518 46.5934215,29 47.0393872,29 C47.4625664,29 47.8369116,29.0610345 48.1624341,29.1831055 C48.4879566,29.3051764 48.7638327,29.4744455 48.9900708,29.690918 C49.2163089,29.9073904 49.393716,30.1653631 49.5222974,30.4648438 C49.6508788,30.7643244 49.7330719,31.0914696 49.7688794,31.4462891 L48.5384107,31.4462891 C48.5123689,31.2216786 48.4676102,31.0198577 48.4041333,30.8408203 C48.3406564,30.661783 48.2503253,30.5096035 48.1331372,30.3842773 C48.0159491,30.2589512 47.8678386,30.1637373 47.6888013,30.0986328 C47.5097639,30.0335283 47.2932947,30.0009766 47.0393872,30.0009766 C46.7594379,30.0009766 46.5144859,30.0538732 46.3045239,30.159668 C46.094562,30.2654628 45.9195963,30.418456 45.7796216,30.6186523 C45.6396469,30.8188487 45.5346675,31.0654282 45.4646802,31.3583984 C45.3946929,31.6513687 45.3596997,31.9850242 45.3596997,32.359375 L45.3596997,32.9453125 C45.3596997,33.300132 45.3906239,33.6223944 45.4524732,33.9121094 C45.5143224,34.2018244 45.6103501,34.4500315 45.7405591,34.6567383 C45.8707681,34.863445 46.0384096,35.0237625 46.2434888,35.1376953 C46.4485679,35.2516282 46.6943337,35.3085938 46.9807935,35.3085938 C47.2477219,35.3085938 47.4731428,35.2776696 47.657063,35.2158203 C47.8409832,35.153971 47.9931627,35.0628261 48.113606,34.9423828 C48.2340493,34.8219395 48.3276356,34.673829 48.3943677,34.4980469 C48.4610998,34.3222647 48.5091136,34.1204438 48.5384107,33.8925781 L49.7688794,33.8925781 Z M58.0341787,30.09375 L55.8173819,30.09375 L55.8173819,36.2070312 L54.5917959,36.2070312 L54.5917959,30.09375 L52.3945303,30.09375 L52.3945303,29.0976562 L58.0341787,29.0976562 L58.0341787,30.09375 Z" id="CONNECT" fill="#262628"></path>
            </g>
        </g>
    </g>
</svg>