<?xml version="1.0" encoding="utf-8"?>
<!-- Generator: Adobe Illustrator 19.1.0, SVG Export Plug-In . SVG Version: 6.00 Build 0)  -->
<!DOCTYPE svg PUBLIC "-//W3C//DTD SVG 1.1//EN" "http://www.w3.org/Graphics/SVG/1.1/DTD/svg11.dtd">
<svg version="1.1" id="Layer_1" xmlns:sketch="http://www.bohemiancoding.com/sketch/ns"
	 xmlns="http://www.w3.org/2000/svg" xmlns:xlink="http://www.w3.org/1999/xlink" x="0px" y="0px" viewBox="-295 386 21 22"
	 style="enable-background:new -295 386 21 22;" xml:space="preserve">
<style type="text/css">
	.st0{fill:none;stroke:#444444;}
	.st1{fill:none;stroke:#444444;stroke-linecap:square;}
</style>
<desc>Created with Sketch.</desc>
<g id="Page-1" sketch:type="MSPage">
	<g id="iocn-customfeatures" sketch:type="MSArtboardGroup">
		<g id="Page-1-Copy" transform="translate(1.000000, 1.000000)" sketch:type="MSLayerGroup">
			<path id="Stroke-1" sketch:type="MSShapeGroup" class="st0" d="M-286.1,400.2l4.8,4.8c1.2,1.2,3.2,1.2,4.4,0
				c1.2-1.2,1.2-3.2,0-4.4l-4.4-4.4"/>
			<path id="Stroke-3" sketch:type="MSShapeGroup" class="st0" d="M-287.4,394.4l-2.9-2.9"/>
			<path id="Stroke-5" sketch:type="MSShapeGroup" class="st1" d="M-276.2,389.8l-2.6,2.6l-3.2-3.2l2.6-2.6
				c-0.6-0.2-1.2-0.3-1.9-0.2c-2.5,0.2-4.5,2.4-4.4,4.9c0,0.5,0.1,1,0.2,1.4l-8.5,7.6c-1.3,1.1-1.3,3.1-0.1,4.3
				c1.2,1.2,3.2,1.2,4.3-0.1l7.6-8.5c0.8,0.2,1.6,0.3,2.5,0.1c1.8-0.4,3.2-1.7,3.7-3.4C-275.8,391.6-275.9,390.6-276.2,389.8
				L-276.2,389.8z"/>
			<path id="Stroke-7" sketch:type="MSShapeGroup" class="st1" d="M-292.2,392.2l1.9-0.6l0.6-1.9l-2.5-2.5l-2.5,2.5L-292.2,392.2
				L-292.2,392.2z"/>
			<path id="Stroke-9" sketch:type="MSShapeGroup" class="st1" d="M-281.3,400.6l1.8,1.8"/>
		</g>
	</g>
</g>
</svg>
