<?xml version="1.0" encoding="UTF-8"?>
<svg width="12px" height="12px" viewBox="0 0 12 12" version="1.1" xmlns="http://www.w3.org/2000/svg" xmlns:xlink="http://www.w3.org/1999/xlink">
    <!-- Generator: Sketch 60.1 (88133) - https://sketch.com -->
    <title>daylight</title>
    <desc>Created with Sketch.</desc>
    <g id="Symbols" stroke="none" stroke-width="1" fill="none" fill-rule="evenodd">
        <g id="team-list-sidebar-day" transform="translate(-54.000000, -36.000000)" fill="#FD7D01" fill-rule="nonzero">
            <g id="Group" transform="translate(54.000000, 35.000000)">
                <path d="M5.89043478,10.7082609 C6.20817391,10.7082609 6.46617391,10.966 6.46617391,11.284 L6.46617391,11.284 L6.46617391,12.2048696 C6.46617391,12.5231304 6.20843478,12.7808696 5.89043478,12.7808696 C5.57243478,12.7808696 5.31469565,12.5231304 5.31469565,12.2048696 L5.31469565,12.2048696 L5.31469565,11.284 C5.31469565,10.966 5.57243478,10.7082609 5.89043478,10.7082609 Z M2.37652174,9.59043478 C2.6013913,9.36530435 2.96582609,9.36530435 3.19069565,9.59043478 C3.41556522,9.81478261 3.41556522,10.1794783 3.19069565,10.404087 L3.19069565,10.404087 L2.53930435,11.0557391 C2.31469565,11.2803478 1.95,11.2803478 1.72513043,11.0557391 C1.50026087,10.8311304 1.50052174,10.4661739 1.72513043,10.2415652 L1.72513043,10.2415652 Z M9.40408696,9.59043478 L10.0554783,10.2418261 C10.2803478,10.4661739 10.2803478,10.8311304 10.0554783,11.0557391 C9.8306087,11.2803478 9.46617391,11.2803478 9.24130435,11.0557391 L8.58991304,10.4043478 C8.36504348,10.1794783 8.36504348,9.81504348 8.58991304,9.59043478 C8.81478261,9.36582609 9.17947826,9.36582609 9.40408696,9.59043478 Z M5.89043478,3.93973913 C7.51721739,3.93973913 8.84113043,5.2633913 8.84113043,6.89069565 C8.84113043,8.518 7.51721739,9.84165217 5.89043478,9.84165217 C4.2633913,9.84165217 2.93973913,8.51773913 2.93973913,6.89069565 C2.93973913,5.26365217 4.2633913,3.93973913 5.89043478,3.93973913 Z M11.2051304,6.31469565 C11.5231304,6.31469565 11.7808696,6.57243478 11.7808696,6.89043478 C11.7808696,7.20843478 11.5231304,7.46591304 11.2051304,7.46591304 L10.284,7.46591304 C9.966,7.46591304 9.70826087,7.20843478 9.70826087,6.89043478 C9.70826087,6.57243478 9.966,6.31469565 10.284,6.31469565 L11.2051304,6.31469565 Z M1.4966087,6.31469565 C1.8146087,6.31469565 2.07234783,6.57243478 2.07234783,6.89043478 C2.07234783,7.20843478 1.8146087,7.46591304 1.49686957,7.46591304 L1.49686957,7.46591304 L0.57573913,7.46591304 C0.25773913,7.46591304 3.41948692e-14,7.20843478 3.41948692e-14,6.89043478 C3.41948692e-14,6.57243478 0.25773913,6.31469565 0.57573913,6.31469565 L0.57573913,6.31469565 Z M10.0554783,2.72513043 C10.2803478,2.95 10.2803478,3.31469565 10.0554783,3.53930435 L9.40408696,4.19069565 C9.17947826,4.41556522 8.81504348,4.41556522 8.58991304,4.19069565 C8.36530435,3.96582609 8.36530435,3.6013913 8.58991304,3.37652174 L9.24130435,2.72513043 C9.46591304,2.50052174 9.8306087,2.50052174 10.0554783,2.72513043 Z M1.72513043,2.7253913 C1.95,2.50052174 2.31443478,2.50052174 2.53930435,2.7253913 L2.53930435,2.7253913 L3.19069565,3.37652174 C3.41556522,3.6013913 3.41556522,3.96582609 3.19069565,4.19069565 C2.96582609,4.41582609 2.6013913,4.41582609 2.37652174,4.19069565 L2.37652174,4.19069565 L1.72513043,3.53930435 C1.50026087,3.31469565 1.50026087,2.95 1.72513043,2.7253913 Z M5.89043478,1 C6.20843478,1 6.46617391,1.25773913 6.46617391,1.57573913 L6.46617391,2.49686957 C6.46617391,2.8146087 6.20817391,3.07234783 5.89043478,3.07234783 C5.57243478,3.07234783 5.31469565,2.8146087 5.31469565,2.49686957 L5.31469565,1.57573913 C5.31469565,1.25773913 5.57243478,1 5.89043478,1 Z" id="daylight"></path>
            </g>
        </g>
    </g>
</svg>