<svg xmlns="http://www.w3.org/2000/svg" xmlns:xlink="http://www.w3.org/1999/xlink" x="0px" y="0px" width="48px" height="48px" viewBox="0 0 48 48"><g >
<polygon fill="#D670AD" points="44,27 4,27 1,23 5,19 43,19 47,23 "/>
<path fill="#E6E6E6" d="M41,47H7c-1.105,0-2-0.895-2-2V3c0-1.105,0.895-2,2-2l24,0l12,12v32C43,46.105,42.105,47,41,47z"/>
<path fill="#B3B3B3" d="M31,1v10c0,1.105,0.895,2,2,2h10L31,1z"/>
<path fill="#EF8EC3" d="M45,41H3c-1.105,0-2-0.895-2-2V23h46v16C47,40.105,46.105,41,45,41z"/>
<path fill="#FFFFFF" d="M18.089,31.907c0,1.311-0.361,2.32-1.083,3.029C16.285,35.646,15.271,36,13.964,36h-2.541v-7.853h2.718
c1.26,0,2.233,0.322,2.919,0.967C17.746,29.759,18.089,30.689,18.089,31.907z M15.887,31.982c0-0.72-0.142-1.253-0.427-1.601
c-0.284-0.348-0.717-0.521-1.297-0.521h-0.618v4.398h0.473c0.645,0,1.117-0.188,1.418-0.562S15.887,32.752,15.887,31.982z"/>
<path fill="#FFFFFF" d="M22.917,36l-1.606-5.656h-0.048c0.075,0.964,0.113,1.712,0.113,2.246V36h-1.88v-7.853h2.825l1.638,5.575
h0.043l1.606-5.575h2.831V36h-1.95v-3.443c0-0.179,0.003-0.377,0.008-0.596c0.006-0.219,0.03-0.754,0.073-1.605h-0.048L24.937,36
H22.917z"/>
<path fill="#FFFFFF" d="M33.284,31.402h3.389v4.232c-0.92,0.315-1.932,0.473-3.035,0.473c-1.21,0-2.146-0.351-2.806-1.053
c-0.661-0.702-0.991-1.703-0.991-3.002c0-1.268,0.362-2.255,1.085-2.96s1.737-1.058,3.04-1.058c0.494,0,0.96,0.046,1.399,0.139
c0.438,0.094,0.821,0.212,1.146,0.355l-0.671,1.664c-0.566-0.279-1.187-0.418-1.864-0.418c-0.62,0-1.099,0.201-1.437,0.604
c-0.339,0.403-0.508,0.979-0.508,1.727c0,0.734,0.153,1.294,0.459,1.679c0.307,0.385,0.748,0.577,1.324,0.577
c0.315,0,0.605-0.03,0.87-0.091v-1.229h-1.402V31.402z"/>
</g></svg>