<svg xmlns="http://www.w3.org/2000/svg" xmlns:xlink="http://www.w3.org/1999/xlink" x="0px" y="0px" width="48px" height="48px" viewBox="0 0 48 48"><g >
<polygon fill="#CC4842" points="44,27 4,27 1,23 5,19 43,19 47,23 "/>
<path fill="#E6E6E6" d="M41,47H7c-1.105,0-2-0.895-2-2V3c0-1.105,0.895-2,2-2l24,0l12,12v32C43,46.105,42.105,47,41,47z"/>
<path fill="#B3B3B3" d="M31,1v10c0,1.105,0.895,2,2,2h10L31,1z"/>
<path fill="#E86C60" d="M45,41H3c-1.105,0-2-0.895-2-2V23h46v16C47,40.105,46.105,41,45,41z"/>
<path fill="#FFFFFF" d="M15.148,36h-4.662v-7.853h4.662v1.702h-2.541v1.236h2.354v1.702h-2.354v1.482h2.541V36z"/>
<path fill="#FFFFFF" d="M22.223,30.645c0,0.878-0.26,1.556-0.776,2.033c-0.518,0.479-1.253,0.717-2.205,0.717h-0.597V36h-2.121
v-7.853h2.718c0.991,0,1.737,0.217,2.234,0.649C21.973,29.23,22.223,29.847,22.223,30.645z M18.645,31.666h0.387
c0.319,0,0.572-0.09,0.761-0.27c0.188-0.179,0.282-0.426,0.282-0.74c0-0.53-0.294-0.795-0.881-0.795h-0.549V31.666z"/>
<path fill="#FFFFFF" d="M30.15,28.147v4.727c0,1.027-0.291,1.823-0.873,2.388c-0.582,0.563-1.421,0.846-2.517,0.846
c-1.071,0-1.894-0.273-2.468-0.822c-0.575-0.547-0.862-1.335-0.862-2.363v-4.774h2.132v4.608c0,0.555,0.105,0.958,0.313,1.209
c0.207,0.25,0.514,0.375,0.918,0.375c0.434,0,0.748-0.124,0.942-0.373c0.195-0.249,0.293-0.656,0.293-1.222v-4.598H30.15z"/>
<path fill="#FFFFFF" d="M31.799,28.147h2.739c1.067,0,1.859,0.158,2.377,0.476c0.517,0.316,0.776,0.81,0.776,1.479
c0,0.44-0.113,0.816-0.339,1.128s-0.522,0.512-0.892,0.602v0.054c0.486,0.129,0.84,0.344,1.059,0.645
c0.218,0.301,0.327,0.691,0.327,1.171c0,0.713-0.268,1.273-0.803,1.684C36.508,35.795,35.779,36,34.855,36h-3.057V28.147z
 M33.92,31.16h0.64c0.304,0,0.54-0.062,0.706-0.188c0.167-0.125,0.25-0.312,0.25-0.559c0-0.44-0.333-0.66-0.999-0.66H33.92V31.16z
 M33.92,32.713v1.648h0.747c0.663,0,0.993-0.279,0.993-0.838c0-0.261-0.088-0.461-0.266-0.602c-0.177-0.139-0.434-0.209-0.771-0.209
H33.92z"/>
</g></svg>