<?xml version="1.0" encoding="UTF-8"?>
<svg width="18px" height="18px" viewBox="0 0 18 18" version="1.1" xmlns="http://www.w3.org/2000/svg" xmlns:xlink="http://www.w3.org/1999/xlink">
    <!-- Generator: sketchtool 64 (101010) - https://sketch.com -->
    <title>DE73FD58-13AE-48CD-9339-C078A487137D</title>
    <desc>Created with sketchtool.</desc>
    <g id="Design" stroke="none" stroke-width="1" fill="none" fill-rule="evenodd">
        <g id="01" transform="translate(-19.000000, -392.000000)" fill="#888894" fill-rule="nonzero">
            <g id="Sidebar">
                <g id="Group" transform="translate(0.000000, 381.000000)">
                    <g id="help" transform="translate(19.000000, 11.000000)">
                        <path d="M18,12.3817298 C18,10.2248858 16.7626492,8.29997052 14.909474,7.36363636 C14.8519228,11.4991012 11.4991012,14.8519228 7.36363636,14.909474 C8.29997052,16.7626492 10.2248858,18 12.3817298,18 C13.3929866,18 14.376396,17.7306763 15.2404597,17.218948 L17.9754678,17.9754678 L17.218948,15.2404597 C17.7306763,14.376396 18,13.3929866 18,12.3817298 L18,12.3817298 Z" id="Path"></path>
                        <path d="M13.9090909,6.95454545 C13.9090909,3.11973506 10.7893558,0 6.95454545,0 C3.11973506,0 0,3.11973506 0,6.95454545 C0,8.20432928 0.332664261,9.42118022 0.964365119,10.4894856 L0.0255681818,13.8833838 L3.41960535,12.9447258 C4.48791069,13.5764266 5.70476163,13.9090909 6.95454545,13.9090909 C10.7893558,13.9090909 13.9090909,10.7893558 13.9090909,6.95454545 Z M5.88735178,5.33596838 L4.8201581,5.33596838 C4.8201581,4.15899825 5.77757533,3.20158103 6.95454545,3.20158103 C8.13151558,3.20158103 9.08893281,4.15899825 9.08893281,5.33596838 C9.08893281,5.93334672 8.83603014,6.50751915 8.39484004,6.91105176 L7.48814229,7.74090601 L7.48814229,8.57312253 L6.42094862,8.57312253 L6.42094862,7.2709517 L7.67434536,6.12371849 C7.89834486,5.91875616 8.02173913,5.6390347 8.02173913,5.33596838 C8.02173913,4.74748332 7.54303052,4.2687747 6.95454545,4.2687747 C6.36606039,4.2687747 5.88735178,4.74748332 5.88735178,5.33596838 Z M6.42094862,9.64031621 L7.48814229,9.64031621 L7.48814229,10.7075099 L6.42094862,10.7075099 L6.42094862,9.64031621 Z" id="Shape"></path>
                    </g>
                </g>
            </g>
        </g>
    </g>
</svg>