<?xml version="1.0" encoding="UTF-8"?>
<svg width="10px" height="12px" viewBox="0 0 10 12" version="1.1" xmlns="http://www.w3.org/2000/svg" xmlns:xlink="http://www.w3.org/1999/xlink">
    <!-- Generator: sketchtool 54.1 (76490) - https://sketchapp.com -->
    <title>8D0D5C6D-EEE9-48C4-953F-CD426EB2EAEE</title>
    <desc>Created with sketchtool.</desc>
    <g id="Connect-new-UI-2019" stroke="none" stroke-width="1" fill="none" fill-rule="evenodd">
        <g id="Discussions-tab" transform="translate(-565.000000, -1238.000000)" fill="#2A2A2A" fill-rule="nonzero">
            <path d="M574.707,1241.293 L571.707,1238.293 C571.519507,1238.10545 571.265195,1238.00006 571,1238 L566,1238 C565.447715,1238 565,1238.44772 565,1239 L565,1249 C565,1249.55228 565.447715,1250 566,1250 L574,1250 C574.552285,1250 575,1249.55228 575,1249 L575,1242 C574.999943,1241.73481 574.894549,1241.48049 574.707,1241.293 Z M566.5,1248.5 L566.5,1239.5 L570.5,1239.5 L570.5,1242.5 L573.5,1242.5 L573.5,1248.5 L566.5,1248.5 Z" id="file-12"></path>
        </g>
    </g>
</svg>