<svg xmlns="http://www.w3.org/2000/svg" xmlns:xlink="http://www.w3.org/1999/xlink" x="0px" y="0px" width="48px" height="48px" viewBox="0 0 48 48"><g >
<polygon fill="#9B131A" points="44,27 4,27 1,23 5,19 43,19 47,23 "/>
<path fill="#E6E6E6" d="M41,47H7c-1.105,0-2-0.895-2-2V3c0-1.105,0.895-2,2-2l24,0l12,12v32C43,46.105,42.105,47,41,47z"/>
<path fill="#B3B3B3" d="M31,1v10c0,1.105,0.895,2,2,2h10L31,1z"/>
<path fill="#EB1518" d="M45,41H3c-1.105,0-2-0.895-2-2V23h46v16C47,40.105,46.105,41,45,41z"/>
<path fill="#FFFFFF" d="M9.391,36h-2.09v-7.853h4.641v1.702H9.391v1.499h2.353v1.702H9.391V36z"/>
<path fill="#FFFFFF" d="M13.23,36v-7.853h2.122v6.14h3.024V36H13.23z"/>
<path fill="#FFFFFF" d="M24.451,36l-0.387-1.472h-2.551L21.115,36h-2.33l2.562-7.885h2.831L26.771,36H24.451z M23.624,32.788
l-0.339-1.289c-0.078-0.286-0.174-0.657-0.287-1.112c-0.113-0.454-0.188-0.78-0.223-0.977c-0.032,0.182-0.096,0.482-0.191,0.902
c-0.094,0.418-0.305,1.244-0.631,2.476H23.624z"/>
<path fill="#FFFFFF" d="M32.755,33.615c0,0.487-0.124,0.919-0.37,1.297c-0.248,0.378-0.604,0.672-1.069,0.881
c-0.466,0.21-1.012,0.314-1.638,0.314c-0.523,0-0.962-0.037-1.316-0.11s-0.723-0.201-1.106-0.384v-1.891
c0.405,0.208,0.825,0.37,1.263,0.486c0.437,0.116,0.838,0.174,1.203,0.174c0.314,0,0.545-0.054,0.692-0.163s0.22-0.25,0.22-0.422
c0-0.107-0.029-0.201-0.088-0.282c-0.06-0.08-0.154-0.162-0.285-0.244s-0.479-0.251-1.045-0.505
c-0.512-0.232-0.896-0.458-1.151-0.677c-0.257-0.219-0.446-0.469-0.569-0.752c-0.124-0.283-0.186-0.617-0.186-1.004
c0-0.724,0.264-1.288,0.789-1.692c0.527-0.404,1.25-0.606,2.17-0.606c0.813,0,1.643,0.188,2.487,0.563l-0.649,1.638
c-0.734-0.336-1.368-0.504-1.902-0.504c-0.275,0-0.476,0.048-0.602,0.145c-0.125,0.097-0.188,0.217-0.188,0.359
c0,0.154,0.08,0.292,0.239,0.414c0.159,0.122,0.591,0.344,1.297,0.666c0.677,0.305,1.146,0.631,1.41,0.98
C32.623,32.646,32.755,33.085,32.755,33.615z"/>
<path fill="#FFFFFF" d="M40.699,36h-2.133v-3.201h-2.465V36h-2.133v-7.853h2.133v2.911h2.465v-2.911h2.133V36z"/>
</g></svg>