<svg xmlns="http://www.w3.org/2000/svg" xmlns:xlink="http://www.w3.org/1999/xlink" x="0px" y="0px" width="48px" height="48px" viewBox="0 0 48 48"><g >
<polygon fill="#9B131A" points="44,27 4,27 1,23 5,19 43,19 47,23 "/>
<path fill="#E6E6E6" d="M41,47H7c-1.105,0-2-0.895-2-2V3c0-1.105,0.895-2,2-2l24,0l12,12v32C43,46.105,42.105,47,41,47z"/>
<path fill="#B3B3B3" d="M31,1v10c0,1.105,0.895,2,2,2h10L31,1z"/>
<path fill="#EB1518" d="M45,41H3c-1.105,0-2-0.895-2-2V23h46v16C47,40.105,46.105,41,45,41z"/>
<path fill="#FFFFFF" d="M16.955,36h-2.089v-7.853h4.641v1.702h-2.552v1.499h2.354v1.702h-2.354V36z"/>
<path fill="#FFFFFF" d="M20.796,36v-7.853h2.122v6.14h3.023V36H20.796z"/>
<path fill="#FFFFFF" d="M31.607,28.147h2.375L31.409,36h-2.497l-2.562-7.853h2.385l1.068,3.979c0.223,0.885,0.344,1.501,0.365,1.848
c0.025-0.25,0.076-0.563,0.15-0.939c0.076-0.376,0.143-0.672,0.199-0.887L31.607,28.147z"/>
</g></svg>