<svg version="1.1" xmlns="http://www.w3.org/2000/svg" xmlns:xlink="http://www.w3.org/1999/xlink" x="0px" y="0px" viewBox="0 0 16 16" xml:space="preserve" width="16" height="16"><g class="nc-icon-wrapper" fill="#888894"><path fill="#888894" d="M15,5H1C0.448,5,0,4.552,0,4V2c0-0.552,0.448-1,1-1h14c0.552,0,1,0.448,1,1v2C16,4.552,15.552,5,15,5z"></path> <path data-color="color-2" fill="#888894" d="M15,10H1c-0.552,0-1-0.448-1-1v0c0-0.552,0.448-1,1-1h14c0.552,0,1,0.448,1,1v0 C16,9.552,15.552,10,15,10z"></path> <path data-color="color-2" fill="#888894" d="M15,15H1c-0.552,0-1-0.448-1-1v0c0-0.552,0.448-1,1-1h14c0.552,0,1,0.448,1,1v0 C16,14.552,15.552,15,15,15z"></path></g></svg>