<svg xmlns="http://www.w3.org/2000/svg" xmlns:xlink="http://www.w3.org/1999/xlink" x="0px" y="0px" width="48px" height="48px" viewBox="0 0 48 48"><g >
<polygon fill="#5B5BB5" points="44,27 4,27 1,23 5,19 43,19 47,23 "/>
<path fill="#E6E6E6" d="M41,47H7c-1.105,0-2-0.895-2-2V3c0-1.105,0.895-2,2-2l24,0l12,12v32C43,46.105,42.105,47,41,47z"/>
<path fill="#B3B3B3" d="M31,1v10c0,1.105,0.895,2,2,2h10L31,1z"/>
<path fill="#8680D8" d="M45,41H3c-1.105,0-2-0.895-2-2V23h46v16C47,40.105,46.105,41,45,41z"/>
<path fill="#FFFFFF" d="M15.181,31.402h3.39v4.232c-0.921,0.315-1.932,0.473-3.035,0.473c-1.211,0-2.146-0.351-2.807-1.053
s-0.99-1.703-0.99-3.002c0-1.268,0.361-2.255,1.084-2.96c0.724-0.705,1.737-1.058,3.041-1.058c0.494,0,0.96,0.046,1.398,0.139
c0.439,0.094,0.821,0.212,1.146,0.355l-0.671,1.664c-0.565-0.279-1.187-0.418-1.864-0.418c-0.619,0-1.098,0.201-1.436,0.604
c-0.34,0.403-0.508,0.979-0.508,1.727c0,0.734,0.152,1.294,0.459,1.679s0.747,0.577,1.324,0.577c0.314,0,0.604-0.03,0.869-0.091
v-1.229h-1.401V31.402z"/>
<path fill="#FFFFFF" d="M25.768,36h-6.118v-1.311l3.399-4.828H19.73v-1.714h5.951v1.306l-3.4,4.834h3.486V36z"/>
<path fill="#FFFFFF" d="M26.89,36v-7.853h2.132V36H26.89z"/>
<path fill="#FFFFFF" d="M36.418,30.645c0,0.878-0.259,1.556-0.775,2.033c-0.518,0.479-1.253,0.717-2.205,0.717h-0.597V36h-2.122
v-7.853h2.719c0.991,0,1.736,0.217,2.234,0.649C36.169,29.23,36.418,29.847,36.418,30.645z M32.841,31.666h0.387
c0.319,0,0.571-0.09,0.761-0.27c0.188-0.179,0.281-0.426,0.281-0.74c0-0.53-0.293-0.795-0.881-0.795h-0.548V31.666z"/>
</g></svg>