<svg xmlns="http://www.w3.org/2000/svg" xmlns:xlink="http://www.w3.org/1999/xlink" x="0px" y="0px" width="48px" height="48px" viewBox="0 0 48 48"><g >
<polygon fill="#458BC4" points="44,27 4,27 1,23 5,19 43,19 47,23 "/>
<path fill="#E6E6E6" d="M41,47H7c-1.105,0-2-0.895-2-2V3c0-1.105,0.895-2,2-2l24,0l12,12v32C43,46.105,42.105,47,41,47z"/>
<path fill="#B3B3B3" d="M31,1v10c0,1.105,0.895,2,2,2h10L31,1z"/>
<path fill="#43A6DD" d="M45,41H3c-1.105,0-2-0.895-2-2V23h46v16C47,40.105,46.105,41,45,41z"/>
<path fill="#FFFFFF" d="M15.597,36h-2.132v-3.201H11V36H8.867v-7.853H11v2.911h2.465v-2.911h2.132V36z"/>
<path fill="#FFFFFF" d="M20.759,36h-2.122v-6.117H16.72v-1.735h5.951v1.735h-1.912V36z"/>
<path fill="#FFFFFF" d="M27.215,36l-1.606-5.656h-0.048c0.075,0.964,0.113,1.712,0.113,2.246V36h-1.88v-7.853h2.825l1.638,5.575
H28.3l1.606-5.575h2.831V36h-1.95v-3.443c0-0.179,0.003-0.377,0.008-0.596c0.006-0.219,0.03-0.754,0.073-1.605h-0.048L29.234,36
H27.215z"/>
<path fill="#FFFFFF" d="M34.428,36v-7.853h2.122v6.14h3.024V36H34.428z"/>
</g></svg>