<svg fill="red" xmlns="http://www.w3.org/2000/svg" width="100" height="100" viewBox="-247 370.9 100 100"><path d="M-162.2 386c-19.2-19.2-50.5-19.2-69.7 0-19.2 19.3-19.1 50.5.1 69.7 19.2 19.2 50.4 19.3 69.7.1 19.2-19.3 19.2-50.5-.1-69.8zm-3.5 66.2c-17.3 17.3-45.3 17.2-62.6-.1s-17.3-45.3 0-62.5 45.3-17.3 62.6-.1 17.2 45.5 0 62.7z"/><path d="M-171.4 395.3c-1-1-2.6-1-3.5 0l-22 22-22-22c-1-1-2.6-1-3.5 0s-1 2.6 0 3.5l22 22-22 22c-1 1-1 2.6 0 3.5s2.6 1 3.5 0l22-22 22 22c1 1 2.6 1 3.5 0s1-2.6 0-3.5l-22-22 22-22c.9-.9.9-2.5 0-3.5z"/></svg>
