<?xml version="1.0" encoding="UTF-8"?>
<svg width="48px" height="48px" viewBox="0 0 48 48" version="1.1" xmlns="http://www.w3.org/2000/svg" xmlns:xlink="http://www.w3.org/1999/xlink">
    <!-- Generator: Sketch 46.1 (44463) - http://www.bohemiancoding.com/sketch -->
    <desc>Created with Sketch.</desc>
    <defs></defs>
    <g id="Transitional-project-creation" stroke="none" stroke-width="1" fill="none" fill-rule="evenodd">
        <g id="icon-dont-know" fill="#262628">
            <path d="M20.0443951,31.6612903 C20.0443951,30.4426462 20.1109871,29.3539474 20.2441731,28.3951613 C20.3773592,27.4363751 20.603772,26.5537675 20.9234184,25.7473118 C21.2430649,24.9408562 21.6603748,24.1926558 22.1753607,23.5026882 C22.6903466,22.8127206 23.3296299,22.1182831 24.0932297,21.4193548 C24.6970063,20.8817177 25.2563792,20.3575294 25.7713651,19.8467742 C26.2863511,19.336019 26.7302978,18.8252714 27.1032186,18.3145161 C27.4761395,17.8037609 27.7647049,17.2661319 27.9689234,16.7016129 C28.173142,16.137094 28.2752497,15.5322613 28.2752497,14.8870968 C28.2752497,13.3637917 27.9245318,12.2258102 27.2230855,11.4731183 C26.5216391,10.7204263 25.4872432,10.344086 24.1198668,10.344086 C23.5693646,10.344086 23.0321891,10.4292106 22.5083241,10.5994624 C21.9844591,10.7697141 21.518315,11.0430089 21.1098779,11.4193548 C20.7014408,11.7957008 20.3729202,12.2750867 20.1243063,12.8575269 C19.8756924,13.4399671 19.7425084,14.1344046 19.7247503,14.9408602 L12,14.9408602 C12.0177581,13.0591304 12.3462787,11.4328026 12.9855716,10.061828 C13.6248645,8.69085336 14.4861211,7.55735215 15.5693674,6.66129032 C16.6526136,5.76522849 17.9267407,5.09767245 19.3917869,4.65860215 C20.8568331,4.21953185 22.432844,4 24.1198668,4 C25.984471,4 27.6537107,4.23297258 29.127636,4.69892473 C30.6015612,5.16487688 31.844612,5.84139341 32.8568257,6.72849462 C33.8690395,7.61559583 34.6459462,8.71773535 35.1875694,10.0349462 C35.7291925,11.3521571 36,12.8530382 36,14.5376344 C36,15.720436 35.8224213,16.7867336 35.4672586,17.7365591 C35.1120959,18.6863847 34.6326334,19.5824331 34.0288568,20.4247312 C33.4250802,21.2670293 32.7325233,22.0779531 31.9511654,22.8575269 C31.1698074,23.6371007 30.3440665,24.4301035 29.4739179,25.2365591 C28.9766901,25.7025113 28.5638196,26.1684565 28.2352941,26.6344086 C27.9067686,27.1003608 27.6404006,27.5887071 27.436182,28.0994624 C27.2319635,28.6102176 27.0899005,29.1568071 27.0099889,29.7392473 C26.9300773,30.3216875 26.8812432,30.9623621 26.863485,31.6612903 L20.0443951,31.6612903 Z M19.2719201,39.9139785 C19.2719201,39.3225777 19.3740278,38.7759882 19.5782464,38.2741935 C19.782465,37.7723989 20.0710303,37.3378155 20.4439512,36.9704301 C20.816872,36.6030448 21.2696977,36.311829 21.8024417,36.0967742 C22.3351858,35.8817194 22.9300744,35.7741935 23.5871254,35.7741935 C24.2441764,35.7741935 24.839065,35.8817194 25.3718091,36.0967742 C25.9045532,36.311829 26.3573788,36.6030448 26.7302997,36.9704301 C27.1032205,37.3378155 27.3917859,37.7723989 27.5960044,38.2741935 C27.800223,38.7759882 27.9023307,39.3225777 27.9023307,39.9139785 C27.9023307,40.4874581 27.800223,41.0250871 27.5960044,41.5268817 C27.3917859,42.0286763 27.1032205,42.4632598 26.7302997,42.8306452 C26.3573788,43.1980305 25.9045532,43.484766 25.3718091,43.6908602 C24.839065,43.8969544 24.2441764,44 23.5871254,44 C22.9300744,44 22.3351858,43.8969544 21.8024417,43.6908602 C21.2696977,43.484766 20.816872,43.1980305 20.4439512,42.8306452 C20.0710303,42.4632598 19.782465,42.0286763 19.5782464,41.5268817 C19.3740278,41.0250871 19.2719201,40.4874581 19.2719201,39.9139785 Z" id="?"></path>
        </g>
    </g>
</svg>