<svg fill="#127D60" xmlns="http://www.w3.org/2000/svg" viewBox="0 0 512 512"><path d="M509.27 105.194L398.715 2.401C396.815.637 394.59 0 392 0H31.77C14.84 0 0 13.103 0 30.047v450.53C0 497.522 14.85 512 31.8 512h450.53c16.94 0 29.67-14.462 29.67-31.397V112.688c0-2.844-.65-5.56-2.73-7.494zM112.64 20.48H358.4v194.56H112.64V20.48zm378.88 460.123c0 5.641-3.54 10.917-9.19 10.917H31.8c-5.66 0-11.32-5.287-11.32-10.942V30.047c0-5.655 5.65-9.568 11.29-9.568h60.39v204.112c0 5.656 5.64 10.928 11.3 10.928H369.7c5.66 0 9.18-5.271 9.18-10.928V20.48h9.09l103.55 96.667v363.456z"/><path d="M296.96 51.2h20.48v133.12h-20.48zM369.9 327.68H103.46c-5.66 0-10.24 4.585-10.24 10.24s4.58 10.24 10.24 10.24H369.9c5.66 0 10.24-4.585 10.24-10.24s-4.58-10.24-10.24-10.24zM369.9 378.88H103.46c-5.66 0-10.24 4.585-10.24 10.24s4.58 10.24 10.24 10.24H369.9c5.66 0 10.24-4.585 10.24-10.24s-4.58-10.24-10.24-10.24zM369.9 430.08H103.46c-5.66 0-10.24 4.585-10.24 10.24s4.58 10.24 10.24 10.24H369.9c5.66 0 10.24-4.585 10.24-10.24s-4.58-10.24-10.24-10.24z"/></svg>
