<?xml version="1.0" encoding="UTF-8"?>
<svg width="16px" height="16px" viewBox="0 0 16 16" version="1.1" xmlns="http://www.w3.org/2000/svg" xmlns:xlink="http://www.w3.org/1999/xlink">
    <!-- Generator: sketchtool 55.2 (78181) - https://sketchapp.com -->
    <title>D3AEBC4E-77B8-4E5C-8FEF-FA3C13086BD3</title>
    <desc>Created with sketchtool.</desc>
    <defs>
        <path d="M12,1 L12,3 L16,3 L16,5 L15,5 L15,15 C15,15.6 14.6,16 14,16 L2,16 C1.4,16 1,15.6 1,15 L1,5 L0,5 L0,3 L4,3 L4,1 C4,0.4 4.4,0 5,0 L11,0 C11.6,0 12,0.4 12,1 Z M13,14 L13,5 L3,5 L3,14 L13,14 Z M6,2 L6,3 L10,3 L10,2 L6,2 Z M5,7 L7,7 L7,13 L5,13 L5,7 Z M9,7 L11,7 L11,13 L9,13 L9,7 Z" id="path-1"></path>
    </defs>
    <g id="Symbols" stroke="none" stroke-width="1" fill="none" fill-rule="evenodd">
        <g id="UI-Kit/Icons/ui/trash">
            <mask id="mask-2" fill="white">
                <use xlink:href="#path-1"></use>
            </mask>
            <use id="icon-color" fill="#2A2A2A" xlink:href="#path-1"></use>
        </g>
    </g>
</svg>