<?xml version="1.0" encoding="UTF-8" standalone="no"?>
<svg width="46px" height="44px" viewBox="0 0 46 44" version="1.1" xmlns="http://www.w3.org/2000/svg" xmlns:xlink="http://www.w3.org/1999/xlink">
    <!-- Generator: Sketch 39.1 (31720) - http://www.bohemiancoding.com/sketch -->
    <title>ui-48px-color-home</title>
    <desc>Created with Sketch.</desc>
    <defs></defs>
    <g id="Speck" stroke="none" stroke-width="1" fill="none" fill-rule="evenodd">
        <g id="Specification-v2" transform="translate(-696.000000, -2750.000000)">
            <g id="Group-14" transform="translate(655.000000, 2715.000000)">
                <g id="ui-48px-color-home" transform="translate(41.000000, 35.000000)">
                    <path d="M7,16 L7,5 C7,4.44772 7.44771,4 8,4 L12,4 C12.55229,4 13,4.44772 13,5 L13,11.09091 L7,16 L7,16 Z" id="Shape" fill="#F22F24"></path>
                    <path d="M23,1 L6,16.11108 L6,41.99951 C6,43.10406 6.89545,43.99951 8,43.99951 L38,43.99951 C39.10461,43.99951 40,43.10406 40,41.99951 L40,16.11108 L23,1 L23,1 Z" id="Shape" fill="#FEE3D0"></path>
                    <path d="M44.99951,21.99951 C44.75976,21.99951 44.51904,21.91357 44.32715,21.73974 L23,2.35107 L1.67285,21.73975 C1.26367,22.11084 0.63135,22.07959 0.26025,21.67237 C-0.11133,21.26319 -0.08155,20.63135 0.32714,20.25928 L22.32714,0.25928 C22.70898,-0.08642 23.29101,-0.08642 23.67284,0.25928 L45.67284,20.25928 C46.08153,20.63135 46.11132,21.26319 45.73973,21.67237 C45.54248,21.88916 45.27148,21.99951 44.99951,21.99951 L44.99951,21.99951 Z" id="Shape" fill="#FF5B52"></path>
                    <path d="M27,31 L19,31 C18.44772,31 18,31.44772 18,32 L18,44 L28,44 L28,32 C28,31.44772 27.55228,31 27,31 L27,31 Z" id="Shape" fill="#BD731E"></path>
                    <path d="M27,25 L19,25 C18.44772,25 18,24.55228 18,24 L18,18 C18,17.44772 18.44772,17 19,17 L27,17 C27.55228,17 28,17.44772 28,18 L28,24 C28,24.55228 27.55228,25 27,25 L27,25 Z" id="Shape" fill="#26ADE9"></path>
                </g>
            </g>
        </g>
    </g>
</svg>