<?xml version="1.0" encoding="UTF-8"?>
<svg width="48px" height="48px" viewBox="0 0 48 48" version="1.1" xmlns="http://www.w3.org/2000/svg" xmlns:xlink="http://www.w3.org/1999/xlink">
    <!-- Generator: Sketch 46.1 (44463) - http://www.bohemiancoding.com/sketch -->
    <desc>Created with Sketch.</desc>
    <defs></defs>
    <g id="Transitional-project-creation" stroke="none" stroke-width="1" fill="none" fill-rule="evenodd">
        <g id="icon-platform-lg" fill-rule="nonzero" fill="#262628">
            <g id="layers-3" transform="translate(3.000000, 2.000000)">
                <path d="M41.5,29.1 C41.8,29.3 42,29.6 42,30 C42,30.4 41.8,30.7 41.5,30.9 L21.5,42.9 C21.4,43 21.2,43 21,43 C20.8,43 20.6,43 20.5,42.9 L0.5,30.9 C0.2,30.7 0,30.4 0,30 C0,29.6 0.2,29.3 0.5,29.2 L3.8,27.2 L19.5,36.5 C19.9,36.8 20.5,36.9 21,36.9 C21.5,36.9 22,36.8 22.5,36.5 L38.2,27.1 L41.5,29.1 Z M41.5,21.1 C41.8,21.3 42,21.6 42,22 C42,22.4 41.8,22.7 41.5,22.9 L21.5,34.9 C21.4,35 21.2,35 21,35 C20.8,35 20.6,35 20.5,34.9 L0.5,22.9 C0.2,22.7 0,22.4 0,22 C0,21.6 0.2,21.3 0.5,21.2 L3.8,19.2 L19.5,28.5 C19.9,28.8 20.5,28.9 21,28.9 C21.5,28.9 22,28.8 22.5,28.5 L38.2,19.1 L41.5,21.1 Z M41.5,13.1 C41.8,13.3 42,13.6 42,14 C42,14.4 41.8,14.7 41.5,14.9 L21.5,26.9 C21.4,27 21.2,27 21,27 C20.8,27 20.6,27 20.5,26.9 L0.5,14.9 C0.2,14.7 0,14.4 0,14 C0,13.6 0.2,13.3 0.5,13.1 L20.5,1.1 C20.8,0.9 21.2,0.9 21.5,1.1 L41.5,13.1 Z" id="Combined-Shape"></path>
            </g>
        </g>
    </g>
</svg>