<svg xmlns="http://www.w3.org/2000/svg" width="13" height="3" viewBox="0 0 26.705 6.053">
  <path id="Path_1" d="M19.516,18.008A1.508,1.508,0,1,1,18.008,16.5,1.508,1.508,0,0,1,19.516,18.008Z" transform="translate(-4.869 -15)" fill="none" stroke="#000" stroke-linecap="round" stroke-linejoin="round" stroke-width="3"/>
  <path id="Path_2" d="M30.016,18.008A1.508,1.508,0,1,1,28.508,16.5,1.508,1.508,0,0,1,30.016,18.008Z" transform="translate(-4.812 -15)" fill="none" stroke="#000" stroke-linecap="round" stroke-linejoin="round" stroke-width="3"/>
  <path id="Path_3" d="M8.591,18.027a1.425,1.425,0,0,1-1.3,1.527A1.425,1.425,0,0,1,6,18.027,1.425,1.425,0,0,1,7.3,16.5,1.425,1.425,0,0,1,8.591,18.027Z" transform="translate(-4.5 -15)" fill="none" stroke="#000" stroke-linecap="round" stroke-linejoin="round" stroke-width="3"/>
</svg>
