<svg xmlns="http://www.w3.org/2000/svg" xmlns:xlink="http://www.w3.org/1999/xlink" x="0px" y="0px" width="16px" height="16px" viewBox="0 0 16 16"><g ><path fill="#FDA464" d="M6.3,10.7C6.5,10.9,6.7,11,7,11s0.5-0.1,0.7-0.3L9,9.4l3.3,3.3c0.6,0.6,1.2,0.2,1.4,0l2-2
c0.4-0.4,0.4-1,0-1.4L12.4,6l1.3-1.3c0.4-0.4,0.4-1,0-1.4l-3-3c-0.4-0.4-1-0.4-1.4,0l-6,6c-0.4,0.4-0.4,1,0,1.4L6.3,10.7z M10,2.4
L11.6,4L7,8.6L5.4,7L10,2.4z"/>
<rect data-color="color-2" y="14" fill="#FDA464" width="16" height="2"/>
<rect data-color="color-2" x="0.9" y="10.5" transform="matrix(0.8944 0.4472 -0.4472 0.8944 5.4597 -0.1276)" fill="#FDA464" width="4.2" height="2"/></g></svg>