<svg xmlns="http://www.w3.org/2000/svg" width="34.573" height="34.573" viewBox="0 0 34.573 34.573"><defs><style>.a{fill:#333;}</style></defs>
    <title id="title">Move Milestone(s)</title>
    <path class="a" d="M24.489,4.322V1.441a1.441,1.441,0,0,1,2.881,0V4.322a1.441,1.441,0,0,1-2.881,0ZM7.2,5.762A1.44,1.44,0,0,0,8.643,4.322V1.441a1.441,1.441,0,0,0-2.881,0V4.322A1.44,1.44,0,0,0,7.2,5.762ZM25.93,24.489V20.168H24.489V25.93h4.322V24.489Zm-7.2.72a6.482,6.482,0,1,0,6.482-6.482A6.49,6.49,0,0,0,18.727,25.21Zm15.846,0a9.364,9.364,0,1,1-9.364-9.364A9.363,9.363,0,0,1,34.573,25.21ZM14.064,30.252H2.881V11.524h27.37v2.54a12.281,12.281,0,0,1,2.881,1.827V2.881H28.811V4.322A2.892,2.892,0,0,1,24.982,7.05a2.959,2.959,0,0,1-1.933-2.858V2.881H10.084V4.322A2.892,2.892,0,0,1,6.255,7.05,2.959,2.959,0,0,1,4.322,4.192V2.881H0V33.133H15.891A12.281,12.281,0,0,1,14.064,30.252Z"/></svg>