<svg xmlns="http://www.w3.org/2000/svg" width="34.573" height="34.573"><path d="M24.489 4.322V1.441a1.441 1.441 0 012.881 0v2.881a1.441 1.441 0 01-2.881 0zM7.2 5.762a1.44 1.44 0 001.443-1.44V1.441a1.441 1.441 0 00-2.881 0v2.881A1.44 1.44 0 007.2 5.762zm18.73 18.727v-4.321h-1.441v5.762h4.322v-1.441zm-7.2.72a6.482 6.482 0 106.482-6.482 6.49 6.49 0 00-6.485 6.483zm15.846 0a9.364 9.364 0 11-9.364-9.364 9.363 9.363 0 019.361 9.365zm-20.512 5.043H2.881V11.524h27.37v2.54a12.281 12.281 0 012.881 1.827V2.881h-4.321v1.441a2.892 2.892 0 01-3.829 2.728 2.959 2.959 0 01-1.933-2.858V2.881H10.084v1.441A2.892 2.892 0 016.255 7.05a2.959 2.959 0 01-1.933-2.858V2.881H0v30.252h15.891a12.281 12.281 0 01-1.827-2.881z" fill="#333"/></svg>