<?xml version="1.0" encoding="UTF-8"?>
<svg width="12px" height="12px" viewBox="0 0 12 12" version="1.1" xmlns="http://www.w3.org/2000/svg" xmlns:xlink="http://www.w3.org/1999/xlink">
    <!-- Generator: sketchtool 54.1 (76490) - https://sketchapp.com -->
    <g id="Connect-new-UI-2019" stroke="none" stroke-width="1" fill="none" fill-rule="evenodd">
        <g id="Discussions-tab" transform="translate(-525.000000, -1238.000000)" fill="#ffffff" fill-rule="nonzero">
            <path d="M532.285327,1241.28852 C531.895744,1241.10351 531.459961,1241 531,1241 C529.343146,1241 528,1242.34315 528,1244 C528,1244.45996 528.103513,1244.89574 528.288515,1245.28533 L532.285327,1241.28852 L532.285327,1241.28852 Z M526.761623,1246.81222 C526.691538,1246.7333 526.622127,1246.65258 526.553389,1246.57009 C526.123221,1246.05389 525.749854,1245.50302 525.433561,1244.95206 C525.242825,1244.61981 525.112207,1244.35857 525.043094,1244.20307 C524.985635,1244.07379 524.985635,1243.92621 525.043094,1243.79693 C525.112207,1243.64143 525.242825,1243.38019 525.433561,1243.04794 C525.749854,1242.49698 526.123221,1241.94611 526.553389,1241.42991 C527.811095,1239.92066 529.294382,1239 531,1239 C531.981381,1239 532.889156,1239.3048 533.722706,1239.85114 L535.278475,1238.29537 C535.672297,1237.90154 536.31081,1237.90154 536.704633,1238.29537 C537.098456,1238.68919 537.098456,1239.3277 536.704633,1239.72153 L526.721525,1249.70463 C526.327703,1250.09846 525.68919,1250.09846 525.295367,1249.70463 C524.901544,1249.31081 524.901544,1248.6723 525.295367,1248.27847 L526.761622,1246.81222 L526.761623,1246.81222 Z M536.336316,1242.66368 C536.416113,1242.79147 536.492822,1242.91971 536.566439,1243.04794 C536.757175,1243.38019 536.887793,1243.64143 536.956906,1243.79693 C537.014365,1243.92621 537.014365,1244.07379 536.956906,1244.20307 C536.887793,1244.35857 536.757175,1244.61981 536.566439,1244.95206 C536.250146,1245.50302 535.876779,1246.05389 535.446611,1246.57009 C534.188905,1248.07934 532.705618,1249 531,1249 C530.689181,1249 530.385745,1248.96943 530.089712,1248.91029 L532.291414,1246.70859 C532.910761,1246.41276 533.41276,1245.91076 533.708586,1245.29141 L536.336317,1242.66368 L536.336316,1242.66368 Z" id="invisible-12"></path>
        </g>
    </g>
</svg>