<?xml version="1.0" encoding="UTF-8"?>
<svg width="16px" height="16px" viewBox="0 0 16 16" version="1.1" xmlns="http://www.w3.org/2000/svg" xmlns:xlink="http://www.w3.org/1999/xlink">
    <!-- Generator: sketchtool 54.1 (76490) - https://sketchapp.com -->
    <title>9BEADAED-C145-42F5-BF69-613DA35033F4</title>
    <desc>Created with sketchtool.</desc>
    <g id="Connect-new-UI-2019" stroke="none" stroke-width="1" fill-rule="evenodd">
        <g id="Discussions-tab" transform="translate(-700.000000, -1238.000000)"  fill-rule="nonzero">
            <path d="M714.6,1243.6 C715,1244.1 715.4,1244.5 715.6,1244.8 C716.1,1245.5 716.1,1246.4 715.6,1247.1 C714.4,1248.9 711.6,1252 708,1252 C707.5,1252 706.9,1251.9 706.4,1251.8 L714.6,1243.6 Z M714.3,1238.3 C714.7,1237.9 715.3,1237.9 715.7,1238.3 C716.1,1238.7 716.1,1239.3 715.7,1239.7 L701.7,1253.7 C701.5,1253.9 701.3,1254 701,1254 C700.7,1254 700.5,1253.9 700.3,1253.7 C699.9,1253.3 699.9,1252.7 700.3,1252.3 L702.8,1249.8 C701.8,1248.9 700.9,1247.9 700.4,1247.1 C699.9,1246.5 699.9,1245.6 700.4,1244.9 C701.6,1243.1 704.4,1240 708,1240 C709.3,1240 710.5,1240.4 711.6,1241 L714.3,1238.3 Z M705.3,1247.3 L709.3,1243.3 C708.9,1243.1 708.5,1243 708,1243 C706.3,1243 705,1244.3 705,1246 C705,1246.5 705.1,1246.9 705.3,1247.3 Z" id="invisible"></path>
        </g>
    </g>
</svg>