<svg xmlns="http://www.w3.org/2000/svg" xmlns:xlink="http://www.w3.org/1999/xlink" x="0px" y="0px" width="48px" height="48px" viewBox="0 0 48 48"><g >
<polygon fill="#A67C52" points="44,27 4,27 1,23 5,19 43,19 47,23 "/>
<path fill="#E6E6E6" d="M41,47H7c-1.105,0-2-0.895-2-2V3c0-1.105,0.895-2,2-2l24,0l12,12v32C43,46.105,42.105,47,41,47z"/>
<path fill="#B3B3B3" d="M31,1v10c0,1.105,0.895,2,2,2h10L31,1z"/>
<path fill="#C19F85" d="M45,41H3c-1.105,0-2-0.895-2-2V23h46v16C47,40.105,46.105,41,45,41z"/>
<path fill="#FFFFFF" d="M14.579,38.465c-0.387,0-0.754-0.037-1.101-0.112v-1.649c0.115,0.021,0.236,0.046,0.365,0.073
c0.129,0.026,0.269,0.04,0.419,0.04c0.351,0,0.602-0.105,0.752-0.316c0.15-0.212,0.226-0.573,0.226-1.086v-7.267h2.132v7.085
c0,1.062-0.233,1.868-0.698,2.414S15.51,38.465,14.579,38.465z"/>
<path fill="#FFFFFF" d="M23.887,36L23.5,34.528h-2.551L20.552,36h-2.331l2.562-7.885h2.831L26.208,36H23.887z M23.06,32.788
l-0.338-1.289c-0.079-0.286-0.175-0.657-0.287-1.112c-0.113-0.454-0.188-0.78-0.223-0.977c-0.032,0.182-0.096,0.482-0.191,0.902
c-0.095,0.418-0.305,1.244-0.631,2.476H23.06z"/>
<path fill="#FFFFFF" d="M29.178,33.143V36h-2.122v-7.853h2.573c2.134,0,3.201,0.773,3.201,2.32c0,0.909-0.444,1.613-1.332,2.11
L33.786,36H31.38l-1.665-2.857H29.178z M29.178,31.547h0.397c0.741,0,1.112-0.327,1.112-0.982c0-0.541-0.363-0.811-1.09-0.811
h-0.419V31.547z"/>
</g></svg>