<svg xmlns="http://www.w3.org/2000/svg" xmlns:xlink="http://www.w3.org/1999/xlink" x="0px" y="0px" width="48px" height="48px" viewBox="0 0 48 48"><g >
<polygon fill="#990E0E" points="44,27 4,27 1,23 5,19 43,19 47,23 "/>
<path fill="#E6E6E6" d="M41,47H7c-1.105,0-2-0.895-2-2V3c0-1.105,0.895-2,2-2l24,0l12,12v32C43,46.105,42.105,47,41,47z"/>
<path fill="#B3B3B3" d="M31,1v10c0,1.105,0.895,2,2,2h10L31,1z"/>
<path fill="#E60000" d="M45,41H3c-1.105,0-2-0.895-2-2V23h46v16C47,40.105,46.105,41,45,41z"/>
<path fill="#FFFFFF" d="M10.492,38.465c-0.387,0-0.754-0.037-1.101-0.112v-1.649c0.115,0.021,0.236,0.046,0.365,0.073
c0.129,0.026,0.269,0.04,0.419,0.04c0.351,0,0.602-0.105,0.752-0.316c0.15-0.212,0.226-0.573,0.226-1.086v-7.267h2.132v7.085
c0,1.062-0.233,1.868-0.698,2.414S11.423,38.465,10.492,38.465z"/>
<path fill="#FFFFFF" d="M19.8,36l-0.387-1.472h-2.551L16.464,36h-2.331l2.562-7.885h2.831L22.12,36H19.8z M18.973,32.788
l-0.338-1.289c-0.079-0.286-0.175-0.657-0.287-1.112c-0.113-0.454-0.188-0.78-0.223-0.977c-0.032,0.182-0.096,0.482-0.191,0.902
c-0.095,0.418-0.305,1.244-0.631,2.476H18.973z"/>
<path fill="#FFFFFF" d="M27.378,28.147h2.374L27.18,36h-2.498l-2.562-7.853h2.385l1.069,3.979c0.222,0.885,0.344,1.501,0.365,1.848
c0.025-0.25,0.075-0.563,0.15-0.939s0.142-0.672,0.199-0.887L27.378,28.147z"/>
<path fill="#FFFFFF" d="M35.419,36l-0.387-1.472h-2.551L32.083,36h-2.331l2.562-7.885h2.831L37.739,36H35.419z M34.592,32.788
l-0.338-1.289c-0.079-0.286-0.175-0.657-0.287-1.112c-0.113-0.454-0.188-0.78-0.223-0.977c-0.032,0.182-0.096,0.482-0.191,0.902
c-0.095,0.418-0.305,1.244-0.631,2.476H34.592z"/>
</g></svg>