<svg xmlns="http://www.w3.org/2000/svg" xmlns:xlink="http://www.w3.org/1999/xlink" x="0px" y="0px" width="48px" height="48px" viewBox="0 0 48 48"><g >
<polygon fill="#990E0E" points="44,27 4,27 1,23 5,19 43,19 47,23 "/>
<path fill="#E6E6E6" d="M41,47H7c-1.105,0-2-0.895-2-2V3c0-1.105,0.895-2,2-2l24,0l12,12v32C43,46.105,42.105,47,41,47z"/>
<path fill="#B3B3B3" d="M31,1v10c0,1.105,0.895,2,2,2h10L31,1z"/>
<path fill="#E60000" d="M45,41H3c-1.105,0-2-0.895-2-2V23h46v16C47,40.105,46.105,41,45,41z"/>
<path fill="#FFFFFF" d="M15.646,38.465c-0.387,0-0.754-0.037-1.101-0.112v-1.649c0.114,0.021,0.236,0.046,0.365,0.073
c0.129,0.026,0.268,0.04,0.418,0.04c0.352,0,0.602-0.105,0.752-0.316c0.15-0.212,0.227-0.573,0.227-1.086v-7.267h2.132v7.085
c0,1.062-0.233,1.868-0.698,2.414S16.576,38.465,15.646,38.465z"/>
<path fill="#FFFFFF" d="M25.271,33.615c0,0.487-0.124,0.919-0.37,1.297c-0.248,0.378-0.604,0.672-1.069,0.881
c-0.466,0.21-1.012,0.314-1.638,0.314c-0.523,0-0.962-0.037-1.316-0.11s-0.723-0.201-1.106-0.384v-1.891
c0.405,0.208,0.825,0.37,1.263,0.486c0.437,0.116,0.838,0.174,1.203,0.174c0.314,0,0.545-0.054,0.692-0.163s0.22-0.25,0.22-0.422
c0-0.107-0.029-0.201-0.088-0.282c-0.06-0.08-0.154-0.162-0.285-0.244s-0.479-0.251-1.045-0.505
c-0.512-0.232-0.896-0.458-1.151-0.677c-0.257-0.219-0.446-0.469-0.569-0.752c-0.124-0.283-0.186-0.617-0.186-1.004
c0-0.724,0.264-1.288,0.789-1.692c0.527-0.404,1.25-0.606,2.17-0.606c0.813,0,1.643,0.188,2.487,0.563l-0.649,1.638
c-0.734-0.336-1.368-0.504-1.902-0.504c-0.275,0-0.476,0.048-0.602,0.145c-0.125,0.097-0.188,0.217-0.188,0.359
c0,0.154,0.08,0.292,0.239,0.414s0.591,0.344,1.297,0.666c0.677,0.305,1.146,0.631,1.41,0.98
C25.139,32.646,25.271,33.085,25.271,33.615z"/>
<path fill="#FFFFFF" d="M32.184,30.645c0,0.878-0.26,1.556-0.776,2.033c-0.518,0.479-1.253,0.717-2.205,0.717h-0.597V36h-2.121
v-7.853h2.718c0.991,0,1.737,0.217,2.234,0.649C31.934,29.23,32.184,29.847,32.184,30.645z M28.605,31.666h0.387
c0.319,0,0.572-0.09,0.761-0.27c0.188-0.179,0.282-0.426,0.282-0.74c0-0.53-0.294-0.795-0.881-0.795h-0.549V31.666z"/>
</g></svg>