<?xml version="1.0" encoding="UTF-8"?>
<svg width="12px" height="12px" viewBox="0 0 12 12" version="1.1" xmlns="http://www.w3.org/2000/svg" xmlns:xlink="http://www.w3.org/1999/xlink">
    <!-- Generator: sketchtool 54.1 (76490) - https://sketchapp.com -->
    <title>DEA252EB-7149-42DE-B34C-229261299CDE</title>
    <desc>Created with sketchtool.</desc>
    <g id="Connect-new-UI-2019" stroke="none" stroke-width="1" fill="none" fill-rule="evenodd">
        <g id="Discussions-tab" transform="translate(-595.000000, -1238.000000)" fill="#2A2A2A" fill-rule="nonzero">
            <path d="M601.231618,1238.95279 C602.573004,1237.67969 604.67367,1237.68278 606.011321,1238.95983 C607.32956,1240.28637 607.32956,1242.43217 606.011321,1243.75871 L604.532391,1245.27891 C604.345678,1245.47556 604.067944,1245.55638 603.805255,1245.49048 C603.542566,1245.42459 603.335491,1245.22216 603.263112,1244.96051 C603.190733,1244.69887 603.264228,1244.4184 603.455529,1244.22623 L604.940475,1242.69899 C605.434102,1242.22781 605.634777,1241.52565 605.46496,1240.86382 C605.295144,1240.20198 604.781432,1239.68413 604.122319,1239.51035 C603.463206,1239.33658 602.761919,1239.53409 602.28943,1240.02658 L600.758361,1241.52265 C600.459888,1241.80768 599.988223,1241.79868 599.700786,1241.50246 C599.41335,1241.20624 599.417269,1240.73321 599.709573,1240.44182 L601.231618,1238.95279 Z M601.21357,1246.47435 C601.512043,1246.18932 601.983708,1246.19833 602.271145,1246.49454 C602.558581,1246.79076 602.554662,1247.26379 602.262358,1247.55518 L600.740313,1249.0422 C599.41217,1250.33424 597.295354,1250.31694 595.988393,1249.00336 C594.681432,1247.68978 594.669056,1245.56711 595.96061,1244.23829 L597.439541,1242.7181 C597.730499,1242.42582 598.201789,1242.4226 598.496692,1242.71087 C598.791595,1242.99915 598.800382,1243.47167 598.516402,1243.77077 L597.031456,1245.29801 C596.547047,1245.77119 596.353404,1246.4688 596.524345,1247.12489 C596.695287,1247.78099 597.20447,1248.29447 597.85779,1248.46959 C598.511109,1248.64471 599.207886,1248.45448 599.682501,1247.97143 L601.21357,1246.47435 Z M598.449224,1246.54272 C598.308093,1246.40129 598.228798,1246.20942 598.228798,1246.00935 C598.228798,1245.80927 598.308093,1245.6174 598.449224,1245.47597 L602.459883,1241.45428 C602.648783,1241.25835 602.928414,1241.17987 603.191302,1241.249 C603.454189,1241.31813 603.65942,1241.52412 603.728116,1241.7878 C603.796812,1242.05147 603.718281,1242.3318 603.522707,1242.52103 L599.512048,1246.54272 C599.37131,1246.68443 599.18008,1246.76409 598.980636,1246.76409 C598.781192,1246.76409 598.589962,1246.68443 598.449224,1246.54272 Z" id="link-12"></path>
        </g>
    </g>
</svg>