<?xml version="1.0" encoding="UTF-8" standalone="no"?>
<svg width="141px" height="20px" viewBox="0 0 141 20" version="1.1" xmlns="http://www.w3.org/2000/svg" xmlns:xlink="http://www.w3.org/1999/xlink">
    <!-- Generator: Sketch 3.8.3 (29802) - http://www.bohemiancoding.com/sketch -->
    <desc>Created with Sketch.</desc>
    <defs></defs>
    <g id="Page-1" stroke="none" stroke-width="1" fill="none" fill-rule="evenodd">
        <g id="Connect---Logged-Out" transform="translate(-20.000000, -20.000000)">
            <g id="connect-top-bar">
                <g id="logo-cn-web" transform="translate(20.000000, 17.000000)">
                    <g id="topcoder-logo-mark" transform="translate(0.000000, 3.000000)">
                        <path d="M13.8953189,6.45958968 C7.47820872,5.23993619 1.43161516,5.34495494 0.217240541,8.75902697 C-0.638984393,11.1657713 1.11289024,14.7970247 4.12029187,18.3806305 C5.00720715,19.4373395 6.0333737,19.7742422 6.99746177,19.7670355 C7.8889228,15.0683757 11.4449288,10.0473564 13.8953189,6.45958968 Z" id="segment-1" fill="#26ADE9"></path>
                        <path d="M28.7127501,10.1095695 C32.0075818,8.69518626 36.4895369,7.27757875 40.803347,6.45825391 C41.0240583,6.68431162 41.241063,6.91610137 41.455035,7.15183191 C37.4535902,2.73958674 32.2653591,0.0193709558 27.3450141,0.0193709558 C22.6878379,0.0193709558 17.7904065,2.45620854 13.8866812,6.45825391 C18.2004914,7.27757875 22.6824465,8.69518626 25.9772782,10.1095695 C26.3941024,10.288696 26.853721,10.481078 27.3450141,10.684924 C27.8363073,10.481078 28.2959259,10.288696 28.7127501,10.1095695 Z" id="segment-2" fill="#60C700"></path>
                        <path d="M13.8936765,6.46411995 C10.5070571,9.9755741 6.99046653,16.8542052 6.99046653,19.7632221 C8.15886961,19.7632216 9.55321505,19.1650128 10.558911,18.6135553 C15.570342,15.8656165 20.7495611,11.4084308 27.3159922,10.6831679 C23.9815764,9.14051667 17.5445678,6.98345111 13.8936765,6.46411995 Z" id="segment-3" fill="#0B71E6"></path>
                        <path d="M40.8133377,6.45238763 C47.2163136,5.24036337 53.2414668,5.35168941 54.453446,8.75902697 C55.3096709,11.1657713 53.5577963,14.7970247 50.5503947,18.3806305 C49.7398331,19.3463684 48.8129642,19.7109002 47.9234688,19.7610061 C45.1342751,13.5996253 44.5526276,12.4904754 40.8133377,6.45238763 Z" id="segment-4" fill="#FB7D22"></path>
                        <path d="M40.8076557,6.45627322 C44.1942751,9.96772737 47.9346277,19.7632221 47.9346277,19.7632221 C46.3184818,19.8352842 44.7478465,18.8802582 44.284969,18.5985384 C37.3351507,14.3686905 33.0107396,11.47513 27.3306029,10.6849326 C30.714338,8.97888295 38.1009114,6.81411472 40.8076557,6.45627322 Z" id="segment-5" fill="#FFF100"></path>
                    </g>
                    <text id="connect" font-family="ProximaNova-Light, Proxima Nova" font-size="20" font-weight="300" letter-spacing="1" fill="#FFFFFF">
                        <tspan x="65" y="20">connect</tspan>
                    </text>
                </g>
            </g>
        </g>
    </g>
</svg>