<svg xmlns="http://www.w3.org/2000/svg" xmlns:xlink="http://www.w3.org/1999/xlink" x="0px" y="0px" width="48px" height="48px" viewBox="0 0 48 48"><g >
<polygon fill="#939393" points="44,27 4,27 1,23 5,19 43,19 47,23 "/>
<path fill="#E6E6E6" d="M41,47H7c-1.105,0-2-0.895-2-2V3c0-1.105,0.895-2,2-2l24,0l12,12v32C43,46.105,42.105,47,41,47z"/>
<path fill="#B3B3B3" d="M31,1v10c0,1.105,0.895,2,2,2h10L31,1z"/>
<path fill="#B3B3B3" d="M45,41H3c-1.105,0-2-0.895-2-2V23h46v16C47,40.105,46.105,41,45,41z"/>
<path fill="#FFFFFF" d="M18.771,35.927l-1.605-5.656h-0.049c0.076,0.963,0.113,1.711,0.113,2.245v3.411h-1.88v-7.853h2.825
l1.639,5.575h0.043l1.605-5.575h2.83v7.853h-1.949v-3.443c0-0.179,0.003-0.378,0.008-0.596c0.006-0.218,0.029-0.754,0.072-1.606
h-0.048l-1.585,5.645H18.771z"/>
<path fill="#FFFFFF" d="M32.65,31.834c0,1.311-0.36,2.32-1.082,3.029s-1.735,1.063-3.043,1.063h-2.54v-7.853h2.718
c1.261,0,2.233,0.322,2.919,0.967S32.65,30.617,32.65,31.834z M30.449,31.909c0-0.72-0.143-1.253-0.428-1.601
c-0.284-0.347-0.717-0.521-1.297-0.521h-0.617v4.399h0.473c0.645,0,1.117-0.187,1.418-0.562
C30.298,33.251,30.449,32.679,30.449,31.909z"/>
</g></svg>