<svg xmlns="http://www.w3.org/2000/svg" xmlns:xlink="http://www.w3.org/1999/xlink" x="0px" y="0px" width="48px" height="48px" viewBox="0 0 48 48"><g >
<polygon fill="#00446D" points="44,27 4,27 1,23 5,19 43,19 47,23 "/>
<path fill="#E6E6E6" d="M41,47H7c-1.105,0-2-0.895-2-2V3c0-1.105,0.895-2,2-2l24,0l12,12v32C43,46.105,42.105,47,41,47z"/>
<path fill="#B3B3B3" d="M31,1v10c0,1.105,0.895,2,2,2h10L31,1z"/>
<path fill="#0064AC" d="M45,41H3c-1.105,0-2-0.895-2-2V23h46v16C47,40.105,46.105,41,45,41z"/>
<path fill="#FFFFFF" d="M15.358,36l-1.606-5.656h-0.048c0.075,0.964,0.113,1.712,0.113,2.246V36h-1.88v-7.853h2.825l1.638,5.575
h0.043l1.606-5.575h2.831V36h-1.95v-3.443c0-0.179,0.003-0.377,0.008-0.596c0.006-0.219,0.03-0.754,0.073-1.605h-0.048L17.377,36
H15.358z"/>
<path fill="#FFFFFF" d="M29.28,36h-2.396l-1.552-3.002l-0.628,0.375V36h-2.132v-7.853h2.132v3.411
c0.107-0.212,0.324-0.547,0.65-1.005l1.649-2.406h2.32l-2.476,3.519L29.28,36z"/>
<path fill="#FFFFFF" d="M34.538,28.147h2.374L34.339,36h-2.498l-2.562-7.853h2.385l1.069,3.979c0.222,0.885,0.344,1.501,0.365,1.848
c0.025-0.25,0.075-0.563,0.15-0.939s0.142-0.672,0.199-0.887L34.538,28.147z"/>
</g></svg>