<?xml version="1.0" encoding="UTF-8"?>
<svg width="16px" height="4px" viewBox="0 0 16 4" version="1.1" xmlns="http://www.w3.org/2000/svg" xmlns:xlink="http://www.w3.org/1999/xlink" fill="#ffffff">
    <!-- Generator: sketchtool 54.1 (76490) - https://sketchapp.com -->
    <title>FCD49967-A345-4333-9355-7B35365879B1</title>
    <desc>Created with sketchtool.</desc>
    <g id="Connect-new-UI-2019" stroke="none" stroke-width="1" fill-rule="evenodd">
        <g id="Discussions-tab" transform="translate(-842.000000, -1244.000000)" fill-rule="nonzero">
            <path d="M850,1248 C848.895431,1248 848,1247.10457 848,1246 C848,1244.89543 848.895431,1244 850,1244 C851.104569,1244 852,1244.89543 852,1246 C852,1247.10457 851.104569,1248 850,1248 Z M844,1248 C842.895431,1248 842,1247.10457 842,1246 C842,1244.89543 842.895431,1244 844,1244 C845.104569,1244 846,1244.89543 846,1246 C846,1247.10457 845.104569,1248 844,1248 Z M856,1248 C854.895431,1248 854,1247.10457 854,1246 C854,1244.89543 854.895431,1244 856,1244 C857.104569,1244 858,1244.89543 858,1246 C858,1247.10457 857.104569,1248 856,1248 Z" id="more"></path>
        </g>
    </g>
</svg>