<svg xmlns="http://www.w3.org/2000/svg" xmlns:xlink="http://www.w3.org/1999/xlink" x="0px" y="0px" width="48px" height="48px" viewBox="0 0 48 48"><g >
<polygon fill="#202D42" points="44,27 4,27 1,23 5,19 43,19 47,23 "/>
<path fill="#E6E6E6" d="M41,47H7c-1.105,0-2-0.895-2-2V3c0-1.105,0.895-2,2-2l24,0l12,12v32C43,46.105,42.105,47,41,47z"/>
<path fill="#B3B3B3" d="M31,1v10c0,1.105,0.895,2,2,2h10L31,1z"/>
<path fill="#394968" d="M45,41H3c-1.105,0-2-0.895-2-2V23h46v16C47,40.105,46.105,41,45,41z"/>
<path fill="#FFFFFF" d="M14.753,36l-1.606-5.656h-0.048c0.075,0.964,0.113,1.712,0.113,2.246V36h-1.88v-7.853h2.825l1.638,5.575
h0.043l1.606-5.575h2.831V36h-1.95v-3.443c0-0.179,0.003-0.377,0.008-0.596c0.006-0.219,0.03-0.754,0.073-1.605h-0.048L16.773,36
H14.753z"/>
<path fill="#FFFFFF" d="M29.314,32.063c0,1.322-0.324,2.326-0.972,3.014s-1.597,1.031-2.847,1.031c-1.232,0-2.176-0.346-2.833-1.037
c-0.657-0.69-0.985-1.697-0.985-3.018c0-1.308,0.327-2.306,0.98-2.995c0.653-0.689,1.603-1.034,2.849-1.034
c1.25,0,2.197,0.343,2.841,1.026S29.314,30.738,29.314,32.063z M23.911,32.063c0,1.519,0.528,2.277,1.584,2.277
c0.537,0,0.936-0.184,1.195-0.553c0.26-0.369,0.39-0.943,0.39-1.725c0-0.783-0.132-1.363-0.395-1.737
c-0.264-0.374-0.656-0.562-1.179-0.562C24.443,29.764,23.911,30.53,23.911,32.063z"/>
<path fill="#FFFFFF" d="M35.142,28.147h2.374L34.943,36h-2.498l-2.562-7.853h2.385l1.069,3.979c0.222,0.885,0.344,1.501,0.365,1.848
c0.025-0.25,0.075-0.563,0.15-0.939s0.142-0.672,0.199-0.887L35.142,28.147z"/>
</g></svg>