<?xml version="1.0" encoding="UTF-8"?>
<svg width="16px" height="16px" viewBox="0 0 16 16" version="1.1" xmlns="http://www.w3.org/2000/svg" xmlns:xlink="http://www.w3.org/1999/xlink">
    <!-- Generator: Sketch 47 (45396) - http://www.bohemiancoding.com/sketch -->
    <title>notification-member-added</title>
    <desc>Created with Sketch.</desc>
    <defs></defs>
    <g id="Notifications-Page" stroke="none" stroke-width="1" fill="none" fill-rule="evenodd">
        <g id="notification-member-added" fill="#55A5FF">
            <circle id="Oval" cx="8" cy="4" r="4"></circle>
            <polygon id="Shape" points="16 12 14 12 14 10 12 10 12 12 10 12 10 14 12 14 12 16 14 16 14 14 16 14"></polygon>
            <path d="M8,13 C8,11.883 8.379,10.863 8.998,10.03 C8.673,10.013 8.344,10 8,10 C4.808,10 2.461,10.795 1.163,11.382 C0.45,11.705 0,12.417 0,13.2 L0,16 L9.023,16 C8.39,15.162 8,14.131 8,13 Z" id="Shape"></path>
        </g>
    </g>
</svg>