<?xml version="1.0" encoding="UTF-8"?>
<svg width="16px" height="16px" viewBox="0 0 16 16" version="1.1" xmlns="http://www.w3.org/2000/svg" xmlns:xlink="http://www.w3.org/1999/xlink">
    <!-- Generator: Sketch 47 (45396) - http://www.bohemiancoding.com/sketch -->
    <title>notification-review-pending</title>
    <desc>Created with Sketch.</desc>
    <defs></defs>
    <g id="Notifications-Page" stroke="none" stroke-width="1" fill="none" fill-rule="evenodd">
        <g id="notification-review-pending" fill="#55A5FF">
            <g id="ui-16px-2_hourglass">
                <path d="M15,2 C15.6,2 16,1.6 16,1 C16,0.4 15.6,0 15,0 L1,0 C0.4,0 0,0.4 0,1 C0,1.6 0.4,2 1,2 L2,2 C2.1,4.4 2.8,6.5 4,8 C2.8,9.4 2,11.6 2,14 L1,14 C0.4,14 0,14.4 0,15 C0,15.6 0.4,16 1,16 L15,16 C15.6,16 16,15.6 16,15 C16,14.4 15.6,14 15,14 L14,14 C13.9,11.5 13.2,9.4 12,8 C13.3,6.5 14,4.4 14,2 L15,2 Z M9.9,7.3 L9,8.1 L10,8.8 C11.2,9.7 12,11.7 12.1,14 L4,14 C4.1,11.7 4.9,9.7 6.1,8.8 L7.1,8.1 L6.1,7.3 C4.8,6.1 4.1,4.2 4,2 L12,2 C11.9,4.2 11.2,6.1 9.9,7.3 Z" id="Shape"></path>
            </g>
        </g>
    </g>
</svg>