<svg xmlns="http://www.w3.org/2000/svg" xmlns:xlink="http://www.w3.org/1999/xlink" x="0px" y="0px" width="48px" height="48px" viewBox="0 0 48 48"><g >
<polygon fill="#A67C52" points="44,27 4,27 1,23 5,19 43,19 47,23 "/>
<path fill="#E6E6E6" d="M41,47H7c-1.105,0-2-0.895-2-2V3c0-1.105,0.895-2,2-2l24,0l12,12v32C43,46.105,42.105,47,41,47z"/>
<path fill="#B3B3B3" d="M31,1v10c0,1.105,0.895,2,2,2h10L31,1z"/>
<path fill="#C19F85" d="M45,41H3c-1.105,0-2-0.895-2-2V23h46v16C47,40.105,46.105,41,45,41z"/>
<path fill="#FFFFFF" d="M22.171,32.062c0,1.322-0.324,2.326-0.972,3.014s-1.597,1.031-2.847,1.031c-1.232,0-2.176-0.346-2.833-1.037
c-0.657-0.69-0.985-1.697-0.985-3.018c0-1.308,0.327-2.306,0.98-2.995c0.653-0.689,1.603-1.034,2.849-1.034
c1.25,0,2.197,0.343,2.841,1.026S22.171,30.738,22.171,32.062z M16.768,32.062c0,1.519,0.528,2.277,1.584,2.277
c0.537,0,0.936-0.184,1.195-0.553c0.26-0.369,0.39-0.943,0.39-1.725c0-0.783-0.132-1.363-0.395-1.737
c-0.264-0.374-0.656-0.562-1.179-0.562C17.299,29.764,16.768,30.53,16.768,32.062z"/>
<path fill="#FFFFFF" d="M23.589,28.147h2.739c1.067,0,1.859,0.158,2.377,0.476c0.517,0.316,0.776,0.81,0.776,1.479
c0,0.44-0.113,0.816-0.338,1.128s-0.523,0.512-0.892,0.602v0.054c0.487,0.129,0.84,0.344,1.058,0.645s0.328,0.691,0.328,1.171
c0,0.713-0.268,1.273-0.803,1.684C28.298,35.795,27.569,36,26.645,36h-3.056V28.147z M25.71,31.16h0.639
c0.304,0,0.54-0.062,0.706-0.188c0.167-0.125,0.25-0.312,0.25-0.559c0-0.44-0.333-0.66-0.999-0.66H25.71V31.16z M25.71,32.713v1.648
h0.747c0.663,0,0.994-0.279,0.994-0.838c0-0.261-0.088-0.461-0.266-0.602c-0.177-0.139-0.434-0.209-0.771-0.209H25.71z"/>
<path fill="#FFFFFF" d="M30.383,38.465c-0.387,0-0.754-0.037-1.101-0.112v-1.649c0.115,0.021,0.236,0.046,0.365,0.073
c0.129,0.026,0.269,0.04,0.419,0.04c0.351,0,0.602-0.105,0.752-0.316c0.15-0.212,0.226-0.573,0.226-1.086v-7.267h2.132v7.085
c0,1.062-0.233,1.868-0.698,2.414S31.314,38.465,30.383,38.465z"/>
</g></svg>