<svg xmlns="http://www.w3.org/2000/svg" xmlns:xlink="http://www.w3.org/1999/xlink" x="0px" y="0px" width="48px" height="48px" viewBox="0 0 48 48"><g >
<polygon fill="#870000" points="44,27 4,27 1,23 5,19 43,19 47,23 "/>
<path fill="#E6E6E6" d="M41,47H7c-1.105,0-2-0.895-2-2V3c0-1.105,0.895-2,2-2l24,0l12,12v32C43,46.105,42.105,47,41,47z"/>
<path fill="#B3B3B3" d="M31,1v10c0,1.105,0.895,2,2,2h10L31,1z"/>
<path fill="#BD0100" d="M45,41H3c-1.105,0-2-0.895-2-2V23h46v16C47,40.105,46.105,41,45,41z"/>
<path fill="#FFFFFF" d="M20.071,30.645c0,0.878-0.259,1.556-0.776,2.033c-0.518,0.479-1.252,0.717-2.205,0.717h-0.596V36h-2.122
v-7.853h2.718c0.992,0,1.737,0.217,2.234,0.649C19.822,29.23,20.071,29.847,20.071,30.645z M16.494,31.666h0.387
c0.319,0,0.572-0.09,0.76-0.27c0.188-0.179,0.282-0.426,0.282-0.74c0-0.53-0.293-0.795-0.881-0.795h-0.548V31.666z"/>
<path fill="#FFFFFF" d="M27.988,31.907c0,1.311-0.361,2.32-1.083,3.029C26.184,35.646,25.17,36,23.863,36h-2.541v-7.853h2.718
c1.26,0,2.233,0.322,2.919,0.967C27.645,29.759,27.988,30.689,27.988,31.907z M25.786,31.982c0-0.72-0.142-1.253-0.427-1.601
c-0.284-0.348-0.717-0.521-1.297-0.521h-0.618v4.398h0.473c0.645,0,1.117-0.188,1.418-0.562S25.786,32.752,25.786,31.982z"/>
<path fill="#FFFFFF" d="M31.484,36h-2.089v-7.853h4.641v1.702h-2.551v1.499h2.353v1.702h-2.353V36z"/>
</g></svg>