<?xml version="1.0" encoding="utf-8"?>
<!-- Generator: Adobe Illustrator 20.1.0, SVG Export Plug-In . SVG Version: 6.00 Build 0)  -->
<svg version="1.1" id="Layer_1" xmlns="http://www.w3.org/2000/svg" xmlns:xlink="http://www.w3.org/1999/xlink" x="0px" y="0px"
	 viewBox="0 0 640 160" style="enable-background:new 0 0 640 160;" xml:space="preserve">
<style type="text/css">
	.st0{fill:none;stroke:#FDA464;stroke-dasharray:21,17,2,17;}
	.st1{fill:#FB7D22;}
</style>
<path class="st0" d="M0,151c9.9-2.1,63.7-70.2,218-64c78.2,3.1,244,42,301,25c47.8-14.3,55.1-40.7,61.2-71"/>
<path class="st1" d="M134.7,82.5L133,71.9l3.6-0.6c1.2-0.2,2.1-0.1,2.8,0.3c0.7,0.4,1.1,1,1.3,2c0.1,0.5,0,0.9-0.2,1.4
	c-0.2,0.4-0.5,0.8-1,1.1c0.6,0.1,1.1,0.3,1.5,0.7c0.4,0.4,0.6,0.9,0.7,1.5c0.2,1,0,1.8-0.6,2.4c-0.5,0.6-1.4,1-2.6,1.2L134.7,82.5
	L134.7,82.5z M135.8,77.4l0.5,3.3l2-0.3c0.6-0.1,1-0.3,1.3-0.6c0.3-0.3,0.4-0.8,0.3-1.3c-0.2-1.1-0.8-1.6-2-1.4L135.8,77.4
	L135.8,77.4z M135.5,76.1l1.8-0.3c0.6-0.1,1-0.3,1.3-0.6c0.3-0.3,0.4-0.7,0.3-1.2c-0.1-0.5-0.3-0.9-0.6-1.1
	c-0.3-0.2-0.8-0.2-1.4-0.1l-1.8,0.3L135.5,76.1L135.5,76.1z M149.1,79.6c-0.4,0.7-1.1,1.1-2.1,1.2c-0.9,0.1-1.5,0-2-0.5
	c-0.5-0.4-0.8-1.1-0.9-2.1l-0.7-5.1l1.8-0.2l0.7,5.1c0.1,1,0.6,1.4,1.4,1.3c0.9-0.1,1.4-0.5,1.6-1.2l-0.8-5.6l1.8-0.2l1.1,7.9
	l-1.7,0.2L149.1,79.6L149.1,79.6z M155.1,79.8l-1.8,0.2l-0.9-7.9l1.8-0.2L155.1,79.8L155.1,79.8z M152.1,70.1c0-0.3,0-0.5,0.2-0.7
	c0.2-0.2,0.4-0.3,0.7-0.4c0.3,0,0.6,0,0.8,0.2c0.2,0.2,0.3,0.4,0.3,0.6c0,0.2,0,0.5-0.2,0.7c-0.2,0.2-0.4,0.3-0.7,0.3
	c-0.3,0-0.6,0-0.8-0.2C152.2,70.5,152.1,70.3,152.1,70.1L152.1,70.1z M159.4,79.4l-1.8,0.2l-1.1-11.2l1.8-0.2
	C158.3,68.2,159.4,79.4,159.4,79.4z M161.1,75.2c-0.1-1.2,0.1-2.2,0.6-3c0.5-0.8,1.2-1.2,2.2-1.3c0.8-0.1,1.5,0.2,2.1,0.7l-0.4-4
	l1.8-0.2l1,11.2l-1.6,0.1l-0.2-0.8c-0.5,0.7-1.2,1.1-2,1.2c-0.9,0.1-1.7-0.2-2.3-0.9S161.2,76.4,161.1,75.2L161.1,75.2z M162.9,75.2
	c0.1,0.8,0.3,1.4,0.6,1.8c0.3,0.4,0.8,0.6,1.4,0.6c0.7-0.1,1.2-0.4,1.5-1.1l-0.3-3.4c-0.4-0.6-0.9-0.9-1.7-0.8c-0.6,0-1,0.3-1.3,0.8
	C162.9,73.6,162.8,74.3,162.9,75.2L162.9,75.2z M179.7,78c-0.1-0.1-0.2-0.4-0.2-0.7c-0.5,0.6-1.2,1-2,1c-0.8,0-1.5-0.1-2-0.6
	c-0.5-0.4-0.8-1-0.8-1.6c0-0.8,0.2-1.5,0.8-2c0.6-0.5,1.5-0.8,2.6-0.8l1.1-0.1l0-0.5c0-0.4-0.2-0.7-0.4-1c-0.2-0.2-0.6-0.3-1.1-0.3
	c-0.4,0-0.7,0.1-1,0.4c-0.2,0.2-0.4,0.5-0.3,0.8l-1.8,0.1c0-0.4,0.1-0.8,0.4-1.2c0.3-0.4,0.6-0.7,1.1-1c0.5-0.2,1.1-0.4,1.6-0.4
	c0.9-0.1,1.7,0.1,2.3,0.6c0.6,0.4,0.9,1.1,1,1.9l0.2,3.6c0,0.7,0.2,1.3,0.4,1.7l0,0.1L179.7,78L179.7,78z M177.7,76.8
	c0.4,0,0.7-0.1,1-0.3c0.3-0.2,0.5-0.4,0.7-0.7l-0.1-1.5l-1,0.1c-0.7,0-1.1,0.2-1.5,0.4c-0.3,0.2-0.5,0.6-0.4,1
	c0,0.3,0.1,0.6,0.4,0.8S177.3,76.8,177.7,76.8L177.7,76.8z M190.4,75.2l1.1-5.5l1.7-0.1l-1.9,8l-1.5,0.1l-1.9-5.4l-1.5,5.5l-1.5,0.1
	l-2.4-7.8l1.7-0.1l1.5,5.4l1.4-5.5l1.3,0L190.4,75.2L190.4,75.2z M198.7,77.7c-1.1,0-2-0.3-2.8-1c-0.7-0.7-1.1-1.6-1.1-2.8l0-0.2
	c0-0.8,0.1-1.5,0.4-2.1c0.3-0.6,0.7-1.1,1.3-1.5c0.5-0.4,1.2-0.5,1.8-0.5c1.1,0,1.9,0.3,2.5,1c0.6,0.7,0.9,1.7,0.9,2.9l0,0.7l-5.2,0
	c0.1,0.7,0.3,1.2,0.7,1.5c0.4,0.4,0.9,0.6,1.4,0.6c0.8,0,1.5-0.3,2-1l1,0.9c-0.3,0.5-0.7,0.9-1.3,1.1
	C200,77.6,199.4,77.7,198.7,77.7L198.7,77.7z M198.4,71c-0.5,0-0.9,0.2-1.2,0.5c-0.3,0.3-0.5,0.8-0.6,1.4l3.4,0l0-0.1
	c0-0.6-0.2-1-0.5-1.3C199.3,71.1,198.9,70.9,198.4,71L198.4,71z M208.2,75.5c0-0.3-0.1-0.6-0.4-0.7c-0.3-0.2-0.7-0.3-1.3-0.5
	c-0.6-0.1-1.1-0.3-1.5-0.5c-0.9-0.4-1.3-1.1-1.3-1.9c0-0.7,0.3-1.3,0.9-1.7c0.6-0.5,1.3-0.7,2.2-0.7c0.9,0,1.7,0.2,2.3,0.7
	c0.6,0.5,0.9,1.1,0.9,1.8l-1.8,0c0-0.3-0.1-0.6-0.4-0.9c-0.3-0.2-0.6-0.3-1-0.3c-0.4,0-0.7,0.1-1,0.3c-0.2,0.2-0.4,0.4-0.4,0.7
	c0,0.3,0.1,0.5,0.3,0.6c0.2,0.2,0.7,0.3,1.4,0.5c0.7,0.2,1.2,0.3,1.6,0.6c0.4,0.2,0.7,0.5,0.9,0.8c0.2,0.3,0.3,0.7,0.3,1.1
	c0,0.7-0.3,1.3-0.9,1.7c-0.6,0.4-1.4,0.7-2.3,0.6c-0.6,0-1.2-0.1-1.7-0.4c-0.5-0.2-0.9-0.6-1.2-1c-0.3-0.4-0.4-0.9-0.4-1.3l1.7,0
	c0,0.4,0.2,0.7,0.5,1c0.3,0.2,0.7,0.3,1.2,0.4c0.5,0,0.8-0.1,1.1-0.3C208.1,76.1,208.2,75.8,208.2,75.5L208.2,75.5z M211.8,73.8
	c0-0.8,0.2-1.5,0.5-2.1c0.3-0.6,0.8-1.1,1.3-1.4c0.6-0.3,1.2-0.5,1.9-0.5c1.1,0,1.9,0.4,2.6,1.1c0.6,0.7,1,1.6,1,2.8l0,0.4
	c0,0.8-0.2,1.5-0.5,2.1c-0.3,0.6-0.8,1.1-1.3,1.4c-0.6,0.3-1.2,0.5-1.9,0.5c-1.1,0-2-0.4-2.7-1.2C212,76.1,211.7,75.1,211.8,73.8
	C211.8,73.8,211.8,73.8,211.8,73.8z M213.5,74c0,0.8,0.1,1.5,0.5,1.9s0.8,0.7,1.4,0.7c0.6,0,1.1-0.2,1.4-0.7s0.5-1.1,0.6-2
	c0-0.8-0.1-1.4-0.5-1.9c-0.3-0.5-0.8-0.7-1.4-0.7c-0.6,0-1,0.2-1.4,0.7C213.8,72.4,213.6,73,213.5,74L213.5,74z M223.1,70.3l0,0.8
	c0.6-0.6,1.4-0.9,2.3-0.9c1.1,0.1,1.8,0.5,2.1,1.3c0.6-0.8,1.4-1.2,2.5-1.1c0.9,0,1.5,0.3,1.9,0.8c0.4,0.5,0.6,1.2,0.6,2.2l-0.2,5.2
	l-1.8-0.1l0.2-5.2c0-0.5-0.1-0.9-0.3-1.1c-0.2-0.2-0.6-0.4-1.1-0.4c-0.4,0-0.7,0.1-1,0.3c-0.3,0.2-0.5,0.5-0.6,0.8l-0.2,5.4
	l-1.8-0.1l0.2-5.2c0-0.9-0.4-1.4-1.4-1.5c-0.7,0-1.2,0.2-1.6,0.8l-0.3,5.7l-1.8-0.1l0.4-7.9L223.1,70.3L223.1,70.3z M238,79.5
	c-1.1-0.1-2-0.5-2.6-1.3c-0.6-0.8-0.9-1.7-0.8-2.9l0-0.2c0.1-0.8,0.3-1.5,0.6-2.1c0.3-0.6,0.8-1,1.4-1.3c0.6-0.3,1.2-0.4,1.9-0.4
	c1.1,0.1,1.9,0.5,2.4,1.2c0.5,0.7,0.7,1.7,0.6,3l-0.1,0.7l-5.2-0.4c0,0.7,0.2,1.2,0.5,1.6c0.4,0.4,0.8,0.6,1.4,0.7
	c0.8,0.1,1.5-0.2,2.1-0.8l0.9,1c-0.4,0.4-0.8,0.8-1.4,1C239.3,79.5,238.7,79.6,238,79.5L238,79.5z M238.4,72.7
	c-0.5,0-0.9,0.1-1.2,0.4s-0.6,0.8-0.7,1.4l3.4,0.3l0-0.1c0-0.6-0.1-1.1-0.4-1.4C239.2,72.9,238.8,72.8,238.4,72.7z M252,80.8
	c-0.1-0.2-0.1-0.4-0.1-0.8c-0.6,0.5-1.4,0.8-2.2,0.7c-0.8-0.1-1.4-0.4-1.9-0.9c-0.4-0.5-0.7-1.1-0.6-1.8c0.1-0.8,0.5-1.5,1.1-1.8
	c0.7-0.4,1.6-0.5,2.7-0.4l1.1,0.1l0.1-0.5c0-0.4,0-0.7-0.2-1c-0.2-0.3-0.5-0.4-1-0.5c-0.4,0-0.7,0-1,0.2c-0.3,0.2-0.4,0.4-0.5,0.7
	l-1.8-0.2c0-0.4,0.2-0.8,0.6-1.2c0.3-0.3,0.7-0.6,1.3-0.8c0.5-0.2,1.1-0.2,1.7-0.1c0.9,0.1,1.6,0.4,2.1,0.9c0.5,0.5,0.7,1.2,0.6,2
	l-0.4,3.6c-0.1,0.7,0,1.3,0.1,1.7l0,0.1C253.8,80.9,252,80.8,252,80.8z M250.2,79.3c0.4,0,0.7,0,1-0.2c0.3-0.1,0.6-0.3,0.8-0.6
	l0.2-1.5l-1-0.1c-0.7-0.1-1.2,0-1.5,0.2c-0.4,0.2-0.6,0.5-0.6,0.9c0,0.3,0.1,0.6,0.3,0.8C249.5,79.1,249.8,79.2,250.2,79.3
	L250.2,79.3z M263.2,78.1c-0.1,1.2-0.5,2.2-1.2,2.8c-0.6,0.7-1.4,0.9-2.4,0.8c-0.9-0.1-1.5-0.5-2-1.1l-0.4,3.7l-1.8-0.2l1.2-10.9
	l1.6,0.2l0,0.8c0.6-0.6,1.3-0.8,2.2-0.7c1,0.1,1.7,0.6,2.1,1.3c0.5,0.8,0.6,1.8,0.5,3.1L263.2,78.1L263.2,78.1z M261.4,77.8
	c0.1-0.8,0-1.4-0.3-1.9c-0.3-0.5-0.7-0.8-1.3-0.8c-0.7-0.1-1.3,0.2-1.7,0.7l-0.4,3.5c0.2,0.6,0.7,1,1.5,1.1c0.6,0.1,1-0.1,1.4-0.5
	C261.1,79.4,261.3,78.7,261.4,77.8L261.4,77.8z M272.1,79.3c-0.1,1.2-0.5,2.2-1.2,2.8c-0.6,0.7-1.4,0.9-2.4,0.8
	c-0.9-0.1-1.5-0.5-2-1.1l-0.5,3.7l-1.8-0.2l1.3-10.9l1.6,0.2l0,0.8c0.6-0.6,1.3-0.8,2.2-0.7c1,0.1,1.7,0.6,2.1,1.3
	c0.5,0.8,0.6,1.8,0.5,3.1C272.1,79.2,272.1,79.3,272.1,79.3z M270.4,78.9c0.1-0.8,0-1.4-0.2-1.9c-0.3-0.5-0.7-0.8-1.3-0.9
	c-0.7-0.1-1.3,0.1-1.7,0.7l-0.4,3.5c0.2,0.7,0.7,1,1.5,1.1c0.6,0.1,1-0.1,1.4-0.5C270,80.5,270.2,79.8,270.4,78.9L270.4,78.9z
	 M278.3,81.8c0.1-0.3-0.1-0.6-0.3-0.8c-0.2-0.2-0.6-0.4-1.2-0.6c-0.6-0.2-1.1-0.4-1.4-0.7c-0.8-0.5-1.2-1.2-1.1-2
	c0.1-0.7,0.4-1.2,1.1-1.6c0.6-0.4,1.4-0.5,2.3-0.4c0.9,0.1,1.7,0.5,2.2,1c0.5,0.5,0.7,1.2,0.6,1.9l-1.8-0.2c0-0.3,0-0.7-0.3-0.9
	c-0.2-0.3-0.5-0.4-1-0.5c-0.4-0.1-0.7,0-1,0.1c-0.3,0.1-0.4,0.4-0.5,0.7c0,0.3,0.1,0.5,0.3,0.7c0.2,0.2,0.6,0.4,1.3,0.6
	c0.7,0.2,1.2,0.5,1.6,0.8s0.6,0.6,0.8,0.9c0.2,0.3,0.2,0.7,0.1,1.1c-0.1,0.7-0.5,1.2-1.1,1.6c-0.6,0.4-1.4,0.5-2.4,0.4
	c-0.6-0.1-1.2-0.3-1.7-0.6c-0.5-0.3-0.8-0.7-1.1-1.1c-0.2-0.4-0.3-0.9-0.3-1.4l1.7,0.2c0,0.4,0.1,0.8,0.3,1c0.3,0.3,0.6,0.4,1.1,0.5
	c0.5,0.1,0.8,0,1.1-0.1C278.1,82.4,278.3,82.1,278.3,81.8z M293.2,83.6l2-5.2l1.7,0.2l-3.2,7.6l-1.5-0.2l-0.9-5.6l-2.4,5.2l-1.5-0.2
	l-1.1-8.1l1.7,0.2l0.5,5.5l2.3-5.1l1.3,0.2L293.2,83.6L293.2,83.6z M299.4,86.9l-1.8-0.2l1.1-7.8l1.8,0.2L299.4,86.9z M298.9,76.8
	c0-0.3,0.2-0.5,0.4-0.6c0.2-0.2,0.5-0.2,0.8-0.2c0.3,0,0.6,0.2,0.7,0.4c0.1,0.2,0.2,0.4,0.2,0.7c0,0.2-0.2,0.5-0.4,0.6
	c-0.2,0.2-0.5,0.2-0.8,0.2c-0.3,0-0.6-0.2-0.7-0.4C298.9,77.3,298.9,77,298.9,76.8L298.9,76.8z M305.4,77.9l-0.3,1.9l1.4,0.2
	l-0.2,1.3l-1.4-0.2l-0.6,4.4c0,0.3,0,0.5,0.1,0.7c0.1,0.2,0.3,0.2,0.6,0.3c0.2,0,0.4,0,0.6,0l-0.2,1.4c-0.4,0.1-0.8,0.1-1.2,0
	c-1.4-0.2-1.9-1-1.7-2.5l0.6-4.4l-1.3-0.2l0.2-1.3l1.3,0.2l0.3-1.9L305.4,77.9L305.4,77.9z M310,81.3c0.7-0.6,1.4-0.8,2.3-0.7
	c1.7,0.2,2.4,1.3,2.1,3.2l-0.7,5.1l-1.8-0.3l0.7-5.1c0.1-0.5,0-0.9-0.2-1.2c-0.2-0.3-0.5-0.4-1-0.5c-0.7-0.1-1.3,0.1-1.7,0.7
	l-0.8,5.6l-1.8-0.3l1.6-11.1l1.8,0.3L310,81.3L310,81.3z M328.9,87.7c-0.3,1.1-0.8,1.9-1.6,2.5c-0.8,0.5-1.8,0.7-3,0.5
	c-0.8-0.1-1.6-0.4-2.1-0.9c-0.6-0.5-1-1.1-1.2-1.9c-0.2-0.8-0.3-1.7-0.2-2.6l0.1-1c0.1-1,0.5-1.8,0.9-2.6c0.5-0.7,1.1-1.2,1.8-1.5
	c0.7-0.3,1.5-0.4,2.4-0.3c1.2,0.2,2.1,0.6,2.7,1.4c0.6,0.7,0.9,1.7,0.8,2.9l-1.8-0.3c0-0.8-0.1-1.3-0.4-1.7s-0.8-0.6-1.5-0.7
	c-0.8-0.1-1.5,0.1-2,0.6c-0.5,0.5-0.9,1.3-1,2.5l-0.1,0.9c-0.2,1.1-0.1,2,0.2,2.7c0.3,0.7,0.9,1,1.7,1.2c0.7,0.1,1.3,0,1.7-0.2
	c0.4-0.3,0.7-0.8,0.9-1.5L328.9,87.7L328.9,87.7z M330.6,87.4c0.1-0.8,0.4-1.4,0.8-2c0.4-0.5,0.9-1,1.5-1.2c0.6-0.2,1.3-0.3,2-0.2
	c1.1,0.2,1.9,0.6,2.4,1.4c0.6,0.8,0.8,1.7,0.7,2.9l-0.1,0.4c-0.1,0.8-0.4,1.4-0.8,2c-0.4,0.5-0.9,1-1.5,1.2c-0.6,0.3-1.3,0.3-2,0.2
	c-1.1-0.2-1.9-0.7-2.5-1.5C330.6,89.7,330.4,88.7,330.6,87.4L330.6,87.4L330.6,87.4z M332.3,87.8c-0.1,0.8,0,1.5,0.2,2
	c0.3,0.5,0.7,0.8,1.3,0.9c0.6,0.1,1.1-0.1,1.5-0.5c0.4-0.4,0.7-1.1,0.8-2c0.1-0.8,0-1.4-0.2-2c-0.3-0.5-0.7-0.8-1.3-0.9
	c-0.6-0.1-1.1,0.1-1.5,0.5C332.7,86.2,332.4,86.9,332.3,87.8L332.3,87.8z M342.1,85.2l-0.1,0.9c0.7-0.6,1.5-0.9,2.4-0.7
	c1.6,0.2,2.3,1.3,2.1,3.2l-0.8,5.2l-1.8-0.3l0.7-5.1c0.1-0.5,0-0.9-0.2-1.2c-0.2-0.3-0.5-0.4-1-0.5c-0.7-0.1-1.3,0.1-1.7,0.7L341,93
	l-1.8-0.3l1.1-7.8C340.4,84.9,342.1,85.2,342.1,85.2z M350.8,86.4l-0.1,0.9c0.7-0.6,1.5-0.9,2.4-0.7c1.6,0.2,2.3,1.3,2.1,3.2
	l-0.8,5.2l-1.8-0.3l0.7-5.1c0.1-0.5,0-0.9-0.2-1.2c-0.2-0.3-0.5-0.4-1-0.5c-0.7-0.1-1.3,0.1-1.7,0.7l-0.8,5.6L348,94l1.1-7.8
	L350.8,86.4L350.8,86.4z M360.2,95.9c-1.1-0.2-2-0.6-2.6-1.4c-0.6-0.8-0.8-1.8-0.6-3l0-0.2c0.1-0.8,0.4-1.5,0.8-2
	c0.4-0.6,0.9-1,1.5-1.3c0.6-0.3,1.3-0.4,1.9-0.3c1.1,0.2,1.8,0.6,2.3,1.4c0.5,0.8,0.6,1.8,0.5,3l-0.1,0.7l-5.1-0.7
	c0,0.7,0.1,1.2,0.4,1.6c0.3,0.4,0.8,0.7,1.4,0.8c0.8,0.1,1.5-0.1,2.1-0.7l0.8,1c-0.4,0.4-0.9,0.7-1.4,0.9
	C361.5,96,360.9,96,360.2,95.9z M361,89.2c-0.5-0.1-0.9,0-1.2,0.3c-0.3,0.3-0.6,0.7-0.8,1.3l3.4,0.5l0-0.1c0-0.6,0-1.1-0.3-1.4
	C361.8,89.5,361.5,89.3,361,89.2L361,89.2z M368.6,95.7c0.4,0.1,0.8,0,1.1-0.2c0.3-0.2,0.5-0.5,0.6-0.9l1.7,0.2
	c-0.1,0.5-0.3,0.9-0.6,1.3c-0.3,0.4-0.8,0.7-1.3,0.8c-0.5,0.2-1.1,0.2-1.6,0.1c-1.1-0.2-1.9-0.6-2.5-1.4c-0.5-0.8-0.7-1.8-0.5-3.1
	l0-0.2c0.2-1.2,0.6-2.1,1.4-2.7c0.7-0.6,1.7-0.9,2.8-0.7c0.9,0.1,1.7,0.5,2.2,1.1s0.7,1.4,0.6,2.3l-1.7-0.2c0-0.5-0.1-0.8-0.3-1.2
	c-0.2-0.3-0.6-0.5-1-0.6c-0.6-0.1-1,0.1-1.4,0.4c-0.4,0.4-0.6,1-0.7,1.8l0,0.3c-0.1,0.9-0.1,1.5,0.2,2
	C367.7,95.3,368.1,95.6,368.6,95.7L368.6,95.7z M377.1,88.2l-0.3,1.9l1.4,0.2l-0.2,1.3l-1.4-0.2l-0.6,4.4c0,0.3,0,0.5,0.1,0.7
	c0.1,0.2,0.3,0.2,0.6,0.3c0.2,0,0.4,0,0.6,0l-0.2,1.4c-0.4,0.1-0.8,0.1-1.2,0c-1.4-0.2-1.9-1-1.7-2.5l0.6-4.4l-1.3-0.2l0.2-1.3
	l1.3,0.2l0.3-1.9L377.1,88.2L377.1,88.2z"/>
<line class="st0" x1="566.4" y1="29.2" x2="542.7" y2="33.8"/>
<line class="st0" x1="571" y1="34.7" x2="549.5" y2="49.9"/>
<line class="st0" x1="573.1" y1="37.7" x2="568.9" y2="46"/>
<line class="st0" x1="586.8" y1="40.7" x2="592.8" y2="54.4"/>
<line class="st0" x1="588" y1="32" x2="604.1" y2="43.3"/>
<line class="st0" x1="588.9" y1="26.3" x2="611.6" y2="26"/>
<line class="st0" x1="586.8" y1="20.9" x2="594.9" y2="18.3"/>
<line class="st0" x1="580.9" y1="19.2" x2="586.8" y2="3"/>
<line class="st0" x1="573.4" y1="18.3" x2="563.3" y2="9.3"/>
<line class="st0" x1="569.8" y1="23.3" x2="559.4" y2="20.1"/>
</svg>
