<?xml version="1.0" encoding="UTF-8"?>
<svg width="32px" height="32px" viewBox="0 0 32 32" version="1.1" xmlns="http://www.w3.org/2000/svg" xmlns:xlink="http://www.w3.org/1999/xlink">
    <!-- Generator: Sketch 49.1 (51147) - http://www.bohemiancoding.com/sketch -->
    <title>product-qa-sfdc-accelerator</title>
    <desc>Created with Sketch.</desc>
    <defs></defs>
    <g id="product-qa-sfdc-accelerator" stroke="none" stroke-width="1" fill="none" fill-rule="evenodd">
        <g id="product-icons/qaas/sfdc-accelerator" transform="translate(1.000000, 1.000000)">
            <path d="M7.21092712,0 L22.7890729,5.82660173e-16 C25.2964693,1.22058917e-16 26.2057119,0.261072031 27.1223785,0.751310729 C28.0390452,1.24154943 28.7584506,1.96095479 29.2486893,2.87762146 C29.738928,3.79428813 30,4.70353067 30,7.21092712 L30,22.7890729 C30,25.2964693 29.738928,26.2057119 29.2486893,27.1223785 C28.7584506,28.0390452 28.0390452,28.7584506 27.1223785,29.2486893 C26.2057119,29.738928 25.2964693,30 22.7890729,30 L7.21092712,30 C4.70353067,30 3.79428813,29.738928 2.87762146,29.2486893 C1.96095479,28.7584506 1.24154943,28.0390452 0.751310729,27.1223785 C0.261072031,26.2057119 3.07067504e-16,25.2964693 0,22.7890729 L3.88440115e-16,7.21092712 C8.1372611e-17,4.70353067 0.261072031,3.79428813 0.751310729,2.87762146 C1.24154943,1.96095479 1.96095479,1.24154943 2.87762146,0.751310729 C3.79428813,0.261072031 4.70353067,4.60601257e-16 7.21092712,0 Z" id="Rectangle" fill="#00A1E0"></path>
            <path d="M28.9634431,27.5956954 C28.4944572,28.2893626 27.8748855,28.8462441 27.1223785,29.2486893 C26.2057119,29.738928 25.2964693,30 22.7890729,30 L7.21092712,30 C4.70353067,30 3.79428813,29.738928 2.87762146,29.2486893 C1.96095479,28.7584506 1.24154943,28.0390452 0.751310729,27.1223785 C0.559437485,26.7636068 0.402668927,26.4059723 0.282917922,25.9532137 C1.73662361,24.4047354 3.80223184,23.4375 6.09375,23.4375 C6.54499114,23.4375 6.98747225,23.4750062 7.41824593,23.5470712 C9.12291838,21.2077737 11.8839197,19.6875 15,19.6875 C19.254813,19.6875 22.8476099,22.5219283 23.9931844,26.4055787 C24.4163477,26.3038726 24.8581325,26.25 25.3125,26.25 C26.705859,26.25 27.9808914,26.7566165 28.9634431,27.5956954 Z" id="Combined-Shape" fill="#CCECF8"></path>
            <g id="Group" stroke-width="1" transform="translate(4.687500, 3.750000)">
                <path d="M0.75,1.5 C1.875,1.03125 3.1875,0.75 4.5,0.75 C9.75,0.75 14.0625,5.0625 14.0625,10.3125" id="Shape" stroke="#0B5B7A" stroke-width="2" transform="translate(7.406250, 5.531250) scale(-1, 1) translate(-7.406250, -5.531250) "></path>
                <path d="M18.9375,10.3125 C18.9375,9 19.21875,7.6875 19.6875,6.5625" id="Shape" stroke="#FFFFFF" stroke-width="2" transform="translate(19.406250, 8.437500) scale(-1, 1) translate(-19.406250, -8.437500) "></path>
                <path d="M17.4375,8.34375 L12.28125,3.1875" id="Shape" stroke="#FFFFFF" stroke-width="2" stroke-linecap="square" transform="translate(14.859375, 5.765625) scale(-1, 1) translate(-14.859375, -5.765625) "></path>
                <circle id="Oval" stroke="#FFFFFF" stroke-width="2" stroke-linecap="square" transform="translate(10.312500, 10.312500) scale(-1, 1) translate(-10.312500, -10.312500) " cx="10.3125" cy="10.3125" r="2.8125"></circle>
            </g>
        </g>
    </g>
</svg>