<?xml version="1.0" encoding="UTF-8"?>
<svg width="33px" height="31px" viewBox="0 0 33 31" version="1.1" xmlns="http://www.w3.org/2000/svg" xmlns:xlink="http://www.w3.org/1999/xlink">
    <!-- Generator: Sketch 47 (45396) - http://www.bohemiancoding.com/sketch -->
    <title>status icon/review</title>
    <desc>Created with Sketch.</desc>
    <defs>
        <filter x="-1.3%" y="-1.6%" width="102.6%" height="103.7%" filterUnits="objectBoundingBox" id="filter-1">
            <feOffset dx="0" dy="2" in="SourceAlpha" result="shadowOffsetOuter1"></feOffset>
            <feGaussianBlur stdDeviation="4.5" in="shadowOffsetOuter1" result="shadowBlurOuter1"></feGaussianBlur>
            <feColorMatrix values="0 0 0 0 0.149019608   0 0 0 0 0.149019608   0 0 0 0 0.156862745  0 0 0 0.15 0" type="matrix" in="shadowBlurOuter1" result="shadowMatrixOuter1"></feColorMatrix>
            <feMerge>
                <feMergeNode in="shadowMatrixOuter1"></feMergeNode>
                <feMergeNode in="SourceGraphic"></feMergeNode>
            </feMerge>
        </filter>
    </defs>
    <g id="Transition-updates-" stroke="none" stroke-width="1" fill="none" fill-rule="evenodd">
        <g id="Projec-grid-update" transform="translate(-1115.000000, -184.000000)" fill-rule="nonzero" fill="#5D5D66">
            <g id="Group" filter="url(#filter-1)" transform="translate(40.000000, 90.000000)">
                <g id="status-icon/review" transform="translate(1084.000000, 100.000000)">
                    <path d="M4,13.2565113 L1,13.2565113 C0.448,13.2565113 0,12.7989349 0,12.2351353 C0,11.6713358 0.448,11.2137594 1,11.2137594 L4,11.2137594 L4,13.2565113 Z M15,3.04275188 L1,3.04275188 C0.448,3.04275188 0,2.58517546 0,2.02137594 C0,1.45757642 0.448,1 1,1 L15,1 C15.552,1 16,1.45757642 16,2.02137594 C16,2.58517546 15.552,3.04275188 15,3.04275188 Z M4,8.14963158 L1,8.14963158 C0.448,8.14963158 0,7.69205515 0,7.12825564 C0,6.56445612 0.448,6.1068797 1,6.1068797 L4,6.1068797 L4,8.14963158 Z M15.707,13.5557744 L14.293,15 L12.019,12.6773911 C11.424,13.0369154 10.74,13.2565113 10,13.2565113 C7.794,13.2565113 6,11.4241628 6,9.17100751 C6,6.91785219 7.794,5.08550376 10,5.08550376 C12.206,5.08550376 14,6.91785219 14,9.17100751 C14,9.92682571 13.785,10.6254469 13.433,11.2331655 L15.707,13.5557744 Z M10,11.2137594 C11.103,11.2137594 12,10.2975852 12,9.17100751 C12,8.04442985 11.103,7.12825564 10,7.12825564 C8.897,7.12825564 8,8.04442985 8,9.17100751 C8,10.2975852 8.897,11.2137594 10,11.2137594 Z" id="Combined-Shape"></path>
                </g>
            </g>
        </g>
    </g>
</svg>