<?xml version="1.0" encoding="UTF-8"?>
<svg width="33px" height="33px" viewBox="0 0 33 33" version="1.1" xmlns="http://www.w3.org/2000/svg" xmlns:xlink="http://www.w3.org/1999/xlink">
    <!-- Generator: Sketch 47 (45396) - http://www.bohemiancoding.com/sketch -->
    <title>status icon/reviewed</title>
    <desc>Created with Sketch.</desc>
    <defs>
        <filter x="-1.3%" y="-1.6%" width="102.6%" height="103.7%" filterUnits="objectBoundingBox" id="filter-1">
            <feOffset dx="0" dy="2" in="SourceAlpha" result="shadowOffsetOuter1"></feOffset>
            <feGaussianBlur stdDeviation="4.5" in="shadowOffsetOuter1" result="shadowBlurOuter1"></feGaussianBlur>
            <feColorMatrix values="0 0 0 0 0.149019608   0 0 0 0 0.149019608   0 0 0 0 0.156862745  0 0 0 0.15 0" type="matrix" in="shadowBlurOuter1" result="shadowMatrixOuter1"></feColorMatrix>
            <feMerge>
                <feMergeNode in="shadowMatrixOuter1"></feMergeNode>
                <feMergeNode in="SourceGraphic"></feMergeNode>
            </feMerge>
        </filter>
    </defs>
    <g id="Transition-updates-" stroke="none" stroke-width="1" fill="none" fill-rule="evenodd">
        <g id="Projec-grid-update" transform="translate(-1115.000000, -272.000000)" fill="#0681FF">
            <g id="Group" filter="url(#filter-1)" transform="translate(40.000000, 90.000000)">
                <g id="status-icon/reviewed" transform="translate(1084.000000, 188.000000)">
                    <g id="goal-64">
                        <path d="M13,7 L16,4 L13,3 L12,0 L9,3 L9.6,4.9 L8.6,5.9 C7.7,5.3 6.6,4.9 5.5,4.9 C2.5,5 0,7.5 0,10.5 C0,13.5 2.5,16 5.5,16 C8.5,16 11,13.5 11,10.5 C11,9.3 10.6,8.3 10,7.4 L11,6.4 L13,7 Z M9,10.5 C9,12.4 7.4,14 5.5,14 C3.6,14 2,12.4 2,10.5 C2,8.6 3.6,7 5.5,7 C6.1,7 6.7,7.2 7.2,7.4 L4.8,9.8 C4.4,10.2 4.4,10.8 4.8,11.2 C5,11.4 5.3,11.5 5.5,11.5 C5.7,11.5 6,11.4 6.2,11.2 L8.6,8.8 C8.8,9.3 9,9.9 9,10.5 Z" id="Shape" fill-rule="nonzero"></path>
                    </g>
                </g>
            </g>
        </g>
    </g>
</svg>