<svg xmlns="http://www.w3.org/2000/svg" xmlns:xlink="http://www.w3.org/1999/xlink" x="0px" y="0px" width="48px" height="48px" viewBox="0 0 48 48"><g >
<polygon fill="#1B5C8C" points="44,27 4,27 1,23 5,19 43,19 47,23 "/>
<path fill="#E6E6E6" d="M41,47H7c-1.105,0-2-0.895-2-2V3c0-1.105,0.895-2,2-2l24,0l12,12v32C43,46.105,42.105,47,41,47z"/>
<path fill="#B3B3B3" d="M31,1v10c0,1.105,0.895,2,2,2h10L31,1z"/>
<path fill="#3375AD" d="M45,41H3c-1.105,0-2-0.895-2-2V23h46v16C47,40.105,46.105,41,45,41z"/>
<path fill="#FFFFFF" d="M23.42,30.645c0,0.878-0.259,1.556-0.775,2.033c-0.518,0.479-1.253,0.717-2.205,0.717h-0.597V36h-2.122
v-7.853h2.719c0.991,0,1.736,0.217,2.234,0.649C23.171,29.23,23.42,29.847,23.42,30.645z M19.843,31.666h0.387
c0.319,0,0.571-0.09,0.761-0.27c0.188-0.179,0.281-0.426,0.281-0.74c0-0.53-0.293-0.795-0.881-0.795h-0.548V31.666z"/>
<path fill="#FFFFFF" d="M27.475,31.059l1.354-2.911h2.299l-2.583,4.786V36h-2.138v-3.002l-2.584-4.851h2.311L27.475,31.059z"/>
</g></svg>