<svg xmlns="http://www.w3.org/2000/svg" xmlns:xlink="http://www.w3.org/1999/xlink" x="0px" y="0px" width="48px" height="48px" viewBox="0 0 48 48"><g >
<polygon fill="#A67C52" points="44,27 4,27 1,23 5,19 43,19 47,23 "/>
<path fill="#E6E6E6" d="M41,47H7c-1.105,0-2-0.895-2-2V3c0-1.105,0.895-2,2-2l24,0l12,12v32C43,46.105,42.105,47,41,47z"/>
<path fill="#B3B3B3" d="M31,1v10c0,1.105,0.895,2,2,2h10L31,1z"/>
<path fill="#C19F85" d="M45,41H3c-1.105,0-2-0.895-2-2V23h46v16C47,40.105,46.105,41,45,41z"/>
<path fill="#FFFFFF" d="M15.533,33.143V36h-2.122v-7.853h2.573c2.134,0,3.201,0.773,3.201,2.32c0,0.909-0.444,1.613-1.332,2.11
L20.141,36h-2.406l-1.664-2.857H15.533z M15.533,31.547h0.396c0.742,0,1.112-0.327,1.112-0.982c0-0.541-0.363-0.811-1.091-0.811
h-0.418V31.547z"/>
<path fill="#FFFFFF" d="M25.674,36l-0.387-1.472h-2.552L22.338,36h-2.331l2.562-7.885h2.831L27.994,36H25.674z M24.846,32.788
l-0.338-1.289c-0.078-0.286-0.175-0.657-0.287-1.112c-0.113-0.454-0.188-0.78-0.223-0.977c-0.033,0.182-0.096,0.482-0.191,0.902
c-0.095,0.418-0.305,1.244-0.631,2.476H24.846z"/>
<path fill="#FFFFFF" d="M30.964,33.143V36h-2.122v-7.853h2.573c2.134,0,3.201,0.773,3.201,2.32c0,0.909-0.444,1.613-1.332,2.11
L35.572,36h-2.406l-1.665-2.857H30.964z M30.964,31.547h0.397c0.741,0,1.111-0.327,1.111-0.982c0-0.541-0.363-0.811-1.09-0.811
h-0.419V31.547z"/>
</g></svg>