<svg xmlns="http://www.w3.org/2000/svg" xmlns:xlink="http://www.w3.org/1999/xlink" x="0px" y="0px" width="48px" height="48px" viewBox="0 0 48 48"><g >
<polygon fill="#5B5BB5" points="44,27 4,27 1,23 5,19 43,19 47,23 "/>
<path fill="#E6E6E6" d="M41,47H7c-1.105,0-2-0.895-2-2V3c0-1.105,0.895-2,2-2l24,0l12,12v32C43,46.105,42.105,47,41,47z"/>
<path fill="#B3B3B3" d="M31,1v10c0,1.105,0.895,2,2,2h10L31,1z"/>
<path fill="#8680D8" d="M45,41H3c-1.105,0-2-0.895-2-2V23h46v16C47,40.105,46.105,41,45,41z"/>
<path fill="#FFFFFF" d="M13.54,33.143V36h-2.122v-7.853h2.573c2.134,0,3.201,0.773,3.201,2.32c0,0.909-0.444,1.613-1.332,2.11
L18.148,36h-2.406l-1.665-2.857H13.54z M13.54,31.547h0.397c0.741,0,1.112-0.327,1.112-0.982c0-0.541-0.363-0.811-1.09-0.811H13.54
V31.547z"/>
<path fill="#FFFFFF" d="M23.68,36l-0.387-1.472h-2.551L20.345,36h-2.331l2.562-7.885h2.831L26,36H23.68z M22.853,32.788
l-0.338-1.289c-0.079-0.286-0.175-0.657-0.287-1.112c-0.113-0.454-0.188-0.78-0.223-0.977c-0.032,0.182-0.096,0.482-0.191,0.902
c-0.095,0.418-0.305,1.244-0.631,2.476H22.853z"/>
<path fill="#FFFFFF" d="M35.33,36h-2.508l-0.752-3.422c-0.036-0.143-0.092-0.428-0.169-0.854c-0.077-0.426-0.134-0.782-0.169-1.068
c-0.029,0.232-0.075,0.521-0.14,0.867s-0.128,0.663-0.191,0.953c-0.062,0.29-0.323,1.465-0.781,3.523h-2.508l-1.944-7.853h2.046
l0.854,3.937c0.193,0.871,0.326,1.563,0.397,2.079c0.046-0.365,0.13-0.861,0.25-1.487c0.12-0.627,0.232-1.146,0.336-1.559
l0.693-2.97h1.966l0.671,2.97c0.115,0.477,0.231,1.026,0.349,1.649s0.197,1.089,0.236,1.396c0.046-0.397,0.174-1.087,0.381-2.067
l0.87-3.948h2.046L35.33,36z"/>
</g></svg>