<svg xmlns="http://www.w3.org/2000/svg" xmlns:xlink="http://www.w3.org/1999/xlink" x="0px" y="0px" width="48px" height="48px" viewBox="0 0 48 48"><g >
<polygon fill="#161616" points="44,27 4,27 1,23 5,19 43,19 47,23 "/>
<path fill="#E6E6E6" d="M41,47H7c-1.105,0-2-0.895-2-2V3c0-1.105,0.895-2,2-2l24,0l12,12v32C43,46.105,42.105,47,41,47z"/>
<path fill="#B3B3B3" d="M31,1v10c0,1.105,0.895,2,2,2h10L31,1z"/>
<path fill="#444444" d="M45,41H3c-1.105,0-2-0.895-2-2V23h46v16C47,40.105,46.105,41,45,41z"/>
<path fill="#FFFFFF" d="M17.033,33.143V36h-2.121v-7.853h2.572c2.135,0,3.201,0.773,3.201,2.32c0,0.909-0.443,1.613-1.332,2.11
L21.643,36h-2.406l-1.666-2.857H17.033z M17.033,31.547h0.398c0.74,0,1.111-0.327,1.111-0.982c0-0.541-0.363-0.811-1.09-0.811h-0.42
V31.547z"/>
<path fill="#FFFFFF" d="M25.82,36h-2.121v-6.117h-1.918v-1.735h5.951v1.735H25.82V36z"/>
<path fill="#FFFFFF" d="M30.945,36h-2.09v-7.853h4.641v1.702h-2.551v1.499h2.352v1.702h-2.352V36z"/>
</g></svg>