<?xml version="1.0" encoding="UTF-8"?>
<svg width="305px" height="264px" viewBox="0 0 305 264" version="1.1" xmlns="http://www.w3.org/2000/svg" xmlns:xlink="http://www.w3.org/1999/xlink">
    <!-- Generator: Sketch 48 (47235) - http://www.bohemiancoding.com/sketch -->
    <title>spaceship</title>
    <desc>Created with Sketch.</desc>
    <defs></defs>
    <g id="09-create-new-project" stroke="none" stroke-width="1" fill="none" fill-rule="evenodd" transform="translate(-35.000000, -114.000000)">
        <g id="hero-tc-landing" transform="translate(0.000000, 80.000000)">
            <g id="spaceship" transform="translate(35.000000, 34.000000)">
                <g transform="translate(94.000000, 96.000000)" fill-rule="nonzero" id="Shape">
                    <path d="M24.54688,59.2330667 C23.83856,59.2330667 23.1614667,58.9518133 22.6614667,58.4518133 L4.38021333,40.17056 C3.52082667,39.3111733 3.35157333,37.97784 3.96874667,36.9309867 C5.96874667,33.5390667 8.31250667,30.49088 10.93488,27.86848 C24.1510133,14.6523467 43.7812267,10.89192 60.94008,18.28384 C61.75,18.6328 62.3333333,19.35808 62.5026133,20.2226667 C62.6718933,21.0859467 62.4036533,21.9778667 61.7838667,22.6054667 L26.4453333,58.4388 C25.9479467,58.9453067 25.2656533,59.23048 24.5573067,59.2330667 C24.55208,59.2330667 24.5494667,59.2330667 24.54688,59.2330667 Z" fill="#B3B3B3"></path>
                    <path d="M79.7135467,114.399733 C79.02344,114.399733 78.3411467,114.1328 77.8281333,113.61848 L59.3854133,95.17576 C58.8828,94.6744533 58.6015467,93.9934667 58.60416,93.2825333 C58.6067733,92.5729067 58.8906133,91.8932 59.39584,91.3945067 L95.2604267,55.9192533 C95.88544,55.3020533 96.77344,55.0351467 97.6354133,55.1953067 C98.4973867,55.35936 99.2239467,55.9374933 99.57552,56.74088 C107.161467,73.9869867 103.45312,93.74088 90.1302133,107.065093 C87.5130133,109.683573 84.4635467,112.026027 81.0677067,114.029947 C80.64584,114.27864 80.17968,114.399733 79.7135467,114.399733 Z" fill="#B3B3B3"></path>
                    <path d="M14.1172,70.2434933 C13.7187733,71.23568 13.9505333,72.3685067 14.7057333,73.1237067 L44.8750133,103.292987 C45.38544,103.803413 46.0677333,104.07424 46.7604267,104.07424 C47.1015733,104.07424 47.44272,104.009147 47.7708533,103.87632 C48.2734667,103.670107 86.6377067,87.4596533 106.237813,46.90448 L70.96632,11.6329867 C30.3460267,31.1803467 14.3193333,69.7389333 14.1172,70.2434933 Z" fill="#E6E6E6"></path>
                    <path d="M116.533867,1.47394667 C115.997413,0.93488 115.21616,0.644506667 114.505227,0.692693333 C97.5955467,1.57501333 83.1819733,5.75453333 70.96632,11.63296 L106.237813,46.9044533 C112.131867,34.7089867 116.349307,20.3385333 117.30472,3.50650667 C117.34896,2.75 117.067707,2.01170667 116.533867,1.47394667 Z" fill="#E86C60"></path>
                    <path d="M65.6145867,65.70832 C62.2005333,65.70832 58.7864533,64.4088533 56.1874933,61.8098933 C50.9895733,56.6119733 50.9895733,48.1523467 56.1874933,42.9544267 C61.3880267,37.7513067 69.84896,37.7565067 75.0442667,42.9544267 C77.5625067,45.4726667 78.9505067,48.82032 78.9505067,52.38152 C78.9505067,55.9440267 77.56248,59.29168 75.0442667,61.8098933 C72.4453067,64.4088533 69.0312533,65.70832 65.6145867,65.70832 Z" fill="#76B5B5"></path>
                    <path d="M7.36197333,117.473947 C5.40362667,117.473947 3.85416,117.378907 3.13541333,117.32552 C1.81770667,117.227867 0.770826667,116.180987 0.67448,114.86328 C0.484373333,112.315093 -0.216133333,99.3593867 4.57290667,94.5716 C7.09114667,92.0533867 10.4374933,90.6666667 14,90.6666667 C17.5625067,90.6666667 20.9088533,92.0533867 23.4270933,94.5716267 C28.6250133,99.7708533 28.6250133,108.229173 23.4270933,113.4284 C19.9921867,116.864587 12.3463467,117.473947 7.36197333,117.473947 Z" fill="#EA9860"></path>
                </g>
                <g id="dots">
                    <circle id="Oval-5" fill="#0681FF" cx="8.5" cy="134.5" r="8.5"></circle>
                    <circle id="Oval-5-Copy-2" fill="#5CC900" cx="136.5" cy="8.5" r="8.5"></circle>
                    <circle id="Oval-5-Copy-3" fill="#FD7D00" cx="273" cy="106" r="7"></circle>
                    <circle id="Oval-5-Copy-4" fill="#15ACEC" cx="271.5" cy="156.5" r="8.5"></circle>
                    <circle id="Oval-5-Copy" fill="#FDE400" cx="39" cy="213" r="4"></circle>
                    <circle id="Oval-5-Copy-6" fill="#0681FF" cx="187" cy="260" r="4"></circle>
                    <circle id="Oval-5-Copy-7" fill="#5CC900" cx="296" cy="191" r="4"></circle>
                    <circle id="Oval-5-Copy-8" fill="#FDE400" cx="301" cy="115" r="4"></circle>
                    <circle id="Oval-5-Copy-5" fill="#FD7D00" cx="107" cy="29" r="4"></circle>
                </g>
            </g>
        </g>
    </g>
</svg>