<svg height="48" viewBox="0 0 48 48" width="48" xmlns="http://www.w3.org/2000/svg"><path d="m44 27h-40l-3-4 4-4h38l4 4z" fill="#335262"/><path d="m41 47h-34c-1.105 0-2-.895-2-2v-42c0-1.105.895-2 2-2h24l12 12v32c0 1.105-.895 2-2 2z" fill="#e6e6e6"/><path d="m31 1v10c0 1.105.895 2 2 2h10z" fill="#b3b3b3"/><path d="m45 41h-42c-1.105 0-2-.895-2-2v-16h46v16c0 1.105-.895 2-2 2z" fill="#5a7a84"/><g fill="#fff"><path d="m19.225 33.615c0 .487-.124.919-.371 1.297s-.604.672-1.069.881c-.465.21-1.012.314-1.638.314-.523 0-.961-.037-1.316-.11s-.723-.201-1.106-.384v-1.891c.405.208.825.37 1.262.486s.838.174 1.203.174c.315 0 .546-.054.693-.163s.22-.25.22-.422c0-.107-.03-.201-.088-.282-.06-.08-.154-.162-.285-.244-.13-.082-.479-.251-1.044-.505-.512-.232-.896-.458-1.152-.677s-.446-.469-.569-.752c-.124-.283-.186-.617-.186-1.004 0-.724.263-1.288.79-1.692s1.25-.606 2.17-.606c.813 0 1.642.188 2.487.563l-.65 1.638c-.734-.336-1.368-.504-1.901-.504-.276 0-.476.048-.602.145s-.188.217-.188.359c0 .154.08.292.239.414s.591.344 1.297.666c.677.305 1.146.631 1.41.98.262.35.394.789.394 1.319z"/><path d="m27.787 32.062c0 1.78-.566 2.979-1.697 3.6l1.917 2.207h-2.643l-1.386-1.746-.005-.005v-.005l-.005-.006c-1.232 0-2.176-.346-2.833-1.037-.657-.69-.985-1.697-.985-3.018 0-1.308.327-2.306.98-2.995s1.603-1.034 2.849-1.034c1.25 0 2.197.343 2.841 1.026s.967 1.689.967 3.013zm-5.404 0c0 1.519.528 2.277 1.584 2.277.537 0 .936-.184 1.195-.553.26-.369.39-.943.39-1.725 0-.783-.132-1.363-.395-1.737-.264-.374-.656-.562-1.179-.562-1.063.002-1.595.768-1.595 2.3z"/><path d="m29.205 36v-7.853h2.122v6.14h3.024v1.713z"/></g></svg>