<?xml version="1.0" encoding="UTF-8" standalone="no"?>
<svg width="20px" height="20px" viewBox="0 0 20 20" version="1.1" xmlns="http://www.w3.org/2000/svg" xmlns:xlink="http://www.w3.org/1999/xlink">
    <!-- Generator: Sketch 39.1 (31720) - http://www.bohemiancoding.com/sketch -->
    <title>status-error</title>
    <desc>Created with Sketch.</desc>
    <defs></defs>
    <g id="Grid---Components" stroke="none" stroke-width="1" fill="none" fillRule="evenodd">
        <g id="Grid---components" transform="translate(-391.000000, -237.000000)">
            <g id="status-error" transform="translate(391.000000, 237.000000)">
                <rect id="0-10-0-5" fill="#F22F24" x="0" y="0" width="20" height="20" rx="10"></rect>
                <path d="M10,14.5 C7.525,14.5 5.5,12.475 5.5,10 C5.5,7.525 7.525,5.5 10,5.5 C12.475,5.5 14.5,7.525 14.5,10 C14.5,12.475 12.475,14.5 10,14.5 M10,4 C6.7,4 4,6.7 4,10 C4,13.3 6.7,16 10,16 C13.3,16 16,13.3 16,10 C16,6.7 13.3,4 10,4 Z M10,11.5 C10.414,11.5 10.75,11.836 10.75,12.25 C10.75,12.664 10.414,13 10,13 C9.586,13 9.25,12.664 9.25,12.25 C9.25,11.836 9.586,11.5 10,11.5 Z M9.250225,7 L10.750225,7 L10.750225,10.75 L9.250225,10.75 L9.250225,7 Z" id="Combined-Shape" fill="#FFFFFF"></path>
            </g>
        </g>
    </g>
</svg>