<svg width="16" height="16" viewBox="0 0 16 16" xmlns="http://www.w3.org/2000/svg"><title>status icon/reviewed</title><g fill="none" fill-rule="evenodd"><circle fill="#FFF" cx="5.5" cy="10.5" r="5.5"/><path d="M13 7l3-3-3-1-1-3-3 3 .6 1.9-1 1c-.9-.6-2-1-3.1-1C2.5 5 0 7.5 0 10.5c0 3 2.5 5.5 5.5 5.5s5.5-2.5 5.5-5.5c0-1.2-.4-2.2-1-3.1l1-1 2 .6zm-4 3.5C9 12.4 7.4 14 5.5 14S2 12.4 2 10.5 3.6 7 5.5 7c.6 0 1.2.2 1.7.4L4.8 9.8c-.4.4-.4 1 0 1.4.2.2.5.3.7.3.2 0 .5-.1.7-.3l2.4-2.4c.2.5.4 1.1.4 1.7z" fill="#0681FF" fill-rule="nonzero"/></g></svg>