<svg width="16" height="16" viewBox="0 0 16 16" xmlns="http://www.w3.org/2000/svg"><title>status icon/review</title><path d="M4 13.257H1c-.552 0-1-.458-1-1.022a1.01 1.01 0 0 1 1-1.021h3v2.043zM15 3.043H1c-.552 0-1-.458-1-1.022C0 1.458.448 1 1 1h14c.552 0 1 .458 1 1.021 0 .564-.448 1.022-1 1.022zM4 8.15H1c-.552 0-1-.458-1-1.022a1.01 1.01 0 0 1 1-1.021h3V8.15zm11.707 5.406L14.293 15l-2.274-2.323c-.595.36-1.279.58-2.019.58-2.206 0-4-1.833-4-4.086s1.794-4.085 4-4.085 4 1.832 4 4.085c0 .756-.215 1.454-.567 2.062l2.274 2.323zM10 11.214c1.103 0 2-.916 2-2.043 0-1.127-.897-2.043-2-2.043s-2 .916-2 2.043c0 1.127.897 2.043 2 2.043z" fill="#5D5D66"/></svg>