<?xml version="1.0" encoding="UTF-8" standalone="no"?>
<svg width="45px" height="52px" viewBox="0 0 45 52" version="1.1" xmlns="http://www.w3.org/2000/svg" xmlns:xlink="http://www.w3.org/1999/xlink">
    <!-- Generator: Sketch 3.8.3 (29802) - http://www.bohemiancoding.com/sketch -->
    <title>tablet</title>
    <desc>Created with Sketch.</desc>
    <defs></defs>
    <g id="Create-Project" stroke="none" stroke-width="1" fill="none" fill-rule="evenodd" stroke-linecap="round" stroke-linejoin="round">
        <g id="Slices" transform="translate(-490.000000, -526.000000)" stroke="#444444" stroke-width="1.5">
            <g id="tablet" transform="translate(491.000000, 527.000000)">
                <path d="M39.6923077,50 L3.30769231,50 C1.48019231,50 0,48.5083333 0,46.6666667 L0,3.33333333 C0,1.49166667 1.48019231,0 3.30769231,0 L39.6923077,0 C41.5198077,0 43,1.49166667 43,3.33333333 L43,46.6666667 C43,48.5083333 41.5198077,50 39.6923077,50 L39.6923077,50 Z" id="Stroke-4835" fill="#FFFFFF"></path>
                <polygon id="Stroke-4836" points="36.3846154 36.6666667 6.61538462 36.6666667 6.61538462 8.33333333 36.3846154 8.33333333"></polygon>
                <path d="M19.8461538,43.3333333 C19.8461538,42.4133333 20.5870769,41.6666667 21.5,41.6666667 C22.4129231,41.6666667 23.1538462,42.4133333 23.1538462,43.3333333 C23.1538462,44.2533333 22.4129231,45 21.5,45 C20.5870769,45 19.8461538,44.2533333 19.8461538,43.3333333 L19.8461538,43.3333333 Z" id="Stroke-4837"></path>
            </g>
        </g>
    </g>
</svg>