<?xml version="1.0" encoding="utf-8"?>
<!-- Generator: Adobe Illustrator 18.1.1, SVG Export Plug-In . SVG Version: 6.00 Build 0)  -->
<!DOCTYPE svg PUBLIC "-//W3C//DTD SVG 1.1//EN" "http://www.w3.org/Graphics/SVG/1.1/DTD/svg11.dtd">
<svg version="1.1" id="Layer_1" xmlns="http://www.w3.org/2000/svg" xmlns:xlink="http://www.w3.org/1999/xlink" x="0px" y="0px"
	 width="32px" height="32px" viewBox="0 0 32 32" enable-background="new 0 0 32 32" xml:space="preserve">
<path d="M8.1,25.8L9,31.2c0.1,0.5,0.5,0.8,1,0.8h10c0.5,0,0.9-0.4,1-0.8l0.9-5.3c2.3-1.6,4-4,4.7-6.8H28c0.6,0,1-0.4,1-1v-4
	c0-0.6-0.4-1-1-1h-1.4c-0.7-2.8-2.4-5.2-4.7-6.8L21,0.8C20.9,0.4,20.5,0,20,0H10C9.5,0,9.1,0.4,9,0.8L8.1,6.2C5,8.4,3,11.9,3,16
	C3,20.1,5,23.6,8.1,25.8z M19.2,30h-8.3l-0.5-2.9c1.4,0.6,3,0.9,4.6,0.9c1.6,0,3.2-0.3,4.6-0.9L19.2,30z M27,15v1v1h-0.1
	c0-0.3,0.1-0.7,0.1-1S27,15.3,27,15L27,15z M10.8,2h8.3l0.5,2.9C18.2,4.3,16.6,4,15,4s-3.2,0.3-4.6,0.9L10.8,2z M15,6
	c5.5,0,10,4.5,10,10s-4.5,10-10,10S5,21.5,5,16S9.5,6,15,6z"/>
<path d="M15,17h5c0.6,0,1-0.4,1-1s-0.4-1-1-1h-4v-4c0-0.6-0.4-1-1-1s-1,0.4-1,1v5C14,16.6,14.4,17,15,17z"/>
</svg>
