<?xml version="1.0" encoding="utf-8"?>
<!-- Generator: Adobe Illustrator 19.1.0, SVG Export Plug-In . SVG Version: 6.00 Build 0)  -->
<!DOCTYPE svg PUBLIC "-//W3C//DTD SVG 1.1//EN" "http://www.w3.org/Graphics/SVG/1.1/DTD/svg11.dtd">
<svg version="1.1" id="Layer_1" xmlns="http://www.w3.org/2000/svg" xmlns:xlink="http://www.w3.org/1999/xlink" x="0px" y="0px"
	 width="48px" height="48px" viewBox="0 0 48 48" enable-background="new 0 0 48 48" xml:space="preserve">
<path d="M3,6v36c0,2.8,2.2,5,5,5h32c2.8,0,5-2.2,5-5V6c0-2.8-2.2-5-5-5H8C5.2,1,3,3.2,3,6z M5,6c0-1.7,1.3-3,3-3h32c1.7,0,3,1.3,3,3
	v36c0,1.7-1.3,3-3,3H8c-1.7,0-3-1.3-3-3V6z"/>
<path d="M24,35c-1.7,0-3,1.3-3,3s1.3,3,3,3s3-1.3,3-3S25.7,35,24,35z M24,39c-0.6,0-1-0.4-1-1s0.4-1,1-1s1,0.4,1,1S24.6,39,24,39z"
	/>
<path d="M10,31h28c0.6,0,1-0.4,1-1V8c0-0.6-0.4-1-1-1H10C9.4,7,9,7.4,9,8v22C9,30.6,9.4,31,10,31z M11,9h26v20H11V9z"/>
</svg>
