<?xml version="1.0" encoding="utf-8"?>
<!-- Generator: Adobe Illustrator 19.1.0, SVG Export Plug-In . SVG Version: 6.00 Build 0)  -->
<!DOCTYPE svg PUBLIC "-//W3C//DTD SVG 1.1//EN" "http://www.w3.org/Graphics/SVG/1.1/DTD/svg11.dtd">
<svg version="1.1" id="Layer_1" xmlns="http://www.w3.org/2000/svg" xmlns:xlink="http://www.w3.org/1999/xlink" x="0px" y="0px"
	 width="48px" height="48px" viewBox="0 0 48 48" enable-background="new 0 0 48 48" xml:space="preserve">
<path d="M11.2,38.9l1.8,7.3c0.1,0.4,0.5,0.8,1,0.8h16c0.5,0,0.9-0.3,1-0.8l1.8-7.3c2.4-0.4,4.2-2.4,4.2-4.9v-5h3c0.6,0,1-0.4,1-1v-8
	c0-0.6-0.4-1-1-1h-3v-5c0-2.5-1.8-4.5-4.2-4.9L31,1.8C30.9,1.3,30.5,1,30,1H14c-0.5,0-0.9,0.3-1,0.8l-1.8,7.3C8.8,9.5,7,11.5,7,14
	v20C7,36.5,8.8,38.5,11.2,38.9z M29.2,45H14.8l-1.5-6h17.4L29.2,45z M39,21v6h-2v-6H39z M14.8,3h14.4l1.5,6H13.3L14.8,3z M9,14
	c0-1.7,1.3-3,3-3h20c1.7,0,3,1.3,3,3v20c0,1.7-1.3,3-3,3H12c-1.7,0-3-1.3-3-3V14z"/>
<path d="M22,25h6c0.6,0,1-0.4,1-1s-0.4-1-1-1h-5v-5c0-0.6-0.4-1-1-1s-1,0.4-1,1v6C21,24.6,21.4,25,22,25z"/>
</svg>
