<?xml version="1.0" encoding="utf-8"?>
<!-- Generator: Adobe Illustrator 19.1.0, SVG Export Plug-In . SVG Version: 6.00 Build 0)  -->
<!DOCTYPE svg PUBLIC "-//W3C//DTD SVG 1.1//EN" "http://www.w3.org/Graphics/SVG/1.1/DTD/svg11.dtd">
<svg version="1.1" id="Layer_1" xmlns="http://www.w3.org/2000/svg" xmlns:xlink="http://www.w3.org/1999/xlink" x="0px" y="0px"
	 width="48px" height="48px" viewBox="0 0 48 48" enable-background="new 0 0 48 48" xml:space="preserve">
<path d="M14,47h20c2.8,0,5-2.2,5-5V6c0-2.8-2.2-5-5-5H14c-2.8,0-5,2.2-5,5v36C9,44.8,11.2,47,14,47z M37,29H11V13h26V29z M34,45H14
	c-1.7,0-3-1.3-3-3V31h26v11C37,43.7,35.7,45,34,45z M14,3h20c1.7,0,3,1.3,3,3v5H11V6C11,4.3,12.3,3,14,3z"/>
<path d="M24,35c-1.7,0-3,1.3-3,3s1.3,3,3,3s3-1.3,3-3S25.7,35,24,35z M24,39c-0.6,0-1-0.4-1-1s0.4-1,1-1s1,0.4,1,1S24.6,39,24,39z"
	/>
</svg>
