<?xml version="1.0" encoding="UTF-8"?>
<svg width="30px" height="30px" viewBox="0 0 30 30" version="1.1" xmlns="http://www.w3.org/2000/svg" xmlns:xlink="http://www.w3.org/1999/xlink">
    <!-- Generator: Sketch 49.3 (51167) - http://www.bohemiancoding.com/sketch -->
    <title>icon-timeline-github</title>
    <desc>Created with Sketch.</desc>
    <defs></defs>
    <g id="icon-timeline-github" stroke="none" stroke-width="1" fill="none" fill-rule="evenodd">
        <path d="M15,0 C6.75,0 0,6.91965566 0,15.3770126 C0,22.2005619 4.3125,27.9669416 10.21875,29.9851745 C10.96875,30.0812809 11.25,29.6968555 11.25,29.2163239 C11.25,28.8318986 11.25,27.8708353 11.25,26.621453 C7.03125,27.5825163 6.1875,24.6032201 6.1875,24.6032201 C5.53125,22.8733062 4.5,22.3927746 4.5,22.3927746 C3.09375,21.4317113 4.59375,21.4317113 4.59375,21.4317113 C6.09375,21.5278176 6.9375,22.9694125 6.9375,22.9694125 C8.25,25.2759644 10.40625,24.6032201 11.34375,24.2187948 C11.4375,23.2577315 11.90625,22.5849872 12.28125,22.2005619 C8.90625,21.8161366 5.4375,20.470648 5.4375,14.6081619 C5.4375,12.9743544 6,11.5327594 6.9375,10.4755898 C6.75,10.0911645 6.28125,8.55346325 7.125,6.43912402 C7.125,6.43912402 8.34375,6.0546987 11.25,7.97682527 C12.46875,7.59239996 13.6875,7.49629363 15,7.49629363 C16.3125,7.49629363 17.53125,7.68850629 18.75,7.97682527 C21.65625,5.95859237 22.875,6.34301769 22.875,6.34301769 C23.71875,8.45735692 23.15625,9.99505817 23.0625,10.3794835 C24,11.4366531 24.5625,12.7821417 24.5625,14.5120556 C24.5625,20.3745417 21.09375,21.7200303 17.71875,22.1044556 C18.28125,22.5849872 18.75,23.5460505 18.75,24.9876454 C18.75,27.0058783 18.75,28.7357923 18.75,29.2163239 C18.75,29.6007492 19.03125,30.0812809 19.78125,29.9851745 C25.6875,27.9669416 30,22.2005619 30,15.3770126 C30,6.91965566 23.25,0 15,0 Z" id="Shape" fill="#151516"></path>
    </g>
</svg>