<?xml version="1.0" encoding="UTF-8"?>
<svg width="30px" height="30px" viewBox="0 0 30 30" version="1.1" xmlns="http://www.w3.org/2000/svg" xmlns:xlink="http://www.w3.org/1999/xlink">
    <!-- Generator: Sketch 49.3 (51167) - http://www.bohemiancoding.com/sketch -->
    <title>icon-timeline-marvelapp</title>
    <desc>Created with Sketch.</desc>
    <defs></defs>
    <g id="icon-timeline-marvelapp" stroke="none" stroke-width="1" fill="none" fill-rule="evenodd">
        <g id="Group">
            <rect id="Rectangle-16" fill="#00B5FF" x="0" y="0" width="30" height="30" rx="15"></rect>
            <path d="M13.6915243,11.8465013 C14.6977471,11.8465013 12.8587882,16.9470099 13.1016696,19.1849882 C13.3445509,21.4229664 15.8601079,20.7984144 15.6866212,19.4625669 C15.3916938,17.2766346 16.9183767,10.3371672 18.4450595,10.3371672 C19.5553743,10.3371672 17.213304,15.0907024 17.6817181,18.0746734 C17.9766454,20.0177243 20.6830378,19.4278695 20.3881104,18.1961141 C19.5553743,14.2926636 22.3311613,10.5106538 21.9668392,7.7695642 C21.7933525,6.62455207 21.1341031,6 20.3707617,6 C17.8378561,6 15.7907132,11.0484626 15.7907132,11.0484626 C15.7907132,11.0484626 16.0335946,8.16858358 13.9864517,8.06449157 C10.985132,7.89100488 7.9317663,15.2294917 8.00116097,21.8913805 C8.05320698,24.0079181 10.7595993,23.6609447 10.5861126,21.9434265 C10.4126259,18.9768041 12.1821901,11.86385 13.708873,11.86385 L13.6915243,11.8465013 Z" id="SVG_Icon" fill="#FFFFFF" fill-rule="nonzero"></path>
        </g>
    </g>
</svg>