<?xml version="1.0" encoding="UTF-8"?>
<svg width="30px" height="30px" viewBox="0 0 30 30" version="1.1" xmlns="http://www.w3.org/2000/svg" xmlns:xlink="http://www.w3.org/1999/xlink">
    <!-- Generator: Sketch 49.3 (51167) - http://www.bohemiancoding.com/sketch -->
    <title>icon-timeline-zip</title>
    <desc>Created with Sketch.</desc>
    <defs></defs>
    <g id="icon-timeline-zip" stroke="none" stroke-width="1" fill="none" fill-rule="evenodd">
        <path d="M25,3 L16,3 L16,8 L19,8 L19,15 L11,15 L11,8 L14,8 L14,3 L5,3 C4.448,3 4,3.447 4,4 L4,26 C4,26.553 4.448,27 5,27 L25,27 C25.552,27 26,26.553 26,26 L26,4 C26,3.447 25.552,3 25,3 Z M17,23 L13,23 L13,21 L17,21 L17,23 Z M17,19 L13,19 L13,17 L17,17 L17,19 Z M13,10 L17,10 L17,13 L13,13 L13,10 Z" id="Shape" fill="#0681FF" fill-rule="nonzero"></path>
    </g>
</svg>