<?xml version="1.0" encoding="utf-8"?>
<!-- Generator: Adobe Illustrator 19.2.1, SVG Export Plug-In . SVG Version: 6.00 Build 0)  -->
<!DOCTYPE svg PUBLIC "-//W3C//DTD SVG 1.1//EN" "http://www.w3.org/Graphics/SVG/1.1/DTD/svg11.dtd">
<svg version="1.1" id="Layer_1" xmlns="http://www.w3.org/2000/svg" xmlns:xlink="http://www.w3.org/1999/xlink" x="0px" y="0px"
	 width="16px" height="16px" viewBox="0 0 16 16" enable-background="new 0 0 16 16" xml:space="preserve">
<path d="M13.297,5.184l1.067-2.134L12.95,1.636l-2.134,1.067c-0.336-0.179-0.691-0.328-1.062-0.441L9,0H7L6.246,2.262
	C5.875,2.375,5.52,2.524,5.184,2.703L3.05,1.636L1.636,3.05l1.067,2.134C2.524,5.52,2.375,5.875,2.262,6.246L0,7v2l2.262,0.754
	c0.113,0.371,0.262,0.725,0.441,1.062L1.636,12.95l1.414,1.414l2.134-1.067c0.336,0.179,0.691,0.328,1.062,0.441L7,16h2l0.754-2.262
	c0.371-0.113,0.726-0.262,1.062-0.441l2.134,1.067l1.414-1.414l-1.067-2.134c0.179-0.336,0.328-0.691,0.441-1.062L16,9V7
	l-2.262-0.754C13.625,5.875,13.476,5.52,13.297,5.184z M8,11c-1.657,0-3-1.343-3-3s1.343-3,3-3s3,1.343,3,3S9.657,11,8,11z"/>
</svg>
