<?xml version="1.0" encoding="utf-8"?>
<!-- Generator: Adobe Illustrator 19.2.1, SVG Export Plug-In . SVG Version: 6.00 Build 0)  -->
<!DOCTYPE svg PUBLIC "-//W3C//DTD SVG 1.1//EN" "http://www.w3.org/Graphics/SVG/1.1/DTD/svg11.dtd">
<svg version="1.1" id="Layer_1" xmlns="http://www.w3.org/2000/svg" xmlns:xlink="http://www.w3.org/1999/xlink" x="0px" y="0px"
	 width="16px" height="16px" viewBox="0 0 16 16" enable-background="new 0 0 16 16" xml:space="preserve">
<path d="M15,2h-2V1c0-0.6-0.4-1-1-1h-1c-0.6,0-1,0.4-1,1v1H6V1c0-0.6-0.4-1-1-1H4C3.4,0,3,0.4,3,1v1H1C0.4,2,0,2.4,0,3v12
	c0,0.6,0.4,1,1,1h14c0.6,0,1-0.4,1-1V3C16,2.4,15.6,2,15,2z M14,14H2V6h12V14z"/>
<polygon points="7,13 9,13 9,11 11,11 11,9 9,9 9,7 7,7 7,9 5,9 5,11 7,11 "/>
</svg>
