<?xml version="1.0" encoding="UTF-8"?>
<svg width="16px" height="16px" viewBox="0 0 16 16" version="1.1" xmlns="http://www.w3.org/2000/svg" xmlns:xlink="http://www.w3.org/1999/xlink">
    <!-- Generator: Sketch 47 (45396) - http://www.bohemiancoding.com/sketch -->
    <desc>Created with Sketch.</desc>
    <defs></defs>
    <g id="Symbols" stroke="none" stroke-width="1" fill="none" fill-rule="evenodd">
        <g id="bell/inactive" transform="translate(0.000000, -6.000000)" fill="#888894">
            <path d="M10,20 C10,21.1 9.1,22 8,22 C6.9,22 6,21.1 6,20 L10,20 Z M15,17 C15.6,17 16,17.4 16,18 C16,18.6 15.6,19 15,19 L1,19 C0.4,19 0,18.6 0,18 C0,17.4 0.4,17 1,17 L1.5,17 C2.2,16.3 3,15.3 3,14 L3,11 C3,8.2 5.2,6 8,6 C10.8,6 13,8.2 13,11 L13,14 C13,15.3 13.8,16.3 14.5,17 L15,17 Z" id="ui-bell"></path>
        </g>
    </g>
</svg>