<?xml version="1.0" encoding="UTF-8"?>
<svg width="16px" height="16px" viewBox="0 0 16 16" version="1.1" xmlns="http://www.w3.org/2000/svg" xmlns:xlink="http://www.w3.org/1999/xlink">
    <!-- Generator: Sketch 49.3 (51167) - http://www.bohemiancoding.com/sketch -->
    <title>ui-rocket</title>
    <desc>Created with Sketch.</desc>
    <defs></defs>
    <g id="ui-rocket" stroke="none" stroke-width="1" fill="none" fill-rule="evenodd">
        <path d="M16,0 C15.8002774,2.99583911 14.9015257,5.3925104 13.70319,7.38973648 C14.6019417,9.48682386 14.2024965,12.0832178 12.5048544,13.7808599 C12.2052705,14.1803051 11.8058252,14.479889 11.40638,14.6796117 L8.90984743,12.1830791 C7.71151179,12.9819695 6.91262136,13.2815534 6.91262136,13.2815534 L2.81830791,9.18723994 C2.81830791,9.18723994 3.21775312,8.38834951 3.91678225,7.19001387 L1.42024965,4.69348128 C1.71983356,4.29403606 2.01941748,3.89459085 2.31900139,3.59500693 C4.01664355,1.79750347 6.51317614,1.39805825 8.61026352,2.39667129 C10.5076283,1.09847434 13.0041609,0.199722607 16,0 Z M0.621359223,12.5825243 C1.42024965,11.7836338 2.6185853,11.7836338 3.41747573,12.5825243 C4.21636616,13.3814147 4.21636616,14.5797503 3.41747573,15.3786408 C2.6185853,16.1775312 0.0221914008,15.9778086 0.0221914008,15.9778086 C0.0221914008,15.9778086 -0.177531207,13.2815534 0.621359223,12.5825243 Z" id="Combined-Shape" fill="#404041" fill-rule="nonzero"></path>
    </g>
</svg>