<?xml version="1.0" encoding="UTF-8"?>
<svg width="16px" height="16px" viewBox="0 0 16 16" version="1.1" xmlns="http://www.w3.org/2000/svg" xmlns:xlink="http://www.w3.org/1999/xlink">
    <!-- Generator: Sketch 49.3 (51167) - http://www.bohemiancoding.com/sketch -->
    <title>ui-x-mark</title>
    <desc>Created with Sketch.</desc>
    <defs>
        <path d="M14.7,1.3 C14.3,0.9 13.7,0.9 13.3,1.3 L8,6.6 L2.7,1.3 C2.3,0.9 1.7,0.9 1.3,1.3 C0.9,1.7 0.9,2.3 1.3,2.7 L6.6,8 L1.3,13.3 C0.9,13.7 0.9,14.3 1.3,14.7 C1.5,14.9 1.7,15 2,15 C2.3,15 2.5,14.9 2.7,14.7 L8,9.4 L13.3,14.7 C13.5,14.9 13.8,15 14,15 C14.2,15 14.5,14.9 14.7,14.7 C15.1,14.3 15.1,13.7 14.7,13.3 L9.4,8 L14.7,2.7 C15.1,2.3 15.1,1.7 14.7,1.3 L14.7,1.3 Z" id="path-1"></path>
    </defs>
    <g id="ui-x-mark" stroke="none" stroke-width="1" fill="none" fill-rule="evenodd">
        <g id="icons/x-mark">
            <mask id="mask-2" fill="white">
                <use xlink:href="#path-1"></use>
            </mask>
            <use id="x-mark" fill="#888894" fill-rule="evenodd" opacity="0.5" xlink:href="#path-1"></use>
            <g id="color/tc-gray/50" mask="url(#mask-2)" fill="#808080" fill-rule="evenodd">
                <rect id="fill/tc-gray/50" x="0" y="0" width="16" height="16"></rect>
            </g>
        </g>
    </g>
</svg>