<svg xmlns="http://www.w3.org/2000/svg" xmlns:xlink="http://www.w3.org/1999/xlink" x="0px" y="0px" width="48px" height="48px" viewBox="0 0 48 48"><g >
<polygon fill="#458BC4" points="44,27 4,27 1,23 5,19 43,19 47,23 "/>
<path fill="#E6E6E6" d="M41,47H7c-1.105,0-2-0.895-2-2V3c0-1.105,0.895-2,2-2l24,0l12,12v32C43,46.105,42.105,47,41,47z"/>
<path fill="#B3B3B3" d="M31,1v10c0,1.105,0.895,2,2,2h10L31,1z"/>
<path fill="#43A6DD" d="M45,41H3c-1.105,0-2-0.895-2-2V23h46v16C47,40.105,46.105,41,45,41z"/>
<path fill="#FFFFFF" d="M19.426,36h-2.455l-1.531-2.455L13.926,36h-2.401l2.605-4.018l-2.449-3.835h2.353l1.418,2.428l1.364-2.428
h2.422l-2.487,4.001L19.426,36z"/>
<path fill="#FFFFFF" d="M23.729,36l-1.606-5.656h-0.048c0.075,0.964,0.113,1.712,0.113,2.246V36h-1.88v-7.853h2.825l1.638,5.575
h0.043l1.606-5.575h2.831V36H27.3v-3.443c0-0.179,0.003-0.377,0.008-0.596c0.006-0.219,0.03-0.754,0.073-1.605h-0.048L25.748,36
H23.729z"/>
<path fill="#FFFFFF" d="M30.942,36v-7.853h2.122v6.14h3.024V36H30.942z"/>
</g></svg>