<svg xmlns="http://www.w3.org/2000/svg" xmlns:xlink="http://www.w3.org/1999/xlink" x="0px" y="0px" width="48px" height="48px" viewBox="0 0 48 48"><g >
<polygon fill="#A67C52" points="44,27 4,27 1,23 5,19 43,19 47,23 "/>
<path fill="#E6E6E6" d="M41,47H7c-1.105,0-2-0.895-2-2V3c0-1.105,0.895-2,2-2l24,0l12,12v32C43,46.105,42.105,47,41,47z"/>
<path fill="#B3B3B3" d="M31,1v10c0,1.105,0.895,2,2,2h10L31,1z"/>
<path fill="#C19F85" d="M45,41H3c-1.105,0-2-0.895-2-2V23h46v16C47,40.105,46.105,41,45,41z"/>
<path fill="#FFFFFF" d="M21.695,36h-6.117v-1.311l3.4-4.828h-3.32v-1.714h5.951v1.306l-3.399,4.834h3.485V36z"/>
<path fill="#FFFFFF" d="M22.818,36v-7.853h2.133V36H22.818z"/>
<path fill="#FFFFFF" d="M32.347,30.645c0,0.878-0.259,1.556-0.776,2.033c-0.518,0.479-1.252,0.717-2.205,0.717H28.77V36h-2.121
v-7.853h2.717c0.992,0,1.737,0.217,2.234,0.649C32.098,29.23,32.347,29.847,32.347,30.645z M28.77,31.666h0.387
c0.318,0,0.572-0.09,0.76-0.27c0.188-0.179,0.282-0.426,0.282-0.74c0-0.53-0.294-0.795-0.881-0.795H28.77V31.666z"/>
</g></svg>