<?xml version="1.0" encoding="UTF-8"?>
<svg width="30px" height="26px" viewBox="0 0 30 26" version="1.1" xmlns="http://www.w3.org/2000/svg" xmlns:xlink="http://www.w3.org/1999/xlink">
    <!-- Generator: Sketch 55.2 (78181) - https://sketchapp.com -->
    <title>07 icon-folder-small</title>
    <desc>Created with Sketch.</desc>
    <g id="Symbols" stroke="none" stroke-width="1" fill="none" fill-rule="evenodd">
        <g id="file-list" transform="translate(0.000000, -2.000000)">
            <g id="icon-file/folder">
                <g id="folder-14" transform="translate(0.000000, 2.000000)">
                    <path d="M1,7.5 L29.5,7.5" id="Shape" stroke="#444444" stroke-linecap="square"></path>
                    <path d="M29.5,8.5 L0.5,8.5 L0.5,24 C0.5,24.8284271 1.17157288,25.5 2,25.5 L28,25.5 C28.8284271,25.5 29.5,24.8284271 29.5,24 L29.5,8.5 Z" id="Shape" stroke="#59A7FF" fill="#F4F9FF"></path>
                    <path d="M29.5,8.5 L29.5,4.5 L14.5,4.5 C14.027864,4.5 13.5832816,4.27770876 13.3,3.9 L11.2,1.1 C10.9167184,0.722291236 10.472136,0.5 10,0.5 L2,0.5 C1.17157288,0.5 0.5,1.17157288 0.5,2 L0.5,8.5 L29.5,8.5 Z" id="Shape" stroke="#59A7FF" fill="#CFE6FF"></path>
                </g>
            </g>
        </g>
    </g>
</svg>