<?xml version="1.0" encoding="UTF-8"?>
<svg width="16px" height="16px" viewBox="0 0 16 16" version="1.1" xmlns="http://www.w3.org/2000/svg" xmlns:xlink="http://www.w3.org/1999/xlink">
    <!-- Generator: Sketch 55.2 (78181) - https://sketchapp.com -->
    <title>13 icon-all-projects-inactive</title>
    <desc>Created with Sketch.</desc>
    <g id="Project-Listing---Customer---Desktop" stroke="none" stroke-width="1" fill="none" fill-rule="evenodd">
        <g id="Projects-list---message" transform="translate(-20.000000, -319.000000)" fill="#808080" fill-rule="nonzero">
            <g id="Group-10" transform="translate(0.000000, 110.000000)">
                <g id="Group-3" transform="translate(20.000000, 197.000000)">
                    <g id="13-icon-all-projects-inactive" transform="translate(0.000000, 12.000000)">
                        <path d="M6,0 L1,0 C0.4,0 0,0.4 0,1 L0,6 C0,6.6 0.4,7 1,7 L6,7 C6.6,7 7,6.6 7,6 L7,1 C7,0.4 6.6,0 6,0 Z M5,5 L2,5 L2,2 L5,2 L5,5 Z" id="Shape"></path>
                        <path d="M15,0 L10,0 C9.4,0 9,0.4 9,1 L9,6 C9,6.6 9.4,7 10,7 L15,7 C15.6,7 16,6.6 16,6 L16,1 C16,0.4 15.6,0 15,0 Z M14,5 L11,5 L11,2 L14,2 L14,5 Z" id="Shape"></path>
                        <path d="M6,9 L1,9 C0.4,9 0,9.4 0,10 L0,15 C0,15.6 0.4,16 1,16 L6,16 C6.6,16 7,15.6 7,15 L7,10 C7,9.4 6.6,9 6,9 Z M5,14 L2,14 L2,11 L5,11 L5,14 Z" id="Shape"></path>
                        <path d="M15,9 L10,9 C9.4,9 9,9.4 9,10 L9,15 C9,15.6 9.4,16 10,16 L15,16 C15.6,16 16,15.6 16,15 L16,10 C16,9.4 15.6,9 15,9 Z M14,14 L11,14 L11,11 L14,11 L14,14 Z" id="Shape"></path>
                    </g>
                </g>
            </g>
        </g>
    </g>
</svg>