<?xml version="1.0" encoding="UTF-8"?>
<svg width="24px" height="18px" viewBox="0 0 24 18" version="1.1" xmlns="http://www.w3.org/2000/svg" xmlns:xlink="http://www.w3.org/1999/xlink">
    <!-- Generator: Sketch 55.2 (78181) - https://sketchapp.com -->
    <title>01 icon-dashboard-inactive</title>
    <desc>Created with Sketch.</desc>
    <g id="Symbols" stroke="none" stroke-width="1" fill="none" fill-rule="evenodd" stroke-linecap="round" stroke-linejoin="round">
        <g id="sidenav/files" transform="translate(-20.000000, -11.000000)" stroke="#7F7F7F" stroke-width="1.5">
            <g id="01-icon-dashboard-inactive">
                <g transform="translate(20.000000, 12.000000)">
                    <path d="M12,0.5 C8.9933041,0.522721588 6.11880588,1.7390313 4.00897426,3.88130744 C1.89914264,6.02358358 0.726838106,8.91630746 0.75,11.923 L0.75,14 C0.75,14.8284271 1.42157288,15.5 2.25,15.5 L21.75,15.5 C22.5784271,15.5 23.25,14.8284271 23.25,14 L23.25,11.92 C23.2965668,5.66000538 18.259989,0.547319254 12,0.5 Z" id="Path"></path>
                    <path d="M9,15.5 L9,14.75 C9,13.0931458 10.3431458,11.75 12,11.75 C13.6568542,11.75 15,13.0931458 15,14.75 L15,15.5" id="Path"></path>
                    <path d="M14.25,5.003 L12,11.753" id="Path"></path>
                    <path d="M4.875,11 C4.66789322,11 4.5,11.1678932 4.5,11.375 C4.5,11.5821068 4.66789322,11.75 4.875,11.75 C5.08210678,11.75 5.25,11.5821068 5.25,11.375 C5.25,11.1678932 5.08210678,11 4.875,11" id="Path"></path>
                    <path d="M6.375,7.253 C6.16789322,7.253 6,7.42089322 6,7.628 C6,7.83510678 6.16789322,8.003 6.375,8.003 C6.58210678,8.003 6.75,7.83510678 6.75,7.628 C6.75,7.42089322 6.58210678,7.253 6.375,7.253" id="Path"></path>
                    <path d="M19.125,11 C18.9178932,11 18.75,11.1678932 18.75,11.375 C18.75,11.5821068 18.9178932,11.75 19.125,11.75 C19.3321068,11.75 19.5,11.5821068 19.5,11.375 C19.5,11.1678932 19.3321068,11 19.125,11" id="Path"></path>
                    <path d="M17.625,7.253 C17.4178932,7.253 17.25,7.42089322 17.25,7.628 C17.25,7.83510678 17.4178932,8.003 17.625,8.003 C17.8321068,8.003 18,7.83510678 18,7.628 C18,7.42089322 17.8321068,7.253 17.625,7.253" id="Path"></path>
                    <path d="M9.375,4.253 C9.16789322,4.253 9,4.42089322 9,4.628 C9,4.83510678 9.16789322,5.003 9.375,5.003 C9.58210678,5.003 9.75,4.83510678 9.75,4.628 C9.75,4.42089322 9.58210678,4.253 9.375,4.253" id="Path"></path>
                </g>
            </g>
        </g>
    </g>
</svg>