<?xml version="1.0" encoding="UTF-8"?>
<svg width="30px" height="30px" viewBox="0 0 30 30" version="1.1" xmlns="http://www.w3.org/2000/svg" xmlns:xlink="http://www.w3.org/1999/xlink">
    <!-- Generator: sketchtool 61.2 (101010) - https://sketch.com -->
    <title>F132D33D-66CF-486F-B17E-7687604A2B61</title>
    <desc>Created with sketchtool.</desc>
    <g id="____Project-Catalog-Redesign" stroke="none" stroke-width="1" fill="none" fill-rule="evenodd">
        <g id="icon/layout-dashboard" fill="#FFFFFF">
            <g id="layout-dashboard">
                <path d="M27.8433529,12.1869922 C28.4221984,12.1882422 28.9647879,12.4144827 29.3723551,12.8244656 C29.7799224,13.2331986 30.0024591,13.776926 29.9999795,14.3544019 L29.9999795,27.8200908 C30.0024591,29.0062914 29.0372999,29.9775009 27.849604,29.9837507 L18.0954951,30 C18.0942449,29.9987501 18.0917445,29.9987501 18.0917445,29.9987501 C17.5141492,29.9975001 16.9715597,29.7712595 16.5639925,29.3625266 C16.1576755,28.9537936 15.9338886,28.4113162 15.9351335,27.8338403 L15.9351335,14.3506521 C15.9338886,13.776926 16.1564253,13.2344486 16.5639925,12.8244656 C16.9715597,12.4144827 17.512899,12.1882422 18.0892441,12.1869922 L27.8433529,12.1869922 Z M11.9082246,19.6866797 C13.09342,19.6866797 14.057329,20.6453898 14.0648303,21.8240907 L14.0648303,27.8550894 C14.0610797,28.4350652 13.8347923,28.9737928 13.4259749,29.3787759 C13.0209081,29.7787592 12.4833194,29.9987501 11.9144756,29.9987501 L2.15286548,29.9825007 C0.968920192,29.9825007 0.00626140805,29.0237907 1.03769891e-05,27.8450898 L1.03769891e-05,21.8290905 C0.00626140805,20.6466397 0.970170398,19.6866797 2.14911486,19.6866797 L11.9082246,19.6866797 Z M11.9144756,21.5616016 L2.13286218,21.5616016 C1.99408929,21.5616016 1.8765699,21.6865964 1.8753197,21.8340902 L1.8753197,27.84009 C1.8765699,27.9863339 1.99909011,28.1075789 2.14911486,28.1075789 L2.34115898,28.1078986 C3.70806123,28.1101742 11.9094748,28.1238282 11.9094748,28.1238282 C11.9882378,28.1238282 12.0407464,28.1100787 12.1070073,28.0438315 C12.1607662,27.9913337 12.189521,27.9238365 12.189521,27.8500896 L12.189521,21.8290905 C12.1882707,21.6828465 12.0657505,21.5616016 11.9144756,21.5616016 Z M27.8408525,14.0619141 L18.0929947,14.0619141 C17.9367189,14.063164 17.8104481,14.1906587 17.8104481,14.3481522 L17.8104481,27.8350902 C17.8104481,27.9150869 17.8392028,27.985084 17.8929617,28.0400817 C17.9479708,28.0950794 18.0167321,28.1238282 18.0942449,28.1238282 L27.8421027,28.1075789 C27.9971283,28.1063289 28.1246493,27.9775843 28.1246493,27.8200908 L28.1246493,14.3506521 C28.1246493,14.2706554 28.0958946,14.2006583 28.0421357,14.1456606 C27.9883769,14.0906629 27.9183653,14.0619141 27.8408525,14.0619141 Z M2.15661609,0 L11.9119752,0.0162493229 C13.1009213,0.0212491146 14.0673307,0.992458648 14.0648351,2.17990917 L14.0648351,15.648098 C14.0672222,16.7851158 13.1831253,17.7231439 12.0646376,17.8058438 L11.9100999,17.8117578 L11.9100999,17.8117578 L2.15661609,17.8117578 C1.57902082,17.8105079 1.03643133,17.5855173 0.628864103,17.1767843 C0.222547084,16.7680513 -0.00123982837,16.2255739 5.16773757e-06,15.648098 L5.16773757e-06,2.1624099 C-0.00123982837,1.58743386 0.222547084,1.04370651 0.630114309,0.636223491 C1.03768153,0.227490521 1.57902082,0.00124994792 2.15661609,0 Z M2.1578663,1.87492188 C2.08160372,1.87492188 2.01284238,1.90367068 1.95908351,1.95866839 C1.90407444,2.0136661 1.8753197,2.08366318 1.8753197,2.15991 L1.8753197,15.6493479 C1.8753197,15.7280947 1.90407444,15.7993417 1.95783331,15.8530895 C2.01284238,15.9080872 2.08160372,15.936836 2.1578663,15.936836 L11.9082246,15.936836 C12.0632501,15.936836 12.189521,15.8080913 12.189521,15.6505979 L12.189521,2.17865922 C12.189521,2.01991584 12.0619999,1.89242115 11.9057241,1.8911712 L2.1578663,1.87492188 Z M27.8383521,0 C29.026048,0 29.989957,0.956210158 29.9999587,2.13241115 L29.9999587,8.17215949 C29.9912072,9.35461022 29.0272982,10.3120703 27.8508542,10.3120703 L18.0917445,10.3120703 C17.5141492,10.3120703 16.9803112,10.0920795 16.5752443,9.69459606 C16.1664269,9.29211283 15.9388894,8.75463522 15.9351388,8.18090913 L15.9351388,2.15616016 C15.94264,0.974959377 16.9052988,0.0162493229 18.0817428,0.0162493229 L27.8383521,0 Z M27.849604,1.87492188 C27.849604,1.87492188 18.0867437,1.8911712 18.0854934,1.8911712 C17.9342185,1.8911712 17.8116983,2.01241615 17.8104481,2.16115995 L17.8104481,8.17215949 C17.8104481,8.23965668 17.8392028,8.30715387 17.8917115,8.35840173 C17.9567222,8.42214908 18.0354852,8.4358985 18.0904943,8.43714845 L27.8433529,8.43714845 C27.9996287,8.43714845 28.1233991,8.3159035 28.1246493,8.16590975 L28.1246493,2.13991084 C28.1233991,1.99616683 27.9996287,1.87492188 27.849604,1.87492188 Z" id="Combined-Shape"></path>
            </g>
        </g>
    </g>
</svg>