<?xml version="1.0" encoding="UTF-8"?>
<svg width="30px" height="30px" viewBox="0 0 30 30" version="1.1" xmlns="http://www.w3.org/2000/svg" xmlns:xlink="http://www.w3.org/1999/xlink">
    <!-- Generator: sketchtool 61.2 (101010) - https://sketch.com -->
    <title>860440EF-BD1B-4075-9DE3-0599DD630E0A</title>
    <desc>Created with sketchtool.</desc>
    <g id="____Project-Catalog-Redesign" stroke="none" stroke-width="1" fill="none" fill-rule="evenodd">
        <g id="icon/solutions" fill="#FFFFFF">
            <g id="shipment-in-transit" transform="translate(-6.000000, 0.000000)">
                <path d="M22.476,0.816 C23.133,0.816 23.7885,0.9735 24.372,1.2705 L33.6525,6.0135 C34.3035,6.351 34.86,6.8535 35.2665,7.47 C35.2695,7.4745 35.271,7.4775 35.274,7.482 C35.7375,8.1915 35.9805,9.009 35.9760614,9.849 L35.9760614,20.1615 C35.9835,21.7755 35.097,23.2425 33.6585,23.988 L24.372,28.7325 C23.811,29.0205 23.178,29.1765 22.5405,29.1855 C22.518,29.187 22.4925,29.1885 22.476,29.1885 C22.4565,29.19 22.4295,29.1885 22.4055,29.1855 C21.7695,29.175 21.1395,29.0175 20.58,28.731 L11.301,23.991 C9.8595,23.244 8.97,21.7755 8.97595279,20.157 L8.97595279,9.843 C8.9685,8.229 9.855,6.762 11.292,6.0165 L20.58,1.2705 C21.1635,0.9735 21.8175,0.816 22.476,0.816 Z M33.7215,9.729 L29.787,11.739 L29.787,15.4185 C29.787,16.0395 29.283,16.5435 28.662,16.5435 C28.041,16.5435 27.537,16.0395 27.537,15.4185 L27.537,12.888 L23.5995,14.8995 L23.5995,26.5995 L32.628,21.987 C33.3075,21.6345 33.729,20.937 33.7245357,20.1675 L33.7245357,9.843 C33.7245357,9.8055 33.7245357,9.7665 33.7215,9.729 Z M11.2275,9.7275 C11.226,9.765 11.2244841,9.801 11.2244841,9.8385 L11.2244841,20.1615 C11.2215,20.9355 11.6445,21.636 12.3285,21.99 L21.3495,26.5995 L21.3495,14.901 L11.2275,9.7275 Z M1.149,15.711 C1.3245,15.711 1.5,15.753 1.6575,15.8325 L6.0615,18.063 C6.33,18.198 6.5295,18.4305 6.6225,18.7155 C6.7155,19.0005 6.693,19.3065 6.558,19.5735 C6.3645,19.953 5.9805,20.19 5.553,20.19 C5.3775,20.19 5.2005,20.148 5.0445,20.0685 L0.6405,17.838 C0.372,17.703 0.1725,17.4705 0.0795,17.1855 C-0.0135,16.9005 0.009,16.5945 0.144,16.3275 C0.3375,15.9465 0.7215,15.711 1.149,15.711 Z M1.29,9.7275 C1.4745,9.7275 1.6575,9.774 1.821,9.861 L6.039,12.12 C6.3045,12.2625 6.498,12.498 6.585,12.786 C6.672,13.074 6.642,13.3785 6.4995,13.6425 C6.303,14.0085 5.922,14.2365 5.5065,14.2365 C5.322,14.2365 5.139,14.19 4.9755,14.103 L0.7575,11.844 C0.4935,11.7015 0.2985,11.466 0.2115,11.178 C0.1245,10.89 0.156,10.5855 0.297,10.3215 C0.4935,9.9555 0.8745,9.7275 1.29,9.7275 Z M16.287,5.991 L12.5745,7.8885 L22.4745,12.948 L26.1885,11.0505 L16.287,5.991 Z M22.476,3.0645 C22.173,3.0645 21.8715,3.1365 21.6045,3.273 L18.7605,4.7265 L28.662,9.786 L32.3775,7.8885 L23.3475,3.273 C23.0805,3.1365 22.779,3.0645 22.476,3.0645 Z M3.0675,4.752 C3.276,4.752 3.48,4.8105 3.657,4.92 L6.1905,6.4815 C6.7185,6.807 6.8835,7.5015 6.558,8.0295 C6.351,8.3655 5.994,8.565 5.5995,8.565 C5.391,8.565 5.187,8.5065 5.01,8.397 L2.4765,6.8355 C2.22,6.678 2.0415,6.4305 1.9725,6.138 C1.902,5.8455 1.9515,5.544 2.109,5.2875 C2.3145,4.953 2.673,4.752 3.0675,4.752 Z" id="Combined-Shape"></path>
            </g>
        </g>
    </g>
</svg>