<?xml version="1.0" encoding="utf-8"?>
<!-- Generator: Adobe Illustrator 18.1.1, SVG Export Plug-In . SVG Version: 6.00 Build 0)  -->
<!DOCTYPE svg PUBLIC "-//W3C//DTD SVG 1.1//EN" "http://www.w3.org/Graphics/SVG/1.1/DTD/svg11.dtd">
<svg version="1.1" id="Layer_1" xmlns="http://www.w3.org/2000/svg" xmlns:xlink="http://www.w3.org/1999/xlink" x="0px" y="0px"
	 width="32px" height="32px" viewBox="0 0 32 32" enable-background="new 0 0 32 32" xml:space="preserve">
<path d="M8,32h16c1.7,0,3-1.3,3-3V3c0-1.7-1.3-3-3-3H8C6.3,0,5,1.3,5,3v26C5,30.7,6.3,32,8,32z M25,22H7V7h18V22z M24,30H8
	c-0.6,0-1-0.4-1-1v-5h18v5C25,29.6,24.6,30,24,30z M8,2h16c0.6,0,1,0.4,1,1v2H7V3C7,2.4,7.4,2,8,2z"/>
<circle cx="16" cy="27" r="2"/>
</svg>
