<?xml version="1.0" encoding="utf-8"?>
<!-- Generator: Adobe Illustrator 19.1.0, SVG Export Plug-In . SVG Version: 6.00 Build 0)  -->
<!DOCTYPE svg PUBLIC "-//W3C//DTD SVG 1.1//EN" "http://www.w3.org/Graphics/SVG/1.1/DTD/svg11.dtd">
<svg version="1.1" id="Layer_1" xmlns="http://www.w3.org/2000/svg" xmlns:xlink="http://www.w3.org/1999/xlink" x="0px" y="0px"
	 width="16px" height="16px" viewBox="0 0 16 16" enable-background="new 0 0 16 16" xml:space="preserve">
<path fill="#444444" d="M3.02362,4.56063c-1.18508,1.48134-1.35607,2.9743-1.00787,4.0189
	C3.33164,7.53456,5.16042,7.75337,6.27402,8.7937c1.12491,1.05091,1.2217,2.89822,0.50394,4.09449
	c-0.60379,1.00632-1.66412,1.6126-2.84724,1.6126C1.23817,14.50079,0,12.12601,0,9.46142C0,7.73123,0.44094,6.18163,1.32283,4.8126
	s2.21312-2.47349,3.9937-3.31339L5.79528,2.4315C4.72021,2.88504,3.79633,3.59475,3.02362,4.56063z M11.79213,4.56063
	c-1.18507,1.48134-1.35607,2.9743-1.00787,4.0189c0.58793-0.45354,1.22625-0.68032,1.91496-0.68032
	C14.51086,7.89921,16,9.10579,16,11.2c0,1.92572-1.47785,3.30079-3.30079,3.30079c-2.69254,0-3.93071-2.37478-3.93071-5.03937
	c0-1.73018,0.44094-3.27979,1.32283-4.64882c0.88189-1.36903,2.21312-2.47349,3.9937-3.31339l0.47874,0.93228
	C13.48871,2.88504,12.56483,3.59475,11.79213,4.56063z"/>
</svg>
