<?xml version="1.0" encoding="utf-8"?>
<!-- Generator: Adobe Illustrator 19.2.1, SVG Export Plug-In . SVG Version: 6.00 Build 0)  -->
<!DOCTYPE svg PUBLIC "-//W3C//DTD SVG 1.1//EN" "http://www.w3.org/Graphics/SVG/1.1/DTD/svg11.dtd">
<svg version="1.1" id="Layer_1" xmlns="http://www.w3.org/2000/svg" xmlns:xlink="http://www.w3.org/1999/xlink" x="0px" y="0px"
	 width="16px" height="16px" viewBox="0 0 16 16" enable-background="new 0 0 16 16" xml:space="preserve">
<path d="M12.721,11.307c0.888-1.182,1.422-2.646,1.422-4.235C14.143,3.172,10.971,0,7.071,0S0,3.172,0,7.071
	c0,3.899,3.172,7.072,7.071,7.072c1.59,0,3.053-0.534,4.235-1.422l2.986,2.986C14.488,15.902,14.744,16,15,16
	s0.512-0.098,0.707-0.293c0.391-0.391,0.391-1.023,0-1.414L12.721,11.307z M7.071,12.143C4.275,12.143,2,9.868,2,7.071
	S4.275,2,7.071,2s5.071,2.275,5.071,5.071S9.867,12.143,7.071,12.143z"/>
</svg>
