<?xml version="1.0" encoding="utf-8"?>
<!-- Generator: Adobe Illustrator 19.1.0, SVG Export Plug-In . SVG Version: 6.00 Build 0)  -->
<!DOCTYPE svg PUBLIC "-//W3C//DTD SVG 1.1//EN" "http://www.w3.org/Graphics/SVG/1.1/DTD/svg11.dtd">
<svg version="1.1" id="Layer_1" xmlns:sketch="http://www.bohemiancoding.com/sketch/ns"
	 xmlns="http://www.w3.org/2000/svg" xmlns:xlink="http://www.w3.org/1999/xlink" x="0px" y="0px" viewBox="-249 373 48 48"
	 style="enable-background:new -249 373 48 48;" xml:space="preserve">
<style type="text/css">
	.st0{fill:none;stroke:#444444;stroke-width:2;}
</style>
<title>Payments</title>
<desc>Created with Sketch.</desc>
<g id="Page-1" sketch:type="MSPage">
	<g id="Payments" sketch:type="MSArtboardGroup">
		<g id="Group" transform="translate(1.000000, 0.000000)" sketch:type="MSLayerGroup">
			<path id="Shape" sketch:type="MSShapeGroup" class="st0" d="M-239.8,384.5v-4.2c0-1.8,1.3-3.1,3.1-3.1l0,0c1.7,0,3.1,1.4,3.1,3.1
				v4.2"/>
			<path id="Shape_1_" sketch:type="MSShapeGroup" class="st0" d="M-233.6,384.5v-5.2c0-1.8,1.3-3.1,3.1-3.1l0,0
				c1.7,0,3.1,1.4,3.1,3.1v5.2"/>
			<path id="Shape_2_" sketch:type="MSShapeGroup" class="st0" d="M-221.3,384.5v-5.2c0-1.8,1.3-3.1,3.1-3.1l0,0
				c1.7,0,3.1,1.4,3.1,3.1v5.2"/>
			<path id="Shape_3_" sketch:type="MSShapeGroup" class="st0" d="M-227.4,384.5v-7.3c0-1.8,1.3-3.1,3.1-3.1l0,0
				c1.7,0,3.1,1.4,3.1,3.1v7.3"/>
			<path id="Shape_4_" sketch:type="MSShapeGroup" class="st0" d="M-222.2,404.3H-248v-19.9h44.1v19.9h-5.1"/>
			<ellipse id="Oval" sketch:type="MSShapeGroup" class="st0" cx="-226.4" cy="394.9" rx="4.1" ry="4.2">
			</ellipse>
			<path id="Shape_5_" sketch:type="MSShapeGroup" class="st0" d="M-235.7,389.7h-6.2"/>
			<path id="Shape_6_" sketch:type="MSShapeGroup" class="st0" d="M-239.8,404.3c0,8.7,6.9,15.7,15.4,15.7c8.5,0,15.4-7,15.4-15.7
				v-13.6c-3.6,0-6.2,2.6-6.2,6.3v4.2c-4.8,0-9.2,3.9-9.2,8.4"/>
		</g>
	</g>
</g>
</svg>
