<?xml version="1.0" encoding="UTF-8"?>
<svg width="30px" height="30px" viewBox="0 0 30 30" version="1.1" xmlns="http://www.w3.org/2000/svg" xmlns:xlink="http://www.w3.org/1999/xlink">
    <!-- Generator: Sketch 63.1 (92452) - https://sketch.com -->
    <desc>Created with Sketch.</desc>
    <g id="icon/01_quality_assurance/05_accessibility_compliance" stroke="none" stroke-width="1" fill="none" fill-rule="evenodd">
        <path d="M15.2463399,1.11910481e-13 C19.1400899,1.11910481e-13 22.9213399,0.78875 26.4825899,2.34375 C27.4938399,2.80625 28.1375899,3.8125 28.1301547,4.91125 L28.1301547,14.4225 C28.1301547,20.92125 24.0550899,26.855 17.9888399,29.18875 L16.6875899,29.68875 C16.1475899,29.89625 15.5813399,30.00125 15.0050899,30.00125 C14.4288399,30.00125 13.8625899,29.89625 13.3225899,29.68875 L12.0213399,29.18875 C5.95508991,26.855 1.88004463,20.92125 1.88004463,14.4225 L1.88004463,4.905 C1.87383991,3.81 2.51508991,2.80625 3.51258991,2.35 C7.08758991,0.78875 10.8625899,1.11910481e-13 14.7400899,1.11910481e-13 L15.0138399,0.00125 L15.2463399,1.11910481e-13 Z M15.2475899,1.875 L15.0138399,1.87625 L14.7550899,1.875 C11.1263399,1.875 7.60133991,2.61125 4.27758991,4.06125 C3.96133991,4.20625 3.75258991,4.53625 3.7550677,4.89875 L3.7550677,14.4225 C3.7550677,20.15125 7.34758991,25.3825 12.6938399,27.43875 L13.9950899,27.93875 C14.3200899,28.06375 14.6588399,28.1275 15.0050899,28.1275 C15.3513399,28.1275 15.6900899,28.06375 16.0150899,27.94 L17.3163399,27.44 C22.6625899,25.38125 26.2551119,20.15125 26.2551119,14.4225 L26.2551119,4.905 C26.2575899,4.53875 26.0463399,4.20625 25.7175899,4.055 C22.4063399,2.60875 18.8813399,1.875 15.2475899,1.875 Z M14.995,4.275 C16.8845301,4.275 18.42,5.81046994 18.42,7.7 C18.42,9.43878067 17.1197606,10.8777424 15.4398874,11.0962798 C17.8766761,11.3108945 19.8083902,13.3091702 19.9199125,15.774618 L19.925,16 L19.925,18 C19.925,18.8300376 19.2891971,19.5119538 18.4781792,19.5851604 L18.405,19.588 L17.912486,23.5310334 C17.8248614,24.2301655 17.2912704,24.7766612 16.6194062,24.8992022 L16.4734311,24.918873 L16.3333333,24.925 L13.6666667,24.925 C12.9121205,24.925 12.2674232,24.3952132 12.110995,23.6691157 L12.0874789,23.5307533 L11.594,19.588 L11.5218208,19.5851604 C10.8062168,19.5205663 10.2270258,18.9820635 10.1006501,18.2860541 L10.0815063,18.1448459 L10.075,18 L10.075,16 C10.075,13.433634 12.0468405,11.3202277 14.5554253,11.0948775 C12.8728144,10.8805904 11.57,9.44050155 11.57,7.7 C11.57,5.81046994 13.1054699,4.275 14.995,4.275 Z M15,12.925 C13.3660468,12.925 12.0240097,14.2086817 11.9302341,15.8196995 L11.925,16 L11.925,17.741 L13.2281102,17.7416667 L13.895,23.075 L16.104,23.075 L16.7718898,17.7416667 L18.075,17.741 L18.075,16 C18.075,14.4265636 16.884645,13.1238203 15.3579068,12.9457419 L15.1803005,12.9302341 L15,12.925 Z M14.995,6.125 C14.1271967,6.125 13.42,6.83219673 13.42,7.7 C13.42,8.56780327 14.1271967,9.275 14.995,9.275 C15.8628033,9.275 16.57,8.56780327 16.57,7.7 C16.57,6.83219673 15.8628033,6.125 14.995,6.125 Z" id="Combined-Shape" fill="#FFFFFF"></path>
    </g>
</svg>