<?xml version="1.0" encoding="UTF-8"?>
<svg width="30px" height="30px" viewBox="0 0 30 30" version="1.1" xmlns="http://www.w3.org/2000/svg" xmlns:xlink="http://www.w3.org/1999/xlink">
    <!-- Generator: Sketch 63.1 (92452) - https://sketch.com -->
    <desc>Created with Sketch.</desc>
    <g id="icon/03_apps/01_applications_websites" stroke="none" stroke-width="1" fill="none" fill-rule="evenodd">
        <g id="responsive-design" fill="#FFFFFF">
            <path d="M27.1875,5.625 C28.73875,5.625 30,6.88625 30,8.4375 L30,21.5625 C30,23.11375 28.73875,24.375 27.1875,24.375 L20.79375,24.375 L21.41875,28.125 L23.4375,28.125 C23.955,28.125 24.375,28.545 24.375,29.0625 C24.375,29.58 23.955,30 23.4375,30 L10.3125,30 C9.795,30 9.375,29.58 9.375,29.0625 C9.375,28.545 9.795,28.125 10.3125,28.125 L12.33125,28.125 L12.95625,24.375 L6.5625,24.375 C5.01125,24.375 3.75,23.11375 3.75,21.5625 L3.75,19.6875 C3.75,19.17 4.17,18.75 4.6875,18.75 L28.125,18.75 L28.125,8.4375 C28.125,7.92 27.705,7.5 27.1875,7.5 L14.0625,7.5 C13.545,7.5 13.125,7.08 13.125,6.5625 C13.125,6.045 13.545,5.625 14.0625,5.625 L27.1875,5.625 Z M18.89375,24.375 L14.8575,24.375 L14.2325,28.125 L19.51875,28.125 L18.89375,24.375 Z M28.125,20.625 L5.625,20.625 L5.625,21.5625 C5.625,22.08 6.045,22.5 6.5625,22.5 L27.1875,22.5 C27.705,22.5 28.125,22.08 28.125,21.5625 L28.125,20.625 Z M8.4375,0 C9.98875,0 11.25,1.26125 11.25,2.8125 L11.25,14.0625 C11.25,15.61375 9.98875,16.875 8.4375,16.875 L2.8125,16.875 C1.26125,16.875 0,15.61375 0,14.0625 L0,2.8125 C0,1.26125 1.26125,0 2.8125,0 L8.4375,0 Z M9.375,13.125 L1.875,13.125 L1.875,14.0625 C1.875,14.58 2.295,15 2.8125,15 L8.4375,15 C8.955,15 9.375,14.58 9.375,14.0625 L9.375,13.125 Z M8.4375,1.875 L2.8125,1.875 C2.295,1.875 1.875,2.295 1.875,2.8125 L1.875,11.25 L9.375,11.25 L9.375,2.8125 C9.375,2.295 8.955,1.875 8.4375,1.875 Z" id="Combined-Shape"></path>
        </g>
    </g>
</svg>