<?xml version="1.0" encoding="UTF-8"?>
<svg width="30px" height="30px" viewBox="0 0 30 30" version="1.1" xmlns="http://www.w3.org/2000/svg" xmlns:xlink="http://www.w3.org/1999/xlink">
    <!-- Generator: Sketch 63.1 (92452) - https://sketch.com -->
    <desc>Created with Sketch.</desc>
    <g id="icon/04_on_demand/02_buy_capacity" stroke="none" stroke-width="1" fill="none" fill-rule="evenodd">
        <g id="monetization-team" fill="#FFFFFF">
            <path d="M5.62625,17.8125 C7.9525,17.8125 9.845,19.705 9.845,22.03125 C9.845,23.5922701 8.99280279,24.9579716 7.72920393,25.6875588 C8.71632048,26.0409905 9.60744447,26.6399887 10.30875,27.435 C10.80375,26.87 11.39,26.40625 12.05875,26.04875 C12.32625,25.90625 12.605,25.7825 12.88875,25.68125 C11.63,24.94875 10.78,23.585 10.78,22.0325 C10.78,19.70625 12.6725,17.81375 14.99875,17.81375 C17.325,17.81375 19.2175,19.70625 19.2175,22.0325 C19.2175,23.585 18.36875,24.94875 17.11,25.68125 C18.11125,26.03875 18.9875,26.63625 19.685,27.43375 C20.17875,26.87 20.765,26.40625 21.4325,26.05 C21.7,25.90625 21.97875,25.78375 22.26375,25.68125 C21.005,24.94875 20.155,23.585 20.155,22.0325 C20.155,19.70625 22.0475,17.81375 24.37375,17.81375 C26.7,17.81375 28.5925,19.70625 28.5925,22.0325 C28.5925,23.585 27.74375,24.94875 26.485,25.68125 C27.95,26.205 29.15125,27.24 29.88875,28.6225 C30.00625,28.84375 30.03125,29.0975 29.95875,29.3375 C29.88625,29.57625 29.72375,29.77375 29.5025,29.89125 C29.37,29.96125 29.2175,30 29.06375,30 C28.71625,30 28.39875,29.81 28.23625,29.50375 C27.68625,28.4725 26.7675,27.7175 25.65,27.3775 C25.2325,27.25 24.8025,27.18625 24.37125,27.18625 C23.6625,27.18625 22.9525,27.365 22.3175,27.70375 C21.54875,28.11375 20.92625,28.73625 20.5175,29.50375 L20.5075,29.52125 L20.5075,29.52125 C20.475,29.58 20.43375,29.63625 20.3825,29.6925 C20.365,29.71125 20.35125,29.725 20.33625,29.74 C20.295,29.78 20.25125,29.81375 20.2025,29.84625 C20.2,29.8475 20.19125,29.85375 20.1825,29.85875 L20.1776389,29.8616204 L20.1681999,29.868 L20.18,29.86125 C20.174375,29.865 20.169375,29.8684375 20.1653125,29.8710937 L20.1611999,29.873 L20.1581999,29.875 C20.1490625,29.8809375 20.14125,29.885625 20.13375,29.89 C20.0925,29.9125 20.05375,29.9275 20.015,29.94 C19.995,29.94875 19.94875,29.965 19.9275,29.97 C19.845,29.99 19.76625,30 19.68875,30 C19.61125,30 19.5325,29.99 19.4525,29.96875 C19.43,29.9625 19.3825,29.94625 19.36125,29.93625 C19.32375,29.92375 19.285,29.90875 19.2475,29.88875 L19.22375,29.8753125 L19.22375,29.8753125 L19.17,29.84 L19.17,29.84 C19.1275,29.8125 19.0825,29.7775 19.04125,29.7375 C19.0275,29.725 19.01,29.70625 18.9925,29.68625 C18.945,29.635 18.905,29.58125 18.8725,29.5225 C18.86625,29.51125 18.86,29.50125 18.855,29.49 C18.31125,28.47 17.3925,27.715 16.27375,27.37375 C15.855,27.24625 15.425,27.18125 14.99375,27.18125 C14.285,27.18125 13.575,27.36 12.94125,27.69875 C12.1725,28.10875 11.55,28.73125 11.14,29.5 C11.1325,29.5125 11.12375,29.52875 11.11375,29.54375 C11.09,29.5825 11.06625,29.61875 11.03875,29.6525 C11.01875,29.6775 10.99875,29.6975 10.97625,29.71875 C10.9525,29.74375 10.9325,29.7625 10.91125,29.78125 C10.86875,29.81625 10.8275,29.84375 10.785,29.86875 C10.78,29.87125 10.77625,29.875 10.7725,29.8775 C10.69875,29.9175 10.64125,29.94 10.5825,29.9575 C10.565,29.9625 10.52375,29.9725 10.505,29.975 C10.475,29.9825 10.44125,29.98875 10.40625,29.99125 C10.39125,29.9925 10.3575,29.99375 10.34125,29.99375 L10.31125,29.525 L10.30875,29.99375 L10.2571759,29.9933796 C10.2458333,29.9931944 10.2358333,29.9929167 10.23125,29.9925 C10.1875,29.98875 10.15125,29.98125 10.115,29.9725 C10.09875,29.97 10.075,29.965 10.0525,29.95875 C9.92625,29.92125 9.815,29.8625 9.71875,29.7825 C9.7025,29.77 9.67375,29.74125 9.66,29.72625 C9.63875,29.7075 9.61375,29.68125 9.59,29.6525 C9.5625,29.61875 9.5375,29.5825 9.515,29.545 C9.50375,29.52875 9.49375,29.51125 9.48625,29.49625 C8.725,28.075 7.2425,27.1875 5.6175,27.1875 C4.90625,27.1875 4.1975,27.365 3.5675,27.70125 C2.79875,28.11125 2.17625,28.73375 1.76625,29.5025 C1.6025,29.81 1.285,30 0.9375,30 C0.785,30 0.6325,29.96125 0.49625,29.89 C0.04,29.6475 -0.1325,29.07875 0.11,28.6225 C0.69625,27.52375 1.58625,26.63375 2.68375,26.04875 C2.95085219,25.9060974 3.2280012,25.7835384 3.51227681,25.6817292 C2.25481038,24.9501272 1.4075,23.5877879 1.4075,22.03125 C1.4075,19.705 3.3,17.8125 5.62625,17.8125 Z M5.62625,19.6875 C4.33375,19.6875 3.2825,20.73875 3.2825,22.03125 C3.2825,23.32375 4.33375,24.375 5.62625,24.375 C6.91875,24.375 7.97,23.32375 7.97,22.03125 C7.97,20.73875 6.91875,19.6875 5.62625,19.6875 Z M24.37625,19.6875 C23.08375,19.6875 22.0325,20.73875 22.0325,22.03125 C22.0325,23.32375 23.08375,24.375 24.37625,24.375 C25.66875,24.375 26.72,23.32375 26.72,22.03125 C26.72,20.73875 25.66875,19.6875 24.37625,19.6875 Z M15.00125,19.6875 C13.70875,19.6875 12.6575,20.73875 12.6575,22.03125 C12.6575,23.32375 13.70875,24.375 15.00125,24.375 C16.29375,24.375 17.345,23.32375 17.345,22.03125 C17.345,20.73875 16.29375,19.6875 15.00125,19.6875 Z M14.0625,0 C14.58,0 15,0.42 15,0.9375 L15,1.875 L16.40625,1.875 C16.92375,1.875 17.34375,2.295 17.34375,2.8125 C17.34375,3.33 16.92375,3.75 16.4075,3.75 L13.12625,3.75 C12.71625,3.75 12.38375,4.08 12.3825,4.48625 C12.38125,4.78125 12.5525,5.045 12.82125,5.16375 L16.09875,6.1825 C16.1225,6.19 16.1475,6.19875 16.17,6.20875 C16.815,6.4675 17.32375,6.96375 17.6,7.60625 C17.875,8.24875 17.885,8.96 17.625,9.6075 C17.225,10.605 16.2725,11.25 15.19625,11.25 L15,11.25 L15,13.125 C15.00125,13.6425 14.58,14.0625 14.06375,14.0625 C13.54625,14.0625 13.12625,13.6425 13.12625,13.125 L13.12625,11.25 L11.25125,11.25 C10.73375,11.25 10.31375,10.83 10.31375,10.3125 C10.31375,9.795 10.73375,9.375 11.25125,9.375 L15.195,9.375 C15.50125,9.375 15.77125,9.1925 15.88375,8.91 C16.03125,8.5425 15.8575,8.12 15.49875,7.96 L12.2225,6.94125 C12.19625,6.93375 12.17375,6.925 12.15125,6.91625 C11.15,6.5175 10.50375,5.56125 10.5075,4.48 C10.51,3.78125 10.78375,3.12625 11.27875,2.63375 C11.77125,2.145 12.425,1.875 13.12,1.875 L13.125,1.875 L13.125,0.9375 C13.125,0.42 13.545,0 14.0625,0 Z M7.97,0 C8.22125,0 8.45625,0.0975 8.6325,0.275 C8.81,0.45125 8.9075,0.6875 8.9075,0.9375 C8.9075,1.1875 8.81,1.42375 8.6325,1.6 C5.63875,4.595 5.63875,9.4675 8.6325,12.46125 C8.81,12.63875 8.9075,12.87375 8.9075,13.12375 C8.9075,13.37375 8.81,13.61 8.6325,13.78625 C8.455,13.965 8.22,14.0625 7.97,14.0625 C7.72,14.0625 7.48375,13.965 7.3075,13.7875 C3.5825,10.0625 3.5825,4 7.3075,0.27375 C7.48375,0.0975 7.71875,0 7.97,0 Z M20.1575,0 C20.4075,0 20.64375,0.0975 20.82,0.275 C24.545,4 24.545,10.0625 20.82,13.78875 C20.6425,13.965 20.4075,14.0625 20.1575,14.0625 C19.9075,14.0625 19.67125,13.965 19.495,13.7875 C19.3175,13.61125 19.22,13.375 19.22,13.125 C19.22,12.875 19.3175,12.63875 19.495,12.4625 C22.48875,9.4675 22.48875,4.595 19.495,1.60125 C19.3175,1.42375 19.22,1.18875 19.22,0.93875 C19.22,0.68875 19.3175,0.4525 19.495,0.27625 C19.6725,0.1 19.9075,0 20.1575,0 Z" id="Combined-Shape"></path>
        </g>
    </g>
</svg>