<?xml version="1.0" encoding="UTF-8"?>
<svg width="30px" height="30px" viewBox="0 0 30 30" version="1.1" xmlns="http://www.w3.org/2000/svg" xmlns:xlink="http://www.w3.org/1999/xlink">
    <!-- Generator: Sketch 63.1 (92452) - https://sketch.com -->
    <desc>Created with Sketch.</desc>
    <g id="icon/02_data_science/05_chatbot" stroke="none" stroke-width="1" fill="none" fill-rule="evenodd">
        <g id="robot-head-1" fill="#FFFFFF">
            <path d="M15,0 C17.8625,0 21.7175,1.1325 23.95375,4.30625 C25.11875,5.96 25.7375,7.97875 25.7925,10.3125 L29.06375,10.3125 C29.58125,10.3125 30.00125,10.7325 30.00125,11.25 C30.00125,11.7675 29.58125,12.1875 29.06375,12.1875 L25.7225,12.1875 C25.585,13.64125 25.25375,15.215 24.73375,16.88125 C24.88375,16.88875 25.03375,16.90375 25.1825,16.925 C27.74,17.3025 29.515,19.68875 29.13875,22.245 L28.11625,29.19875 C28.04875,29.65625 27.65,30 27.18875,30 C27.14375,30 27.0975,29.9975 27.0525,29.99 C26.54125,29.91375 26.18625,29.4375 26.26125,28.92625 L27.28375,21.9725 C27.51,20.4375 26.445,19.00625 24.91125,18.78 C24.775,18.76 24.63625,18.75 24.5,18.75 L5.5,18.75 C4.7475,18.75125 4.04,19.045 3.5075,19.5775 C2.975,20.11125 2.6825,20.81875 2.68375,21.5725 C2.68375,21.70625 2.69375,21.84125 2.7125,21.975 L3.73625,28.92625 C3.81125,29.4375 3.45625,29.915 2.945,29.99125 C2.89875,29.9975 2.85375,30 2.80875,30 C2.34625,30 1.9475,29.65625 1.88125,29.19875 L0.8575,22.245 C0.825,22.0225 0.80875,21.79625 0.80875,21.57375 C0.8075,20.32 1.295,19.14 2.18125,18.2525 C3.0125,17.42 4.1,16.9375 5.26625,16.88 C4.7475,15.215 4.41625,13.64 4.2775,12.18625 L0.93875,12.18625 C0.42125,12.18625 0.00125,11.76625 0.00125,11.24875 C0.00125,10.73125 0.42125,10.31125 0.93875,10.31125 L4.2075,10.31125 C4.2625,7.97875 4.88,5.96 6.0475,4.305 C8.28375,1.13125 12.13875,0 15,0 Z M15.00125,22.5 C16.035,22.5 16.87625,23.34125 16.87625,24.375 L16.87625,28.125 C16.87625,29.15875 16.035,30 15.00125,30 L7.50125,30 C6.4675,30 5.62625,29.15875 5.62625,28.125 L5.62625,24.375 C5.62625,23.34125 6.4675,22.5 7.50125,22.5 L15.00125,22.5 Z M23.43875,26.25 C23.95625,26.25 24.37625,26.67 24.37625,27.1875 C24.37625,27.705 23.95625,28.125 23.43875,28.125 L19.68875,28.125 C19.17125,28.125 18.75125,27.705 18.75125,27.1875 C18.75125,26.67 19.17125,26.25 19.68875,26.25 L23.43875,26.25 Z M15.00125,24.375 L7.50125,24.375 L7.50125,28.125 L15.00125,28.125 L15.00125,24.375 Z M23.43875,22.5 C23.95625,22.5 24.37625,22.92 24.37625,23.4375 C24.37625,23.955 23.95625,24.375 23.43875,24.375 L19.68875,24.375 C19.17125,24.375 18.75125,23.955 18.75125,23.4375 C18.75125,22.92 19.17125,22.5 19.68875,22.5 L23.43875,22.5 Z M15,1.875 C12.60875,1.875 9.40375,2.7975 7.58,5.385 C5.69625,8.0575 5.58,11.92125 7.2325,16.875 L22.76625,16.875 C23.445,14.84125 23.83,12.97375 23.91,11.32125 C23.9075,11.2975 23.90625,11.27375 23.90625,11.25 C23.90625,11.20125 23.91,11.15125 23.91875,11.1025 C23.99375,8.825 23.49,6.9025 22.42125,5.38625 C20.5975,2.79875 17.39125,1.875 15,1.875 Z M18.75125,7.5 C20.3025,7.5 21.56375,8.76125 21.56375,10.3125 C21.56375,11.86375 20.3025,13.125 18.75125,13.125 C17.2,13.125 15.93875,11.86375 15.93875,10.3125 C15.93875,8.76125 17.2,7.5 18.75125,7.5 Z M11.25125,7.5 C12.8025,7.5 14.06375,8.76125 14.06375,10.3125 C14.06375,11.86375 12.8025,13.125 11.25125,13.125 C9.7,13.125 8.43875,11.86375 8.43875,10.3125 C8.43875,8.76125 9.7,7.5 11.25125,7.5 Z M18.75125,9.375 C18.23375,9.375 17.81375,9.795 17.81375,10.3125 C17.81375,10.83 18.23375,11.25 18.75125,11.25 C19.26875,11.25 19.68875,10.83 19.68875,10.3125 C19.68875,9.795 19.26875,9.375 18.75125,9.375 Z M11.25125,9.375 C10.73375,9.375 10.31375,9.795 10.31375,10.3125 C10.31375,10.83 10.73375,11.25 11.25125,11.25 C11.76875,11.25 12.18875,10.83 12.18875,10.3125 C12.18875,9.795 11.76875,9.375 11.25125,9.375 Z" id="Combined-Shape"></path>
        </g>
    </g>
</svg>