<?xml version="1.0" encoding="UTF-8"?>
<svg width="30px" height="30px" viewBox="0 0 30 30" version="1.1" xmlns="http://www.w3.org/2000/svg" xmlns:xlink="http://www.w3.org/1999/xlink">
    <!-- Generator: Sketch 63.1 (92452) - https://sketch.com -->
    <desc>Created with Sketch.</desc>
    <g id="icon/02_data_science/04_computer_vision" stroke="none" stroke-width="1" fill="none" fill-rule="evenodd">
        <g id="webcam" transform="translate(4.000000, 0.000000)" fill="#FFFFFF">
            <path d="M11.25,0 C17.45375,0 22.5,5.04625 22.5,11.25 C22.5,16.73375 18.6175,21.33 13.3225,22.30875 L19.4125,28.39875 C19.59,28.57625 19.6875,28.81125 19.6875,29.06125 C19.6875,29.31125 19.59,29.5475 19.4125,29.72375 C19.235,29.9 19,30 18.75,30 C18.5,30 18.26375,29.9025 18.0875,29.725 L12.1875,23.825 L12.1875,29.06125 C12.1875,29.57875 11.7675,29.99875 11.25,29.99875 C10.7325,29.99875 10.3125,29.57875 10.3125,29.06125 L10.3125,23.825 L4.4125,29.725 C4.23625,29.9025 4,30 3.75,30 C3.5,30 3.26375,29.9025 3.0875,29.725 C2.91,29.5475 2.8125,29.3125 2.8125,29.0625 C2.8125,28.8125 2.91,28.57625 3.0875,28.4 L9.1775,22.31 C3.8825,21.33 0,16.73375 0,11.25 C0,5.04625 5.04625,0 11.25,0 Z M11.25,1.875 C6.08125,1.875 1.875,6.08125 1.875,11.25 C1.875,16.41875 6.08125,20.625 11.25,20.625 C16.41875,20.625 20.625,16.41875 20.625,11.25 C20.625,6.08125 16.41875,1.875 11.25,1.875 Z M11.25,5.625 C14.35125,5.625 16.875,8.14875 16.875,11.25 C16.875,14.35125 14.35125,16.875 11.25,16.875 C8.14875,16.875 5.625,14.35125 5.625,11.25 C5.625,8.14875 8.14875,5.625 11.25,5.625 Z M11.25,7.5 C9.1825,7.5 7.5,9.1825 7.5,11.25 C7.5,13.3175 9.1825,15 11.25,15 C13.3175,15 15,13.3175 15,11.25 C15,9.1825 13.3175,7.5 11.25,7.5 Z M11.25,9.84375 C12.0266504,9.84375 12.65625,10.4733496 12.65625,11.25 C12.65625,12.0266504 12.0266504,12.65625 11.25,12.65625 C10.4733496,12.65625 9.84375,12.0266504 9.84375,11.25 C9.84375,10.4733496 10.4733496,9.84375 11.25,9.84375 Z" id="Combined-Shape"></path>
        </g>
    </g>
</svg>