<?xml version="1.0" encoding="UTF-8"?>
<svg width="30px" height="30px" viewBox="0 0 30 30" version="1.1" xmlns="http://www.w3.org/2000/svg" xmlns:xlink="http://www.w3.org/1999/xlink">
    <!-- Generator: Sketch 63.1 (92452) - https://sketch.com -->
    <desc>Created with Sketch.</desc>
    <g id="icon/02_data_science/03_data_science_sprint" stroke="none" stroke-width="1" fill="none" fill-rule="evenodd">
        <path d="M21.5,17.06 C24.9685894,17.06 27.7967087,19.8021784 27.9347235,23.2369007 L28.5433847,22.6272545 C28.9104776,22.2601617 29.5056526,22.2601617 29.8727455,22.6272545 C30.2116004,22.9661095 30.2376662,23.4993066 29.9509428,23.8680604 L29.8727455,23.9566153 L27.6646804,26.1646804 L27.584,26.235 L27.5414221,26.268603 L27.5414221,26.268603 C27.5182366,26.2849613 27.4948314,26.2999424 27.4709472,26.3137849 C27.4598064,26.3202423 27.4485304,26.3264683 27.4371575,26.3324451 C27.4139003,26.3446739 27.3900608,26.3559355 27.365881,26.3661398 C27.3491906,26.3731791 27.3325291,26.379647 27.3157316,26.3856224 C27.2956712,26.3927634 27.2752266,26.3992551 27.2546236,26.4050312 L27.2045875,26.4175878 L27.2045875,26.4175878 C27.1810678,26.422818 27.1570269,26.4271871 27.1328783,26.4306163 C27.1212471,26.432268 27.1095908,26.4337016 27.0979162,26.4349172 C27.0690904,26.437914 27.0403032,26.4395798 27.011503,26.4399301 L26.9798138,26.4397846 L26.9798138,26.4397846 C26.9526902,26.4391965 26.925905,26.4374755 26.8992188,26.4346145 C26.885488,26.4331425 26.8717834,26.4313687 26.8581158,26.4292931 C26.8326218,26.4254216 26.8072563,26.4205001 26.7820893,26.4145286 C26.7695676,26.4115645 26.7566276,26.408209 26.7437499,26.4045737 C26.7179993,26.3972937 26.6928405,26.3890234 26.6679985,26.3796644 C26.6555635,26.3749792 26.6432313,26.3700312 26.6309873,26.3648114 C26.5994188,26.3513604 26.5682799,26.3360149 26.5378932,26.3188443 C26.5340526,26.3166747 26.5301183,26.3144143 26.5261969,26.312123 C26.4579645,26.272245 26.3937525,26.2231133 26.3353196,26.1646804 L24.1272545,23.9566153 C23.7601617,23.5895224 23.7601617,22.9943474 24.1272545,22.6272545 C24.4661095,22.2883996 24.9993066,22.2623338 25.3680604,22.5490572 L25.4566153,22.6272545 L26.0516668,23.2220318 C25.9080149,20.8330557 23.9250808,18.94 21.5,18.94 C18.9815815,18.94 16.94,20.9815815 16.94,23.5 C16.94,26.0184185 18.9815815,28.06 21.5,28.06 C22.0191477,28.06 22.44,28.4808523 22.44,29 C22.44,29.5191477 22.0191477,29.94 21.5,29.94 C17.9432862,29.94 15.06,27.0567138 15.06,23.5 C15.06,19.9432862 17.9432862,17.06 21.5,17.06 Z M15.0004679,2.56900039 C16.8712007,0.46659365 20.5958752,-0.632753299 22.5,0.46659365 C24.4041059,1.56592968 25.0170945,4.42803353 24.4297232,8.01200902 C27.8273904,9.29598131 30,11.2580753 30,13.4569747 C30,15.6558741 28.373488,14.3144466 28.0671412,13.0477974 C27.7754669,11.9076287 26.2933021,10.7494905 24.0342972,9.86684957 L24.0199065,9.92262804 C23.946465,10.2023559 23.8666097,10.4850213 23.7803765,10.7702097 L23.668,11.13 L23.6721954,11.1304474 L23.651,11.182 L23.646248,11.1998326 L23.646248,11.1998326 L23.628,11.242 L23.6172333,11.2689362 L23.616,11.268 L23.5741379,11.3652407 C22.6567658,13.3528046 20.7192718,13.3960022 19.5823268,11.1591726 L19.4340501,10.8969747 C18.9382562,10.0382346 18.4150613,9.22917881 17.8756739,8.47494992 C16.9529919,8.38550369 15.9911466,8.33697471 15,8.33697471 C14.0088534,8.33697471 13.0470081,8.38550369 12.1245084,8.47543558 C11.5849387,9.22917881 11.0617438,10.0382346 10.5659499,10.8969747 C10.070376,11.7553339 9.63148021,12.612582 9.24811337,13.456457 C9.63113395,14.3006911 10.0701805,15.1582769 10.5659499,16.0169747 C10.8013496,16.4246988 11.0429262,16.8212227 11.2894801,17.2059958 C12.1245084,18.9019404 11.0429262,20.0974031 10.2513576,20.0974031 C9.23974561,19.9415066 8.27622934,19.7351859 7.37352648,19.4859714 L7.36694858,19.5306754 C6.9690161,22.1936475 7.34849396,24.1890467 8.44,24.819228 C8.90992233,25.0905378 9.53300181,25.1210288 10.2584166,24.9340183 C11.2894801,24.6742322 12.3822792,25.902505 10.7934228,26.7044313 C9.55354203,27.0433356 8.42321201,26.9803725 7.5,26.4473558 C5.59589414,25.3480197 4.98290554,22.4859159 5.57027684,18.9019404 C2.17260956,17.6179681 0,15.6558741 0,13.4569747 C0,11.2580753 2.17260956,9.29598131 5.57071372,8.0126797 C4.98290554,4.42803353 5.59589414,1.56592968 7.5,0.46659365 C9.40435091,-0.632883863 12.1899717,0.267677582 15.0004679,2.56900039 Z M8.30612056,15.8102703 L8.22180896,16.0593233 C8.04150263,16.5992695 7.88580542,17.1273175 7.75436693,17.6397283 C8.34159864,17.8045137 8.96366907,17.9512711 9.61522133,18.0771269 C9.38416378,17.7123088 9.1582601,17.3387844 8.93782217,16.9569747 C8.71731584,16.5750465 8.50672382,16.1925272 8.30612056,15.8102703 Z M5.96541615,9.8664345 L5.79694979,9.93387886 C3.36662272,10.9152166 1.88,12.2179742 1.88,13.4569747 C1.88,14.7244004 3.43561729,16.058542 5.96570282,17.0470998 C6.26577675,15.8915701 6.67601784,14.6848431 7.19357736,13.4567181 C6.67579468,12.2284498 6.26569505,11.0220649 5.96541615,9.8664345 Z M9.61483176,8.83689243 L9.44381763,8.87054817 C8.85439705,8.98865618 8.28984015,9.12390281 7.75371659,9.27375551 C7.90591491,9.86502839 8.08971238,10.4766237 8.30629645,11.1032761 C8.50672382,10.7214222 8.71731584,10.3389029 8.93782217,9.95697471 C9.1582601,9.57516501 9.38416378,9.20164064 9.61483176,8.83689243 Z M20.3847787,8.83682248 L20.4578184,8.95231427 C20.6633126,9.28033309 20.8649333,9.61533712 21.0621778,9.95697471 C21.2630579,10.3049093 21.5248413,10.7926941 21.7056732,11.070755 C21.7056732,11.070755 21.7366028,11.0164795 21.7562256,10.9401703 C21.9726338,10.3131149 22.0940851,9.86502839 22.2456331,9.27422113 C21.6584014,9.10943571 21.0363309,8.96267833 20.3847787,8.83682248 Z M8.44,2.09472141 C7.34252055,2.72835147 6.96488394,4.74218302 7.37355166,7.4270543 C8.52450235,7.11022125 9.77434314,6.86219741 11.0963413,6.69637006 C11.9013635,5.6343015 12.7410493,4.67592711 13.5916951,3.83802976 C11.4704252,2.14099876 9.53750732,1.46107526 8.44,2.09472141 Z M16.5468115,3.72818419 L16.4083049,3.83802976 C17.2589507,4.67592711 18.0986365,5.6343015 18.9032169,6.69625676 C20.2256569,6.86219741 21.4754976,7.11022125 22.6264735,7.42797804 C23.0351161,4.74218302 22.6574795,2.72835147 21.56,2.09472141 C20.4863666,1.47485886 18.6132724,2.1120398 16.5468115,3.72818419 Z M15.0008419,5.09108345 L14.8052153,5.28334226 C14.4335976,5.65637128 14.0611812,6.05694109 13.6911983,6.48356868 C14.1218405,6.46586814 14.5586947,6.45697471 15,6.45697471 C15.4413053,6.45697471 15.8781595,6.46586814 16.3097845,6.48329191 C15.8744259,5.98268951 15.4366957,5.5177278 15.0008419,5.09108345 Z" id="Combined-Shape" fill="#FFFFFF"></path>
    </g>
</svg>