<?xml version="1.0" encoding="UTF-8"?>
<svg width="30px" height="30px" viewBox="0 0 30 30" version="1.1" xmlns="http://www.w3.org/2000/svg" xmlns:xlink="http://www.w3.org/1999/xlink">
    <!-- Generator: Sketch 63.1 (92452) - https://sketch.com -->
    <desc>Created with Sketch.</desc>
    <g id="icon/02_data_science/01_data_visualization" stroke="none" stroke-width="1" fill="none" fill-rule="evenodd">
        <g id="pie-line-graph-desktop" transform="translate(0.000000, -1.000000)" fill="#FFFFFF">
            <path d="M25.3125,1 C27.8975,1 30,3.1025 30,5.6875 L30,20.6875 C30,23.2725 27.8975,25.375 25.3125,25.375 L18.91875,25.375 L19.54375,29.125 L21.5625,29.125 C22.08,29.125 22.5,29.545 22.5,30.0625 C22.5,30.58 22.08,31 21.5625,31 L8.4375,31 C7.92,31 7.5,30.58 7.5,30.0625 C7.5,29.545 7.92,29.125 8.4375,29.125 L10.45625,29.125 L11.08125,25.375 L4.6875,25.375 C2.1025,25.375 0,23.2725 0,20.6875 L0,5.6875 C0,3.1025 2.1025,1 4.6875,1 L25.3125,1 Z M17.01875,25.375 L12.9825,25.375 L12.3575,29.125 L17.64375,29.125 L17.01875,25.375 Z M27.96,21.625 L2.04,21.625 C2.43125,22.72375 3.4875,23.5 4.6875,23.5 L25.3125,23.5 C26.5125,23.5 27.56875,22.72375 27.96,21.625 Z M25.3125,2.875 L4.6875,2.875 C3.13625,2.875 1.875,4.13625 1.875,5.6875 L1.875,12.8 L5.2375,9.43875 C5.59125,9.085 6.0625,8.89 6.56375,8.89 C7.065,8.89 7.535,9.085 7.88875,9.4375 L10.3125,11.8625 L15.27375,6.9 C15.45125,6.7225 15.68625,6.625 15.93625,6.625 C16.18625,6.625 16.4225,6.7225 16.59875,6.9 C16.77625,7.07625 16.87375,7.3125 16.87375,7.5625 C16.87375,7.8125 16.77625,8.04875 16.59875,8.225 L11.6375,13.1875 C11.2825,13.54125 10.8125,13.7375 10.31125,13.7375 C9.81,13.7375 9.33875,13.5425 8.985,13.1875 L6.56,10.765 L1.8725,15.45125 L1.8725,19.75 L28.125,19.75 L28.125,5.6875 C28.125,4.13625 26.86375,2.875 25.3125,2.875 Z M17.8125,12.25 C18.33,12.25 18.75,12.67 18.75,13.1875 L18.75,16 C18.75,16.5175 18.33,16.9375 17.8125,16.9375 C17.295,16.9375 16.875,16.5175 16.875,16 L16.875,13.1875 C16.875,12.67 17.295,12.25 17.8125,12.25 Z M25.3125,12.25 C25.83,12.25 26.25,12.67 26.25,13.1875 L26.25,16 C26.25,16.5175 25.83,16.9375 25.3125,16.9375 C24.795,16.9375 24.375,16.5175 24.375,16 L24.375,13.1875 C24.375,12.67 24.795,12.25 25.3125,12.25 Z M21.5625,9.4375 C22.08,9.4375 22.5,9.8575 22.5,10.375 L22.5,16 C22.5,16.5175 22.08,16.9375 21.5625,16.9375 C21.045,16.9375 20.625,16.5175 20.625,16 L20.625,10.375 C20.625,9.8575 21.045,9.4375 21.5625,9.4375 Z" id="Combined-Shape"></path>
        </g>
    </g>
</svg>