<?xml version="1.0" encoding="UTF-8"?>
<svg width="30px" height="30px" viewBox="0 0 30 30" version="1.1" xmlns="http://www.w3.org/2000/svg" xmlns:xlink="http://www.w3.org/1999/xlink">
    <!-- Generator: Sketch 63.1 (92452) - https://sketch.com -->
    <desc>Created with Sketch.</desc>
    <g id="icon/02_data_science/02_data_science_ideation" stroke="none" stroke-width="1" fill="none" fill-rule="evenodd">
        <path d="M22.25,28.607 C22.664,28.607 23,28.943 23,29.357 C23,29.771 22.664,30.107 22.25,30.107 L19.25,30.107 C18.836,30.107 18.5,29.771 18.5,29.357 C18.5,28.943 18.836,28.607 19.25,28.607 L22.25,28.607 Z M20.749,17.354 C21.956,17.355 23.086,17.825 23.935,18.675 C24.784,19.526 25.251,20.656 25.2499965,21.859 C25.249,23.48 24.393,24.951 23,25.752 L23,27.107 C23,27.521 22.664,27.857 22.2499965,27.857 L19.2499965,27.857 C18.836,27.857 18.5,27.521 18.5,27.107 L18.5,25.751 C17.104,24.948 16.248,23.473 16.2499965,21.849 C16.251,20.647 16.721,19.517 17.571,18.669 C18.421,17.821 19.55,17.354 20.749,17.354 Z M20.749,18.51 L20.7499989,18.852 C19.95,18.852 19.198,19.163 18.631,19.728 C18.064,20.294 17.751,21.047 17.7499989,21.849 C17.749,23.043 18.455,24.124 19.55,24.601 C19.824,24.721 20,24.991 20,25.289 L20,26.356 L21.5,26.356 L21.5,25.29 C21.5,24.991 21.677,24.722 21.95,24.602 C23.043,24.125 23.749,23.048 23.7499989,21.856 C23.751,21.054 23.44,20.301 22.874,19.733 C22.308,19.165 21.555,18.853 20.753,18.852 L20.749,18.51 Z M14.857,21.107 C15.271,21.107 15.607,21.443 15.607,21.857 C15.607,22.271 15.271,22.607 14.857,22.607 L13.25,22.607 C12.836,22.607 12.5,22.271 12.5,21.857 C12.5,21.443 12.836,21.107 13.25,21.107 L14.857,21.107 Z M28.25,21.107 C28.664,21.107 29,21.443 29,21.857 C29,22.271 28.664,22.607 28.25,22.607 L26.643,22.607 C26.229,22.607 25.893,22.271 25.893,21.857 C25.893,21.443 26.229,21.107 26.643,21.107 L28.25,21.107 Z M14.564,16.207 C14.764,16.207 14.953,16.285 15.094,16.427 L16.459,17.791 C16.601,17.932 16.679,18.121 16.679,18.321 C16.679,18.521 16.601,18.71 16.46,18.851 C16.318,18.993 16.129,19.071 15.929,19.071 C15.728,19.071 15.54,18.993 15.399,18.851 L14.034,17.487 C13.892,17.346 13.814,17.157 13.814,16.957 C13.814,16.757 13.892,16.568 14.033,16.427 C14.174,16.285 14.363,16.207 14.564,16.207 Z M26.936,16.207 C27.137,16.207 27.325,16.285 27.467,16.427 C27.759,16.719 27.759,17.195 27.467,17.487 L26.102,18.851 C25.96,18.993 25.771,19.071 25.571,19.071 C25.371,19.071 25.182,18.993 25.04,18.851 C24.748,18.558 24.748,18.082 25.04,17.79 L26.405,16.426 C26.547,16.284 26.735,16.207 26.936,16.207 Z M20.75,13.5 C21.164,13.5 21.5,13.836 21.5,14.25 L21.5,15.857 C21.5,16.271 21.164,16.607 20.75,16.607 C20.336,16.607 20,16.271 20,15.857 L20,14.25 C20,13.836 20.336,13.5 20.75,13.5 Z" id="Combined-Shape" fill="#FFFFFF"></path>
        <path d="M15.0004679,2.56900039 C16.8712007,0.46659365 20.5958752,-0.632753299 22.5,0.46659365 C24.4041059,1.56592968 25.0170945,4.42803353 24.4297232,8.01200902 C27.8273904,9.29598131 30,11.2580753 30,13.4569747 C30,15.6558741 28.373488,14.3144466 28.0671412,13.0477974 C27.7754669,11.9076287 26.2933021,10.7494905 24.0342972,9.86684957 L24.0199065,9.92262804 C23.946465,10.2023559 23.8666097,10.4850213 23.7803765,10.7702097 L23.668,11.13 L23.6721954,11.1304474 L23.651,11.182 L23.646248,11.1998326 L23.646248,11.1998326 L23.628,11.242 L23.6172333,11.2689362 L23.616,11.268 L23.5741379,11.3652407 C22.6567658,13.3528046 20.7192718,13.3960022 19.5823268,11.1591726 L19.4340501,10.8969747 C18.9382562,10.0382346 18.4150613,9.22917881 17.8756739,8.47494992 C16.9529919,8.38550369 15.9911466,8.33697471 15,8.33697471 C14.0088534,8.33697471 13.0470081,8.38550369 12.1245084,8.47543558 C11.5849387,9.22917881 11.0617438,10.0382346 10.5659499,10.8969747 C10.070376,11.7553339 9.63148021,12.612582 9.24811337,13.456457 C9.63113395,14.3006911 10.0701805,15.1582769 10.5659499,16.0169747 C10.8013496,16.4246988 11.0429262,16.8212227 11.2894801,17.2059958 C12.1245084,18.9019404 11.0429262,20.0974031 10.2513576,20.0974031 C9.23974561,19.9415066 8.27622934,19.7351859 7.37352648,19.4859714 L7.36694858,19.5306754 C6.9690161,22.1936475 7.34849396,24.1890467 8.44,24.819228 C8.90992233,25.0905378 9.53300181,25.1210288 10.2584166,24.9340183 C11.2894801,24.6742322 12.3822792,25.902505 10.7934228,26.7044313 C9.55354203,27.0433356 8.42321201,26.9803725 7.5,26.4473558 C5.59589414,25.3480197 4.98290554,22.4859159 5.57027684,18.9019404 C2.17260956,17.6179681 0,15.6558741 0,13.4569747 C0,11.2580753 2.17260956,9.29598131 5.57071372,8.0126797 C4.98290554,4.42803353 5.59589414,1.56592968 7.5,0.46659365 C9.40435091,-0.632883863 12.1899717,0.267677582 15.0004679,2.56900039 Z M8.30612056,15.8102703 L8.22180896,16.0593233 C8.04150263,16.5992695 7.88580542,17.1273175 7.75436693,17.6397283 C8.34159864,17.8045137 8.96366907,17.9512711 9.61522133,18.0771269 C9.38416378,17.7123088 9.1582601,17.3387844 8.93782217,16.9569747 C8.71731584,16.5750465 8.50672382,16.1925272 8.30612056,15.8102703 Z M5.96541615,9.8664345 L5.79694979,9.93387886 C3.36662272,10.9152166 1.88,12.2179742 1.88,13.4569747 C1.88,14.7244004 3.43561729,16.058542 5.96570282,17.0470998 C6.26577675,15.8915701 6.67601784,14.6848431 7.19357736,13.4567181 C6.67579468,12.2284498 6.26569505,11.0220649 5.96541615,9.8664345 Z M9.61483176,8.83689243 L9.44381763,8.87054817 C8.85439705,8.98865618 8.28984015,9.12390281 7.75371659,9.27375551 C7.90591491,9.86502839 8.08971238,10.4766237 8.30629645,11.1032761 C8.50672382,10.7214222 8.71731584,10.3389029 8.93782217,9.95697471 C9.1582601,9.57516501 9.38416378,9.20164064 9.61483176,8.83689243 Z M20.3847787,8.83682248 L20.4578184,8.95231427 C20.6633126,9.28033309 20.8649333,9.61533712 21.0621778,9.95697471 C21.2630579,10.3049093 21.5248413,10.7926941 21.7056732,11.070755 C21.7056732,11.070755 21.7366028,11.0164795 21.7562256,10.9401703 C21.9726338,10.3131149 22.0940851,9.86502839 22.2456331,9.27422113 C21.6584014,9.10943571 21.0363309,8.96267833 20.3847787,8.83682248 Z M8.44,2.09472141 C7.34252055,2.72835147 6.96488394,4.74218302 7.37355166,7.4270543 C8.52450235,7.11022125 9.77434314,6.86219741 11.0963413,6.69637006 C11.9013635,5.6343015 12.7410493,4.67592711 13.5916951,3.83802976 C11.4704252,2.14099876 9.53750732,1.46107526 8.44,2.09472141 Z M16.5468115,3.72818419 L16.4083049,3.83802976 C17.2589507,4.67592711 18.0986365,5.6343015 18.9032169,6.69625676 C20.2256569,6.86219741 21.4754976,7.11022125 22.6264735,7.42797804 C23.0351161,4.74218302 22.6574795,2.72835147 21.56,2.09472141 C20.4863666,1.47485886 18.6132724,2.1120398 16.5468115,3.72818419 Z M15.0008419,5.09108345 L14.8052153,5.28334226 C14.4335976,5.65637128 14.0611812,6.05694109 13.6911983,6.48356868 C14.1218405,6.46586814 14.5586947,6.45697471 15,6.45697471 C15.4413053,6.45697471 15.8781595,6.46586814 16.3097845,6.48329191 C15.8744259,5.98268951 15.4366957,5.5177278 15.0008419,5.09108345 Z" id="Combined-Shape" fill="#FFFFFF"></path>
    </g>
</svg>