<?xml version="1.0" encoding="UTF-8"?>
<svg width="30px" height="30px" viewBox="0 0 30 30" version="1.1" xmlns="http://www.w3.org/2000/svg" xmlns:xlink="http://www.w3.org/1999/xlink">
    <!-- Generator: Sketch 63.1 (92452) - https://sketch.com -->
    <desc>Created with Sketch.</desc>
    <g id="icon/04_on_demand/01_engage_talent" stroke="none" stroke-width="1" fill="none" fill-rule="evenodd">
        <g id="team-idea" fill="#FFFFFF">
            <path d="M14.99875,27.32125 C16.3275,27.32125 17.65,27.63375 18.825,28.225 C19.28625,28.4575 19.4725,29.0225 19.24125,29.48375 C19.08125,29.8025 18.76,30 18.40375,30 C18.2575,30 18.11625,29.96625 17.98375,29.9 C17.0675,29.43875 16.03625,29.195 15,29.195 C13.98625,29.195 12.97625,29.42875 12.0775,29.87 C11.95,29.9325 11.8075,29.96625 11.665,29.96625 C11.305,29.96625 10.98125,29.765 10.8225,29.44125 C10.7125,29.21625 10.69625,28.9625 10.77625,28.725 C10.85625,28.4875 11.025,28.29625 11.25,28.18625 C12.40375,27.62 13.7,27.32125 14.99875,27.32125 Z M4.21875,18.87875 C6.545,18.87875 8.4375,20.77125 8.4375,23.0975 C8.4375,24.63625 7.59625,25.99375 6.35,26.73 C7.29875,27.05625 8.1675,27.6025 8.895,28.3425 C9.07125,28.52125 9.16625,28.7575 9.16379811,29.0075 C9.16125,29.2575 9.0625,29.4925 8.88375,29.66875 C8.7075,29.84125 8.47375,29.9375 8.22625,29.9375 C7.9725,29.9375 7.735,29.8375 7.5575,29.6575 C6.665,28.75 5.48,28.25 4.22125,28.25 C3.23875,28.25 2.2925,28.55625 1.48375,29.13625 C1.32375,29.25125 1.135,29.3125 0.9375,29.3125 C0.63625,29.3125 0.35125,29.16625 0.175,28.92125 C-0.12625,28.5025 -0.03,27.915 0.39,27.61375 C0.9175,27.235 1.49,26.93875 2.09,26.7325 C0.8425,25.995 1.67643693e-12,24.63625 1.67643693e-12,23.0975 C1.67643693e-12,20.77125 1.8925,18.87875 4.21875,18.87875 Z M25.78125,18.87875 C28.1075,18.87875 30,20.77125 30,23.0975 C30,24.6466549 29.1607085,26.0034491 27.9129459,26.7370622 C28.5135156,26.9414277 29.0838647,27.2358466 29.61,27.61375 C29.81375,27.76 29.9475,27.97625 29.9875,28.22375 C30.0275,28.47125 29.97,28.71875 29.82375,28.9225 C29.670625,29.136875 29.4332813,29.2746875 29.1745239,29.305791 L29.0625,29.3125 C28.865,29.3125 28.67625,29.25125 28.515,29.13625 C27.71375,28.56125 26.7675,28.25625 25.78125,28.25625 C24.56625,28.25625 23.41375,28.71875 22.5375,29.55875 C22.3625,29.72625 22.13125,29.81875 21.88875,29.81875 C21.635,29.81875 21.38875,29.71375 21.2125,29.53125 C20.855,29.1575 20.8675,28.5625 21.24,28.205 C21.9367737,27.5373176 22.7575987,27.0400044 23.6485199,26.7347795 C22.4013369,26.0027141 21.5625,24.6462353 21.5625,23.0975 C21.5625,20.77125 23.455,18.87875 25.78125,18.87875 Z M15,17.00375 C17.8425,17.00375 20.15625,19.3175 20.15625,22.16 C20.15625,25.0025 17.84375,27.31625 15,27.31625 C12.15625,27.31625 9.84375,25.0025 9.84375,22.16 C9.84375,19.3175 12.15625,17.00375 15,17.00375 Z M4.21875,20.75375 C2.92625,20.75375 1.875,21.805 1.875,23.0975 C1.875,24.39 2.92625,25.44125 4.21875,25.44125 C5.51125,25.44125 6.5625,24.39 6.5625,23.0975 C6.5625,21.805 5.51125,20.75375 4.21875,20.75375 Z M25.78125,20.75375 C24.48875,20.75375 23.4375,21.805 23.4375,23.0975 C23.4375,24.39 24.48875,25.44125 25.78125,25.44125 C27.07375,25.44125 28.125,24.39 28.125,23.0975 C28.125,21.805 27.07375,20.75375 25.78125,20.75375 Z M15,18.87875 C13.19125,18.87875 11.71875,20.35 11.71875,22.16 C11.71875,23.97 13.19125,25.44125 15,25.44125 C16.81,25.44125 18.28125,23.97 18.28125,22.16 C18.28125,20.35 16.81,18.87875 15,18.87875 Z M16.875,14.19125 C17.3925,14.19125 17.8125,14.61125 17.8125,15.12875 C17.8125,15.64625 17.3925,16.06625 16.875,16.06625 L13.125,16.06625 C12.6075,16.06625 12.1875,15.64625 12.1875,15.12875 C12.1875,14.61125 12.6075,14.19125 13.125,14.19125 L16.875,14.19125 Z M15,0.12375 C16.50375,0.12375 17.91625,0.71 18.97875,1.7725 C20.04125,2.835 20.62625,4.2475 20.625002,5.75 C20.625002,7.7775 19.555,9.61875 17.8125,10.62125 L17.8125,12.31625 C17.8125,12.83375 17.3925,13.25375 16.875,13.25375 L13.125,13.25375 C12.6075,13.25375 12.1875,12.83375 12.1875,12.31625 L12.1875,10.62 C10.445,9.6175 9.375,7.77625 9.375,5.7475 C9.375,4.245 9.96125,2.8325 11.02375,1.77 C12.08625,0.70875 13.49875,0.12375 15,0.12375 Z M24.375,9.92375 C24.625,9.92375 24.86125,10.02125 25.0375,10.19875 L26.36375,11.525 C26.54125,11.70125 26.63875,11.9375 26.63875,12.1875 C26.63875,12.4375 26.54125,12.67375 26.36375,12.85 C26.18625,13.02625 25.95125,13.125 25.70125,13.125 C25.45125,13.125 25.215,13.0275 25.03875,12.85 L23.7125,11.52375 C23.535,11.3475 23.4375,11.11125 23.4375,10.86125 C23.4375,10.61125 23.535,10.375 23.7125,10.19875 C23.89,10.0225 24.125,9.92375 24.375,9.92375 Z M5.625,9.92375 C5.875,9.92375 6.11125,10.02125 6.2875,10.19875 C6.465,10.375 6.5625,10.61125 6.5625,10.86125 C6.5625,11.11125 6.465,11.3475 6.2875,11.52375 L4.96125,12.85 C4.785,13.0275 4.54875,13.125 4.29875,13.125 C4.04875,13.125 3.8125,13.0275 3.63625,12.85 C3.45875,12.67375 3.36125,12.4375 3.36125,12.1875 C3.36125,11.9375 3.45875,11.70125 3.63625,11.525 L4.9625,10.19875 C5.14,10.02125 5.375,9.92375 5.625,9.92375 Z M14.9995301,1.578 L15,1.99875 C13.99875,1.99875 13.0575,2.38875 12.34875,3.09625 C11.64125,3.80375 11.25,4.74625 11.25,5.7475 C11.25,7.23875 12.1325,8.58875 13.5,9.185 C13.84125,9.335 14.0625,9.67125 14.0625,10.045 L14.0625,11.37875 L15.9375,11.37875 L15.9375,10.045 C15.9375,9.6725 16.15875,9.335 16.5,9.185 C17.8675,8.58875 18.75,7.24 18.75,5.75 C18.75,4.7475 18.36,3.80625 17.6525,3.0975 C16.945,2.38875 16.0025,1.99875 15.00125,1.99875 L14.9995301,1.578 Z M26.63875,5.625 C27.15625,5.625 27.57625,6.045 27.57625,6.5625 C27.57625,7.08 27.15625,7.5 26.63875,7.5 L24.76375,7.5 C24.24625,7.5 23.82625,7.08 23.82625,6.5625 C23.82625,6.045 24.24625,5.625 24.76375,5.625 L26.63875,5.625 Z M5.23625,5.625 C5.75375,5.625 6.17375,6.045 6.17375,6.5625 C6.17375,7.08 5.75375,7.5 5.23625,7.5 L3.36125,7.5 C2.84375,7.5 2.42375,7.08 2.42375,6.5625 C2.42375,6.045 2.84375,5.625 3.36125,5.625 L5.23625,5.625 Z M25.70125,-1.45661261e-12 C25.95125,-1.45661261e-12 26.1875,0.0975 26.365,0.275 C26.73,0.64 26.73,1.235 26.365,1.6 L25.0375,2.925 C24.86125,3.1025 24.625,3.2 24.375,3.2 C24.12375,3.2 23.88875,3.1025 23.71125,2.925 C23.34625,2.56 23.34625,1.965 23.71125,1.6 L25.0375,0.275 C25.21625,0.0975 25.45125,-1.45661261e-12 25.70125,-1.45661261e-12 Z M4.29875,-1.45661261e-12 C4.54875,-1.45661261e-12 4.785,0.0975 4.96125,0.275 L6.2875,1.6 C6.65375,1.965 6.65375,2.56 6.2875,2.92625 C6.11125,3.1025 5.87625,3.2 5.625,3.2 C5.375,3.2 5.13875,3.1025 4.9625,2.925 L3.63625,1.6 C3.27,1.235 3.27,0.64 3.63625,0.27375 C3.8125,0.0975 4.04875,-1.45661261e-12 4.29875,-1.45661261e-12 Z" id="Combined-Shape"></path>
        </g>
    </g>
</svg>