<?xml version="1.0" encoding="UTF-8"?>
<svg width="30px" height="30px" viewBox="0 0 30 30" version="1.1" xmlns="http://www.w3.org/2000/svg" xmlns:xlink="http://www.w3.org/1999/xlink">
    <!-- Generator: Sketch 63.1 (92452) - https://sketch.com -->
    <desc>Created with Sketch.</desc>
    <g id="icon/01_quality_assurance/12_mobile_app_certification" stroke="none" stroke-width="1" fill="none" fill-rule="evenodd">
        <g id="shield-phone" transform="translate(1.000000, 0.000000)" fill="#FFFFFF">
            <path d="M14.2463399,1.24344979e-14 C18.1400899,1.24344979e-14 21.9213399,0.78875 25.4825899,2.34375 C26.4938399,2.80625 27.1375899,3.8125 27.1301547,4.91125 L27.1301547,14.4225 C27.1301547,20.92125 23.0550899,26.855 16.9888399,29.18875 L15.6875899,29.68875 C15.1475899,29.89625 14.5813399,30.00125 14.0050899,30.00125 C13.4288399,30.00125 12.8625899,29.89625 12.3225899,29.68875 L11.0213399,29.18875 C4.95508991,26.855 0.880044628,20.92125 0.880044628,14.4225 L0.880044628,4.905 C0.873839907,3.81 1.51508991,2.80625 2.51258991,2.35 C6.08758991,0.78875 9.86258991,1.24344979e-14 13.7400899,1.24344979e-14 L14.0138399,0.00125 L14.2463399,1.24344979e-14 Z M14.2475899,1.875 L14.0138399,1.87625 L13.7550899,1.875 C10.1263399,1.875 6.60133991,2.61125 3.27758991,4.06125 C2.96133991,4.20625 2.75258991,4.53625 2.7550677,4.89875 L2.7550677,14.4225 C2.7550677,20.15125 6.34758991,25.3825 11.6938399,27.43875 L12.9950899,27.93875 C13.3200899,28.06375 13.6588399,28.1275 14.0050899,28.1275 C14.3513399,28.1275 14.6900899,28.06375 15.0150899,27.94 L16.3163399,27.44 C21.6625899,25.38125 25.2551119,20.15125 25.2551119,14.4225 L25.2551119,4.905 C25.2575899,4.53875 25.0463399,4.20625 24.7175899,4.055 C21.4063399,2.60875 17.8813399,1.875 14.2475899,1.875 Z M16.8175899,5.625 C18.3688399,5.625 19.6300899,6.88625 19.6300899,8.4375 L19.6300899,17.8125 C19.6300899,19.36375 18.3688399,20.625 16.8175899,20.625 L11.1925899,20.625 C9.64133991,20.625 8.38008991,19.36375 8.38008991,17.8125 L8.38008991,8.4375 C8.38008991,6.88625 9.64133991,5.625 11.1925899,5.625 L16.8175899,5.625 Z M16.8175899,7.5 L11.1925899,7.5 L11.1925899,7.50125 C10.6750899,7.50125 10.2550899,7.92125 10.2550899,8.43875 L10.2550899,17.81375 C10.2550899,18.33 10.6750899,18.75 11.1925899,18.75 L16.8175899,18.75 C17.3350899,18.75 17.7550899,18.33 17.7550899,17.8125 L17.7550899,8.4375 C17.7550899,7.92 17.3350899,7.5 16.8175899,7.5 Z M14.0050899,13.59375 C14.7800899,13.59375 15.4113399,14.225 15.4113399,15 C15.4113399,15.77625 14.7800899,16.40625 14.0050899,16.40625 C13.2300899,16.40625 12.5988399,15.775 12.5988399,15 C12.5988399,14.225 13.2300899,13.59375 14.0050899,13.59375 Z" id="Combined-Shape"></path>
        </g>
    </g>
</svg>