<?xml version="1.0" encoding="UTF-8"?>
<svg width="30px" height="30px" viewBox="0 0 30 30" version="1.1" xmlns="http://www.w3.org/2000/svg" xmlns:xlink="http://www.w3.org/1999/xlink">
    <!-- Generator: Sketch 63.1 (92452) - https://sketch.com -->
    <desc>Created with Sketch.</desc>
    <g id="icon/00_level_1/02_on_demand" stroke="none" stroke-width="1" fill="none" fill-rule="evenodd">
        <g id="multiple-circle" fill="#FFFFFF">
            <path d="M29.0625,25.3125 C29.58,25.3125 30,25.7325 30,26.25 C30,27.67875 28.11125,28.685 24.22625,29.32625 C20.44,29.95125 16.2075,30 15,30 C13.7925,30 9.56,29.95125 5.77375,29.32625 C1.88875,28.685 -6.39488462e-14,27.67875 -6.39488462e-14,26.25 C-6.39488462e-14,25.7325 0.42,25.3125 0.9375,25.3125 C1.42875,25.3125 1.8325,25.69125 1.87125,26.1725 C2.38,26.77125 6.715,28.125 15,28.125 C23.285,28.125 27.62,26.77125 28.1275,26.1725 C28.1675,25.69125 28.57125,25.3125 29.0625,25.3125 Z M15,9.375 C18.10125,9.375 20.625,11.89875 20.625,15 L20.625,17.8125 C20.625,18.33 20.205,18.75 19.6875,18.75 L18.64,18.75 L17.805,25.42875 C17.74625,25.8975 17.34625,26.25 16.875,26.25 L13.125,26.25 C12.65375,26.25 12.25375,25.8975 12.195,25.42875 L11.36,18.75 L10.3125,18.75 C9.795,18.75 9.375,18.33 9.375,17.8125 L9.375,15 C9.375,11.89875 11.89875,9.375 15,9.375 Z M15,11.25 C12.9325,11.25 11.25,12.9325 11.25,15 L11.25,16.875 L12.1875,16.875 C12.65875,16.875 13.05875,17.2275 13.1175,17.69625 L13.9525,24.375 L16.0475,24.375 L16.8825,17.69625 C16.94125,17.22875 17.34125,16.875 17.8125,16.875 L18.75,16.875 L18.75,15 C18.75,12.9325 17.0675,11.25 15,11.25 Z M5.625,3.75 C7.6925,3.75 9.375,5.4325 9.375,7.5 C9.375,9.55672124 7.70999744,11.2324464 5.65730469,11.249863 L5.62375,11.24875 C6.23375,11.24875 6.83875,11.34875 7.42375,11.545 C7.91375,11.71 8.17875,12.2425 8.01375,12.7325 C7.885,13.11375 7.5275,13.37125 7.125,13.37125 C7.02375,13.37125 6.92375,13.355 6.8275,13.3225 C6.43625,13.19 6.03125,13.12375 5.625,13.12375 C5.04625,13.12375 4.48625,13.25625 3.96,13.5175 C3.06125,13.96375 2.39125,14.7325 2.07125,15.6825 C1.94125,16.0675 1.875,16.46875 1.875,16.875 L2.8125,16.875 C3.2725,16.875 3.66125,17.20375 3.7375,17.6575 L4.54375,22.5 L6.705,22.5 L7.04375,20.46375 C7.11875,20.01 7.5075,19.68 7.96875,19.68 C8.01875,19.68 8.07,19.68375 8.1225,19.6925 C8.37,19.73375 8.58625,19.86875 8.7325,20.0725 C8.8775,20.27625 8.935,20.525 8.89375,20.77125 L8.425,23.59125 C8.34875,24.045 7.96,24.375 7.5,24.375 L3.75,24.375 C3.29,24.375 2.90125,24.04625 2.825,23.5925 L2.01875,18.75 L0.9375,18.75 C0.42,18.75 -9.05941988e-14,18.33 -9.05941988e-14,17.8125 L-9.05941988e-14,16.875 C-9.05941988e-14,16.265 0.1,15.6625 0.29375,15.085 C0.77375,13.66 1.77875,12.5075 3.12625,11.83875 C3.90372396,11.4524812 4.73358799,11.253842 5.590582,11.2488466 L5.625,11.25 C3.5575,11.25 1.875,9.5675 1.875,7.5 C1.875,5.4325 3.5575,3.75 5.625,3.75 Z M24.375,3.75 C26.4425,3.75 28.125,5.4325 28.125,7.5 C28.125,9.55604757 26.461088,11.2313486 24.4093216,11.2498453 L24.375,11.24875 C25.245,11.24875 26.085,11.4475 26.8725,11.83875 C28.21875,12.5075 29.225,13.66 29.705,15.085 C29.9,15.6625 30,16.26375 30,16.87375 L30,17.8125 C30,18.33 29.58,18.75 29.0625,18.75 L27.98125,18.75 L27.17375,23.59125 C27.09875,24.045 26.71,24.375 26.25,24.375 L22.5,24.375 C22.04,24.375 21.65125,24.045 21.575,23.59125 L21.105,20.77125 C21.06375,20.525 21.12125,20.27625 21.26625,20.0725 C21.41125,19.86875 21.62875,19.73375 21.875,19.6925 C21.92625,19.68375 21.9775,19.68 22.02875,19.68 C22.48875,19.68 22.8775,20.01 22.95375,20.46375 L23.29375,22.5 L25.455,22.5 L26.2625,17.65875 C26.3375,17.205 26.72625,16.875 27.1875,16.875 L28.125,16.875 C28.125,16.46875 28.05875,16.0675 27.92875,15.6825 C27.60875,14.7325 26.93875,13.96375 26.04,13.5175 C25.51375,13.25625 24.95375,13.12375 24.375,13.12375 C23.96875,13.12375 23.565,13.19 23.17375,13.3225 C23.07625,13.355 22.97625,13.37125 22.875,13.37125 C22.47125,13.37125 22.115,13.115 21.98625,12.7325 C21.82125,12.2425 22.08625,11.71 22.575,11.545 C23.1491311,11.3523962 23.74373,11.2524991 24.3410724,11.2488535 L24.375,11.25 C22.3075,11.25 20.625,9.5675 20.625,7.5 C20.625,5.4325 22.3075,3.75 24.375,3.75 Z M15,0 C17.585,0 19.6875,2.1025 19.6875,4.6875 C19.6875,7.2725 17.585,9.375 15,9.375 C12.415,9.375 10.3125,7.2725 10.3125,4.6875 C10.3125,2.1025 12.415,0 15,0 Z M5.625,5.625 C4.59125,5.625 3.75,6.46625 3.75,7.5 C3.75,8.53375 4.59125,9.375 5.625,9.375 C6.65875,9.375 7.5,8.53375 7.5,7.5 C7.5,6.46625 6.65875,5.625 5.625,5.625 Z M24.375,5.625 C23.34125,5.625 22.5,6.46625 22.5,7.5 C22.5,8.53375 23.34125,9.375 24.375,9.375 C25.40875,9.375 26.25,8.53375 26.25,7.5 C26.25,6.46625 25.40875,5.625 24.375,5.625 Z M15,1.875 C13.44875,1.875 12.1875,3.13625 12.1875,4.6875 C12.1875,6.23875 13.44875,7.5 15,7.5 C16.55125,7.5 17.8125,6.23875 17.8125,4.6875 C17.8125,3.13625 16.55125,1.875 15,1.875 Z" id="Combined-Shape"></path>
        </g>
    </g>
</svg>