<?xml version="1.0" encoding="UTF-8"?>
<svg width="30px" height="30px" viewBox="0 0 30 30" version="1.1" xmlns="http://www.w3.org/2000/svg" xmlns:xlink="http://www.w3.org/1999/xlink">
    <!-- Generator: Sketch 63.1 (92452) - https://sketch.com -->
    <desc>Created with Sketch.</desc>
    <g id="icon/01_quality_assurance/11_performance_improvement" stroke="none" stroke-width="1" fill="none" fill-rule="evenodd">
        <path d="M13.125,1.07469589e-13 C20.3625,1.07469589e-13 26.25,5.8875 26.25,13.125 C26.25,16.29125 25.1125,19.32375 23.03875,21.71375 L29.725,28.4 C29.9025,28.5775 30,28.8125 30,29.0625 C30,29.3125 29.9025,29.54875 29.725,29.725 C29.5475,29.90125 29.3125,30 29.0625,30 C28.8125,30 28.57625,29.9025 28.4,29.725 L21.71375,23.03875 C19.32375,25.1125 16.29125,26.25 13.125,26.25 C5.8875,26.25 3.77475828e-14,20.3625 3.77475828e-14,13.125 C3.77475828e-14,5.8875 5.8875,1.07469589e-13 13.125,1.07469589e-13 Z M13.125,1.875 C6.92125,1.875 1.875,6.92125 1.875,13.125 C1.875,19.32875 6.92125,24.375 13.125,24.375 C19.32875,24.375 24.375,19.32875 24.375,13.125 C24.375,6.92125 19.32875,1.875 13.125,1.875 Z M18.8461216,12.6638252 C18.92965,14.2576422 18.3753011,15.7867933 17.3285424,16.9493366 C16.9811648,17.3351385 16.3868054,17.3662875 16.0010035,17.01891 C15.6152016,16.6715324 15.5840525,16.077173 15.9314301,15.6913711 C16.647863,14.8956918 17.0258632,13.8529922 16.968698,12.7622168 C16.941528,12.2437806 17.3397778,11.8014793 17.858214,11.7743092 C18.3766502,11.7471392 18.8189515,12.145389 18.8461216,12.6638252 Z M13.2509797,7.00828793 C13.7694159,7.03545802 14.1676657,7.4777593 14.1404956,7.99619549 C14.1133256,8.51463169 13.6710243,8.91288155 13.1525881,8.88571146 C10.913385,8.7683598 9.00301986,10.4884603 8.88566819,12.7276634 C8.82850308,13.8184387 9.20650326,14.8611383 9.92293611,15.6568176 C10.2703137,16.0426195 10.2391646,16.6369789 9.85336275,16.9843565 C9.46756085,17.3317341 8.87320143,17.3005851 8.52582384,16.9147832 C7.47906517,15.7522399 6.92471626,14.2230888 7.00824467,12.6292718 C7.17993651,9.35319628 9.97490418,6.83659609 13.2509797,7.00828793 Z M17.5415674,7.97060009 C17.9141122,8.27202282 17.9959903,8.79954025 17.749549,9.19634788 L17.6810769,9.29262018 L15.2902816,12.2483318 C15.4146286,12.5411232 15.4834169,12.8632109 15.4834169,13.2013649 C15.4834169,14.5489397 14.3909917,15.6413649 13.0434169,15.6413649 C11.6958421,15.6413649 10.6034169,14.5489397 10.6034169,13.2013649 C10.6034169,11.8537901 11.6958421,10.7613649 13.0434169,10.7613649 C13.3589191,10.7613649 13.6604352,10.8212461 13.93722,10.9302632 L16.2195473,8.11010958 C16.5460886,7.70651933 17.1379772,7.64405881 17.5415674,7.97060009 Z M13.0434169,12.6413649 C12.7341375,12.6413649 12.4834169,12.8920854 12.4834169,13.2013649 C12.4834169,13.5106443 12.7341375,13.7613649 13.0434169,13.7613649 C13.3526964,13.7613649 13.6034169,13.5106443 13.6034169,13.2013649 C13.6034169,12.8920854 13.3526964,12.6413649 13.0434169,12.6413649 Z" id="Combined-Shape" fill="#FFFFFF"></path>
    </g>
</svg>