<?xml version="1.0" encoding="UTF-8"?>
<svg width="30px" height="30px" viewBox="0 0 30 30" version="1.1" xmlns="http://www.w3.org/2000/svg" xmlns:xlink="http://www.w3.org/1999/xlink">
    <!-- Generator: Sketch 63.1 (92452) - https://sketch.com -->
    <desc>Created with Sketch.</desc>
    <g id="icon/01_quality_assurance/03_regression_automation" stroke="none" stroke-width="1" fill="none" fill-rule="evenodd">
        <g id="time-clock-file-setting" fill="#FFFFFF">
            <path d="M21.5575,11.2475 C21.81125,11.2475 22.065,11.285 22.3125,11.35875 C23.15125,11.6125 23.8025,12.265 24.0525,13.105 L24.60375,14.91625 C24.6425,15.045 24.7625,15.135 24.895,15.135 C24.9175,15.135 24.94125,15.1325 24.96375,15.1275 L26.80375,14.70125 C26.99625,14.6575 27.19,14.63625 27.3825,14.63625 C28.59375,14.63625 29.665,15.4925 29.93,16.6725 C30.12,17.515 29.8825,18.39375 29.295,19.025 L28.0075,20.4125 C27.89625,20.5325 27.89625,20.72 28.0075,20.83875 L29.29625,22.22875 C29.77125,22.7375 30.01875,23.4025 29.995,24.1 C29.97125,24.7975 29.67625,25.4425 29.165,25.91875 C28.68,26.37125 28.0475,26.62 27.385,26.62 C27.19125,26.62 26.9975,26.59875 26.80875,26.555 L24.9625,26.12625 C24.94375,26.1225 24.9225,26.12 24.90125,26.12 C24.76875,26.12 24.6425,26.2125 24.60375,26.34125 L24.0525,28.14875 C23.72625,29.23625 22.70125,29.9975 21.56125,29.9975 C21.31,29.9975 21.05875,29.96 20.81625,29.8875 C19.97625,29.63625 19.32375,28.98375 19.0725,28.14375 L18.52125,26.33125 C18.4825,26.20625 18.35625,26.115 18.22,26.115 C18.1975,26.115 18.17625,26.1175 18.15375,26.1225 L16.3225,26.5475 C16.12875,26.59125 15.93375,26.6125 15.74125,26.6125 C14.5125,26.6125 13.465,25.77625 13.19375,24.5775 C13.0025,23.73375 13.24125,22.85375 13.83,22.22125 L15.1175,20.83375 C15.22875,20.71375 15.22875,20.5275 15.11875,20.4075 L13.82875,19.0175 C13.35375,18.5075 13.10625,17.8425 13.1325,17.145 C13.1575,16.44875 13.4525,15.8025 13.96375,15.3275 C14.44875,14.87625 15.08,14.62875 15.74125,14.62875 C15.93375,14.62875 16.1275,14.65 16.31625,14.6925 L18.16125,15.12 C18.18125,15.125 18.20375,15.1275 18.22625,15.1275 C18.36,15.1275 18.48125,15.03875 18.52,14.91125 L19.0725,13.095 C19.2725,12.4325 19.72,11.885 20.3325,11.5575 C20.71,11.355 21.13375,11.2475 21.5575,11.2475 Z M21.56,13.125 C21.44125,13.125 21.32625,13.15375 21.21875,13.21125 C21.04875,13.3025 20.92375,13.455 20.8675,13.64 L20.31375,15.4575 C20.03875,16.3675 19.18,17.005 18.225,17.005 C18.0625,17.005 17.89875,16.98625 17.74,16.95 L15.8975,16.5225 C15.84875,16.51125 15.795,16.50625 15.74125,16.50625 C15.555,16.50625 15.37625,16.57625 15.24,16.70375 C15.09625,16.8375 15.0125,17.02 15.005,17.21625 C14.9975,17.4125 15.0675,17.6 15.20125,17.745 L16.49125,19.135 C17.2675,19.97 17.2675,21.27875 16.49125,22.11375 L15.2025,23.5025 C15.035,23.6825 14.9675,23.93125 15.02125,24.16875 C15.09625,24.50125 15.39875,24.7425 15.73875,24.7425 C15.7925,24.7425 15.8475,24.73625 15.90125,24.72375 L17.73625,24.2975 C17.8975,24.2575 18.0575,24.24 18.2175,24.24 C19.17125,24.24 20.03375,24.87375 20.31375,25.78125 L20.8675,27.60125 C20.93875,27.83875 21.12,28.02125 21.355,28.09125 C21.42375,28.11125 21.49375,28.1225 21.56375,28.1225 C21.68375,28.1225 21.79875,28.0925 21.90625,28.035 C22.07625,27.94375 22.20125,27.79125 22.2575,27.605 L22.81125,25.79125 C23.0925,24.88125 23.95375,24.24625 24.905,24.24625 C25.06375,24.24625 25.22375,24.26375 25.38,24.29875 L27.2275,24.72875 C27.27625,24.74 27.33125,24.74625 27.38375,24.74625 C27.57125,24.74625 27.74875,24.67625 27.88625,24.54875 C28.03,24.415 28.11375,24.2325 28.12,24.03625 C28.12625,23.84 28.05625,23.6525 27.9225,23.50875 L26.6325,22.1175 C25.85625,21.2825 25.85625,19.97375 26.6325,19.13875 L27.92125,17.75 C28.0875,17.57125 28.155,17.32375 28.10125,17.08625 C28.02625,16.75375 27.72375,16.5125 27.3825,16.5125 C27.32875,16.5125 27.27375,16.51875 27.22,16.53 L25.38625,16.955 C25.22625,16.9925 25.06125,17.01125 24.8975,17.01125 C23.94375,17.01125 23.085,16.37375 22.81,15.46125 C22.81,15.46125 22.2575,13.6475 22.25625,13.64375 C22.18625,13.40875 22.005,13.2275 21.77125,13.15625 C21.7025,13.135 21.63125,13.125 21.56,13.125 Z M16.09875,0 C16.85125,0 17.55625,0.29375 18.0875,0.825 L21.6775,4.4125 C22.2075,4.945 22.5,5.65125 22.5,6.4025 L22.5,8.4375 C22.5,8.955 22.08,9.375 21.5625,9.375 C21.045,9.375 20.625,8.95375 20.625,8.4375 L20.625,6.4025 C20.625,6.15125 20.5275,5.91625 20.35125,5.73875 L16.76125,2.15 C16.58375,1.9725 16.34875,1.875 16.09875,1.875 L2.8125,1.875 C2.29625,1.875 1.875,2.295 1.875,2.8125 L1.875,23.4375 C1.875,23.955 2.295,24.375 2.8125,24.375 L9.375,24.375 C9.8925,24.375 10.3125,24.795 10.3125,25.3125 C10.3125,25.83 9.8925,26.25 9.375,26.25 L2.8125,26.25 C1.2625,26.25 0,24.9875 0,23.4375 L0,2.8125 C0,1.26125 1.2625,0 2.8125,0 L16.09875,0 Z M21.5625,17.8125 C23.11375,17.8125 24.375,19.07375 24.375,20.625 C24.375,22.17625 23.11375,23.4375 21.5625,23.4375 C20.01125,23.4375 18.75,22.17625 18.75,20.625 C18.75,19.07375 20.01125,17.8125 21.5625,17.8125 Z M21.5625,19.6875 C21.045,19.6875 20.625,20.1075 20.625,20.625 C20.625,21.1425 21.045,21.5625 21.5625,21.5625 C22.08,21.5625 22.5,21.14125 22.5,20.625 C22.5,20.10875 22.08,19.6875 21.5625,19.6875 Z M5.125,17.5 C5.74632034,17.5 6.25,18.0036797 6.25,18.625 C6.25,19.2463203 5.74632034,19.75 5.125,19.75 C4.50367966,19.75 4,19.2463203 4,18.625 C4,18.0036797 4.50367966,17.5 5.125,17.5 Z M10.4,17.7 C10.8970563,17.7 11.3,18.1029437 11.3,18.6 C11.3,19.0588212 10.9566633,19.4374518 10.5128941,19.4929877 L10.4,19.5 L8.9,19.5 C8.40294373,19.5 8,19.0970563 8,18.6 C8,18.1411788 8.34333667,17.7625482 8.78710591,17.7070123 L8.9,17.7 L10.4,17.7 Z M5.125,12.25 C5.74632034,12.25 6.25,12.7536797 6.25,13.375 C6.25,13.9963203 5.74632034,14.5 5.125,14.5 C4.50367966,14.5 4,13.9963203 4,13.375 C4,12.7536797 4.50367966,12.25 5.125,12.25 Z M12.4,12.5 C12.8970563,12.5 13.3,12.9029437 13.3,13.4 C13.3,13.8588212 12.9566633,14.2374518 12.5128941,14.2929877 L12.4,14.3 L8.9,14.3 C8.40294373,14.3 8,13.8970563 8,13.4 C8,12.9411788 8.34333667,12.5625482 8.78710591,12.5070123 L8.9,12.5 L12.4,12.5 Z M5.125,7 C5.74632034,7 6.25,7.50367966 6.25,8.125 C6.25,8.74632034 5.74632034,9.25 5.125,9.25 C4.50367966,9.25 4,8.74632034 4,8.125 C4,7.50367966 4.50367966,7 5.125,7 Z M16.4,7.2 C16.8970563,7.2 17.3,7.60294373 17.3,8.1 C17.3,8.55882118 16.9566633,8.93745178 16.5128941,8.99298772 L16.4,9 L8.9,9 C8.40294373,9 8,8.59705627 8,8.1 C8,7.64117882 8.34333667,7.26254822 8.78710591,7.20701228 L8.9,7.2 L16.4,7.2 Z" id="Combined-Shape"></path>
        </g>
    </g>
</svg>