<?xml version="1.0" encoding="UTF-8"?>
<svg width="30px" height="30px" viewBox="0 0 30 30" version="1.1" xmlns="http://www.w3.org/2000/svg" xmlns:xlink="http://www.w3.org/1999/xlink">
    <!-- Generator: Sketch 63.1 (92452) - https://sketch.com -->
    <desc>Created with Sketch.</desc>
    <g id="icon/01_quality_assurance/10_salesforce_implementation" stroke="none" stroke-width="1" fill="none" fill-rule="evenodd">
        <g id="file-database" fill="#FFFFFF">
            <path d="M21.4375,15 C25.60875,15 29.83875,16.2775 29.87375,18.72 L29.8739283,18.7757498 C29.875,19.4617063 29.875,26.24625 29.875,26.24625 C29.875,28.7075 25.63,29.99625 21.4375,29.99625 C17.245,29.99625 13,28.7075 13,26.24625 L13.0009893,18.8411097 C13.0010695,18.7623063 13.0011563,18.7194063 13.00125,18.71875 C13.04,16.27625 17.2675,15 21.4375,15 Z M28,24.95125 C26.2125,25.89625 23.53375,26.24625 21.4375,26.24625 C19.34125,26.24625 16.6625,25.89625 14.875,24.95125 L14.875,26.24625 C14.875,26.79 17.175,28.12125 21.4375,28.12125 C25.7,28.12125 28,26.79 28,26.24625 L28,24.95125 Z M28,21.205 C26.2125,22.15 23.53375,22.5 21.4375,22.5 C19.34125,22.5 16.6625,22.15 14.875,21.205 L14.875,22.49625 C14.875,23.04 17.175,24.37125 21.4375,24.37125 C25.7,24.37125 28,23.04 28,22.49625 L28,21.205 Z M12.8227821,1.57058297 L12.8967806,1.638317 L12.9288424,1.61312727 C15.48419,-0.390035073 19.3234531,0.482930368 20.9218683,2.7426668 L21.0337806,2.909317 L21.0791648,2.89677522 C24.0702339,2.11335485 26.7423321,3.06546785 28.4560797,5.25055312 L28.6139164,5.45900175 C30.2980107,7.76288512 30.5674422,10.8689473 29.1019586,12.8720751 C28.7954266,13.2910649 28.207275,13.38223 27.7882852,13.075698 C27.3692954,12.7691661 27.2781303,12.1810145 27.5846623,11.7620247 C28.5233629,10.4789415 28.3306431,8.25722687 27.096174,6.56844217 C25.7223683,4.68904143 23.5008265,3.96927591 20.8755322,4.9290008 C20.3850768,5.10829586 19.8424936,4.85347038 19.6672798,4.36154214 C18.9718717,2.40912233 15.355415,1.46242569 13.5704641,3.59683834 C13.1724001,4.07283622 12.4304963,4.03936071 12.0769176,3.52944789 C11.0949814,2.11335039 8.60764924,1.47559382 6.60826162,2.15073627 C4.40514526,2.89467274 3.44741841,4.92076766 4.43386338,8.17494793 C4.55949869,8.58940587 4.38570641,9.03606208 4.01299123,9.25661368 C0.0752704497,11.5867324 1.97975459,16.846334 6.70959353,16.2284637 C7.14180669,16.1720026 7.55613448,16.4200793 7.71046338,16.8277295 C8.18397189,18.0784726 9.18919347,18.9457844 10.8113662,19.454819 C11.3066989,19.6102534 11.5822408,20.1378044 11.4268064,20.633137 C11.271372,21.1284697 10.7438211,21.4040116 10.2484884,21.2485772 C8.39503213,20.6669663 7.05295247,19.6477698 6.27715626,18.2071911 L6.24978061,18.153317 L6.05897577,18.1591318 C0.263356213,18.2543807 -2.16695209,11.5548349 2.32882323,8.1270364 L2.44978061,8.036317 L2.41612725,7.89561844 C1.58326444,4.20942047 2.95845072,1.50703751 5.79653398,0.444365687 L6.00679856,0.369545043 C8.33888732,-0.417942131 11.1217356,0.0856703013 12.8227821,1.57058297 Z M21.4375,16.875 C17.175,16.875 14.875,18.20625 14.875,18.75 C14.875,19.29375 17.175,20.625 21.4375,20.625 C25.7,20.625 28,19.29375 28,18.75 C28,18.20625 25.7,16.875 21.4375,16.875 Z" id="Combined-Shape"></path>
        </g>
    </g>
</svg>