<?xml version="1.0" standalone="no"?>
<!DOCTYPE svg PUBLIC "-//W3C//DTD SVG 20010904//EN"
 "http://www.w3.org/TR/2001/REC-SVG-20010904/DTD/svg10.dtd">
<svg version="1.0" xmlns="http://www.w3.org/2000/svg"
 width="64.000000pt" height="64.000000pt" viewBox="0 0 64.000000 64.000000"
 preserveAspectRatio="xMidYMid meet">
<metadata>
Created by potrace 1.16, written by Peter Selinger 2001-2019
</metadata>
<g transform="translate(0.000000,64.000000) scale(0.100000,-0.100000)"
fill="#ffffff" stroke="none">
<path d="M319 557 c-53 -36 -79 -82 -79 -141 l0 -51 -97 -97 c-81 -81 -96
-102 -96 -128 0 -62 77 -97 122 -56 11 10 24 15 29 12 5 -3 15 0 21 8 8 10 6
17 -7 30 -18 15 -20 15 -38 -5 -41 -46 -94 -41 -94 9 0 21 21 49 95 122 94 93
95 95 95 143 0 89 56 147 141 147 110 0 177 -122 118 -217 -31 -50 -71 -67
-144 -60 -61 6 -63 5 -95 -28 -33 -34 -33 -35 -15 -55 10 -11 24 -20 32 -20
16 0 17 22 3 36 -22 22 19 39 89 36 56 -3 71 0 101 20 56 38 80 82 80 148 0
66 -24 110 -79 147 -47 32 -135 32 -182 0z"/>
<path d="M329 491 c-25 -25 -29 -37 -29 -81 0 -44 4 -56 29 -81 25 -25 37 -29
81 -29 44 0 56 4 81 29 25 25 29 37 29 81 0 44 -4 56 -29 81 -25 25 -37 29
-81 29 -44 0 -56 -4 -81 -29z m138 -23 c51 -48 15 -138 -56 -138 -47 0 -81 32
-81 79 0 72 84 109 137 59z"/>
</g>
</svg>
