<?xml version="1.0" encoding="UTF-8"?>
<svg width="30px" height="30px" viewBox="0 0 30 30" version="1.1" xmlns="http://www.w3.org/2000/svg" xmlns:xlink="http://www.w3.org/1999/xlink">
    <!-- Generator: Sketch 63.1 (92452) - https://sketch.com -->
    <desc>Created with Sketch.</desc>
    <g id="icon/01_quality_assurance/06_user_sentiment_analysis" stroke="none" stroke-width="1" fill="none" fill-rule="evenodd">
        <g id="single-neutral-search" fill="#FFFFFF">
            <path d="M13.125,0 C20.3625,0 26.25,5.8875 26.25,13.125 C26.25,16.29125 25.1125,19.32375 23.03875,21.71375 L29.725,28.4 C29.9025,28.5775 30,28.8125 30,29.0625 C30,29.3125 29.9025,29.54875 29.725,29.725 C29.5475,29.90125 29.3125,30 29.0625,30 C28.8125,30 28.57625,29.9025 28.4,29.725 L21.71375,23.03875 C19.32375,25.1125 16.29125,26.25 13.125,26.25 C5.8875,26.25 0,20.3625 0,13.125 C0,5.8875 5.8875,0 13.125,0 Z M13.125,1.875 C6.92125,1.875 1.875,6.92125 1.875,13.125 C1.875,19.32875 6.92125,24.375 13.125,24.375 C19.32875,24.375 24.375,19.32875 24.375,13.125 C24.375,6.92125 19.32875,1.875 13.125,1.875 Z M10.425,10 C12.3145301,10 13.85,11.5354699 13.85,13.425 C13.85,15.1558646 12.5615728,16.589634 10.8928073,16.8182192 C12.6306304,16.9411562 14.2088624,17.8195841 15.2369995,19.207928 C15.545959,19.625131 15.4582102,20.213802 15.0410071,20.5227614 C14.6238041,20.8317209 14.0351331,20.7439721 13.7261737,20.326769 C12.9642741,19.2979387 11.7648909,18.68 10.4608232,18.68 C9.15675545,18.68 7.95737233,19.2979387 7.19547269,20.326769 C6.88651326,20.7439721 6.29784228,20.8317209 5.88063925,20.5227614 C5.46343621,20.213802 5.37568744,19.625131 5.68464686,19.207928 C6.70336481,17.8323033 8.26214436,16.9572943 9.98098227,16.8192142 C8.30075417,16.6033121 7,15.1641248 7,13.425 C7,11.5354699 8.53546994,10 10.425,10 Z M10.425,11.85 C9.55719673,11.85 8.85,12.5571967 8.85,13.425 C8.85,14.2928033 9.55719673,15 10.425,15 C11.2928033,15 12,14.2928033 12,13.425 C12,12.5571967 11.2928033,11.85 10.425,11.85 Z M16.125,13 C16.17,13 16.213,13.004 16.256,13.011 C16.769,13.071 17.179,13.481 17.239,13.994 C17.247,14.036 17.25,14.08 17.25,14.125 C17.25,14.17 17.246,14.213 17.239,14.256 C17.179,14.769 16.769,15.179 16.256,15.239 C16.212,15.245 16.169,15.249 16.124,15.249 C16.08,15.249 16.036,15.245 15.994,15.238 C15.481,15.178 15.071,14.768 15.011,14.255 C15.004,14.213 15,14.169 15,14.125 C15,14.081 15.004,14.037 15.011,13.994 C15.071,13.481 15.481,13.071 15.994,13.011 C16.036,13.003 16.08,13 16.125,13 Z M18.567753,5.19496908 C19.1719588,5.20957442 19.7380574,5.46217506 20.1546375,5.90233575 C21.0227739,6.81972962 21.0227739,8.25649241 20.1509489,9.17708074 L20.1509489,9.17708074 L18.0244443,11.3928382 C17.7473726,11.6585951 17.3819797,11.8057143 16.9992502,11.8057143 C16.5927182,11.8057143 16.2023855,11.636957 15.9285221,11.3462256 L15.9285221,11.3462256 L13.8465584,9.17547999 C12.9773621,8.25706356 12.9767472,6.8198299 13.8423606,5.9057956 C13.8554824,5.89206083 13.8642303,5.88290431 13.8714863,5.87541422 L13.8714863,5.87541422 L14.0658511,5.69846032 C14.4669109,5.37345638 14.9655723,5.19562992 15.4862111,5.19562992 C15.9861574,5.19562992 16.4616132,5.35748492 16.8497099,5.65252364 L16.8497099,5.65252364 L17.001,5.778 L17.0929043,5.69761914 C17.4439025,5.41326623 17.8690306,5.24117076 18.3224764,5.2026214 L18.3224764,5.2026214 L18.5184105,5.1943386 Z M18.537,6.806 L18.5091788,6.80571429 C18.3440808,6.80571429 18.1874783,6.86927044 18.0774641,6.97464672 L18.0774641,6.97464672 L16.999932,8.09554291 L15.9572265,7.01037699 C15.8315105,6.87752643 15.6680411,6.80705849 15.4862111,6.80705849 C15.3173517,6.80705849 15.1598549,6.87059363 15.0354015,6.99034679 L15.0354015,6.99034679 L15.0256775,6.99991799 L14.9398426,7.10401088 C14.7382715,7.39740174 14.7634149,7.7999418 15.0132395,8.06393663 L15.0132395,8.06393663 L16.999,10.135 L18.984401,8.0653962 C19.2362933,7.79940826 19.2614825,7.39701388 19.0598453,7.10345501 L19.0598453,7.10345501 L18.9842317,7.00996941 C18.8622841,6.88111888 18.7032214,6.81014303 18.537,6.806 L18.537,6.806 Z" id="Combined-Shape"></path>
        </g>
    </g>
</svg>