<?xml version="1.0" encoding="utf-8"?>
<!-- Generator: Adobe Illustrator 21.0.0, SVG Export Plug-In . SVG Version: 6.00 Build 0)  -->
<svg version="1.1" id="Layer_1" xmlns="http://www.w3.org/2000/svg" xmlns:xlink="http://www.w3.org/1999/xlink" x="0px" y="0px"
	 viewBox="0 0 273 549" style="enable-background:new 0 0 273 549;" xml:space="preserve">
<style type="text/css">
	.st0{filter:url(#Adobe_OpacityMaskFilter);}
	.st1{fill:#FFFFFF;}
	.st2{mask:url(#mask-2);}
	.st3{fill:#E7F2FF;}
	.st4{fill:#F4F9FF;stroke:#CFE6FF;stroke-width:2;}
	.st5{filter:url(#Adobe_OpacityMaskFilter_1_);}
	.st6{mask:url(#mask-4);}
	.st7{fill:none;stroke:#FFFFFF;stroke-width:6;}
	.st8{fill:none;stroke:#CFE6FF;stroke-width:2;}
	.st9{fill:#FFFFFF;stroke:#CFE6FF;stroke-width:2;}
	.st10{fill:none;stroke:#FF5252;stroke-miterlimit:10;}
</style>
<title>Device-iPhone</title>
<desc>Created with Sketch.</desc>
<g id="Feature-Screens">
	<g id="Artboard">
		<defs>
			<filter id="Adobe_OpacityMaskFilter" filterUnits="userSpaceOnUse" x="0" y="-1" width="273" height="551">
				<feColorMatrix  type="matrix" values="1 0 0 0 0  0 1 0 0 0  0 0 1 0 0  0 0 0 1 0"/>
			</filter>
		</defs>
		<mask maskUnits="userSpaceOnUse" x="0" y="-1" width="273" height="551" id="mask-2">
			<g class="st0">
				<path id="path-1" class="st1" d="M35,0h203c17.7,0,32,14.3,32,32v485c0,17.7-14.3,32-32,32H35c-17.7,0-32-14.3-32-32V32
					C3,14.3,17.3,0,35,0z"/>
			</g>
			<g>
				<path id="path-6" class="st1" d="M20,63h233c2.2,0,4,1.8,4,4v416c0,2.2-1.8,4-4,4H20c-2.2,0-4-1.8-4-4V67C16,64.8,17.8,63,20,63
					z"/>
			</g>
		</mask>
		<g id="Device-iPhone" class="st2">
			<path id="Rectangle-2" class="st3" d="M271,116L271,116c1.1,0,2,0.9,2,2v37c0,1.1-0.9,2-2,2l0,0c-1.1,0-2-0.9-2-2v-37
				C269,116.9,269.9,116,271,116z"/>
			<path id="Rectangle-2_1_" class="st3" d="M2.5,68L2.5,68C3.3,68,4,68.7,4,69.5v19C4,89.3,3.3,90,2.5,90l0,0C1.7,90,1,89.3,1,88.5
				v-19C1,68.7,1.7,68,2.5,68z"/>
			<path id="Rectangle-2_2_" class="st3" d="M2,116L2,116c1.1,0,2,0.9,2,2v37c0,1.1-0.9,2-2,2l0,0c-1.1,0-2-0.9-2-2v-37
				C0,116.9,0.9,116,2,116z"/>
			<path id="Rectangle-2_3_" class="st3" d="M2,166L2,166c1.1,0,2,0.9,2,2v37c0,1.1-0.9,2-2,2l0,0c-1.1,0-2-0.9-2-2v-37
				C0,166.9,0.9,166,2,166z"/>
			<g id="Combined-Shape">
				<path id="path-1_1_" class="st4" d="M35,0h203c17.7,0,32,14.3,32,32v485c0,17.7-14.3,32-32,32H35c-17.7,0-32-14.3-32-32V32
					C3,14.3,17.3,0,35,0z"/>
			</g>
			<defs>
				<filter id="Adobe_OpacityMaskFilter_1_" filterUnits="userSpaceOnUse" x="112" y="489" width="49" height="50">
					<feColorMatrix  type="matrix" values="1 0 0 0 0  0 1 0 0 0  0 0 1 0 0  0 0 0 1 0"/>
				</filter>
			</defs>
			<mask maskUnits="userSpaceOnUse" x="112" y="489" width="49" height="50" id="mask-4">
				<g class="st5">
					<path id="path-3" class="st1" d="M136.5,492L136.5,492c11.9,0,21.5,9.6,21.5,21.5v1c0,11.9-9.6,21.5-21.5,21.5l0,0
						c-11.9,0-21.5-9.6-21.5-21.5v-1C115,501.6,124.6,492,136.5,492z"/>
				</g>
				<g>
					<path id="path-3_1_" class="st1" d="M136.5,492L136.5,492c11.9,0,21.5,9.6,21.5,21.5v1c0,11.9-9.6,21.5-21.5,21.5l0,0
						c-11.9,0-21.5-9.6-21.5-21.5v-1C115,501.6,124.6,492,136.5,492z"/>
				</g>
			</mask>
			<g id="Rectangle-3" class="st6">
				<g>
					<path id="path-3_2_" class="st7" d="M136.5,492L136.5,492c11.9,0,21.5,9.6,21.5,21.5v1c0,11.9-9.6,21.5-21.5,21.5l0,0
						c-11.9,0-21.5-9.6-21.5-21.5v-1C115,501.6,124.6,492,136.5,492z"/>
				</g>
				<g>
					<path id="path-3_3_" class="st8" d="M136.5,492L136.5,492c11.9,0,21.5,9.6,21.5,21.5v1c0,11.9-9.6,21.5-21.5,21.5l0,0
						c-11.9,0-21.5-9.6-21.5-21.5v-1C115,501.6,124.6,492,136.5,492z"/>
				</g>
			</g>
			<path id="Rectangle-4" class="st3" d="M117,33h39c1.7,0,3,1.3,3,3l0,0c0,1.7-1.3,3-3,3h-39c-1.7,0-3-1.3-3-3l0,0
				C114,34.3,115.3,33,117,33z"/>
			<g id="Rectangle-5">
				<path id="path-6_1_" class="st9" d="M20,63h233c2.2,0,4,1.8,4,4v416c0,2.2-1.8,4-4,4H20c-2.2,0-4-1.8-4-4V67
					C16,64.8,17.8,63,20,63z"/>
			</g>
		</g>
	</g>

</g>
<image x="-50" y="59" class="mask" alt="feaure preview img" xlink:href="" width="136%" height="77.7%"></image>
</svg>
