<?xml version="1.0" encoding="UTF-8" standalone="no"?>
<svg width="41px" height="52px" viewBox="0 0 41 52" version="1.1" xmlns="http://www.w3.org/2000/svg" xmlns:xlink="http://www.w3.org/1999/xlink">
    <!-- Generator: Sketch 3.8.3 (29802) - http://www.bohemiancoding.com/sketch -->
    <title>watch-android</title>
    <desc>Created with Sketch.</desc>
    <defs></defs>
    <g id="Create-Project" stroke="none" stroke-width="1" fill="none" fillRule="evenodd" stroke-linecap="round" stroke-linejoin="round">
        <g id="Slices" transform="translate(-995.000000, -526.000000)" stroke="#444444" stroke-width="1.5">
            <g id="watch-android" transform="translate(996.000000, 527.000000)">
                <polyline id="Stroke-5216" fill="#FFFFFF" points="9.76393443 8.40409836 9.76393443 0 26.157377 0 26.157377 8.40409836"></polyline>
                <polyline id="Stroke-5218" fill="#FFFFFF" points="26.1663934 41.1655738 26.1663934 49.6188525 9.77295082 49.6188525 9.77295082 41.1639344"></polyline>
                <polygon id="Stroke-5220" fill="#FFFFFF" points="36.0655738 21.3114754 38.6434426 21.3114754 38.6434426 27.8688525 36.0655738 27.8688525"></polygon>
                <path d="M0,24.5901639 C0,14.6311475 8.07377049,6.55737705 18.0327869,6.55737705 C27.9918033,6.55737705 36.0655738,14.6311475 36.0655738,24.5901639 C36.0655738,34.5491803 27.9918033,42.6229508 18.0327869,42.6229508 C8.07377049,42.6229508 0,34.5491803 0,24.5901639 L0,24.5901639 Z" id="Stroke-5222" fill="#FFFFFF"></path>
                <polyline id="Stroke-5226" points="18.0327869 16.3934426 18.0327869 24.5901639 26.2295082 24.5901639"></polyline>
            </g>
        </g>
    </g>
</svg>