<?xml version="1.0" encoding="UTF-8" standalone="no"?>
<svg width="40px" height="52px" viewBox="0 0 40 52" version="1.1" xmlns="http://www.w3.org/2000/svg" xmlns:xlink="http://www.w3.org/1999/xlink">
    <!-- Generator: Sketch 3.8.3 (29802) - http://www.bohemiancoding.com/sketch -->
    <title>watch-apple</title>
    <desc>Created with Sketch.</desc>
    <defs></defs>
    <g id="Create-Project" stroke="none" stroke-width="1" fill="none" fill-rule="evenodd" stroke-linecap="round" stroke-linejoin="round">
        <g id="Slices" transform="translate(-842.000000, -526.000000)" stroke="#444444" stroke-width="1.60000002">
            <g id="watch-apple" transform="translate(843.000000, 527.000000)">
                <polyline id="Stroke-4797" fill="#FFFFFF" points="6.72727273 8.33333333 8.40909091 0 25.2272727 0 26.9090909 8.33333333"></polyline>
                <polyline id="Stroke-4799" fill="#FFFFFF" points="26.9090909 41.6666667 25.2272727 50 8.40909091 50 6.72727273 41.6666667"></polyline>
                <path d="M30.2727273,41.6666667 L3.36363636,41.6666667 C1.50522727,41.6666667 0,40.175 0,38.3333333 L0,11.6666667 C0,9.825 1.50522727,8.33333333 3.36363636,8.33333333 L30.2727273,8.33333333 C32.1311364,8.33333333 33.6363636,9.825 33.6363636,11.6666667 L33.6363636,38.3333333 C33.6363636,40.175 32.1311364,41.6666667 30.2727273,41.6666667 L30.2727273,41.6666667 Z" id="Stroke-4801" fill="#FFFFFF"></path>
                <polyline id="Stroke-4803" points="34 15 37.3636364 15 37.3636364 21.6666667 34 21.6666667"></polyline>
                <polyline id="Stroke-4803" points="34 25 35 25 35 36 34 36"></polyline>
                <polyline id="Stroke-4821" points="16.8181818 16.6666667 16.8181818 25 25.2272727 25"></polyline>
            </g>
        </g>
    </g>
</svg>