<?xml version="1.0" encoding="UTF-8" standalone="no"?>
<svg width="16px" height="16px" viewBox="0 0 16 16" version="1.1" xmlns="http://www.w3.org/2000/svg" xmlns:xlink="http://www.w3.org/1999/xlink">
    <!-- Generator: Sketch 3.6 (26304) - http://www.bohemiancoding.com/sketch -->
    <title>nav-compete</title>
    <desc>Created with Sketch.</desc>
    <defs></defs>
    <g id="Scaling" stroke="none" stroke-width="1" fill="none" fillRule="evenodd">
        <g id="Components---Desktop" transform="translate(-1093.000000, -446.000000)" fill="#888894">
            <path d="M1106,450 C1107.10457,450 1108,449.104569 1108,448 C1108,446.895431 1107.10457,446 1106,446 C1104.89543,446 1104,446.895431 1104,448 C1104,449.104569 1104.89543,450 1106,450 Z M1108.70703,451.292969 C1108.31641,450.902344 1107.68359,450.902344 1107.29297,451.292969 L1106,452.585938 L1101.70703,448.292969 C1101.43848,448.023926 1101.04199,447.930664 1100.68359,448.05127 L1097.68359,449.05127 C1097.15967,449.226074 1096.87646,449.79248 1097.05127,450.316406 C1097.22607,450.840332 1097.78955,451.125 1098.31641,450.94873 L1100.72998,450.144043 L1101.63129,451.045349 L1099.65625,453.020019 C1099.17285,453.503906 1098.93457,454.171875 1099.00195,454.852539 C1099.06982,455.532227 1099.43457,456.139648 1100.08398,456.566895 L1101.55811,457.359863 L1100.16797,459.445313 C1099.86182,459.904785 1099.98584,460.525879 1100.44531,460.832031 C1100.90324,461.137753 1101.52518,461.014575 1101.83203,460.554688 L1103.83203,457.554688 C1104.15901,457.064226 1103.99244,456.39897 1103.47363,456.119141 L1101.11182,454.854004 C1100.96707,454.757242 1100.95029,454.554594 1101.0708,454.434082 L1103.04541,452.459473 L1105.29297,454.707031 C1105.68361,455.097668 1106.31639,455.097668 1106.70703,454.707031 L1108.70703,452.707031 C1109.09766,452.316406 1109.09766,451.683594 1108.70703,451.292969 Z M1097.29297,456.292969 L1093.29297,460.292969 C1092.90234,460.683594 1092.90234,461.316406 1093.29297,461.707031 C1093.48828,461.902344 1093.74414,462 1094,462 C1094.25586,462 1094.51172,461.902344 1094.70703,461.707031 L1098.70703,457.707031 C1099.09766,457.316406 1099.09766,456.683594 1098.70703,456.292969 C1098.31641,455.902344 1097.68359,455.902344 1097.29297,456.292969 Z" id="nav-compete"></path>
        </g>
    </g>
</svg>