<svg xmlns="http://www.w3.org/2000/svg" xmlns:xlink="http://www.w3.org/1999/xlink" x="0px" y="0px" width="48px" height="48px" viewBox="0 0 48 48"><g >
<polygon fill="#335262" points="44,27 4,27 1,23 5,19 43,19 47,23 "/>
<path fill="#E6E6E6" d="M41,47H7c-1.105,0-2-0.895-2-2V3c0-1.105,0.895-2,2-2l24,0l12,12v32C43,46.105,42.105,47,41,47z"/>
<path fill="#B3B3B3" d="M31,1v10c0,1.105,0.895,2,2,2h10L31,1z"/>
<path fill="#5A7A84" d="M45,41H3c-1.105,0-2-0.895-2-2V23h46v16C47,40.105,46.105,41,45,41z"/>
<path fill="#FFFFFF" d="M19.48,36l-0.387-1.472h-2.552L16.145,36h-2.331l2.562-7.885h2.831L21.801,36H19.48z M18.652,32.788
l-0.338-1.289c-0.078-0.286-0.175-0.657-0.287-1.112c-0.113-0.454-0.188-0.78-0.223-0.977c-0.033,0.182-0.096,0.482-0.191,0.902
c-0.095,0.418-0.305,1.244-0.631,2.476H18.652z"/>
<path fill="#FFFFFF" d="M27.783,33.615c0,0.487-0.123,0.919-0.37,1.297s-0.604,0.672-1.069,0.881
c-0.465,0.21-1.012,0.314-1.638,0.314c-0.522,0-0.962-0.037-1.315-0.11c-0.355-0.073-0.724-0.201-1.107-0.384v-1.891
c0.405,0.208,0.826,0.37,1.263,0.486s0.838,0.174,1.203,0.174c0.315,0,0.546-0.054,0.692-0.163c0.147-0.109,0.221-0.25,0.221-0.422
c0-0.107-0.029-0.201-0.088-0.282c-0.061-0.08-0.154-0.162-0.285-0.244s-0.479-0.251-1.045-0.505
c-0.512-0.232-0.896-0.458-1.152-0.677s-0.445-0.469-0.568-0.752c-0.125-0.283-0.186-0.617-0.186-1.004
c0-0.724,0.263-1.288,0.789-1.692s1.25-0.606,2.17-0.606c0.812,0,1.642,0.188,2.486,0.563l-0.649,1.638
c-0.733-0.336-1.368-0.504-1.901-0.504c-0.275,0-0.477,0.048-0.602,0.145s-0.188,0.217-0.188,0.359c0,0.154,0.079,0.292,0.238,0.414
c0.16,0.122,0.592,0.344,1.297,0.666c0.678,0.305,1.146,0.631,1.41,0.98C27.652,32.646,27.783,33.085,27.783,33.615z"/>
<path fill="#FFFFFF" d="M33.66,36h-4.662v-7.853h4.662v1.702h-2.541v1.236h2.353v1.702h-2.353v1.482h2.541V36z"/>
</g></svg>