<svg xmlns="http://www.w3.org/2000/svg" xmlns:xlink="http://www.w3.org/1999/xlink" x="0px" y="0px" width="48px" height="48px" viewBox="0 0 48 48"><g >
<polygon fill="#CE783E" points="44,27 4,27 1,23 5,19 43,19 47,23 "/>
<path fill="#E6E6E6" d="M41,47H7c-1.105,0-2-0.895-2-2V3c0-1.105,0.895-2,2-2l24,0l12,12v32C43,46.105,42.105,47,41,47z"/>
<path fill="#B3B3B3" d="M31,1v10c0,1.105,0.895,2,2,2h10L31,1z"/>
<path fill="#EA9860" d="M45,41H3c-1.105,0-2-0.895-2-2V23h46v16C47,40.105,46.105,41,45,41z"/>
<path fill="#FFFFFF" d="M12.35,28.147h2.74c1.066,0,1.859,0.158,2.377,0.476c0.517,0.316,0.775,0.81,0.775,1.479
c0,0.44-0.113,0.816-0.338,1.128c-0.227,0.312-0.523,0.512-0.893,0.602v0.054c0.487,0.129,0.84,0.344,1.059,0.645
s0.328,0.691,0.328,1.171c0,0.713-0.268,1.273-0.803,1.684C17.06,35.795,16.33,36,15.406,36H12.35V28.147z M14.472,31.16h0.64
c0.304,0,0.539-0.062,0.705-0.188c0.168-0.125,0.25-0.312,0.25-0.559c0-0.44-0.332-0.66-0.998-0.66h-0.597V31.16z M14.472,32.713
v1.648h0.747c0.662,0,0.993-0.279,0.993-0.838c0-0.261-0.089-0.461-0.267-0.602c-0.176-0.139-0.434-0.209-0.77-0.209H14.472z"/>
<path fill="#FFFFFF" d="M23.184,36l-1.605-5.656h-0.049c0.075,0.964,0.113,1.712,0.113,2.246V36h-1.881v-7.853h2.826l1.638,5.575
h0.043l1.606-5.575h2.83V36h-1.949v-3.443c0-0.179,0.002-0.377,0.008-0.596s0.029-0.754,0.072-1.605h-0.049L25.203,36H23.184z"/>
<path fill="#FFFFFF" d="M36.096,30.645c0,0.878-0.259,1.556-0.775,2.033c-0.518,0.479-1.253,0.717-2.205,0.717h-0.597V36h-2.122
v-7.853h2.719c0.991,0,1.736,0.217,2.234,0.649C35.847,29.23,36.096,29.847,36.096,30.645z M32.519,31.666h0.387
c0.319,0,0.571-0.09,0.761-0.27c0.188-0.179,0.281-0.426,0.281-0.74c0-0.53-0.293-0.795-0.881-0.795h-0.548V31.666z"/>
</g></svg>