<svg xmlns="http://www.w3.org/2000/svg" xmlns:xlink="http://www.w3.org/1999/xlink" x="0px" y="0px" width="48px" height="48px" viewBox="0 0 48 48"><g >
<polygon fill="#03283A" points="44,27 4,27 1,23 5,19 43,19 47,23 "/>
<path fill="#E6E6E6" d="M41,47H7c-1.105,0-2-0.895-2-2V3c0-1.105,0.895-2,2-2l24,0l12,12v32C43,46.105,42.105,47,41,47z"/>
<path fill="#B3B3B3" d="M31,1v10c0,1.105,0.895,2,2,2h10L31,1z"/>
<path fill="#003F66" d="M45,41H3c-1.105,0-2-0.895-2-2V23h46v16C47,40.105,46.105,41,45,41z"/>
<path fill="#FFFFFF" d="M18.79,29.775c-0.505,0-0.899,0.206-1.182,0.62c-0.282,0.413-0.425,0.983-0.425,1.71
c0,1.512,0.575,2.268,1.725,2.268c0.348,0,0.684-0.049,1.01-0.146s0.653-0.213,0.982-0.349v1.793
c-0.654,0.291-1.396,0.436-2.223,0.436c-1.186,0-2.094-0.344-2.727-1.031c-0.632-0.688-0.947-1.682-0.947-2.98
c0-0.813,0.152-1.527,0.459-2.144s0.746-1.09,1.32-1.421c0.576-0.331,1.252-0.496,2.028-0.496c0.849,0,1.659,0.184,2.433,0.553
l-0.649,1.67c-0.29-0.136-0.58-0.25-0.87-0.344C19.435,29.821,19.123,29.775,18.79,29.775z"/>
<path fill="#FFFFFF" d="M25.584,31.402h3.39v4.232c-0.921,0.315-1.932,0.473-3.034,0.473c-1.211,0-2.146-0.351-2.807-1.053
c-0.661-0.702-0.991-1.703-0.991-3.002c0-1.268,0.362-2.255,1.085-2.96s1.736-1.058,3.04-1.058c0.494,0,0.96,0.046,1.399,0.139
c0.438,0.094,0.82,0.212,1.146,0.355l-0.672,1.664c-0.565-0.279-1.187-0.418-1.863-0.418c-0.619,0-1.099,0.201-1.437,0.604
c-0.339,0.403-0.508,0.979-0.508,1.727c0,0.734,0.153,1.294,0.459,1.679c0.307,0.385,0.747,0.577,1.324,0.577
c0.315,0,0.604-0.03,0.87-0.091v-1.229h-1.402V31.402z"/>
<path fill="#FFFFFF" d="M30.574,36v-7.853h2.133V36H30.574z"/>
</g></svg>