<svg xmlns="http://www.w3.org/2000/svg" xmlns:xlink="http://www.w3.org/1999/xlink" x="0px" y="0px" width="48px" height="48px" viewBox="0 0 48 48"><g >
<polygon fill="#D86D0E" points="44,27 4,27 1,23 5,19 43,19 47,23 "/>
<path fill="#E6E6E6" d="M41,47H7c-1.105,0-2-0.895-2-2V3c0-1.105,0.895-2,2-2l24,0l12,12v32C43,46.105,42.105,47,41,47z"/>
<path fill="#B3B3B3" d="M31,1v10c0,1.105,0.895,2,2,2h10L31,1z"/>
<path fill="#FF7F00" d="M45,41H3c-1.105,0-2-0.895-2-2V23h46v16C47,40.105,46.105,41,45,41z"/>
<path fill="#FFFFFF" d="M19.843,36h-4.662v-7.853h4.662v1.702h-2.541v1.236h2.353v1.702h-2.353v1.482h2.541V36z"/>
<path fill="#FFFFFF" d="M26.917,30.645c0,0.878-0.259,1.556-0.776,2.033c-0.518,0.479-1.252,0.717-2.205,0.717h-0.596V36h-2.122
v-7.853h2.718c0.992,0,1.737,0.217,2.234,0.649C26.667,29.23,26.917,29.847,26.917,30.645z M23.339,31.666h0.387
c0.319,0,0.572-0.09,0.76-0.27c0.188-0.179,0.282-0.426,0.282-0.74c0-0.53-0.293-0.795-0.881-0.795h-0.548V31.666z"/>
<path fill="#FFFFFF" d="M33.303,33.615c0,0.487-0.124,0.919-0.371,1.297s-0.604,0.672-1.069,0.881
c-0.465,0.21-1.012,0.314-1.638,0.314c-0.523,0-0.961-0.037-1.316-0.11s-0.723-0.201-1.106-0.384v-1.891
c0.405,0.208,0.825,0.37,1.262,0.486s0.838,0.174,1.203,0.174c0.315,0,0.546-0.054,0.693-0.163s0.22-0.25,0.22-0.422
c0-0.107-0.03-0.201-0.088-0.282c-0.06-0.08-0.154-0.162-0.285-0.244c-0.13-0.082-0.479-0.251-1.044-0.505
c-0.512-0.232-0.896-0.458-1.152-0.677c-0.256-0.219-0.446-0.469-0.569-0.752c-0.124-0.283-0.186-0.617-0.186-1.004
c0-0.724,0.263-1.288,0.79-1.692s1.25-0.606,2.17-0.606c0.813,0,1.642,0.188,2.487,0.563l-0.65,1.638
c-0.734-0.336-1.368-0.504-1.901-0.504c-0.276,0-0.476,0.048-0.602,0.145s-0.188,0.217-0.188,0.359c0,0.154,0.08,0.292,0.239,0.414
c0.159,0.122,0.591,0.344,1.297,0.666c0.677,0.305,1.146,0.631,1.41,0.98C33.171,32.646,33.303,33.085,33.303,33.615z"/>
</g></svg>