<svg xmlns="http://www.w3.org/2000/svg" xmlns:xlink="http://www.w3.org/1999/xlink" x="0px" y="0px" width="48px" height="48px" viewBox="0 0 48 48"><g >
<polygon fill="#161616" points="44,27 4,27 1,23 5,19 43,19 47,23 "/>
<path fill="#E6E6E6" d="M41,47H7c-1.105,0-2-0.895-2-2V3c0-1.105,0.895-2,2-2l24,0l12,12v32C43,46.105,42.105,47,41,47z"/>
<path fill="#B3B3B3" d="M31,1v10c0,1.105,0.895,2,2,2h10L31,1z"/>
<path fill="#444444" d="M45,41H3c-1.105,0-2-0.895-2-2V23h46v16C47,40.105,46.105,41,45,41z"/>
<path fill="#FFFFFF" d="M11.754,36H9.665v-7.853h4.641v1.702h-2.551v1.499h2.353v1.702h-2.353V36z"/>
<path fill="#FFFFFF" d="M22.942,32.062c0,1.322-0.324,2.326-0.972,3.014s-1.597,1.031-2.847,1.031c-1.232,0-2.176-0.346-2.833-1.037
c-0.657-0.69-0.985-1.697-0.985-3.018c0-1.308,0.327-2.306,0.98-2.995c0.653-0.689,1.603-1.034,2.849-1.034
c1.25,0,2.197,0.343,2.841,1.026S22.942,30.738,22.942,32.062z M17.539,32.062c0,1.519,0.528,2.277,1.584,2.277
c0.537,0,0.936-0.184,1.195-0.553c0.26-0.369,0.39-0.943,0.39-1.725c0-0.783-0.132-1.363-0.395-1.737
c-0.264-0.374-0.656-0.562-1.179-0.562C18.07,29.764,17.539,30.53,17.539,32.062z"/>
<path fill="#FFFFFF" d="M31.836,36h-2.782l-2.868-5.532h-0.048c0.068,0.87,0.102,1.534,0.102,1.993V36h-1.88v-7.853h2.771
l2.857,5.457h0.032c-0.05-0.791-0.075-1.427-0.075-1.907v-3.55h1.891V36z"/>
<path fill="#FFFFFF" d="M36.998,36h-2.122v-6.117h-1.917v-1.735h5.951v1.735h-1.912V36z"/>
</g></svg>