<svg xmlns="http://www.w3.org/2000/svg" xmlns:xlink="http://www.w3.org/1999/xlink" x="0px" y="0px" width="48px" height="48px" viewBox="0 0 48 48"><g >
<polygon fill="#C14287" points="44,27 4,27 1,23 5,19 43,19 47,23 "/>
<path fill="#E6E6E6" d="M41,47H7c-1.105,0-2-0.895-2-2V3c0-1.105,0.895-2,2-2l24,0l12,12v32C43,46.105,42.105,47,41,47z"/>
<path fill="#B3B3B3" d="M31,1v10c0,1.105,0.895,2,2,2h10L31,1z"/>
<path fill="#ED69AB" d="M45,41H3c-1.105,0-2-0.895-2-2V23h46v16C47,40.105,46.105,41,45,41z"/>
<path fill="#FFFFFF" d="M16.479,31.402h3.389v4.232c-0.92,0.315-1.932,0.473-3.035,0.473c-1.21,0-2.146-0.351-2.806-1.053
c-0.661-0.702-0.991-1.703-0.991-3.002c0-1.268,0.361-2.255,1.085-2.96s1.737-1.058,3.04-1.058c0.494,0,0.961,0.046,1.399,0.139
c0.438,0.094,0.821,0.212,1.146,0.355l-0.671,1.664c-0.566-0.279-1.188-0.418-1.864-0.418c-0.62,0-1.099,0.201-1.437,0.604
c-0.339,0.403-0.508,0.979-0.508,1.727c0,0.734,0.153,1.294,0.459,1.679c0.307,0.385,0.748,0.577,1.324,0.577
c0.314,0,0.605-0.03,0.87-0.091v-1.229h-1.401V31.402z"/>
<path fill="#FFFFFF" d="M27.166,30.645c0,0.878-0.258,1.556-0.775,2.033c-0.518,0.479-1.252,0.717-2.205,0.717H23.59V36h-2.122
v-7.853h2.718c0.992,0,1.736,0.217,2.234,0.649C26.918,29.23,27.166,29.847,27.166,30.645z M23.59,31.666h0.387
c0.318,0,0.571-0.09,0.76-0.27c0.188-0.179,0.281-0.426,0.281-0.74c0-0.53-0.293-0.795-0.881-0.795H23.59V31.666z"/>
<path fill="#FFFFFF" d="M35.492,36h-2.455l-1.531-2.455L29.992,36h-2.401l2.604-4.018l-2.449-3.835H30.1l1.418,2.428l1.363-2.428
h2.423l-2.487,4.001L35.492,36z"/>
</g></svg>