<svg xmlns="http://www.w3.org/2000/svg" xmlns:xlink="http://www.w3.org/1999/xlink" x="0px" y="0px" width="48px" height="48px" viewBox="0 0 48 48"><g >
<polygon fill="#CC4842" points="44,27 4,27 1,23 5,19 43,19 47,23 "/>
<path fill="#E6E6E6" d="M41,47H7c-1.105,0-2-0.895-2-2V3c0-1.105,0.895-2,2-2l24,0l12,12v32C43,46.105,42.105,47,41,47z"/>
<path fill="#B3B3B3" d="M31,1v10c0,1.105,0.895,2,2,2h10L31,1z"/>
<path fill="#E86C60" d="M45,41H3c-1.105,0-2-0.895-2-2V23h46v16C47,40.105,46.105,41,45,41z"/>
<path fill="#FFFFFF" d="M16.19,36v-7.853h2.132V36H16.19z"/>
<path fill="#FFFFFF" d="M23.517,29.775c-0.505,0-0.899,0.206-1.182,0.62c-0.282,0.413-0.425,0.983-0.425,1.71
c0,1.512,0.575,2.268,1.725,2.268c0.348,0,0.684-0.049,1.01-0.146s0.653-0.213,0.982-0.349v1.793
c-0.654,0.291-1.396,0.436-2.223,0.436c-1.186,0-2.094-0.344-2.727-1.031c-0.632-0.688-0.947-1.682-0.947-2.98
c0-0.813,0.152-1.527,0.459-2.144s0.746-1.09,1.32-1.421c0.576-0.331,1.252-0.496,2.028-0.496c0.849,0,1.659,0.184,2.433,0.553
l-0.649,1.67c-0.29-0.136-0.58-0.25-0.87-0.344C24.161,29.821,23.85,29.775,23.517,29.775z"/>
<path fill="#FFFFFF" d="M32.293,33.615c0,0.487-0.123,0.919-0.371,1.297c-0.246,0.378-0.604,0.672-1.068,0.881
c-0.465,0.21-1.012,0.314-1.639,0.314c-0.522,0-0.961-0.037-1.315-0.11s-0.724-0.201-1.106-0.384v-1.891
c0.404,0.208,0.825,0.37,1.262,0.486c0.438,0.116,0.838,0.174,1.203,0.174c0.315,0,0.547-0.054,0.693-0.163s0.221-0.25,0.221-0.422
c0-0.107-0.03-0.201-0.089-0.282c-0.06-0.08-0.154-0.162-0.285-0.244c-0.13-0.082-0.479-0.251-1.044-0.505
c-0.513-0.232-0.896-0.458-1.152-0.677s-0.446-0.469-0.569-0.752c-0.124-0.283-0.186-0.617-0.186-1.004
c0-0.724,0.263-1.288,0.79-1.692c0.525-0.404,1.249-0.606,2.17-0.606c0.812,0,1.641,0.188,2.486,0.563l-0.65,1.638
c-0.733-0.336-1.367-0.504-1.9-0.504c-0.276,0-0.477,0.048-0.602,0.145c-0.126,0.097-0.188,0.217-0.188,0.359
c0,0.154,0.079,0.292,0.239,0.414c0.159,0.122,0.592,0.344,1.297,0.666c0.677,0.305,1.146,0.631,1.41,0.98
C32.161,32.646,32.293,33.085,32.293,33.615z"/>
</g></svg>