<svg xmlns="http://www.w3.org/2000/svg" xmlns:xlink="http://www.w3.org/1999/xlink" x="0px" y="0px" width="48px" height="48px" viewBox="0 0 48 48"><g >
<polygon fill="#939393" points="44,27 4,27 1,23 5,19 43,19 47,23 "/>
<path fill="#E6E6E6" d="M41,47H7c-1.105,0-2-0.895-2-2V3c0-1.105,0.895-2,2-2l24,0l12,12v32C43,46.105,42.105,47,41,47z"/>
<path fill="#B3B3B3" d="M31,1v10c0,1.105,0.895,2,2,2h10L31,1z"/>
<path fill="#B3B3B3" d="M45,41H3c-1.105,0-2-0.895-2-2V23h46v16C47,40.105,46.105,41,45,41z"/>
<path fill="#FFFFFF" d="M13.193,36v-7.853h2.122v6.14h3.024V36H13.193z"/>
<path fill="#FFFFFF" d="M26.943,32.062c0,1.322-0.324,2.326-0.972,3.014s-1.597,1.031-2.847,1.031c-1.232,0-2.176-0.346-2.833-1.037
c-0.657-0.69-0.985-1.697-0.985-3.018c0-1.308,0.327-2.306,0.98-2.995c0.653-0.689,1.603-1.034,2.849-1.034
c1.25,0,2.197,0.343,2.841,1.026S26.943,30.738,26.943,32.062z M21.54,32.062c0,1.519,0.528,2.277,1.584,2.277
c0.537,0,0.936-0.184,1.195-0.553c0.26-0.369,0.39-0.943,0.39-1.725c0-0.783-0.132-1.363-0.395-1.737
c-0.264-0.374-0.656-0.562-1.179-0.562C22.072,29.764,21.54,30.53,21.54,32.062z"/>
<path fill="#FFFFFF" d="M31.514,31.402h3.389v4.232c-0.92,0.315-1.932,0.473-3.035,0.473c-1.21,0-2.146-0.351-2.806-1.053
c-0.661-0.702-0.991-1.703-0.991-3.002c0-1.268,0.362-2.255,1.085-2.96s1.737-1.058,3.04-1.058c0.494,0,0.96,0.046,1.399,0.139
c0.438,0.094,0.821,0.212,1.146,0.355l-0.671,1.664c-0.566-0.279-1.187-0.418-1.864-0.418c-0.62,0-1.099,0.201-1.437,0.604
c-0.339,0.403-0.508,0.979-0.508,1.727c0,0.734,0.153,1.294,0.459,1.679c0.307,0.385,0.748,0.577,1.324,0.577
c0.315,0,0.605-0.03,0.87-0.091v-1.229h-1.402V31.402z"/>
</g></svg>