<svg xmlns="http://www.w3.org/2000/svg" xmlns:xlink="http://www.w3.org/1999/xlink" x="0px" y="0px" width="48px" height="48px" viewBox="0 0 48 48"><g >
<polygon fill="#006D6A" points="44,27 4,27 1,23 5,19 43,19 47,23 "/>
<path fill="#E6E6E6" d="M41,47H7c-1.105,0-2-0.895-2-2V3c0-1.105,0.895-2,2-2l24,0l12,12v32C43,46.105,42.105,47,41,47z"/>
<path fill="#B3B3B3" d="M31,1v10c0,1.105,0.895,2,2,2h10L31,1z"/>
<path fill="#00AAAB" d="M45,41H3c-1.105,0-2-0.895-2-2V23h46v16C47,40.105,46.105,41,45,41z"/>
<path fill="#FFFFFF" d="M14.982,36l-1.606-5.656h-0.048c0.074,0.964,0.112,1.712,0.112,2.246V36h-1.88v-7.853h2.825l1.638,5.575
h0.043l1.606-5.575h2.831V36h-1.95v-3.443c0-0.179,0.003-0.377,0.008-0.596c0.006-0.219,0.03-0.754,0.073-1.605h-0.049L17.002,36
H14.982z"/>
<path fill="#FFFFFF" d="M27.014,36l-0.387-1.472h-2.552L23.678,36h-2.331l2.562-7.885h2.831L29.334,36H27.014z M26.186,32.788
l-0.338-1.289c-0.078-0.286-0.175-0.657-0.287-1.112c-0.113-0.454-0.188-0.78-0.223-0.977c-0.033,0.182-0.096,0.482-0.191,0.902
c-0.095,0.418-0.305,1.244-0.631,2.476H26.186z"/>
<path fill="#FFFFFF" d="M37.256,36h-2.455l-1.53-2.455L31.756,36h-2.4l2.604-4.018l-2.449-3.835h2.353l1.418,2.428l1.364-2.428
h2.423l-2.487,4.001L37.256,36z"/>
</g></svg>