<svg xmlns="http://www.w3.org/2000/svg" xmlns:xlink="http://www.w3.org/1999/xlink" x="0px" y="0px" width="48px" height="48px" viewBox="0 0 48 48"><g >
<polygon fill="#CE783E" points="44,27 4,27 1,23 5,19 43,19 47,23 "/>
<path fill="#E6E6E6" d="M41,47H7c-1.105,0-2-0.895-2-2V3c0-1.105,0.895-2,2-2l24,0l12,12v32C43,46.105,42.105,47,41,47z"/>
<path fill="#B3B3B3" d="M31,1v10c0,1.105,0.895,2,2,2h10L31,1z"/>
<path fill="#EA9860" d="M45,41H3c-1.105,0-2-0.895-2-2V23h46v16C47,40.105,46.105,41,45,41z"/>
<path fill="#FFFFFF" d="M16.255,36l-1.606-5.656h-0.048c0.075,0.964,0.113,1.712,0.113,2.246V36h-1.88v-7.853h2.825l1.638,5.575
h0.043l1.606-5.575h2.831V36h-1.95v-3.443c0-0.179,0.003-0.377,0.008-0.596c0.006-0.219,0.03-0.754,0.073-1.605h-0.048L18.274,36
H16.255z"/>
<path fill="#FFFFFF" d="M29.167,30.645c0,0.878-0.259,1.556-0.776,2.033c-0.518,0.479-1.252,0.717-2.205,0.717H25.59V36h-2.122
v-7.853h2.718c0.992,0,1.737,0.217,2.234,0.649C28.918,29.23,29.167,29.847,29.167,30.645z M25.59,31.666h0.387
c0.319,0,0.572-0.09,0.76-0.27c0.188-0.179,0.282-0.426,0.282-0.74c0-0.53-0.293-0.795-0.881-0.795H25.59V31.666z"/>
<path fill="#FFFFFF" d="M35.333,29.85c0,0.487-0.148,0.905-0.446,1.255c-0.297,0.349-0.727,0.603-1.289,0.76v0.032
c1.311,0.165,1.966,0.784,1.966,1.858c0,0.73-0.289,1.306-0.867,1.724c-0.579,0.42-1.381,0.629-2.409,0.629
c-0.422,0-0.813-0.03-1.174-0.092c-0.359-0.061-0.749-0.172-1.168-0.332v-1.762c0.344,0.175,0.694,0.305,1.05,0.389
c0.356,0.084,0.685,0.127,0.986,0.127c0.465,0,0.805-0.065,1.018-0.196c0.213-0.131,0.319-0.336,0.319-0.615
c0-0.215-0.056-0.381-0.167-0.497s-0.29-0.204-0.537-0.263c-0.247-0.06-0.569-0.089-0.967-0.089h-0.483v-1.596h0.494
c1.078,0,1.617-0.275,1.617-0.826c0-0.208-0.08-0.362-0.239-0.463c-0.159-0.1-0.373-0.15-0.642-0.15
c-0.501,0-1.021,0.169-1.558,0.506l-0.881-1.418c0.416-0.287,0.841-0.491,1.275-0.613c0.436-0.121,0.934-0.182,1.496-0.182
c0.813,0,1.45,0.16,1.912,0.482S35.333,29.284,35.333,29.85z"/>
</g></svg>