<svg xmlns="http://www.w3.org/2000/svg" xmlns:xlink="http://www.w3.org/1999/xlink" x="0px" y="0px" width="48px" height="48px" viewBox="0 0 48 48"><g >
<polygon fill="#458BC4" points="44,27 4,27 1,23 5,19 43,19 47,23 "/>
<path fill="#E6E6E6" d="M41,47H7c-1.105,0-2-0.895-2-2V3c0-1.105,0.895-2,2-2l24,0l12,12v32C43,46.105,42.105,47,41,47z"/>
<path fill="#B3B3B3" d="M31,1v10c0,1.105,0.895,2,2,2h10L31,1z"/>
<path fill="#43A6DD" d="M45,41H3c-1.105,0-2-0.895-2-2V23h46v16C47,40.105,46.105,41,45,41z"/>
<path fill="#FFFFFF" d="M16.255,36l-1.606-5.656h-0.048c0.075,0.964,0.113,1.712,0.113,2.246V36h-1.88v-7.853h2.825l1.638,5.575
h0.043l1.606-5.575h2.831V36h-1.95v-3.443c0-0.179,0.003-0.377,0.008-0.596c0.006-0.219,0.03-0.754,0.073-1.605h-0.048L18.274,36
H16.255z"/>
<path fill="#FFFFFF" d="M29.167,30.645c0,0.878-0.259,1.556-0.776,2.033c-0.518,0.479-1.252,0.717-2.205,0.717H25.59V36h-2.122
v-7.853h2.718c0.992,0,1.737,0.217,2.234,0.649C28.918,29.23,29.167,29.847,29.167,30.645z M25.59,31.666h0.387
c0.319,0,0.572-0.09,0.76-0.27c0.188-0.179,0.282-0.426,0.282-0.74c0-0.53-0.293-0.795-0.881-0.795H25.59V31.666z"/>
<path fill="#FFFFFF" d="M35.849,34.48h-0.865V36h-2.095v-1.52h-3.131v-1.559l3.266-4.774h1.96v4.748h0.865V34.48z M32.889,32.896
v-0.913c0-0.172,0.006-0.403,0.019-0.695c0.013-0.292,0.022-0.445,0.03-0.459h-0.059c-0.122,0.275-0.26,0.533-0.414,0.773
l-0.87,1.294H32.889z"/>
</g></svg>