<svg xmlns="http://www.w3.org/2000/svg" xmlns:xlink="http://www.w3.org/1999/xlink" x="0px" y="0px" width="48px" height="48px" viewBox="0 0 48 48"><g >
<polygon fill="#C9AA28" points="44,27 4,27 1,23 5,19 43,19 47,23 "/>
<path fill="#E6E6E6" d="M41,47H7c-1.105,0-2-0.895-2-2V3c0-1.105,0.895-2,2-2l24,0l12,12v32C43,46.105,42.105,47,41,47z"/>
<path fill="#B3B3B3" d="M31,1v10c0,1.105,0.895,2,2,2h10L31,1z"/>
<path fill="#EFD358" d="M45,41H3c-1.105,0-2-0.895-2-2V23h46v16C47,40.105,46.105,41,45,41z"/>
<path fill="#FFFFFF" d="M15.406,36l-1.605-5.656h-0.049c0.075,0.964,0.113,1.712,0.113,2.246V36h-1.881v-7.853h2.826l1.638,5.575
h0.043l1.606-5.575h2.83V36h-1.949v-3.443c0-0.179,0.002-0.377,0.008-0.596s0.029-0.754,0.072-1.605H19.01L17.426,36H15.406z"/>
<path fill="#FFFFFF" d="M28.318,30.645c0,0.878-0.259,1.556-0.775,2.033c-0.518,0.479-1.253,0.717-2.205,0.717h-0.597V36h-2.122
v-7.853h2.719c0.991,0,1.736,0.217,2.234,0.649C28.069,29.23,28.318,29.847,28.318,30.645z M24.741,31.666h0.387
c0.319,0,0.571-0.09,0.761-0.27c0.188-0.179,0.281-0.426,0.281-0.74c0-0.53-0.293-0.795-0.881-0.795h-0.548V31.666z"/>
<path fill="#FFFFFF" d="M32.723,31.402h3.389v4.232c-0.92,0.315-1.932,0.473-3.034,0.473c-1.21,0-2.146-0.351-2.806-1.053
c-0.662-0.702-0.992-1.703-0.992-3.002c0-1.268,0.362-2.255,1.086-2.96c0.723-0.705,1.736-1.058,3.039-1.058
c0.494,0,0.961,0.046,1.4,0.139c0.438,0.094,0.82,0.212,1.146,0.355l-0.672,1.664c-0.566-0.279-1.188-0.418-1.863-0.418
c-0.62,0-1.1,0.201-1.438,0.604c-0.338,0.403-0.508,0.979-0.508,1.727c0,0.734,0.154,1.294,0.459,1.679
c0.307,0.385,0.748,0.577,1.324,0.577c0.315,0,0.605-0.03,0.871-0.091v-1.229h-1.402V31.402z"/>
</g></svg>