<svg xmlns="http://www.w3.org/2000/svg" xmlns:xlink="http://www.w3.org/1999/xlink" x="0px" y="0px" width="48px" height="48px" viewBox="0 0 48 48"><g >
<polygon fill="#3E6193" points="44,27 4,27 1,23 5,19 43,19 47,23 "/>
<path fill="#E6E6E6" d="M41,47H7c-1.105,0-2-0.895-2-2V3c0-1.105,0.895-2,2-2l24,0l12,12v32C43,46.105,42.105,47,41,47z"/>
<path fill="#B3B3B3" d="M31,1v10c0,1.105,0.895,2,2,2h10L31,1z"/>
<path fill="#5F81BD" d="M45,41H3c-1.105,0-2-0.895-2-2V23h46v16C47,40.105,46.105,41,45,41z"/>
<path fill="#FFFFFF" d="M19.383,30.645c0,0.878-0.258,1.556-0.775,2.033c-0.518,0.479-1.252,0.717-2.205,0.717h-0.596V36h-2.122
v-7.853h2.718c0.992,0,1.736,0.217,2.234,0.649C19.135,29.23,19.383,29.847,19.383,30.645z M15.807,31.666h0.387
c0.318,0,0.571-0.09,0.76-0.27c0.188-0.179,0.281-0.426,0.281-0.74c0-0.53-0.293-0.795-0.881-0.795h-0.547V31.666z"/>
<path fill="#FFFFFF" d="M27.365,36h-2.133v-3.201h-2.465V36h-2.133v-7.853h2.133v2.911h2.465v-2.911h2.133V36z"/>
<path fill="#FFFFFF" d="M34.761,30.645c0,0.878-0.259,1.556-0.776,2.033c-0.518,0.479-1.252,0.717-2.205,0.717h-0.596V36h-2.121
v-7.853h2.717c0.992,0,1.737,0.217,2.234,0.649C34.512,29.23,34.761,29.847,34.761,30.645z M31.184,31.666h0.387
c0.318,0,0.572-0.09,0.76-0.27c0.188-0.179,0.282-0.426,0.282-0.74c0-0.53-0.294-0.795-0.881-0.795h-0.548V31.666z"/>
</g></svg>