<svg xmlns="http://www.w3.org/2000/svg" xmlns:xlink="http://www.w3.org/1999/xlink" x="0px" y="0px" width="48px" height="48px" viewBox="0 0 48 48"><g >
<polygon fill="#AA1D17" points="44,27 4,27 1,23 5,19 43,19 47,23 "/>
<path fill="#E6E6E6" d="M41,47H7c-1.105,0-2-0.895-2-2V3c0-1.105,0.895-2,2-2l24,0l12,12v32C43,46.105,42.105,47,41,47z"/>
<path fill="#B3B3B3" d="M31,1v10c0,1.105,0.895,2,2,2h10L31,1z"/>
<path fill="#CE3226" d="M45,41H3c-1.105,0-2-0.895-2-2V23h46v16C47,40.105,46.105,41,45,41z"/>
<path fill="#FFFFFF" d="M19.542,33.143V36H17.42v-7.853h2.573c2.134,0,3.201,0.773,3.201,2.32c0,0.909-0.444,1.613-1.332,2.11
L24.15,36h-2.406l-1.665-2.857H19.542z M19.542,31.547h0.397c0.741,0,1.112-0.327,1.112-0.982c0-0.541-0.363-0.811-1.09-0.811
h-0.419V31.547z"/>
<path fill="#FFFFFF" d="M24.865,28.147h2.739c1.067,0,1.859,0.158,2.377,0.476c0.517,0.316,0.776,0.81,0.776,1.479
c0,0.44-0.113,0.816-0.338,1.128s-0.523,0.512-0.892,0.602v0.054c0.487,0.129,0.84,0.344,1.058,0.645s0.328,0.691,0.328,1.171
c0,0.713-0.268,1.273-0.803,1.684C29.574,35.795,28.845,36,27.921,36h-3.056V28.147z M26.986,31.16h0.639
c0.304,0,0.54-0.062,0.706-0.188c0.167-0.125,0.25-0.312,0.25-0.559c0-0.44-0.333-0.66-0.999-0.66h-0.596V31.16z M26.986,32.713
v1.648h0.747c0.663,0,0.994-0.279,0.994-0.838c0-0.261-0.088-0.461-0.266-0.602c-0.177-0.139-0.434-0.209-0.771-0.209H26.986z"/>
</g></svg>