<svg xmlns="http://www.w3.org/2000/svg" xmlns:xlink="http://www.w3.org/1999/xlink" x="0px" y="0px" width="48px" height="48px" viewBox="0 0 48 48"><g >
<polygon fill="#CE783E" points="44,27 4,27 1,23 5,19 43,19 47,23 "/>
<path fill="#E6E6E6" d="M41,47H7c-1.105,0-2-0.895-2-2V3c0-1.105,0.895-2,2-2l24,0l12,12v32C43,46.105,42.105,47,41,47z"/>
<path fill="#B3B3B3" d="M31,1v10c0,1.105,0.895,2,2,2h10L31,1z"/>
<path fill="#EA9860" d="M45,41H3c-1.105,0-2-0.895-2-2V23h46v16C47,40.105,46.105,41,45,41z"/>
<path fill="#FFFFFF" d="M16.899,33.143V36h-2.122v-7.853h2.573c2.134,0,3.201,0.773,3.201,2.32c0,0.909-0.444,1.613-1.332,2.11
L21.508,36h-2.406l-1.665-2.857H16.899z M16.899,31.547h0.397c0.741,0,1.111-0.327,1.111-0.982c0-0.541-0.363-0.811-1.09-0.811
h-0.419V31.547z"/>
<path fill="#FFFFFF" d="M27.357,33.615c0,0.487-0.124,0.919-0.371,1.297s-0.604,0.672-1.068,0.881
c-0.466,0.21-1.012,0.314-1.639,0.314c-0.523,0-0.961-0.037-1.316-0.11c-0.354-0.073-0.723-0.201-1.105-0.384v-1.891
c0.404,0.208,0.824,0.37,1.262,0.486s0.838,0.174,1.203,0.174c0.314,0,0.546-0.054,0.693-0.163c0.146-0.109,0.22-0.25,0.22-0.422
c0-0.107-0.03-0.201-0.089-0.282c-0.059-0.08-0.154-0.162-0.285-0.244c-0.13-0.082-0.479-0.251-1.044-0.505
c-0.513-0.232-0.896-0.458-1.151-0.677c-0.257-0.219-0.447-0.469-0.57-0.752s-0.186-0.617-0.186-1.004
c0-0.724,0.264-1.288,0.79-1.692s1.249-0.606,2.17-0.606c0.813,0,1.642,0.188,2.487,0.563l-0.65,1.638
c-0.734-0.336-1.367-0.504-1.901-0.504c-0.276,0-0.476,0.048-0.602,0.145s-0.188,0.217-0.188,0.359c0,0.154,0.08,0.292,0.24,0.414
c0.158,0.122,0.591,0.344,1.297,0.666c0.676,0.305,1.146,0.631,1.41,0.98C27.225,32.646,27.357,33.085,27.357,33.615z"/>
<path fill="#FFFFFF" d="M33.705,33.615c0,0.487-0.123,0.919-0.37,1.297s-0.604,0.672-1.069,0.881
c-0.465,0.21-1.012,0.314-1.638,0.314c-0.522,0-0.962-0.037-1.315-0.11c-0.355-0.073-0.724-0.201-1.107-0.384v-1.891
c0.405,0.208,0.826,0.37,1.263,0.486s0.838,0.174,1.203,0.174c0.315,0,0.546-0.054,0.692-0.163c0.147-0.109,0.221-0.25,0.221-0.422
c0-0.107-0.029-0.201-0.088-0.282c-0.061-0.08-0.154-0.162-0.285-0.244s-0.479-0.251-1.045-0.505
c-0.512-0.232-0.896-0.458-1.152-0.677s-0.445-0.469-0.568-0.752c-0.125-0.283-0.186-0.617-0.186-1.004
c0-0.724,0.263-1.288,0.789-1.692s1.25-0.606,2.17-0.606c0.812,0,1.642,0.188,2.486,0.563l-0.649,1.638
c-0.733-0.336-1.368-0.504-1.901-0.504c-0.275,0-0.477,0.048-0.602,0.145s-0.188,0.217-0.188,0.359c0,0.154,0.079,0.292,0.238,0.414
c0.16,0.122,0.592,0.344,1.297,0.666c0.678,0.305,1.146,0.631,1.41,0.98C33.574,32.646,33.705,33.085,33.705,33.615z"/>
</g></svg>